%
M48
M72
T01C0.0120
T02C0.0190
T03C0.0315
T04C0.0354
T05C0.0360
T06C0.0394
T07C0.0400
T08C0.0520
T09C0.0550
T10C0.0570
T11C0.0620
T12C0.0670
T13C0.1060
T14C0.1063
%
T01
X7530Y7180
X7980Y7430
X7530Y7730
X7980Y8030
X8480Y8480
X9330Y8530
X11030Y7130
X11830Y7330
X12530Y7630
X13230Y7930
X11980Y11080
X11280Y11080
X11280Y14280
X11980Y14280
X12880Y17480
X12630Y17830
X14530Y19980
X15280Y19980
X16130Y19980
X16880Y19980
X17780Y19980
X18230Y20430
X18630Y19980
X19530Y19980
X20230Y19480
X20380Y19980
X21180Y19980
X21180Y20630
X21130Y19030
X21130Y18430
X18230Y21780
X17830Y21930
X16980Y21930
X14280Y23130
X14780Y25480
X14380Y25880
X14030Y26330
X13580Y26680
X13180Y27080
X9380Y25230
X7830Y25780
X7330Y26080
X7830Y26355
X8430Y26830
X7330Y25480
X7880Y22730
X7880Y22230
X7880Y21680
X7280Y21930
X7280Y22480
X9780Y21480
X10330Y21730
X10780Y22030
X11280Y22280
X11780Y22530
X21180Y24980
X27180Y23530
X28280Y23980
X28280Y22130
X28880Y21280
X28880Y20680
X28280Y20030
X27680Y20280
X27180Y19330
X28980Y18980
X27180Y21430
X31980Y21580
X31980Y22080
X31980Y22580
X31980Y23580
X31980Y24080
X31980Y25080
X31980Y25580
X31980Y26080
X31980Y26580
X33480Y26580
X33480Y27080
X33980Y27080
X33980Y26580
X33980Y26080
X33980Y25580
X33480Y25580
X33480Y26080
X33480Y25080
X33980Y25080
X33980Y24580
X33430Y24080
X33980Y23580
X33980Y23080
X33980Y21580
X33980Y21080
X33980Y20580
X33980Y19580
X33980Y19080
X33980Y18580
X33980Y18030
X33980Y17580
X33980Y17080
X33980Y16080
X33980Y15580
X33980Y15080
X33980Y14580
X33980Y13580
X33980Y13080
X33980Y12580
X33980Y11580
X33980Y11080
X33980Y10580
X33980Y10080
X33980Y9580
X33980Y9080
X33980Y8580
X33980Y8080
X33980Y7580
X31980Y7580
X31980Y8080
X31980Y8580
X31980Y9080
X31980Y9580
X31980Y10580
X31980Y11080
X32630Y11330
X32630Y11830
X31980Y12080
X31980Y12580
X32580Y12830
X32580Y13330
X31980Y13580
X31980Y14080
X32580Y14330
X32580Y14830
X31980Y15080
X31980Y15580
X32580Y15830
X32580Y16330
X31980Y17080
X32580Y17330
X32580Y17830
X31980Y18580
X31980Y19080
X32580Y19330
X32580Y18830
X31980Y19580
X31980Y20080
X32580Y20330
X26330Y11180
X23180Y8430
X22780Y8580
X21930Y8580
X21480Y8880
X23180Y7080
X23580Y6630
X22730Y6630
X21830Y6630
X21080Y6630
X20230Y6630
X19480Y6630
X18980Y8830
X21130Y11680
X21130Y12180
X26130Y7280
X26130Y6630
X25330Y6630
X24480Y6630
X9430Y6930
T02
X16080Y12880
X17380Y12880
X17880Y13880
X19480Y13880
X19480Y13230
X19480Y12530
X20280Y13480
X20280Y14180
X20280Y15880
X20280Y16530
X18630Y16630
X18630Y17330
X17480Y16980
X18230Y16030
X16180Y16980
X18230Y19430
X17380Y20880
X17380Y21380
X15830Y22430
X15830Y22780
X15830Y23130
X17230Y23830
X19780Y23830
X16630Y26430
X21030Y19430
X25730Y19730
X27180Y16530
X26680Y15380
X26680Y14730
X27180Y13630
X26430Y10680
X22330Y8030
X22330Y7530
X21030Y10680
X18230Y10430
X18980Y6130
X8880Y21180
X35580Y26580
T03
X34780Y30130
T04
X32780Y27980
X25580Y24380
T05
X28180Y16080
X28180Y15080
X28180Y14080
X27130Y8880
X27130Y7880
X27130Y6880
X15230Y8080
X15230Y9080
T06
X22230Y22230
X23230Y22230
X24230Y22230
X25230Y22230
T07
X11780Y23980
X10780Y23980
X9780Y23980
X8780Y23980
T08
X13230Y20330
X31780Y27785
X32980Y6385
T09
X8080Y12980
X8080Y16180
X8080Y19380
T10
X7080Y18380
X7080Y17180
X9080Y17180
X9080Y18380
X9080Y20380
X7080Y20380
X7080Y15180
X7080Y13980
X9080Y13980
X9080Y15180
X9080Y11980
X7080Y11980
T11
X18980Y26580
X23180Y26580
X27380Y26580
T12
X28380Y27580
X28380Y25580
X26380Y25580
X26380Y27580
X24180Y27580
X24180Y25580
X22180Y25580
X22180Y27580
X19980Y27580
X19980Y25580
X17980Y25580
X17980Y27580
T13
X32180Y29480
X32180Y4680
T14
X10684Y5664
X10684Y27928
M30
