G75*
%MOIN*%
%OFA0B0*%
%FSLAX24Y24*%
%IPPOS*%
%LPD*%
%AMOC8*
5,1,8,0,0,1.08239X$1,22.5*
%
%ADD10C,0.1460*%
%ADD11OC8,0.0591*%
%ADD12C,0.0825*%
%ADD13C,0.0855*%
%ADD14C,0.1575*%
%ADD15C,0.0540*%
%ADD16R,0.0420X0.0350*%
%ADD17OC8,0.0600*%
%ADD18C,0.0930*%
%ADD19C,0.1005*%
%ADD20R,0.0480X0.0360*%
%ADD21R,0.0350X0.0420*%
%ADD22OC8,0.0850*%
%ADD23C,0.0200*%
%ADD24C,0.0285*%
%ADD25C,0.0100*%
%ADD26C,0.0120*%
%ADD27C,0.0472*%
%ADD28C,0.0240*%
%ADD29C,0.0531*%
%ADD30C,0.0400*%
%ADD31C,0.0320*%
D10*
X032180Y004680D03*
X032180Y029480D03*
D11*
X025230Y022230D03*
X024230Y022230D03*
X023230Y022230D03*
X022230Y022230D03*
D12*
X008080Y019380D03*
X008080Y016180D03*
X008080Y012980D03*
D13*
X007080Y011980D03*
X009080Y011980D03*
X009080Y013980D03*
X009080Y015180D03*
X007080Y015180D03*
X007080Y013980D03*
X007080Y017180D03*
X007080Y018380D03*
X009080Y018380D03*
X009080Y017180D03*
X009080Y020380D03*
X007080Y020380D03*
D14*
X010684Y027928D03*
X010684Y005664D03*
D15*
X014960Y008080D02*
X015500Y008080D01*
X015500Y009080D02*
X014960Y009080D01*
X026860Y008880D02*
X027400Y008880D01*
X027400Y007880D02*
X026860Y007880D01*
X026860Y006880D02*
X027400Y006880D01*
X027910Y014080D02*
X028450Y014080D01*
X028450Y015080D02*
X027910Y015080D01*
X027910Y016080D02*
X028450Y016080D01*
D16*
X033030Y024090D03*
X033030Y024770D03*
X033030Y025340D03*
X033030Y026020D03*
X033030Y026590D03*
X033030Y027270D03*
X034680Y027270D03*
X034680Y026590D03*
X034680Y026070D03*
X034680Y025390D03*
X034680Y024820D03*
X034680Y024140D03*
D17*
X011780Y023980D03*
X010780Y023980D03*
X009780Y023980D03*
X008780Y023980D03*
D18*
X018980Y026580D03*
X023180Y026580D03*
X027380Y026580D03*
D19*
X028380Y027580D03*
X028380Y025580D03*
X026380Y025580D03*
X026380Y027580D03*
X024180Y027580D03*
X024180Y025580D03*
X022180Y025580D03*
X022180Y027580D03*
X019980Y027580D03*
X019980Y025580D03*
X017980Y025580D03*
X017980Y027580D03*
D20*
X011980Y019389D03*
X011280Y019389D03*
X011280Y017971D03*
X011980Y017971D03*
X011980Y016189D03*
X011280Y016189D03*
X011280Y014771D03*
X011980Y014771D03*
X011980Y012989D03*
X011280Y012989D03*
X011280Y011571D03*
X011980Y011571D03*
D21*
X010620Y012980D03*
X009940Y012980D03*
X009940Y016180D03*
X010620Y016180D03*
X010620Y019380D03*
X009940Y019380D03*
D22*
X013230Y020330D03*
D23*
X007530Y007180D03*
X007980Y007430D03*
X007530Y007730D03*
X007980Y008030D03*
X008480Y008480D03*
X009330Y008530D03*
X011030Y007130D03*
X011830Y007330D03*
X012530Y007630D03*
X013230Y007930D03*
X011980Y011080D03*
X011280Y011080D03*
X011280Y014280D03*
X011980Y014280D03*
X012880Y017480D03*
X012630Y017830D03*
X014530Y019980D03*
X015280Y019980D03*
X016130Y019980D03*
X016880Y019980D03*
X017780Y019980D03*
X018230Y020430D03*
X018630Y019980D03*
X019530Y019980D03*
X020230Y019480D03*
X020380Y019980D03*
X021180Y019980D03*
X021180Y020630D03*
X021130Y019030D03*
X021130Y018430D03*
X018230Y021780D03*
X017830Y021930D03*
X016980Y021930D03*
X014280Y023130D03*
X014780Y025480D03*
X014380Y025880D03*
X014030Y026330D03*
X013580Y026680D03*
X013180Y027080D03*
X009380Y025230D03*
X007830Y025780D03*
X007330Y026080D03*
X007830Y026355D03*
X008430Y026830D03*
X007330Y025480D03*
X007880Y022730D03*
X007880Y022230D03*
X007880Y021680D03*
X007280Y021930D03*
X007280Y022480D03*
X009780Y021480D03*
X010330Y021730D03*
X010780Y022030D03*
X011280Y022280D03*
X011780Y022530D03*
X021180Y024980D03*
X027180Y023530D03*
X028280Y023980D03*
X028280Y022130D03*
X028880Y021280D03*
X028880Y020680D03*
X028280Y020030D03*
X027680Y020280D03*
X027180Y019330D03*
X028980Y018980D03*
X027180Y021430D03*
X031980Y021580D03*
X031980Y022080D03*
X031980Y022580D03*
X031980Y023580D03*
X031980Y024080D03*
X031980Y025080D03*
X031980Y025580D03*
X031980Y026080D03*
X031980Y026580D03*
X033480Y026580D03*
X033480Y027080D03*
X033980Y027080D03*
X033980Y026580D03*
X033980Y026080D03*
X033980Y025580D03*
X033480Y025580D03*
X033480Y026080D03*
X033480Y025080D03*
X033980Y025080D03*
X033980Y024580D03*
X033430Y024080D03*
X033980Y023580D03*
X033980Y023080D03*
X033980Y021580D03*
X033980Y021080D03*
X033980Y020580D03*
X033980Y019580D03*
X033980Y019080D03*
X033980Y018580D03*
X033980Y018030D03*
X033980Y017580D03*
X033980Y017080D03*
X033980Y016080D03*
X033980Y015580D03*
X033980Y015080D03*
X033980Y014580D03*
X033980Y013580D03*
X033980Y013080D03*
X033980Y012580D03*
X033980Y011580D03*
X033980Y011080D03*
X033980Y010580D03*
X033980Y010080D03*
X033980Y009580D03*
X033980Y009080D03*
X033980Y008580D03*
X033980Y008080D03*
X033980Y007580D03*
X031980Y007580D03*
X031980Y008080D03*
X031980Y008580D03*
X031980Y009080D03*
X031980Y009580D03*
X032630Y009830D03*
X032630Y010330D03*
X031980Y010580D03*
X031980Y011080D03*
X032580Y011330D03*
X032580Y011830D03*
X031980Y012080D03*
X031980Y012580D03*
X032580Y012830D03*
X032580Y013330D03*
X031980Y013580D03*
X031980Y014080D03*
X032580Y014330D03*
X032580Y014830D03*
X031980Y015080D03*
X031980Y015580D03*
X032580Y015830D03*
X032580Y016330D03*
X031980Y017080D03*
X031980Y017580D03*
X032580Y017830D03*
X032580Y017330D03*
X031980Y018580D03*
X031980Y019080D03*
X032530Y018830D03*
X031980Y019580D03*
X031980Y020080D03*
X026330Y011180D03*
X023180Y008430D03*
X022780Y008580D03*
X021930Y008580D03*
X021480Y008880D03*
X023180Y007080D03*
X023580Y006630D03*
X022730Y006630D03*
X021830Y006630D03*
X021080Y006630D03*
X020230Y006630D03*
X019480Y006630D03*
X018980Y008830D03*
X021130Y011680D03*
X021130Y012180D03*
X026130Y007280D03*
X026130Y006630D03*
X025330Y006630D03*
X024480Y006630D03*
X009430Y006930D03*
D24*
X016080Y012880D03*
X017380Y012880D03*
X017880Y013880D03*
X019480Y013880D03*
X019480Y013230D03*
X019480Y012530D03*
X020280Y013480D03*
X020280Y014180D03*
X020280Y015880D03*
X020280Y016530D03*
X019480Y016280D03*
X019530Y017330D03*
X018230Y016030D03*
X017480Y016980D03*
X016180Y016980D03*
X018230Y019430D03*
X017380Y020880D03*
X017380Y021380D03*
X015830Y022430D03*
X015830Y022780D03*
X015830Y023130D03*
X017230Y023830D03*
X019780Y023830D03*
X016630Y026430D03*
X021030Y019430D03*
X025730Y019730D03*
X027180Y016530D03*
X026680Y015380D03*
X026680Y014730D03*
X027180Y013630D03*
X026430Y010680D03*
X022330Y008030D03*
X022330Y007530D03*
X021030Y010680D03*
X018230Y010430D03*
X018980Y006130D03*
X008880Y021180D03*
X035580Y026580D03*
D25*
X034680Y026590D02*
X033990Y026590D01*
X033980Y026580D01*
X033980Y027080D02*
X034170Y027270D01*
X034680Y027270D01*
X033480Y027080D02*
X033290Y027270D01*
X033030Y027270D01*
X033030Y026590D02*
X033470Y026590D01*
X033480Y026580D01*
X033480Y026080D02*
X033470Y026070D01*
X033080Y026070D01*
X033030Y026020D01*
X033220Y025580D02*
X033030Y025340D01*
X033220Y025580D02*
X033480Y025580D01*
X033990Y026070D02*
X033980Y026080D01*
X033990Y026070D02*
X034680Y026070D01*
X033480Y025080D02*
X033170Y024770D01*
X033030Y024770D01*
X033030Y024090D02*
X033430Y024090D01*
X033430Y024080D01*
X028880Y021280D02*
X031330Y018830D01*
X032530Y018830D01*
X032580Y017830D02*
X031730Y017830D01*
X028880Y020680D01*
X027680Y020280D02*
X028980Y018980D01*
X030630Y017330D01*
X032580Y017330D01*
X032580Y016330D02*
X031492Y016330D01*
X028080Y012918D01*
X028080Y006280D01*
X027580Y005780D01*
X018780Y005780D01*
X017280Y007280D01*
X015080Y007280D01*
X013530Y008530D01*
X009330Y008530D01*
X008730Y008230D02*
X013430Y008230D01*
X014880Y007080D01*
X017180Y007080D01*
X018680Y005580D01*
X027780Y005580D01*
X028280Y006080D01*
X028280Y012830D01*
X031280Y015830D01*
X032580Y015830D01*
X032580Y014830D02*
X031520Y014830D01*
X028480Y011790D01*
X028480Y005880D01*
X027980Y005380D01*
X018580Y005380D01*
X017080Y006880D01*
X014580Y006880D01*
X013230Y007930D01*
X012730Y007930D02*
X008080Y007930D01*
X007980Y008030D01*
X007530Y007730D02*
X011930Y007730D01*
X013680Y006280D01*
X016780Y006280D01*
X018280Y004780D01*
X028580Y004780D01*
X029080Y005280D01*
X029080Y010628D01*
X031282Y012830D01*
X032580Y012830D01*
X032580Y013330D02*
X031505Y013330D01*
X028880Y010705D01*
X028880Y005480D01*
X028380Y004980D01*
X018380Y004980D01*
X016880Y006480D01*
X013980Y006480D01*
X012530Y007630D01*
X012730Y007930D02*
X014280Y006680D01*
X016980Y006680D01*
X018480Y005180D01*
X028180Y005180D01*
X028680Y005680D01*
X028680Y011710D01*
X031300Y014330D01*
X032580Y014330D01*
X032580Y011830D02*
X031508Y011830D01*
X029280Y009602D01*
X029280Y005080D01*
X028780Y004580D01*
X018180Y004580D01*
X016680Y006080D01*
X013380Y006080D01*
X011830Y007330D01*
X011230Y007430D02*
X013080Y005880D01*
X016580Y005880D01*
X018080Y004380D01*
X028980Y004380D01*
X029480Y004880D01*
X029480Y009512D01*
X031298Y011330D01*
X032580Y011330D01*
X032630Y010330D02*
X031520Y010330D01*
X029680Y008490D01*
X029680Y004680D01*
X029180Y004180D01*
X017980Y004180D01*
X016480Y005680D01*
X012780Y005680D01*
X011030Y007130D01*
X011230Y007430D02*
X007980Y007430D01*
X007530Y007180D02*
X010580Y007180D01*
X012580Y005480D01*
X016380Y005480D01*
X017880Y003980D01*
X029380Y003980D01*
X029880Y004480D01*
X029880Y008208D01*
X031502Y009830D01*
X032630Y009830D01*
X023180Y008430D02*
X023180Y007080D01*
X021130Y011680D02*
X013730Y011680D01*
X012421Y012989D01*
X011980Y012989D01*
X011280Y012989D01*
X010629Y012989D01*
X010620Y012980D01*
X009940Y012980D02*
X008080Y012980D01*
X011280Y014280D02*
X011280Y014771D01*
X011980Y014771D02*
X011980Y014280D01*
X012880Y015480D02*
X012171Y016189D01*
X011980Y016189D01*
X011280Y016189D01*
X011271Y016180D01*
X010620Y016180D01*
X009940Y016180D02*
X008080Y016180D01*
X011280Y017971D02*
X011771Y017480D01*
X012880Y017480D01*
X012630Y017830D02*
X012121Y017830D01*
X011980Y017971D01*
X011980Y019380D02*
X016880Y019380D01*
X017830Y018430D01*
X021130Y018430D01*
X018230Y020430D02*
X018230Y021780D01*
X021280Y024880D02*
X024180Y024880D01*
X027680Y021380D01*
X027680Y020280D01*
X021280Y024880D02*
X021180Y024980D01*
X014780Y025480D02*
X007330Y025480D01*
X007830Y025780D02*
X014280Y025780D01*
X014380Y025880D01*
X014030Y026330D02*
X013780Y026080D01*
X007330Y026080D01*
X007830Y026355D02*
X013255Y026355D01*
X013580Y026680D01*
X013180Y027080D02*
X012930Y026830D01*
X008430Y026830D01*
X007880Y022730D02*
X011580Y022730D01*
X011780Y022530D01*
X011280Y022280D02*
X011080Y022480D01*
X007280Y022480D01*
X007280Y021930D02*
X010130Y021930D01*
X010330Y021730D01*
X010780Y022030D02*
X010580Y022230D01*
X007880Y022230D01*
X007880Y021680D02*
X009580Y021680D01*
X009780Y021480D01*
X009940Y019380D02*
X008080Y019380D01*
X010620Y019380D02*
X010629Y019389D01*
X011280Y019389D01*
X011980Y019389D01*
X011980Y019380D01*
X012880Y015480D02*
X012880Y012930D01*
X013630Y012180D01*
X021130Y012180D01*
X011980Y011571D02*
X011980Y011080D01*
X011280Y011080D02*
X011280Y011571D01*
X008480Y008480D02*
X008730Y008230D01*
D26*
X033980Y024580D02*
X034420Y024140D01*
X034680Y024140D01*
X034680Y024820D02*
X034240Y024820D01*
X033980Y025080D01*
X034170Y025390D02*
X033980Y025580D01*
X034170Y025390D02*
X034680Y025390D01*
D27*
X034780Y030130D03*
D28*
X035580Y028530D02*
X035580Y026580D01*
X035580Y028530D02*
X030980Y028530D01*
X030130Y029380D01*
X017530Y029380D01*
X016630Y028480D01*
X016630Y026430D01*
X027880Y015080D02*
X028180Y015080D01*
X027880Y015080D02*
X025780Y012980D01*
X025780Y009604D01*
X025356Y009180D01*
X021780Y009180D01*
X021480Y008880D01*
X018980Y008830D02*
X018980Y006130D01*
D29*
X025580Y024380D03*
X032780Y027980D03*
D30*
X032430Y027630D01*
X031080Y027230D02*
X030330Y026480D01*
X030330Y025280D01*
X029430Y024380D01*
X025580Y024380D01*
D31*
X031080Y027230D02*
X032030Y027230D01*
X032430Y027630D01*
M02*
