G75*
%MOIN*%
%OFA0B0*%
%FSLAX24Y24*%
%IPPOS*%
%LPD*%
%AMOC8*
5,1,8,0,0,1.08239X$1,22.5*
%
%ADD10C,0.1460*%
%ADD11C,0.0591*%
%ADD12C,0.0825*%
%ADD13C,0.0855*%
%ADD14C,0.1463*%
%ADD15C,0.0540*%
%ADD16C,0.0600*%
%ADD17C,0.0930*%
%ADD18C,0.1005*%
%ADD19C,0.0780*%
%ADD20C,0.0200*%
%ADD21C,0.0285*%
%ADD22C,0.0472*%
%ADD23C,0.0160*%
%ADD24C,0.0100*%
%ADD25C,0.0531*%
D10*
X032180Y004680D03*
X032180Y029480D03*
D11*
X025230Y022230D03*
X024230Y022230D03*
X023230Y022230D03*
X022230Y022230D03*
D12*
X008080Y019380D03*
X008080Y016180D03*
X008080Y012980D03*
D13*
X007080Y011980D03*
X009080Y011980D03*
X009080Y013980D03*
X009080Y015180D03*
X007080Y015180D03*
X007080Y013980D03*
X007080Y017180D03*
X007080Y018380D03*
X009080Y018380D03*
X009080Y017180D03*
X009080Y020380D03*
X007080Y020380D03*
D14*
X010684Y027928D03*
X010684Y005664D03*
D15*
X015230Y008080D03*
X015230Y009080D03*
X027130Y008880D03*
X027130Y007880D03*
X027130Y006880D03*
X028180Y014080D03*
X028180Y015080D03*
X028180Y016080D03*
D16*
X011780Y023980D03*
X010780Y023980D03*
X009780Y023980D03*
X008780Y023980D03*
D17*
X018980Y026580D03*
X023180Y026580D03*
X027380Y026580D03*
D18*
X028380Y027580D03*
X028380Y025580D03*
X026380Y025580D03*
X026380Y027580D03*
X024180Y027580D03*
X024180Y025580D03*
X022180Y025580D03*
X022180Y027580D03*
X019980Y027580D03*
X019980Y025580D03*
X017980Y025580D03*
X017980Y027580D03*
D19*
X013230Y020330D03*
D20*
X014530Y019980D03*
X015280Y019980D03*
X016130Y019980D03*
X016880Y019980D03*
X017780Y019980D03*
X018230Y020430D03*
X018630Y019980D03*
X019530Y019980D03*
X020230Y019480D03*
X020380Y019980D03*
X021180Y019980D03*
X021180Y020630D03*
X021130Y019030D03*
X021130Y018430D03*
X018230Y021780D03*
X017830Y021930D03*
X016980Y021930D03*
X014280Y023130D03*
X014780Y025480D03*
X014380Y025880D03*
X014030Y026330D03*
X013580Y026680D03*
X013180Y027080D03*
X009380Y025230D03*
X007830Y025780D03*
X007330Y026080D03*
X007830Y026355D03*
X008430Y026830D03*
X007330Y025480D03*
X007880Y022730D03*
X007880Y022230D03*
X007880Y021680D03*
X007280Y021930D03*
X007280Y022480D03*
X009780Y021480D03*
X010330Y021730D03*
X010780Y022030D03*
X011280Y022280D03*
X011780Y022530D03*
X012630Y017830D03*
X012880Y017480D03*
X011980Y014280D03*
X011280Y014280D03*
X011280Y011080D03*
X011980Y011080D03*
X009330Y008530D03*
X008480Y008480D03*
X007980Y008030D03*
X007530Y007730D03*
X007980Y007430D03*
X007530Y007180D03*
X009430Y006930D03*
X011030Y007130D03*
X011830Y007330D03*
X012530Y007630D03*
X013230Y007930D03*
X018980Y008830D03*
X019480Y006630D03*
X020230Y006630D03*
X021080Y006630D03*
X021830Y006630D03*
X022730Y006630D03*
X023180Y007080D03*
X023580Y006630D03*
X024480Y006630D03*
X025330Y006630D03*
X026130Y006630D03*
X026130Y007280D03*
X023180Y008430D03*
X022780Y008580D03*
X021930Y008580D03*
X021480Y008880D03*
X021130Y011680D03*
X021130Y012180D03*
X026330Y011180D03*
X031980Y011080D03*
X031980Y010580D03*
X031980Y009580D03*
X031980Y009080D03*
X031980Y008580D03*
X031980Y008080D03*
X031980Y007580D03*
X033980Y007580D03*
X033980Y008080D03*
X033980Y008580D03*
X033980Y009080D03*
X033980Y009580D03*
X033980Y010080D03*
X033980Y010580D03*
X033980Y011080D03*
X033980Y011580D03*
X033980Y012580D03*
X033980Y013080D03*
X033980Y013580D03*
X033980Y014580D03*
X033980Y015080D03*
X033980Y015580D03*
X033980Y016080D03*
X033980Y017080D03*
X033980Y017580D03*
X033980Y018030D03*
X033980Y018580D03*
X033980Y019080D03*
X033980Y019580D03*
X033980Y020580D03*
X033980Y021080D03*
X033980Y021580D03*
X033980Y023080D03*
X033980Y023580D03*
X033430Y024080D03*
X033980Y024580D03*
X033980Y025080D03*
X033480Y025080D03*
X033480Y025580D03*
X033480Y026080D03*
X033980Y026080D03*
X033980Y025580D03*
X033980Y026580D03*
X033980Y027080D03*
X033480Y027080D03*
X033480Y026580D03*
X031980Y026580D03*
X031980Y026080D03*
X031980Y025580D03*
X031980Y025080D03*
X031980Y024080D03*
X031980Y023580D03*
X031980Y022580D03*
X031980Y022080D03*
X031980Y021580D03*
X032580Y020330D03*
X031980Y020080D03*
X031980Y019580D03*
X032580Y019330D03*
X032580Y018830D03*
X031980Y018580D03*
X031980Y019080D03*
X032580Y017830D03*
X032580Y017330D03*
X031980Y017080D03*
X032580Y016330D03*
X032580Y015830D03*
X031980Y015580D03*
X031980Y015080D03*
X032580Y014830D03*
X032580Y014330D03*
X031980Y014080D03*
X031980Y013580D03*
X032580Y013330D03*
X032580Y012830D03*
X031980Y012580D03*
X031980Y012080D03*
X032630Y011830D03*
X032630Y011330D03*
X028980Y018980D03*
X028280Y020030D03*
X027680Y020280D03*
X027180Y019330D03*
X028880Y020680D03*
X028880Y021280D03*
X028280Y022130D03*
X027180Y021430D03*
X027180Y023530D03*
X028280Y023980D03*
X021180Y024980D03*
D21*
X019780Y023830D03*
X017230Y023830D03*
X015830Y023130D03*
X015830Y022780D03*
X015830Y022430D03*
X017380Y021380D03*
X017380Y020880D03*
X018230Y019430D03*
X018630Y017330D03*
X018630Y016630D03*
X018230Y016030D03*
X017480Y016980D03*
X016180Y016980D03*
X017880Y013880D03*
X017380Y012880D03*
X016080Y012880D03*
X018230Y010430D03*
X019480Y012530D03*
X019480Y013230D03*
X019480Y013880D03*
X020280Y014180D03*
X020280Y013480D03*
X020280Y015880D03*
X020280Y016530D03*
X021030Y019430D03*
X025730Y019730D03*
X027180Y016530D03*
X026680Y015380D03*
X026680Y014730D03*
X027180Y013630D03*
X026430Y010680D03*
X022330Y008030D03*
X022330Y007530D03*
X021030Y010680D03*
X018980Y006130D03*
X008880Y021180D03*
X016630Y026430D03*
X035580Y026580D03*
D22*
X034780Y030130D03*
D23*
X006558Y009380D02*
X006558Y006680D01*
X009354Y006680D01*
X009283Y006710D01*
X009210Y006783D01*
X009170Y006878D01*
X009170Y006982D01*
X009210Y007077D01*
X009283Y007150D01*
X009378Y007190D01*
X009482Y007190D01*
X009577Y007150D01*
X009650Y007077D01*
X009690Y006982D01*
X009690Y006878D01*
X009650Y006783D01*
X009577Y006710D01*
X009506Y006680D01*
X010952Y006680D01*
X011074Y006670D01*
X011193Y006642D01*
X011305Y006595D01*
X011409Y006531D01*
X011502Y006452D01*
X011581Y006359D01*
X011645Y006255D01*
X011692Y006143D01*
X011720Y006024D01*
X011730Y005902D01*
X011730Y004885D01*
X016748Y004885D01*
X016968Y004794D01*
X016968Y004794D01*
X017136Y004625D01*
X017136Y004625D01*
X017228Y004405D01*
X017228Y004371D01*
X017228Y003704D01*
X036266Y003704D01*
X036266Y030459D01*
X035011Y030459D01*
X035116Y030354D01*
X035176Y030209D01*
X035176Y030051D01*
X035116Y029906D01*
X035004Y029794D01*
X034859Y029734D01*
X034701Y029734D01*
X034556Y029794D01*
X034444Y029906D01*
X034384Y030051D01*
X034384Y030209D01*
X034444Y030354D01*
X034549Y030459D01*
X015338Y030459D01*
X015338Y029915D01*
X015247Y029695D01*
X015247Y029695D01*
X015078Y029527D01*
X015078Y029527D01*
X014858Y029436D01*
X011780Y029436D01*
X011780Y027990D01*
X011769Y027832D01*
X011735Y027677D01*
X011680Y027529D01*
X011604Y027390D01*
X011509Y027263D01*
X011397Y027151D01*
X011270Y027056D01*
X011131Y026980D01*
X010983Y026925D01*
X010828Y026891D01*
X010670Y026880D01*
X008690Y026880D01*
X008690Y026778D01*
X008650Y026683D01*
X008577Y026610D01*
X008482Y026570D01*
X008378Y026570D01*
X008283Y026610D01*
X008210Y026683D01*
X008170Y026778D01*
X008170Y026880D01*
X006558Y026880D01*
X006558Y024730D01*
X021104Y024730D01*
X021033Y024760D01*
X020960Y024833D01*
X020920Y024928D01*
X020920Y025032D01*
X020960Y025127D01*
X021033Y025200D01*
X021128Y025240D01*
X021232Y025240D01*
X021327Y025200D01*
X021400Y025127D01*
X021440Y025032D01*
X021440Y024928D01*
X021400Y024833D01*
X021327Y024760D01*
X021256Y024730D01*
X024230Y024730D01*
X024230Y022685D01*
X024321Y022685D01*
X024488Y022616D01*
X024616Y022488D01*
X024685Y022321D01*
X024685Y022139D01*
X024616Y021972D01*
X024488Y021844D01*
X024321Y021775D01*
X024230Y021775D01*
X024230Y021330D01*
X025330Y021330D01*
X025330Y009380D01*
X015538Y009380D01*
X015595Y009324D01*
X015660Y009166D01*
X015660Y008994D01*
X015595Y008836D01*
X015474Y008715D01*
X015316Y008650D01*
X015144Y008650D01*
X014986Y008715D01*
X014865Y008836D01*
X014800Y008994D01*
X014800Y009166D01*
X014865Y009324D01*
X014922Y009380D01*
X006558Y009380D01*
X006558Y009277D02*
X014846Y009277D01*
X014800Y009118D02*
X006558Y009118D01*
X006558Y008960D02*
X014814Y008960D01*
X014901Y008801D02*
X006558Y008801D01*
X006558Y008643D02*
X008275Y008643D01*
X008260Y008627D02*
X008220Y008532D01*
X008220Y008428D01*
X008260Y008333D01*
X008333Y008260D01*
X008428Y008220D01*
X008532Y008220D01*
X008627Y008260D01*
X008700Y008333D01*
X008740Y008428D01*
X008740Y008532D01*
X008700Y008627D01*
X008627Y008700D01*
X008532Y008740D01*
X008428Y008740D01*
X008333Y008700D01*
X008260Y008627D01*
X008220Y008484D02*
X006558Y008484D01*
X006558Y008326D02*
X008267Y008326D01*
X008127Y008250D02*
X008032Y008290D01*
X007928Y008290D01*
X007833Y008250D01*
X007760Y008177D01*
X007720Y008082D01*
X007720Y007978D01*
X007760Y007883D01*
X007833Y007810D01*
X007928Y007770D01*
X008032Y007770D01*
X008127Y007810D01*
X008200Y007883D01*
X008240Y007978D01*
X008240Y008082D01*
X008200Y008177D01*
X008127Y008250D01*
X008205Y008167D02*
X013123Y008167D01*
X013083Y008150D02*
X013010Y008077D01*
X012970Y007982D01*
X012970Y007878D01*
X013010Y007783D01*
X013083Y007710D01*
X013178Y007670D01*
X013282Y007670D01*
X013377Y007710D01*
X013450Y007783D01*
X013490Y007878D01*
X013490Y007982D01*
X013450Y008077D01*
X013377Y008150D01*
X013282Y008190D01*
X013178Y008190D01*
X013083Y008150D01*
X012981Y008009D02*
X008240Y008009D01*
X008168Y007850D02*
X012382Y007850D01*
X012383Y007850D02*
X012310Y007777D01*
X012270Y007682D01*
X012270Y007578D01*
X012310Y007483D01*
X012383Y007410D01*
X012478Y007370D01*
X012582Y007370D01*
X012677Y007410D01*
X012750Y007483D01*
X012790Y007578D01*
X012790Y007682D01*
X012750Y007777D01*
X012677Y007850D01*
X012582Y007890D01*
X012478Y007890D01*
X012383Y007850D01*
X012274Y007692D02*
X007790Y007692D01*
X007790Y007678D02*
X007750Y007583D01*
X007677Y007510D01*
X007582Y007470D01*
X007478Y007470D01*
X007383Y007510D01*
X007310Y007583D01*
X007270Y007678D01*
X007270Y007782D01*
X007310Y007877D01*
X007383Y007950D01*
X007478Y007990D01*
X007582Y007990D01*
X007677Y007950D01*
X007750Y007877D01*
X007790Y007782D01*
X007790Y007678D01*
X007833Y007650D02*
X007760Y007577D01*
X007720Y007482D01*
X007720Y007378D01*
X007735Y007343D01*
X007677Y007400D01*
X007582Y007440D01*
X007478Y007440D01*
X007383Y007400D01*
X007310Y007327D01*
X007270Y007232D01*
X007270Y007128D01*
X007310Y007033D01*
X007383Y006960D01*
X007478Y006920D01*
X007582Y006920D01*
X007677Y006960D01*
X007750Y007033D01*
X007790Y007128D01*
X007790Y007232D01*
X007775Y007267D01*
X007833Y007210D01*
X007928Y007170D01*
X008032Y007170D01*
X008127Y007210D01*
X008200Y007283D01*
X008240Y007378D01*
X008240Y007482D01*
X008200Y007577D01*
X008127Y007650D01*
X008032Y007690D01*
X007928Y007690D01*
X007833Y007650D01*
X007741Y007533D02*
X007701Y007533D01*
X007703Y007375D02*
X007722Y007375D01*
X007790Y007216D02*
X007826Y007216D01*
X007761Y007058D02*
X009201Y007058D01*
X009170Y006899D02*
X006558Y006899D01*
X006558Y006741D02*
X009252Y006741D01*
X009608Y006741D02*
X019244Y006741D01*
X019260Y006777D02*
X019220Y006682D01*
X019220Y006578D01*
X019260Y006483D01*
X019333Y006410D01*
X019428Y006370D01*
X019532Y006370D01*
X019627Y006410D01*
X019700Y006483D01*
X019740Y006578D01*
X019740Y006682D01*
X019700Y006777D01*
X019627Y006850D01*
X019532Y006890D01*
X019428Y006890D01*
X019333Y006850D01*
X019260Y006777D01*
X019220Y006582D02*
X011327Y006582D01*
X011527Y006424D02*
X018898Y006424D01*
X018920Y006432D02*
X018809Y006386D01*
X018724Y006301D01*
X018678Y006190D01*
X018678Y006070D01*
X018724Y005959D01*
X018809Y005874D01*
X018920Y005828D01*
X019040Y005828D01*
X019151Y005874D01*
X019236Y005959D01*
X019282Y006070D01*
X019282Y006190D01*
X019236Y006301D01*
X019151Y006386D01*
X019040Y006432D01*
X018920Y006432D01*
X019062Y006424D02*
X019319Y006424D01*
X019252Y006265D02*
X032553Y006265D01*
X032540Y006297D02*
X032607Y006136D01*
X032731Y006012D01*
X032892Y005945D01*
X033068Y005945D01*
X033229Y006012D01*
X033353Y006136D01*
X033420Y006297D01*
X033420Y006473D01*
X033353Y006634D01*
X033229Y006758D01*
X033068Y006825D01*
X032892Y006825D01*
X032731Y006758D01*
X032607Y006634D01*
X032540Y006473D01*
X032540Y006297D01*
X032540Y006424D02*
X026291Y006424D01*
X026277Y006410D02*
X026350Y006483D01*
X026390Y006578D01*
X026390Y006682D01*
X026350Y006777D01*
X026277Y006850D01*
X026182Y006890D01*
X026078Y006890D01*
X025983Y006850D01*
X025910Y006777D01*
X025870Y006682D01*
X025870Y006578D01*
X025910Y006483D01*
X025983Y006410D01*
X026078Y006370D01*
X026182Y006370D01*
X026277Y006410D01*
X026390Y006582D02*
X026820Y006582D01*
X026765Y006636D02*
X026886Y006515D01*
X027044Y006450D01*
X027216Y006450D01*
X027374Y006515D01*
X027495Y006636D01*
X027560Y006794D01*
X027560Y006966D01*
X027495Y007124D01*
X027374Y007245D01*
X027216Y007310D01*
X027044Y007310D01*
X026886Y007245D01*
X026765Y007124D01*
X026700Y006966D01*
X026700Y006794D01*
X026765Y006636D01*
X026722Y006741D02*
X026366Y006741D01*
X026272Y007058D02*
X026738Y007058D01*
X026700Y006899D02*
X023367Y006899D01*
X023400Y006933D02*
X023327Y006860D01*
X023232Y006820D01*
X023128Y006820D01*
X023033Y006860D01*
X022960Y006933D01*
X022920Y007028D01*
X022920Y007132D01*
X022960Y007227D01*
X023033Y007300D01*
X023128Y007340D01*
X023232Y007340D01*
X023327Y007300D01*
X023400Y007227D01*
X023440Y007132D01*
X023440Y007028D01*
X023400Y006933D01*
X023433Y006850D02*
X023360Y006777D01*
X023320Y006682D01*
X023320Y006578D01*
X023360Y006483D01*
X023433Y006410D01*
X023528Y006370D01*
X023632Y006370D01*
X023727Y006410D01*
X023800Y006483D01*
X023840Y006578D01*
X023840Y006682D01*
X023800Y006777D01*
X023727Y006850D01*
X023632Y006890D01*
X023528Y006890D01*
X023433Y006850D01*
X023344Y006741D02*
X022966Y006741D01*
X022950Y006777D02*
X022877Y006850D01*
X022782Y006890D01*
X022678Y006890D01*
X022583Y006850D01*
X022510Y006777D01*
X022470Y006682D01*
X022470Y006578D01*
X022510Y006483D01*
X022583Y006410D01*
X022678Y006370D01*
X022782Y006370D01*
X022877Y006410D01*
X022950Y006483D01*
X022990Y006578D01*
X022990Y006682D01*
X022950Y006777D01*
X022993Y006899D02*
X011152Y006899D01*
X011177Y006910D02*
X011250Y006983D01*
X011290Y007078D01*
X011290Y007182D01*
X011250Y007277D01*
X011177Y007350D01*
X011082Y007390D01*
X010978Y007390D01*
X010883Y007350D01*
X010810Y007277D01*
X010770Y007182D01*
X010770Y007078D01*
X010810Y006983D01*
X010883Y006910D01*
X010978Y006870D01*
X011082Y006870D01*
X011177Y006910D01*
X011281Y007058D02*
X022920Y007058D01*
X022955Y007216D02*
X012064Y007216D01*
X012050Y007183D02*
X012090Y007278D01*
X012090Y007382D01*
X012050Y007477D01*
X011977Y007550D01*
X011882Y007590D01*
X011778Y007590D01*
X011683Y007550D01*
X011610Y007477D01*
X011570Y007382D01*
X011570Y007278D01*
X011610Y007183D01*
X011683Y007110D01*
X011778Y007070D01*
X011882Y007070D01*
X011977Y007110D01*
X012050Y007183D01*
X012090Y007375D02*
X012467Y007375D01*
X012593Y007375D02*
X022067Y007375D01*
X022074Y007359D02*
X022159Y007274D01*
X022270Y007228D01*
X022390Y007228D01*
X022501Y007274D01*
X022586Y007359D01*
X022632Y007470D01*
X022632Y007590D01*
X022586Y007701D01*
X022508Y007780D01*
X022586Y007859D01*
X022632Y007970D01*
X022632Y008090D01*
X022586Y008201D01*
X022501Y008286D01*
X022390Y008332D01*
X022270Y008332D01*
X022159Y008286D01*
X022074Y008201D01*
X022028Y008090D01*
X022028Y007970D01*
X022074Y007859D01*
X022152Y007780D01*
X022074Y007701D01*
X022028Y007590D01*
X022028Y007470D01*
X022074Y007359D01*
X022028Y007533D02*
X012771Y007533D01*
X012786Y007692D02*
X013126Y007692D01*
X013334Y007692D02*
X015044Y007692D01*
X014986Y007715D02*
X015144Y007650D01*
X015316Y007650D01*
X015474Y007715D01*
X015595Y007836D01*
X015660Y007994D01*
X015660Y008166D01*
X015595Y008324D01*
X015474Y008445D01*
X015316Y008510D01*
X015144Y008510D01*
X014986Y008445D01*
X014865Y008324D01*
X014800Y008166D01*
X014800Y007994D01*
X014865Y007836D01*
X014986Y007715D01*
X014860Y007850D02*
X013478Y007850D01*
X013479Y008009D02*
X014800Y008009D01*
X014801Y008167D02*
X013337Y008167D01*
X012982Y007850D02*
X012678Y007850D01*
X012289Y007533D02*
X011995Y007533D01*
X011665Y007533D02*
X008219Y007533D01*
X008238Y007375D02*
X010941Y007375D01*
X011119Y007375D02*
X011570Y007375D01*
X011596Y007216D02*
X011276Y007216D01*
X010908Y006899D02*
X009690Y006899D01*
X009659Y007058D02*
X010779Y007058D01*
X010784Y007216D02*
X008134Y007216D01*
X007792Y007850D02*
X007762Y007850D01*
X007720Y008009D02*
X006558Y008009D01*
X006558Y008167D02*
X007755Y008167D01*
X007298Y007850D02*
X006558Y007850D01*
X006558Y007692D02*
X007270Y007692D01*
X007359Y007533D02*
X006558Y007533D01*
X006558Y007375D02*
X007357Y007375D01*
X007270Y007216D02*
X006558Y007216D01*
X006558Y007058D02*
X007299Y007058D01*
X008693Y008326D02*
X009167Y008326D01*
X009183Y008310D02*
X009278Y008270D01*
X009382Y008270D01*
X009477Y008310D01*
X009550Y008383D01*
X009590Y008478D01*
X009590Y008582D01*
X009550Y008677D01*
X009477Y008750D01*
X009382Y008790D01*
X009278Y008790D01*
X009183Y008750D01*
X009110Y008677D01*
X009070Y008582D01*
X009070Y008478D01*
X009110Y008383D01*
X009183Y008310D01*
X009070Y008484D02*
X008740Y008484D01*
X008685Y008643D02*
X009095Y008643D01*
X009565Y008643D02*
X018800Y008643D01*
X018833Y008610D02*
X018928Y008570D01*
X019032Y008570D01*
X019127Y008610D01*
X019200Y008683D01*
X019240Y008778D01*
X019240Y008882D01*
X019200Y008977D01*
X019127Y009050D01*
X019032Y009090D01*
X018928Y009090D01*
X018833Y009050D01*
X018760Y008977D01*
X018720Y008882D01*
X018720Y008778D01*
X018760Y008683D01*
X018833Y008610D01*
X018720Y008801D02*
X015559Y008801D01*
X015646Y008960D02*
X018752Y008960D01*
X019160Y008643D02*
X021374Y008643D01*
X021333Y008660D02*
X021428Y008620D01*
X021532Y008620D01*
X021627Y008660D01*
X021700Y008733D01*
X021740Y008828D01*
X021740Y008932D01*
X021700Y009027D01*
X021627Y009100D01*
X021532Y009140D01*
X021428Y009140D01*
X021333Y009100D01*
X021260Y009027D01*
X021220Y008932D01*
X021220Y008828D01*
X021260Y008733D01*
X021333Y008660D01*
X021231Y008801D02*
X019240Y008801D01*
X019208Y008960D02*
X021232Y008960D01*
X021375Y009118D02*
X015660Y009118D01*
X015614Y009277D02*
X026964Y009277D01*
X026886Y009245D02*
X026765Y009124D01*
X026700Y008966D01*
X026700Y008794D01*
X026765Y008636D01*
X026886Y008515D01*
X027044Y008450D01*
X027216Y008450D01*
X027374Y008515D01*
X027495Y008636D01*
X027560Y008794D01*
X027560Y008966D01*
X027495Y009124D01*
X027374Y009245D01*
X027216Y009310D01*
X027044Y009310D01*
X026886Y009245D01*
X026763Y009118D02*
X021585Y009118D01*
X021728Y008960D02*
X026700Y008960D01*
X026700Y008801D02*
X022926Y008801D01*
X022927Y008800D02*
X022832Y008840D01*
X022728Y008840D01*
X022633Y008800D01*
X022560Y008727D01*
X022520Y008632D01*
X022520Y008528D01*
X022560Y008433D01*
X022633Y008360D01*
X022728Y008320D01*
X022832Y008320D01*
X022927Y008360D01*
X022928Y008360D01*
X022960Y008283D01*
X023033Y008210D01*
X023128Y008170D01*
X023232Y008170D01*
X023327Y008210D01*
X023400Y008283D01*
X023440Y008378D01*
X023440Y008482D01*
X023400Y008577D01*
X023327Y008650D01*
X023232Y008690D01*
X023128Y008690D01*
X023033Y008650D01*
X023032Y008650D01*
X023000Y008727D01*
X022927Y008800D01*
X022634Y008801D02*
X022076Y008801D01*
X022077Y008800D02*
X021982Y008840D01*
X021878Y008840D01*
X021783Y008800D01*
X021710Y008727D01*
X021670Y008632D01*
X021670Y008528D01*
X021710Y008433D01*
X021783Y008360D01*
X021878Y008320D01*
X021982Y008320D01*
X022077Y008360D01*
X022150Y008433D01*
X022190Y008528D01*
X022190Y008632D01*
X022150Y008727D01*
X022077Y008800D01*
X022186Y008643D02*
X022524Y008643D01*
X022538Y008484D02*
X022172Y008484D01*
X022253Y008326D02*
X021995Y008326D01*
X021865Y008326D02*
X015593Y008326D01*
X015659Y008167D02*
X022059Y008167D01*
X022028Y008009D02*
X015660Y008009D01*
X015600Y007850D02*
X022082Y007850D01*
X022069Y007692D02*
X015416Y007692D01*
X015378Y008484D02*
X021688Y008484D01*
X021674Y008643D02*
X021586Y008643D01*
X021729Y008801D02*
X021784Y008801D01*
X022407Y008326D02*
X022715Y008326D01*
X022845Y008326D02*
X022942Y008326D01*
X022601Y008167D02*
X026809Y008167D01*
X026765Y008124D02*
X026700Y007966D01*
X026700Y007794D01*
X026765Y007636D01*
X026886Y007515D01*
X027044Y007450D01*
X027216Y007450D01*
X027374Y007515D01*
X027495Y007636D01*
X027560Y007794D01*
X027560Y007966D01*
X027495Y008124D01*
X027374Y008245D01*
X027216Y008310D01*
X027044Y008310D01*
X026886Y008245D01*
X026765Y008124D01*
X026718Y008009D02*
X022632Y008009D01*
X022578Y007850D02*
X026700Y007850D01*
X026743Y007692D02*
X022591Y007692D01*
X022632Y007533D02*
X026061Y007533D01*
X026078Y007540D02*
X025983Y007500D01*
X025910Y007427D01*
X025870Y007332D01*
X025870Y007228D01*
X025910Y007133D01*
X025983Y007060D01*
X026078Y007020D01*
X026182Y007020D01*
X026277Y007060D01*
X026350Y007133D01*
X026390Y007228D01*
X026390Y007332D01*
X026350Y007427D01*
X026277Y007500D01*
X026182Y007540D01*
X026078Y007540D01*
X026199Y007533D02*
X026869Y007533D01*
X026858Y007216D02*
X026385Y007216D01*
X026372Y007375D02*
X031818Y007375D01*
X031833Y007360D02*
X031928Y007320D01*
X032032Y007320D01*
X032127Y007360D01*
X032200Y007433D01*
X032240Y007528D01*
X032240Y007632D01*
X032200Y007727D01*
X032127Y007800D01*
X032056Y007830D01*
X032127Y007860D01*
X032200Y007933D01*
X032240Y008028D01*
X032240Y008132D01*
X032200Y008227D01*
X032127Y008300D01*
X032056Y008330D01*
X032127Y008360D01*
X032200Y008433D01*
X032240Y008528D01*
X032240Y008632D01*
X032200Y008727D01*
X032127Y008800D01*
X032056Y008830D01*
X032127Y008860D01*
X032200Y008933D01*
X032240Y009028D01*
X032240Y009132D01*
X032200Y009227D01*
X032127Y009300D01*
X032056Y009330D01*
X032127Y009360D01*
X032200Y009433D01*
X032240Y009528D01*
X032240Y009632D01*
X032200Y009727D01*
X032127Y009800D01*
X032032Y009840D01*
X031928Y009840D01*
X031833Y009800D01*
X031760Y009727D01*
X031720Y009632D01*
X031720Y009528D01*
X031760Y009433D01*
X031833Y009360D01*
X031904Y009330D01*
X031833Y009300D01*
X031760Y009227D01*
X031720Y009132D01*
X031720Y009028D01*
X031760Y008933D01*
X031833Y008860D01*
X031904Y008830D01*
X031833Y008800D01*
X031760Y008727D01*
X031720Y008632D01*
X031720Y008528D01*
X031760Y008433D01*
X031833Y008360D01*
X031904Y008330D01*
X031833Y008300D01*
X031760Y008227D01*
X031720Y008132D01*
X031720Y008028D01*
X031760Y007933D01*
X031833Y007860D01*
X031904Y007830D01*
X031833Y007800D01*
X031760Y007727D01*
X031720Y007632D01*
X031720Y007528D01*
X031760Y007433D01*
X031833Y007360D01*
X031720Y007533D02*
X027391Y007533D01*
X027517Y007692D02*
X031745Y007692D01*
X031856Y007850D02*
X027560Y007850D01*
X027542Y008009D02*
X031728Y008009D01*
X031735Y008167D02*
X027451Y008167D01*
X027298Y008484D02*
X031738Y008484D01*
X031724Y008643D02*
X027497Y008643D01*
X027560Y008801D02*
X031834Y008801D01*
X031748Y008960D02*
X027560Y008960D01*
X027497Y009118D02*
X031720Y009118D01*
X031809Y009277D02*
X027296Y009277D01*
X026763Y008643D02*
X023335Y008643D01*
X023439Y008484D02*
X026962Y008484D01*
X027402Y007216D02*
X036266Y007216D01*
X036266Y007058D02*
X027522Y007058D01*
X027560Y006899D02*
X036266Y006899D01*
X036266Y006741D02*
X033247Y006741D01*
X033375Y006582D02*
X036266Y006582D01*
X036266Y006424D02*
X033420Y006424D01*
X033407Y006265D02*
X036266Y006265D01*
X036266Y006107D02*
X033324Y006107D01*
X033075Y005948D02*
X036266Y005948D01*
X036266Y005790D02*
X011730Y005790D01*
X011726Y005948D02*
X018734Y005948D01*
X018678Y006107D02*
X011701Y006107D01*
X011639Y006265D02*
X018708Y006265D01*
X019282Y006107D02*
X032636Y006107D01*
X032885Y005948D02*
X019226Y005948D01*
X019641Y006424D02*
X020069Y006424D01*
X020083Y006410D02*
X020178Y006370D01*
X020282Y006370D01*
X020377Y006410D01*
X020450Y006483D01*
X020490Y006578D01*
X020490Y006682D01*
X020450Y006777D01*
X020377Y006850D01*
X020282Y006890D01*
X020178Y006890D01*
X020083Y006850D01*
X020010Y006777D01*
X019970Y006682D01*
X019970Y006578D01*
X020010Y006483D01*
X020083Y006410D01*
X019970Y006582D02*
X019740Y006582D01*
X019716Y006741D02*
X019994Y006741D01*
X020466Y006741D02*
X020844Y006741D01*
X020860Y006777D02*
X020820Y006682D01*
X020820Y006578D01*
X020860Y006483D01*
X020933Y006410D01*
X021028Y006370D01*
X021132Y006370D01*
X021227Y006410D01*
X021300Y006483D01*
X021340Y006578D01*
X021340Y006682D01*
X021300Y006777D01*
X021227Y006850D01*
X021132Y006890D01*
X021028Y006890D01*
X020933Y006850D01*
X020860Y006777D01*
X020820Y006582D02*
X020490Y006582D01*
X020391Y006424D02*
X020919Y006424D01*
X021241Y006424D02*
X021669Y006424D01*
X021683Y006410D02*
X021778Y006370D01*
X021882Y006370D01*
X021977Y006410D01*
X022050Y006483D01*
X022090Y006578D01*
X022090Y006682D01*
X022050Y006777D01*
X021977Y006850D01*
X021882Y006890D01*
X021778Y006890D01*
X021683Y006850D01*
X021610Y006777D01*
X021570Y006682D01*
X021570Y006578D01*
X021610Y006483D01*
X021683Y006410D01*
X021570Y006582D02*
X021340Y006582D01*
X021316Y006741D02*
X021594Y006741D01*
X022066Y006741D02*
X022494Y006741D01*
X022470Y006582D02*
X022090Y006582D01*
X021991Y006424D02*
X022569Y006424D01*
X022891Y006424D02*
X023419Y006424D01*
X023320Y006582D02*
X022990Y006582D01*
X023440Y007058D02*
X025988Y007058D01*
X025875Y007216D02*
X023405Y007216D01*
X023816Y006741D02*
X024244Y006741D01*
X024260Y006777D02*
X024220Y006682D01*
X024220Y006578D01*
X024260Y006483D01*
X024333Y006410D01*
X024428Y006370D01*
X024532Y006370D01*
X024627Y006410D01*
X024700Y006483D01*
X024740Y006578D01*
X024740Y006682D01*
X024700Y006777D01*
X024627Y006850D01*
X024532Y006890D01*
X024428Y006890D01*
X024333Y006850D01*
X024260Y006777D01*
X024220Y006582D02*
X023840Y006582D01*
X023741Y006424D02*
X024319Y006424D01*
X024641Y006424D02*
X025169Y006424D01*
X025183Y006410D02*
X025278Y006370D01*
X025382Y006370D01*
X025477Y006410D01*
X025550Y006483D01*
X025590Y006578D01*
X025590Y006682D01*
X025550Y006777D01*
X025477Y006850D01*
X025382Y006890D01*
X025278Y006890D01*
X025183Y006850D01*
X025110Y006777D01*
X025070Y006682D01*
X025070Y006578D01*
X025110Y006483D01*
X025183Y006410D01*
X025070Y006582D02*
X024740Y006582D01*
X024716Y006741D02*
X025094Y006741D01*
X025566Y006741D02*
X025894Y006741D01*
X025870Y006582D02*
X025590Y006582D01*
X025491Y006424D02*
X025969Y006424D01*
X025888Y007375D02*
X022593Y007375D01*
X023418Y008326D02*
X031893Y008326D01*
X032067Y008326D02*
X033893Y008326D01*
X033904Y008330D02*
X033833Y008300D01*
X033760Y008227D01*
X033720Y008132D01*
X033720Y008028D01*
X033760Y007933D01*
X033833Y007860D01*
X033904Y007830D01*
X033833Y007800D01*
X033760Y007727D01*
X033720Y007632D01*
X033720Y007528D01*
X033760Y007433D01*
X033833Y007360D01*
X033928Y007320D01*
X034032Y007320D01*
X034127Y007360D01*
X034200Y007433D01*
X034240Y007528D01*
X034240Y007632D01*
X034200Y007727D01*
X034127Y007800D01*
X034056Y007830D01*
X034127Y007860D01*
X034200Y007933D01*
X034240Y008028D01*
X034240Y008132D01*
X034200Y008227D01*
X034127Y008300D01*
X034056Y008330D01*
X034127Y008360D01*
X034200Y008433D01*
X034240Y008528D01*
X034240Y008632D01*
X034200Y008727D01*
X034127Y008800D01*
X034056Y008830D01*
X034127Y008860D01*
X034200Y008933D01*
X034240Y009028D01*
X034240Y009132D01*
X034200Y009227D01*
X034127Y009300D01*
X034056Y009330D01*
X034127Y009360D01*
X034200Y009433D01*
X034240Y009528D01*
X034240Y009632D01*
X034200Y009727D01*
X034127Y009800D01*
X034056Y009830D01*
X034127Y009860D01*
X034200Y009933D01*
X034240Y010028D01*
X034240Y010132D01*
X034200Y010227D01*
X034127Y010300D01*
X034056Y010330D01*
X034127Y010360D01*
X034200Y010433D01*
X034240Y010528D01*
X034240Y010632D01*
X034200Y010727D01*
X034127Y010800D01*
X034056Y010830D01*
X034127Y010860D01*
X034200Y010933D01*
X034240Y011028D01*
X034240Y011132D01*
X034200Y011227D01*
X034127Y011300D01*
X034056Y011330D01*
X034127Y011360D01*
X034200Y011433D01*
X034240Y011528D01*
X034240Y011632D01*
X034200Y011727D01*
X034127Y011800D01*
X034032Y011840D01*
X033928Y011840D01*
X033833Y011800D01*
X033760Y011727D01*
X033720Y011632D01*
X033720Y011528D01*
X033760Y011433D01*
X033833Y011360D01*
X033904Y011330D01*
X033833Y011300D01*
X033760Y011227D01*
X033720Y011132D01*
X033720Y011028D01*
X033760Y010933D01*
X033833Y010860D01*
X033904Y010830D01*
X033833Y010800D01*
X033760Y010727D01*
X033720Y010632D01*
X033720Y010528D01*
X033760Y010433D01*
X033833Y010360D01*
X033904Y010330D01*
X033833Y010300D01*
X033760Y010227D01*
X033720Y010132D01*
X033720Y010028D01*
X033760Y009933D01*
X033833Y009860D01*
X033904Y009830D01*
X033833Y009800D01*
X033760Y009727D01*
X033720Y009632D01*
X033720Y009528D01*
X033760Y009433D01*
X033833Y009360D01*
X033904Y009330D01*
X033833Y009300D01*
X033760Y009227D01*
X033720Y009132D01*
X033720Y009028D01*
X033760Y008933D01*
X033833Y008860D01*
X033904Y008830D01*
X033833Y008800D01*
X033760Y008727D01*
X033720Y008632D01*
X033720Y008528D01*
X033760Y008433D01*
X033833Y008360D01*
X033904Y008330D01*
X034067Y008326D02*
X036266Y008326D01*
X036266Y008484D02*
X034222Y008484D01*
X034236Y008643D02*
X036266Y008643D01*
X036266Y008801D02*
X034126Y008801D01*
X034212Y008960D02*
X036266Y008960D01*
X036266Y009118D02*
X034240Y009118D01*
X034151Y009277D02*
X036266Y009277D01*
X036266Y009435D02*
X034201Y009435D01*
X034240Y009594D02*
X036266Y009594D01*
X036266Y009752D02*
X034176Y009752D01*
X034178Y009911D02*
X036266Y009911D01*
X036266Y010069D02*
X034240Y010069D01*
X034200Y010228D02*
X036266Y010228D01*
X036266Y010386D02*
X034154Y010386D01*
X034240Y010545D02*
X036266Y010545D01*
X036266Y010703D02*
X034210Y010703D01*
X034129Y010862D02*
X036266Y010862D01*
X036266Y011020D02*
X034237Y011020D01*
X034221Y011179D02*
X036266Y011179D01*
X036266Y011337D02*
X034073Y011337D01*
X033887Y011337D02*
X032890Y011337D01*
X032890Y011382D02*
X032850Y011477D01*
X032777Y011550D01*
X032706Y011580D01*
X032777Y011610D01*
X032850Y011683D01*
X032890Y011778D01*
X032890Y011882D01*
X032850Y011977D01*
X032777Y012050D01*
X032682Y012090D01*
X032578Y012090D01*
X032483Y012050D01*
X032410Y011977D01*
X032370Y011882D01*
X032370Y011778D01*
X032410Y011683D01*
X032483Y011610D01*
X032554Y011580D01*
X032483Y011550D01*
X032410Y011477D01*
X032370Y011382D01*
X032370Y011278D01*
X032410Y011183D01*
X032483Y011110D01*
X032578Y011070D01*
X032682Y011070D01*
X032777Y011110D01*
X032850Y011183D01*
X032890Y011278D01*
X032890Y011382D01*
X032832Y011496D02*
X033734Y011496D01*
X033729Y011654D02*
X032822Y011654D01*
X032890Y011813D02*
X033862Y011813D01*
X034098Y011813D02*
X036266Y011813D01*
X036266Y011971D02*
X032853Y011971D01*
X032407Y011971D02*
X032216Y011971D01*
X032200Y011933D02*
X032240Y012028D01*
X032240Y012132D01*
X032200Y012227D01*
X032127Y012300D01*
X032056Y012330D01*
X032127Y012360D01*
X032200Y012433D01*
X032240Y012528D01*
X032240Y012632D01*
X032200Y012727D01*
X032127Y012800D01*
X032032Y012840D01*
X031928Y012840D01*
X031833Y012800D01*
X031760Y012727D01*
X031720Y012632D01*
X031720Y012528D01*
X031760Y012433D01*
X031833Y012360D01*
X031904Y012330D01*
X031833Y012300D01*
X031760Y012227D01*
X031720Y012132D01*
X031720Y012028D01*
X031760Y011933D01*
X031833Y011860D01*
X031928Y011820D01*
X032032Y011820D01*
X032127Y011860D01*
X032200Y011933D01*
X032240Y012130D02*
X036266Y012130D01*
X036266Y012288D02*
X032140Y012288D01*
X032206Y012447D02*
X033754Y012447D01*
X033760Y012433D02*
X033720Y012528D01*
X033720Y012632D01*
X033760Y012727D01*
X033833Y012800D01*
X033904Y012830D01*
X033833Y012860D01*
X033760Y012933D01*
X033720Y013028D01*
X033720Y013132D01*
X033760Y013227D01*
X033833Y013300D01*
X033904Y013330D01*
X033833Y013360D01*
X033760Y013433D01*
X033720Y013528D01*
X033720Y013632D01*
X033760Y013727D01*
X033833Y013800D01*
X033928Y013840D01*
X034032Y013840D01*
X034127Y013800D01*
X034200Y013727D01*
X034240Y013632D01*
X034240Y013528D01*
X034200Y013433D01*
X034127Y013360D01*
X034056Y013330D01*
X034127Y013300D01*
X034200Y013227D01*
X034240Y013132D01*
X034240Y013028D01*
X034200Y012933D01*
X034127Y012860D01*
X034056Y012830D01*
X034127Y012800D01*
X034200Y012727D01*
X034240Y012632D01*
X034240Y012528D01*
X034200Y012433D01*
X034127Y012360D01*
X034032Y012320D01*
X033928Y012320D01*
X033833Y012360D01*
X033760Y012433D01*
X033720Y012605D02*
X032716Y012605D01*
X032727Y012610D02*
X032800Y012683D01*
X032840Y012778D01*
X032840Y012882D01*
X032800Y012977D01*
X032727Y013050D01*
X032656Y013080D01*
X032727Y013110D01*
X032800Y013183D01*
X032840Y013278D01*
X032840Y013382D01*
X032800Y013477D01*
X032727Y013550D01*
X032632Y013590D01*
X032528Y013590D01*
X032433Y013550D01*
X032360Y013477D01*
X032320Y013382D01*
X032320Y013278D01*
X032360Y013183D01*
X032433Y013110D01*
X032504Y013080D01*
X032433Y013050D01*
X032360Y012977D01*
X032320Y012882D01*
X032320Y012778D01*
X032360Y012683D01*
X032433Y012610D01*
X032528Y012570D01*
X032632Y012570D01*
X032727Y012610D01*
X032834Y012764D02*
X033796Y012764D01*
X033770Y012922D02*
X032823Y012922D01*
X032657Y013081D02*
X033720Y013081D01*
X033771Y013239D02*
X032824Y013239D01*
X032833Y013398D02*
X033795Y013398D01*
X033720Y013556D02*
X032714Y013556D01*
X032446Y013556D02*
X032240Y013556D01*
X032240Y013528D02*
X032240Y013632D01*
X032200Y013727D01*
X032127Y013800D01*
X032056Y013830D01*
X032127Y013860D01*
X032200Y013933D01*
X032240Y014028D01*
X032240Y014132D01*
X032200Y014227D01*
X032127Y014300D01*
X032032Y014340D01*
X031928Y014340D01*
X031833Y014300D01*
X031760Y014227D01*
X031720Y014132D01*
X031720Y014028D01*
X031760Y013933D01*
X031833Y013860D01*
X031904Y013830D01*
X031833Y013800D01*
X031760Y013727D01*
X031720Y013632D01*
X031720Y013528D01*
X031760Y013433D01*
X031833Y013360D01*
X031928Y013320D01*
X032032Y013320D01*
X032127Y013360D01*
X032200Y013433D01*
X032240Y013528D01*
X032165Y013398D02*
X032327Y013398D01*
X032336Y013239D02*
X025330Y013239D01*
X025330Y013081D02*
X032503Y013081D01*
X032337Y012922D02*
X025330Y012922D01*
X025330Y012764D02*
X031796Y012764D01*
X031720Y012605D02*
X025330Y012605D01*
X025330Y012447D02*
X031754Y012447D01*
X031820Y012288D02*
X025330Y012288D01*
X025330Y012130D02*
X031720Y012130D01*
X031744Y011971D02*
X025330Y011971D01*
X025330Y011813D02*
X032370Y011813D01*
X032438Y011654D02*
X025330Y011654D01*
X025330Y011496D02*
X032428Y011496D01*
X032370Y011337D02*
X032039Y011337D01*
X032032Y011340D02*
X031928Y011340D01*
X031833Y011300D01*
X031760Y011227D01*
X031720Y011132D01*
X031720Y011028D01*
X031760Y010933D01*
X031833Y010860D01*
X031904Y010830D01*
X031833Y010800D01*
X031760Y010727D01*
X031720Y010632D01*
X031720Y010528D01*
X031760Y010433D01*
X031833Y010360D01*
X031928Y010320D01*
X032032Y010320D01*
X032127Y010360D01*
X032200Y010433D01*
X032240Y010528D01*
X032240Y010632D01*
X032200Y010727D01*
X032127Y010800D01*
X032056Y010830D01*
X032127Y010860D01*
X032200Y010933D01*
X032240Y011028D01*
X032240Y011132D01*
X032200Y011227D01*
X032127Y011300D01*
X032032Y011340D01*
X031921Y011337D02*
X025330Y011337D01*
X025330Y011179D02*
X031739Y011179D01*
X031723Y011020D02*
X025330Y011020D01*
X025330Y010862D02*
X026184Y010862D01*
X026174Y010851D02*
X026128Y010740D01*
X026128Y010620D01*
X026174Y010509D01*
X026259Y010424D01*
X026370Y010378D01*
X026490Y010378D01*
X026601Y010424D01*
X026686Y010509D01*
X026732Y010620D01*
X026732Y010740D01*
X026686Y010851D01*
X026601Y010936D01*
X026490Y010982D01*
X026370Y010982D01*
X026259Y010936D01*
X026174Y010851D01*
X026128Y010703D02*
X025330Y010703D01*
X025330Y010545D02*
X026159Y010545D01*
X026349Y010386D02*
X025330Y010386D01*
X025330Y010228D02*
X033760Y010228D01*
X033720Y010069D02*
X025330Y010069D01*
X025330Y009911D02*
X033782Y009911D01*
X033784Y009752D02*
X032176Y009752D01*
X032240Y009594D02*
X033720Y009594D01*
X033759Y009435D02*
X032201Y009435D01*
X032151Y009277D02*
X033809Y009277D01*
X033720Y009118D02*
X032240Y009118D01*
X032212Y008960D02*
X033748Y008960D01*
X033834Y008801D02*
X032126Y008801D01*
X032236Y008643D02*
X033724Y008643D01*
X033738Y008484D02*
X032222Y008484D01*
X032225Y008167D02*
X033735Y008167D01*
X033728Y008009D02*
X032232Y008009D01*
X032104Y007850D02*
X033856Y007850D01*
X033745Y007692D02*
X032215Y007692D01*
X032240Y007533D02*
X033720Y007533D01*
X033818Y007375D02*
X032142Y007375D01*
X032713Y006741D02*
X027538Y006741D01*
X027440Y006582D02*
X032585Y006582D01*
X032357Y005570D02*
X032003Y005570D01*
X031676Y005435D01*
X031425Y005184D01*
X031290Y004857D01*
X031290Y004503D01*
X031425Y004176D01*
X031676Y003925D01*
X032003Y003790D01*
X032357Y003790D01*
X032684Y003925D01*
X032935Y004176D01*
X033070Y004503D01*
X033070Y004857D01*
X032935Y005184D01*
X032684Y005435D01*
X032357Y005570D01*
X032592Y005473D02*
X036266Y005473D01*
X036266Y005631D02*
X011730Y005631D01*
X011730Y005473D02*
X031768Y005473D01*
X031555Y005314D02*
X011730Y005314D01*
X011730Y005156D02*
X031414Y005156D01*
X031348Y004997D02*
X011730Y004997D01*
X009493Y008326D02*
X014867Y008326D01*
X015082Y008484D02*
X009590Y008484D01*
X011121Y010843D02*
X011224Y010800D01*
X011336Y010800D01*
X011439Y010843D01*
X011517Y010921D01*
X011560Y011024D01*
X011560Y011136D01*
X011517Y011239D01*
X011439Y011317D01*
X011336Y011360D01*
X011224Y011360D01*
X011121Y011317D01*
X011043Y011239D01*
X011000Y011136D01*
X011000Y011024D01*
X011043Y010921D01*
X011121Y010843D01*
X011103Y010862D02*
X006558Y010862D01*
X006558Y011020D02*
X011002Y011020D01*
X011018Y011179D02*
X006558Y011179D01*
X006558Y011337D02*
X011169Y011337D01*
X011391Y011337D02*
X022230Y011337D01*
X022230Y011179D02*
X011542Y011179D01*
X011558Y011020D02*
X022230Y011020D01*
X022230Y010862D02*
X021304Y010862D01*
X021303Y010863D02*
X021213Y010953D01*
X021094Y011002D01*
X020966Y011002D01*
X020847Y010953D01*
X020757Y010863D01*
X020708Y010744D01*
X020708Y010616D01*
X020757Y010497D01*
X020847Y010407D01*
X020966Y010358D01*
X021094Y010358D01*
X021213Y010407D01*
X021303Y010497D01*
X021352Y010616D01*
X021352Y010744D01*
X021303Y010863D01*
X021352Y010703D02*
X022230Y010703D01*
X022230Y010545D02*
X021323Y010545D01*
X021163Y010386D02*
X022230Y010386D01*
X022230Y010228D02*
X018484Y010228D01*
X018503Y010247D02*
X018552Y010366D01*
X018552Y010494D01*
X018503Y010613D01*
X018413Y010703D01*
X020708Y010703D01*
X020737Y010545D02*
X018532Y010545D01*
X018552Y010386D02*
X020897Y010386D01*
X020756Y010862D02*
X011457Y010862D01*
X009595Y011636D02*
X009687Y011859D01*
X009687Y012101D01*
X009595Y012324D01*
X009424Y012495D01*
X009201Y012587D01*
X008959Y012587D01*
X008736Y012495D01*
X008565Y012324D01*
X008473Y012101D01*
X008473Y011859D01*
X008565Y011636D01*
X008736Y011465D01*
X008959Y011373D01*
X009201Y011373D01*
X009424Y011465D01*
X009595Y011636D01*
X009603Y011654D02*
X020850Y011654D01*
X020850Y011624D02*
X020893Y011521D01*
X020971Y011443D01*
X021074Y011400D01*
X021186Y011400D01*
X021289Y011443D01*
X021367Y011521D01*
X021410Y011624D01*
X021410Y011736D01*
X021367Y011839D01*
X021289Y011917D01*
X021258Y011930D01*
X021289Y011943D01*
X021367Y012021D01*
X021410Y012124D01*
X021410Y012236D01*
X021367Y012339D01*
X021289Y012417D01*
X021186Y012460D01*
X021074Y012460D01*
X020971Y012417D01*
X020893Y012339D01*
X020850Y012236D01*
X020850Y012124D01*
X020893Y012021D01*
X020971Y011943D01*
X021002Y011930D01*
X020971Y011917D01*
X020893Y011839D01*
X020850Y011736D01*
X020850Y011624D01*
X020919Y011496D02*
X009455Y011496D01*
X009668Y011813D02*
X020882Y011813D01*
X020943Y011971D02*
X009687Y011971D01*
X009676Y012130D02*
X020850Y012130D01*
X020872Y012288D02*
X009610Y012288D01*
X009473Y012447D02*
X021042Y012447D01*
X021218Y012447D02*
X022230Y012447D01*
X022230Y012605D02*
X016259Y012605D01*
X016263Y012607D02*
X016353Y012697D01*
X016402Y012816D01*
X016402Y012944D01*
X016353Y013063D01*
X016263Y013153D01*
X016144Y013202D01*
X016016Y013202D01*
X015897Y013153D01*
X015807Y013063D01*
X015758Y012944D01*
X015758Y012816D01*
X015807Y012697D01*
X015897Y012607D01*
X016016Y012558D01*
X016144Y012558D01*
X016263Y012607D01*
X016381Y012764D02*
X022230Y012764D01*
X022230Y012922D02*
X019579Y012922D01*
X019544Y012908D02*
X019663Y012957D01*
X019753Y013047D01*
X019802Y013166D01*
X019802Y013294D01*
X019753Y013413D01*
X019663Y013503D01*
X019544Y013552D01*
X019416Y013552D01*
X019297Y013503D01*
X019207Y013413D01*
X019158Y013294D01*
X019158Y013166D01*
X019207Y013047D01*
X019297Y012957D01*
X019416Y012908D01*
X019544Y012908D01*
X019381Y012922D02*
X016402Y012922D01*
X016336Y013081D02*
X019193Y013081D01*
X019158Y013239D02*
X008614Y013239D01*
X008582Y013316D02*
X008416Y013482D01*
X008198Y013572D01*
X007962Y013572D01*
X007744Y013482D01*
X007578Y013316D01*
X007488Y013098D01*
X007488Y012862D01*
X007578Y012644D01*
X007744Y012478D01*
X007962Y012388D01*
X008198Y012388D01*
X008416Y012478D01*
X008582Y012644D01*
X008672Y012862D01*
X008672Y013098D01*
X008582Y013316D01*
X008500Y013398D02*
X008899Y013398D01*
X008959Y013373D02*
X009201Y013373D01*
X009424Y013465D01*
X009595Y013636D01*
X009687Y013859D01*
X009687Y014101D01*
X009595Y014324D01*
X009424Y014495D01*
X009219Y014580D01*
X009424Y014665D01*
X009595Y014836D01*
X009687Y015059D01*
X009687Y015301D01*
X009595Y015524D01*
X009424Y015695D01*
X009201Y015787D01*
X008959Y015787D01*
X008736Y015695D01*
X008565Y015524D01*
X008473Y015301D01*
X008473Y015059D01*
X008565Y014836D01*
X008736Y014665D01*
X008941Y014580D01*
X008736Y014495D01*
X008565Y014324D01*
X008473Y014101D01*
X008473Y013859D01*
X008565Y013636D01*
X008736Y013465D01*
X008959Y013373D01*
X009261Y013398D02*
X019200Y013398D01*
X019297Y013607D02*
X019416Y013558D01*
X019544Y013558D01*
X019663Y013607D01*
X019753Y013697D01*
X019802Y013816D01*
X019802Y013944D01*
X019753Y014063D01*
X019663Y014153D01*
X019544Y014202D01*
X019416Y014202D01*
X019297Y014153D01*
X019207Y014063D01*
X019158Y013944D01*
X019158Y013816D01*
X019207Y013697D01*
X019297Y013607D01*
X019199Y013715D02*
X009628Y013715D01*
X009687Y013873D02*
X019158Y013873D01*
X019194Y014032D02*
X011412Y014032D01*
X011439Y014043D02*
X011517Y014121D01*
X011560Y014224D01*
X011560Y014336D01*
X011517Y014439D01*
X011439Y014517D01*
X011336Y014560D01*
X011224Y014560D01*
X011121Y014517D01*
X011043Y014439D01*
X011000Y014336D01*
X011000Y014224D01*
X011043Y014121D01*
X011121Y014043D01*
X011224Y014000D01*
X011336Y014000D01*
X011439Y014043D01*
X011546Y014190D02*
X019386Y014190D01*
X019574Y014190D02*
X022230Y014190D01*
X022230Y014032D02*
X019766Y014032D01*
X019802Y013873D02*
X022230Y013873D01*
X022230Y013715D02*
X020502Y013715D01*
X020463Y013753D02*
X020344Y013802D01*
X020216Y013802D01*
X020097Y013753D01*
X020007Y013663D01*
X019958Y013544D01*
X019958Y013416D01*
X020007Y013297D01*
X020097Y013207D01*
X020216Y013158D01*
X020344Y013158D01*
X020463Y013207D01*
X020553Y013297D01*
X020602Y013416D01*
X020602Y013544D01*
X020553Y013663D01*
X020463Y013753D01*
X020598Y013556D02*
X022230Y013556D01*
X022230Y013398D02*
X020595Y013398D01*
X020495Y013239D02*
X022230Y013239D01*
X022230Y013081D02*
X019767Y013081D01*
X019802Y013239D02*
X020065Y013239D01*
X019965Y013398D02*
X019760Y013398D01*
X019962Y013556D02*
X009515Y013556D01*
X009687Y014032D02*
X011148Y014032D01*
X011014Y014190D02*
X009651Y014190D01*
X009571Y014349D02*
X011005Y014349D01*
X011111Y014507D02*
X009395Y014507D01*
X009425Y014666D02*
X022230Y014666D01*
X022230Y014824D02*
X009583Y014824D01*
X009656Y014983D02*
X022230Y014983D01*
X022230Y015141D02*
X009687Y015141D01*
X009687Y015300D02*
X022230Y015300D01*
X022230Y015458D02*
X009622Y015458D01*
X009503Y015617D02*
X022230Y015617D01*
X022230Y015775D02*
X018431Y015775D01*
X018413Y015757D02*
X018503Y015847D01*
X018552Y015966D01*
X018552Y016094D01*
X018503Y016213D01*
X018413Y016303D01*
X018294Y016352D01*
X018166Y016352D01*
X018047Y016303D01*
X017957Y016213D01*
X017908Y016094D01*
X017908Y015966D01*
X017957Y015847D01*
X018047Y015757D01*
X018166Y015708D01*
X018294Y015708D01*
X018413Y015757D01*
X018539Y015934D02*
X022230Y015934D01*
X022230Y016092D02*
X018552Y016092D01*
X018466Y016251D02*
X020112Y016251D01*
X020097Y016257D02*
X020216Y016208D01*
X020344Y016208D01*
X020463Y016257D01*
X020553Y016347D01*
X020602Y016466D01*
X020602Y016594D01*
X020553Y016713D01*
X020463Y016803D01*
X020344Y016852D01*
X020216Y016852D01*
X020097Y016803D01*
X020007Y016713D01*
X019958Y016594D01*
X019958Y016466D01*
X020007Y016347D01*
X020097Y016257D01*
X019981Y016409D02*
X018865Y016409D01*
X018903Y016447D02*
X018952Y016566D01*
X018952Y016694D01*
X018903Y016813D01*
X018813Y016903D01*
X018694Y016952D01*
X018566Y016952D01*
X018447Y016903D01*
X018357Y016813D01*
X018308Y016694D01*
X018308Y016566D01*
X018357Y016447D01*
X018447Y016357D01*
X018566Y016308D01*
X018694Y016308D01*
X018813Y016357D01*
X018903Y016447D01*
X018952Y016568D02*
X019958Y016568D01*
X020020Y016726D02*
X018939Y016726D01*
X018832Y016885D02*
X022230Y016885D01*
X022230Y017043D02*
X016502Y017043D01*
X016502Y017044D02*
X016453Y017163D01*
X016363Y017253D01*
X016244Y017302D01*
X016116Y017302D01*
X015997Y017253D01*
X015907Y017163D01*
X015858Y017044D01*
X015858Y016916D01*
X015907Y016797D01*
X015997Y016707D01*
X016116Y016658D01*
X016244Y016658D01*
X016363Y016707D01*
X016453Y016797D01*
X016502Y016916D01*
X016502Y017044D01*
X016490Y016885D02*
X018428Y016885D01*
X018321Y016726D02*
X016382Y016726D01*
X015978Y016726D02*
X009485Y016726D01*
X009424Y016665D02*
X009595Y016836D01*
X009687Y017059D01*
X009687Y017301D01*
X009595Y017524D01*
X009424Y017695D01*
X009219Y017780D01*
X009424Y017865D01*
X009595Y018036D01*
X009687Y018259D01*
X009687Y018501D01*
X009595Y018724D01*
X009424Y018895D01*
X009201Y018987D01*
X008959Y018987D01*
X008736Y018895D01*
X008565Y018724D01*
X008473Y018501D01*
X008473Y018259D01*
X008565Y018036D01*
X008736Y017865D01*
X008941Y017780D01*
X008736Y017695D01*
X008565Y017524D01*
X008473Y017301D01*
X008473Y017059D01*
X008565Y016836D01*
X008736Y016665D01*
X008959Y016573D01*
X009201Y016573D01*
X009424Y016665D01*
X009615Y016885D02*
X015870Y016885D01*
X015858Y017043D02*
X009681Y017043D01*
X009687Y017202D02*
X012821Y017202D01*
X012824Y017200D02*
X012936Y017200D01*
X013039Y017243D01*
X013117Y017321D01*
X013160Y017424D01*
X013160Y017536D01*
X013117Y017639D01*
X013039Y017717D01*
X012936Y017760D01*
X012824Y017760D01*
X012721Y017717D01*
X012643Y017639D01*
X012600Y017536D01*
X012600Y017424D01*
X012643Y017321D01*
X012721Y017243D01*
X012824Y017200D01*
X012939Y017202D02*
X015945Y017202D01*
X016415Y017202D02*
X022230Y017202D01*
X022230Y017360D02*
X013133Y017360D01*
X013160Y017519D02*
X022230Y017519D01*
X022230Y017677D02*
X013079Y017677D01*
X012681Y017677D02*
X009442Y017677D01*
X009353Y017836D02*
X022230Y017836D01*
X022230Y017994D02*
X009553Y017994D01*
X009643Y018153D02*
X021068Y018153D01*
X021074Y018150D02*
X021186Y018150D01*
X021289Y018193D01*
X021367Y018271D01*
X021410Y018374D01*
X021410Y018486D01*
X021367Y018589D01*
X021289Y018667D01*
X021186Y018710D01*
X021074Y018710D01*
X020971Y018667D01*
X020893Y018589D01*
X020850Y018486D01*
X020850Y018374D01*
X020893Y018271D01*
X020971Y018193D01*
X021074Y018150D01*
X021192Y018153D02*
X022230Y018153D01*
X022230Y018311D02*
X021384Y018311D01*
X021410Y018470D02*
X022230Y018470D01*
X022230Y018628D02*
X021328Y018628D01*
X020932Y018628D02*
X009635Y018628D01*
X009687Y018470D02*
X020850Y018470D01*
X020876Y018311D02*
X009687Y018311D01*
X009533Y018787D02*
X022230Y018787D01*
X022230Y018945D02*
X009303Y018945D01*
X008857Y018945D02*
X008483Y018945D01*
X008416Y018878D02*
X008582Y019044D01*
X008672Y019262D01*
X017951Y019262D01*
X017957Y019247D02*
X018047Y019157D01*
X018166Y019108D01*
X018294Y019108D01*
X018413Y019157D01*
X018503Y019247D01*
X018552Y019366D01*
X018552Y019494D01*
X018503Y019613D01*
X018413Y019703D01*
X018294Y019752D01*
X018166Y019752D01*
X018047Y019703D01*
X017957Y019613D01*
X017908Y019494D01*
X017908Y019366D01*
X017957Y019247D01*
X017908Y019421D02*
X008672Y019421D01*
X008672Y019498D02*
X008672Y019262D01*
X008607Y019104D02*
X022230Y019104D01*
X022230Y019262D02*
X021309Y019262D01*
X021303Y019247D02*
X021352Y019366D01*
X021352Y019494D01*
X021303Y019613D01*
X021216Y019700D01*
X021236Y019700D01*
X021339Y019743D01*
X021417Y019821D01*
X021460Y019924D01*
X021460Y020036D01*
X021417Y020139D01*
X021339Y020217D01*
X021236Y020260D01*
X021124Y020260D01*
X021021Y020217D01*
X020943Y020139D01*
X020900Y020036D01*
X020900Y019924D01*
X020943Y019821D01*
X021012Y019752D01*
X020966Y019752D01*
X020847Y019703D01*
X020757Y019613D01*
X020708Y019494D01*
X020708Y019366D01*
X020757Y019247D01*
X020847Y019157D01*
X020966Y019108D01*
X021094Y019108D01*
X021213Y019157D01*
X021303Y019247D01*
X021352Y019421D02*
X022230Y019421D01*
X022230Y019579D02*
X021317Y019579D01*
X021326Y019738D02*
X022230Y019738D01*
X022230Y019896D02*
X021448Y019896D01*
X021452Y020055D02*
X022230Y020055D01*
X022230Y020213D02*
X021343Y020213D01*
X021288Y020372D02*
X022230Y020372D01*
X022230Y020530D02*
X021442Y020530D01*
X021460Y020574D02*
X021417Y020471D01*
X021339Y020393D01*
X021236Y020350D01*
X021124Y020350D01*
X021021Y020393D01*
X020943Y020471D01*
X020900Y020574D01*
X020900Y020686D01*
X020943Y020789D01*
X021021Y020867D01*
X021124Y020910D01*
X021236Y020910D01*
X021339Y020867D01*
X021417Y020789D01*
X021460Y020686D01*
X021460Y020574D01*
X021459Y020689D02*
X022230Y020689D01*
X022230Y020847D02*
X021359Y020847D01*
X021001Y020847D02*
X017702Y020847D01*
X017702Y020816D02*
X017653Y020697D01*
X017563Y020607D01*
X017444Y020558D01*
X017316Y020558D01*
X017197Y020607D01*
X017107Y020697D01*
X017058Y020816D01*
X017058Y020944D01*
X017107Y021063D01*
X017174Y021130D01*
X017107Y021197D01*
X017058Y021316D01*
X017058Y021444D01*
X017107Y021563D01*
X017197Y021653D01*
X017316Y021702D01*
X017444Y021702D01*
X017563Y021653D01*
X017653Y021563D01*
X017702Y021444D01*
X017702Y021316D01*
X017653Y021197D01*
X017586Y021130D01*
X017653Y021063D01*
X017702Y020944D01*
X017702Y020816D01*
X017645Y020689D02*
X018122Y020689D01*
X018071Y020667D02*
X017993Y020589D01*
X017950Y020486D01*
X017950Y020374D01*
X017993Y020271D01*
X018071Y020193D01*
X018174Y020150D01*
X018286Y020150D01*
X018389Y020193D01*
X018467Y020271D01*
X018510Y020374D01*
X018510Y020486D01*
X018467Y020589D01*
X018389Y020667D01*
X018286Y020710D01*
X018174Y020710D01*
X018071Y020667D01*
X017968Y020530D02*
X013764Y020530D01*
X013800Y020443D02*
X013713Y020653D01*
X013553Y020813D01*
X013343Y020900D01*
X013117Y020900D01*
X012907Y020813D01*
X012747Y020653D01*
X012660Y020443D01*
X012660Y020217D01*
X012747Y020007D01*
X012907Y019847D01*
X013117Y019760D01*
X013343Y019760D01*
X013553Y019847D01*
X013713Y020007D01*
X013800Y020217D01*
X013800Y020443D01*
X013800Y020372D02*
X017951Y020372D01*
X017939Y020217D02*
X017836Y020260D01*
X017724Y020260D01*
X017621Y020217D01*
X017543Y020139D01*
X017500Y020036D01*
X017500Y019924D01*
X017543Y019821D01*
X017621Y019743D01*
X017724Y019700D01*
X017836Y019700D01*
X017939Y019743D01*
X018017Y019821D01*
X018060Y019924D01*
X018060Y020036D01*
X018017Y020139D01*
X017939Y020217D01*
X017943Y020213D02*
X018051Y020213D01*
X018052Y020055D02*
X018358Y020055D01*
X018350Y020036D02*
X018350Y019924D01*
X018393Y019821D01*
X018471Y019743D01*
X018574Y019700D01*
X018686Y019700D01*
X018789Y019743D01*
X018867Y019821D01*
X018910Y019924D01*
X018910Y020036D01*
X018867Y020139D01*
X018789Y020217D01*
X018686Y020260D01*
X018574Y020260D01*
X018471Y020217D01*
X018393Y020139D01*
X018350Y020036D01*
X018362Y019896D02*
X018048Y019896D01*
X018130Y019738D02*
X017926Y019738D01*
X017943Y019579D02*
X008639Y019579D01*
X008672Y019498D02*
X008582Y019716D01*
X008416Y019882D01*
X008198Y019972D01*
X007962Y019972D01*
X007744Y019882D01*
X007578Y019716D01*
X007488Y019498D01*
X007488Y019262D01*
X006558Y019262D01*
X006558Y019104D02*
X007553Y019104D01*
X007578Y019044D02*
X007488Y019262D01*
X007488Y019421D02*
X006558Y019421D01*
X006558Y019579D02*
X007521Y019579D01*
X007600Y019738D02*
X006558Y019738D01*
X006558Y019896D02*
X006705Y019896D01*
X006736Y019865D02*
X006959Y019773D01*
X007201Y019773D01*
X007424Y019865D01*
X007595Y020036D01*
X007687Y020259D01*
X007687Y020501D01*
X007595Y020724D01*
X007424Y020895D01*
X007201Y020987D01*
X006959Y020987D01*
X006736Y020895D01*
X006565Y020724D01*
X006558Y020708D01*
X006558Y024080D01*
X008302Y024080D01*
X008300Y024075D01*
X008300Y023885D01*
X008373Y023708D01*
X008508Y023573D01*
X008685Y023500D01*
X008875Y023500D01*
X009052Y023573D01*
X009187Y023708D01*
X009260Y023885D01*
X009260Y024075D01*
X009258Y024080D01*
X009302Y024080D01*
X009300Y024075D01*
X009300Y023885D01*
X009373Y023708D01*
X009508Y023573D01*
X009685Y023500D01*
X009875Y023500D01*
X010052Y023573D01*
X010187Y023708D01*
X010260Y023885D01*
X010260Y024075D01*
X010258Y024080D01*
X010302Y024080D01*
X010300Y024075D01*
X010300Y023885D01*
X010373Y023708D01*
X010508Y023573D01*
X010685Y023500D01*
X010875Y023500D01*
X011052Y023573D01*
X011187Y023708D01*
X011260Y023885D01*
X011260Y024075D01*
X011258Y024080D01*
X011302Y024080D01*
X011300Y024075D01*
X011300Y023885D01*
X011373Y023708D01*
X011508Y023573D01*
X011685Y023500D01*
X011875Y023500D01*
X012052Y023573D01*
X012187Y023708D01*
X012260Y023885D01*
X012260Y024075D01*
X012258Y024080D01*
X017024Y024080D01*
X016957Y024013D01*
X016908Y023894D01*
X016908Y023766D01*
X016957Y023647D01*
X017047Y023557D01*
X017166Y023508D01*
X017294Y023508D01*
X017413Y023557D01*
X017503Y023647D01*
X017552Y023766D01*
X017552Y023894D01*
X017503Y024013D01*
X017436Y024080D01*
X019574Y024080D01*
X019507Y024013D01*
X019458Y023894D01*
X019458Y023766D01*
X019507Y023647D01*
X019597Y023557D01*
X019716Y023508D01*
X019844Y023508D01*
X019963Y023557D01*
X020053Y023647D01*
X020102Y023766D01*
X020102Y023894D01*
X020053Y024013D01*
X019986Y024080D01*
X023230Y024080D01*
X023230Y022705D01*
X023135Y022705D01*
X022961Y022633D01*
X022827Y022499D01*
X022755Y022325D01*
X022755Y022135D01*
X022827Y021961D01*
X022961Y021827D01*
X023135Y021755D01*
X023230Y021755D01*
X023230Y021330D01*
X022230Y021330D01*
X022230Y010030D01*
X006558Y010030D01*
X006558Y011652D01*
X006565Y011636D01*
X006736Y011465D01*
X006959Y011373D01*
X007201Y011373D01*
X007424Y011465D01*
X007595Y011636D01*
X007687Y011859D01*
X007687Y012101D01*
X007595Y012324D01*
X007424Y012495D01*
X007201Y012587D01*
X006959Y012587D01*
X006736Y012495D01*
X006565Y012324D01*
X006558Y012308D01*
X006558Y013652D01*
X006565Y013636D01*
X006736Y013465D01*
X006959Y013373D01*
X007201Y013373D01*
X007424Y013465D01*
X007595Y013636D01*
X007687Y013859D01*
X007687Y014101D01*
X007595Y014324D01*
X007424Y014495D01*
X007219Y014580D01*
X007424Y014665D01*
X007595Y014836D01*
X007687Y015059D01*
X007687Y015301D01*
X007595Y015524D01*
X007424Y015695D01*
X007201Y015787D01*
X006959Y015787D01*
X006736Y015695D01*
X006565Y015524D01*
X006558Y015508D01*
X006558Y016852D01*
X006565Y016836D01*
X006736Y016665D01*
X006959Y016573D01*
X007201Y016573D01*
X007424Y016665D01*
X007595Y016836D01*
X007687Y017059D01*
X007687Y017301D01*
X007595Y017524D01*
X007424Y017695D01*
X007219Y017780D01*
X007424Y017865D01*
X007595Y018036D01*
X007687Y018259D01*
X007687Y018501D01*
X007595Y018724D01*
X007424Y018895D01*
X007201Y018987D01*
X006959Y018987D01*
X006736Y018895D01*
X006565Y018724D01*
X006558Y018708D01*
X006558Y020052D01*
X006565Y020036D01*
X006736Y019865D01*
X007455Y019896D02*
X007778Y019896D01*
X007603Y020055D02*
X008557Y020055D01*
X008565Y020036D02*
X008736Y019865D01*
X008959Y019773D01*
X009201Y019773D01*
X009424Y019865D01*
X009595Y020036D01*
X009687Y020259D01*
X009687Y020501D01*
X009595Y020724D01*
X009424Y020895D01*
X009201Y020987D01*
X009144Y020987D01*
X009153Y020997D01*
X009202Y021116D01*
X009202Y021244D01*
X009153Y021363D01*
X009063Y021453D01*
X008944Y021502D01*
X008816Y021502D01*
X008697Y021453D01*
X008607Y021363D01*
X008558Y021244D01*
X008558Y021116D01*
X008607Y020997D01*
X008697Y020907D01*
X008733Y020892D01*
X008565Y020724D01*
X008473Y020501D01*
X008473Y020259D01*
X008565Y020036D01*
X008492Y020213D02*
X007668Y020213D01*
X007687Y020372D02*
X008473Y020372D01*
X008485Y020530D02*
X007675Y020530D01*
X007610Y020689D02*
X008550Y020689D01*
X008688Y020847D02*
X007472Y020847D01*
X007721Y021443D02*
X007643Y021521D01*
X007600Y021624D01*
X007600Y021736D01*
X007643Y021839D01*
X007721Y021917D01*
X007812Y021955D01*
X007721Y021993D01*
X007643Y022071D01*
X007600Y022174D01*
X007600Y022286D01*
X007643Y022389D01*
X007721Y022467D01*
X007752Y022480D01*
X007721Y022493D01*
X007643Y022571D01*
X007600Y022674D01*
X007600Y022786D01*
X007643Y022889D01*
X007721Y022967D01*
X007824Y023010D01*
X007936Y023010D01*
X008039Y022967D01*
X008117Y022889D01*
X008160Y022786D01*
X008160Y022674D01*
X008117Y022571D01*
X008039Y022493D01*
X008008Y022480D01*
X008039Y022467D01*
X008117Y022389D01*
X008160Y022286D01*
X008160Y022174D01*
X008117Y022071D01*
X008039Y021993D01*
X007948Y021955D01*
X008039Y021917D01*
X008117Y021839D01*
X008160Y021736D01*
X008160Y021624D01*
X008117Y021521D01*
X008039Y021443D01*
X007936Y021400D01*
X007824Y021400D01*
X007721Y021443D01*
X007683Y021481D02*
X006558Y021481D01*
X006558Y021323D02*
X008590Y021323D01*
X008558Y021164D02*
X006558Y021164D01*
X006558Y021006D02*
X008603Y021006D01*
X008764Y021481D02*
X008077Y021481D01*
X008160Y021640D02*
X009544Y021640D01*
X009543Y021639D02*
X009500Y021536D01*
X009500Y021424D01*
X009543Y021321D01*
X009621Y021243D01*
X009724Y021200D01*
X009836Y021200D01*
X009939Y021243D01*
X010017Y021321D01*
X010060Y021424D01*
X010060Y021536D01*
X010017Y021639D01*
X009939Y021717D01*
X009836Y021760D01*
X009724Y021760D01*
X009621Y021717D01*
X009543Y021639D01*
X009500Y021481D02*
X008996Y021481D01*
X009170Y021323D02*
X009542Y021323D01*
X009202Y021164D02*
X017140Y021164D01*
X017083Y021006D02*
X009157Y021006D01*
X009472Y020847D02*
X012989Y020847D01*
X012782Y020689D02*
X009610Y020689D01*
X009675Y020530D02*
X012696Y020530D01*
X012660Y020372D02*
X009687Y020372D01*
X009668Y020213D02*
X012661Y020213D01*
X012727Y020055D02*
X009603Y020055D01*
X009455Y019896D02*
X012858Y019896D01*
X013602Y019896D02*
X014262Y019896D01*
X014250Y019924D02*
X014293Y019821D01*
X014371Y019743D01*
X014474Y019700D01*
X014586Y019700D01*
X014689Y019743D01*
X014767Y019821D01*
X014810Y019924D01*
X014810Y020036D01*
X014767Y020139D01*
X014689Y020217D01*
X014586Y020260D01*
X014474Y020260D01*
X014371Y020217D01*
X014293Y020139D01*
X014250Y020036D01*
X014250Y019924D01*
X014258Y020055D02*
X013733Y020055D01*
X013799Y020213D02*
X014367Y020213D01*
X014693Y020213D02*
X015117Y020213D01*
X015121Y020217D02*
X015043Y020139D01*
X015000Y020036D01*
X015000Y019924D01*
X015043Y019821D01*
X015121Y019743D01*
X015224Y019700D01*
X015336Y019700D01*
X015439Y019743D01*
X015517Y019821D01*
X015560Y019924D01*
X015560Y020036D01*
X015517Y020139D01*
X015439Y020217D01*
X015336Y020260D01*
X015224Y020260D01*
X015121Y020217D01*
X015008Y020055D02*
X014802Y020055D01*
X014798Y019896D02*
X015012Y019896D01*
X015134Y019738D02*
X014676Y019738D01*
X014384Y019738D02*
X008560Y019738D01*
X008705Y019896D02*
X008382Y019896D01*
X008416Y018878D02*
X008198Y018788D01*
X007962Y018788D01*
X007744Y018878D01*
X007578Y019044D01*
X007677Y018945D02*
X007303Y018945D01*
X007533Y018787D02*
X008627Y018787D01*
X008525Y018628D02*
X007635Y018628D01*
X007687Y018470D02*
X008473Y018470D01*
X008473Y018311D02*
X007687Y018311D01*
X007643Y018153D02*
X008517Y018153D01*
X008607Y017994D02*
X007553Y017994D01*
X007353Y017836D02*
X008807Y017836D01*
X008718Y017677D02*
X007442Y017677D01*
X007597Y017519D02*
X008563Y017519D01*
X008497Y017360D02*
X007663Y017360D01*
X007687Y017202D02*
X008473Y017202D01*
X008479Y017043D02*
X007681Y017043D01*
X007615Y016885D02*
X008545Y016885D01*
X008675Y016726D02*
X008310Y016726D01*
X008416Y016682D02*
X008198Y016772D01*
X007962Y016772D01*
X007744Y016682D01*
X007578Y016516D01*
X007488Y016298D01*
X007488Y016062D01*
X007578Y015844D01*
X007744Y015678D01*
X007962Y015588D01*
X008198Y015588D01*
X008416Y015678D01*
X008582Y015844D01*
X008672Y016062D01*
X008672Y016298D01*
X008582Y016516D01*
X008416Y016682D01*
X008530Y016568D02*
X018308Y016568D01*
X018395Y016409D02*
X008626Y016409D01*
X008672Y016251D02*
X017994Y016251D01*
X017908Y016092D02*
X008672Y016092D01*
X008619Y015934D02*
X017921Y015934D01*
X018029Y015775D02*
X009231Y015775D01*
X008929Y015775D02*
X008513Y015775D01*
X008657Y015617D02*
X008268Y015617D01*
X008538Y015458D02*
X007622Y015458D01*
X007687Y015300D02*
X008473Y015300D01*
X008473Y015141D02*
X007687Y015141D01*
X007656Y014983D02*
X008504Y014983D01*
X008577Y014824D02*
X007583Y014824D01*
X007425Y014666D02*
X008735Y014666D01*
X008765Y014507D02*
X007395Y014507D01*
X007571Y014349D02*
X008589Y014349D01*
X008509Y014190D02*
X007651Y014190D01*
X007687Y014032D02*
X008473Y014032D01*
X008473Y013873D02*
X007687Y013873D01*
X007628Y013715D02*
X008532Y013715D01*
X008645Y013556D02*
X008238Y013556D01*
X007922Y013556D02*
X007515Y013556D01*
X007660Y013398D02*
X007261Y013398D01*
X007546Y013239D02*
X006558Y013239D01*
X006558Y013081D02*
X007488Y013081D01*
X007488Y012922D02*
X006558Y012922D01*
X006558Y012764D02*
X007528Y012764D01*
X007617Y012605D02*
X006558Y012605D01*
X006558Y012447D02*
X006687Y012447D01*
X007473Y012447D02*
X007820Y012447D01*
X007610Y012288D02*
X008550Y012288D01*
X008484Y012130D02*
X007676Y012130D01*
X007687Y011971D02*
X008473Y011971D01*
X008492Y011813D02*
X007668Y011813D01*
X007603Y011654D02*
X008557Y011654D01*
X008705Y011496D02*
X007455Y011496D01*
X006705Y011496D02*
X006558Y011496D01*
X006558Y010703D02*
X018047Y010703D01*
X017957Y010613D01*
X017908Y010494D01*
X017908Y010366D01*
X017957Y010247D01*
X018047Y010157D01*
X018166Y010108D01*
X018294Y010108D01*
X018413Y010157D01*
X018503Y010247D01*
X018413Y010703D02*
X018294Y010752D01*
X018166Y010752D01*
X018047Y010703D01*
X017928Y010545D02*
X006558Y010545D01*
X006558Y010386D02*
X017908Y010386D01*
X017976Y010228D02*
X006558Y010228D01*
X006558Y010069D02*
X022230Y010069D01*
X022230Y011496D02*
X021341Y011496D01*
X021410Y011654D02*
X022230Y011654D01*
X022230Y011813D02*
X021378Y011813D01*
X021317Y011971D02*
X022230Y011971D01*
X022230Y012130D02*
X021410Y012130D01*
X021388Y012288D02*
X022230Y012288D01*
X020058Y013715D02*
X019761Y013715D01*
X022230Y014349D02*
X011555Y014349D01*
X011449Y014507D02*
X022230Y014507D01*
X022230Y016251D02*
X020448Y016251D01*
X020579Y016409D02*
X022230Y016409D01*
X022230Y016568D02*
X020602Y016568D01*
X020540Y016726D02*
X022230Y016726D01*
X020751Y019262D02*
X020408Y019262D01*
X020389Y019243D02*
X020467Y019321D01*
X020510Y019424D01*
X020510Y019536D01*
X020467Y019639D01*
X020406Y019700D01*
X020436Y019700D01*
X020539Y019743D01*
X020617Y019821D01*
X020660Y019924D01*
X020660Y020036D01*
X020617Y020139D01*
X020539Y020217D01*
X020436Y020260D01*
X020324Y020260D01*
X020221Y020217D01*
X020143Y020139D01*
X020100Y020036D01*
X020100Y019924D01*
X020143Y019821D01*
X020204Y019760D01*
X020174Y019760D01*
X020071Y019717D01*
X019993Y019639D01*
X019950Y019536D01*
X019950Y019424D01*
X019993Y019321D01*
X020071Y019243D01*
X020174Y019200D01*
X020286Y019200D01*
X020389Y019243D01*
X020508Y019421D02*
X020708Y019421D01*
X020743Y019579D02*
X020492Y019579D01*
X020526Y019738D02*
X020930Y019738D01*
X020912Y019896D02*
X020648Y019896D01*
X020652Y020055D02*
X020908Y020055D01*
X021017Y020213D02*
X020543Y020213D01*
X020217Y020213D02*
X019693Y020213D01*
X019689Y020217D02*
X019586Y020260D01*
X019474Y020260D01*
X019371Y020217D01*
X019293Y020139D01*
X019250Y020036D01*
X019250Y019924D01*
X019293Y019821D01*
X019371Y019743D01*
X019474Y019700D01*
X019586Y019700D01*
X019689Y019743D01*
X019767Y019821D01*
X019810Y019924D01*
X019810Y020036D01*
X019767Y020139D01*
X019689Y020217D01*
X019802Y020055D02*
X020108Y020055D01*
X020112Y019896D02*
X019798Y019896D01*
X019676Y019738D02*
X020120Y019738D01*
X019968Y019579D02*
X018517Y019579D01*
X018484Y019738D02*
X018330Y019738D01*
X018552Y019421D02*
X019952Y019421D01*
X020052Y019262D02*
X018509Y019262D01*
X018776Y019738D02*
X019384Y019738D01*
X019262Y019896D02*
X018898Y019896D01*
X018902Y020055D02*
X019258Y020055D01*
X019367Y020213D02*
X018793Y020213D01*
X018509Y020372D02*
X021072Y020372D01*
X020918Y020530D02*
X018492Y020530D01*
X018338Y020689D02*
X020901Y020689D01*
X022230Y021006D02*
X017677Y021006D01*
X017620Y021164D02*
X022230Y021164D01*
X022230Y021323D02*
X017702Y021323D01*
X017687Y021481D02*
X023230Y021481D01*
X023230Y021640D02*
X018475Y021640D01*
X018467Y021621D02*
X018510Y021724D01*
X018510Y021836D01*
X018467Y021939D01*
X018389Y022017D01*
X018286Y022060D01*
X018174Y022060D01*
X018093Y022026D01*
X018067Y022089D01*
X017989Y022167D01*
X017886Y022210D01*
X017774Y022210D01*
X017671Y022167D01*
X017593Y022089D01*
X017550Y021986D01*
X017550Y021874D01*
X017593Y021771D01*
X017671Y021693D01*
X017774Y021650D01*
X017886Y021650D01*
X017967Y021684D01*
X017993Y021621D01*
X018071Y021543D01*
X018174Y021500D01*
X018286Y021500D01*
X018389Y021543D01*
X018467Y021621D01*
X018510Y021798D02*
X022031Y021798D01*
X021961Y021827D02*
X022135Y021755D01*
X022325Y021755D01*
X022499Y021827D01*
X022633Y021961D01*
X022705Y022135D01*
X022705Y022325D01*
X022633Y022499D01*
X022499Y022633D01*
X022325Y022705D01*
X022135Y022705D01*
X021961Y022633D01*
X021827Y022499D01*
X021755Y022325D01*
X021755Y022135D01*
X021827Y021961D01*
X021961Y021827D01*
X021831Y021957D02*
X018449Y021957D01*
X018041Y022115D02*
X021763Y022115D01*
X021755Y022274D02*
X011892Y022274D01*
X011939Y022293D02*
X012017Y022371D01*
X012060Y022474D01*
X012060Y022586D01*
X012017Y022689D01*
X011939Y022767D01*
X011836Y022810D01*
X011724Y022810D01*
X011621Y022767D01*
X011543Y022689D01*
X011500Y022586D01*
X011500Y022474D01*
X011513Y022443D01*
X011439Y022517D01*
X011336Y022560D01*
X011224Y022560D01*
X011121Y022517D01*
X011043Y022439D01*
X011000Y022336D01*
X011000Y022224D01*
X011013Y022193D01*
X010939Y022267D01*
X010836Y022310D01*
X010724Y022310D01*
X010621Y022267D01*
X010543Y022189D01*
X010500Y022086D01*
X010500Y021974D01*
X010513Y021943D01*
X010489Y021967D01*
X010386Y022010D01*
X010274Y022010D01*
X010171Y021967D01*
X010093Y021889D01*
X010050Y021786D01*
X010050Y021674D01*
X010093Y021571D01*
X010171Y021493D01*
X010274Y021450D01*
X010386Y021450D01*
X010489Y021493D01*
X010567Y021571D01*
X010610Y021674D01*
X010610Y021786D01*
X010597Y021817D01*
X010621Y021793D01*
X010724Y021750D01*
X010836Y021750D01*
X010939Y021793D01*
X011017Y021871D01*
X011060Y021974D01*
X011060Y022086D01*
X011047Y022117D01*
X011121Y022043D01*
X011224Y022000D01*
X011336Y022000D01*
X011439Y022043D01*
X011517Y022121D01*
X011560Y022224D01*
X011560Y022336D01*
X011547Y022367D01*
X011621Y022293D01*
X011724Y022250D01*
X011836Y022250D01*
X011939Y022293D01*
X012042Y022432D02*
X021799Y022432D01*
X021918Y022591D02*
X012058Y022591D01*
X011957Y022749D02*
X023230Y022749D01*
X023230Y022908D02*
X008098Y022908D01*
X008160Y022749D02*
X011603Y022749D01*
X011502Y022591D02*
X008125Y022591D01*
X008074Y022432D02*
X011040Y022432D01*
X011000Y022274D02*
X010924Y022274D01*
X011048Y022115D02*
X011049Y022115D01*
X011053Y021957D02*
X016700Y021957D01*
X016700Y021986D02*
X016700Y021874D01*
X016743Y021771D01*
X016821Y021693D01*
X016924Y021650D01*
X017036Y021650D01*
X017139Y021693D01*
X017217Y021771D01*
X017260Y021874D01*
X017260Y021986D01*
X017217Y022089D01*
X017139Y022167D01*
X017036Y022210D01*
X016924Y022210D01*
X016821Y022167D01*
X016743Y022089D01*
X016700Y021986D01*
X016769Y022115D02*
X011511Y022115D01*
X011560Y022274D02*
X011668Y022274D01*
X010944Y021798D02*
X016732Y021798D01*
X017073Y021481D02*
X010461Y021481D01*
X010596Y021640D02*
X017183Y021640D01*
X017228Y021798D02*
X017582Y021798D01*
X017577Y021640D02*
X017985Y021640D01*
X017550Y021957D02*
X017260Y021957D01*
X017191Y022115D02*
X017619Y022115D01*
X017058Y021323D02*
X010018Y021323D01*
X010060Y021481D02*
X010199Y021481D01*
X010064Y021640D02*
X010016Y021640D01*
X010055Y021798D02*
X008134Y021798D01*
X007951Y021957D02*
X010161Y021957D01*
X010499Y021957D02*
X010507Y021957D01*
X010512Y022115D02*
X008135Y022115D01*
X008160Y022274D02*
X010636Y022274D01*
X010616Y021798D02*
X010605Y021798D01*
X010584Y023542D02*
X009976Y023542D01*
X010179Y023700D02*
X010381Y023700D01*
X010311Y023859D02*
X010249Y023859D01*
X010260Y024017D02*
X010300Y024017D01*
X010976Y023542D02*
X011584Y023542D01*
X011381Y023700D02*
X011179Y023700D01*
X011249Y023859D02*
X011311Y023859D01*
X011300Y024017D02*
X011260Y024017D01*
X011976Y023542D02*
X017084Y023542D01*
X016935Y023700D02*
X012179Y023700D01*
X012249Y023859D02*
X016908Y023859D01*
X016961Y024017D02*
X012260Y024017D01*
X014160Y025733D02*
X014233Y025660D01*
X014328Y025620D01*
X014432Y025620D01*
X014527Y025660D01*
X014600Y025733D01*
X014640Y025828D01*
X014640Y025932D01*
X014600Y026027D01*
X014527Y026100D01*
X014432Y026140D01*
X014328Y026140D01*
X014233Y026100D01*
X014160Y026027D01*
X014120Y025932D01*
X014120Y025828D01*
X014160Y025733D01*
X014148Y025761D02*
X008090Y025761D01*
X008090Y025728D02*
X008050Y025633D01*
X007977Y025560D01*
X007882Y025520D01*
X007778Y025520D01*
X007683Y025560D01*
X007610Y025633D01*
X007570Y025728D01*
X007570Y025832D01*
X007610Y025927D01*
X007683Y026000D01*
X007778Y026040D01*
X007882Y026040D01*
X007977Y026000D01*
X008050Y025927D01*
X008090Y025832D01*
X008090Y025728D01*
X008020Y025602D02*
X014549Y025602D01*
X014560Y025627D02*
X014520Y025532D01*
X014520Y025428D01*
X014560Y025333D01*
X014633Y025260D01*
X014728Y025220D01*
X014832Y025220D01*
X014927Y025260D01*
X015000Y025333D01*
X015040Y025428D01*
X015040Y025532D01*
X015000Y025627D01*
X014927Y025700D01*
X014832Y025740D01*
X014728Y025740D01*
X014633Y025700D01*
X014560Y025627D01*
X014612Y025761D02*
X017338Y025761D01*
X017318Y025712D02*
X017318Y025448D01*
X017418Y025205D01*
X017605Y025018D01*
X017848Y024918D01*
X018112Y024918D01*
X018355Y025018D01*
X018542Y025205D01*
X018642Y025448D01*
X018642Y025712D01*
X018542Y025955D01*
X018355Y026142D01*
X018112Y026242D01*
X017848Y026242D01*
X017605Y026142D01*
X017418Y025955D01*
X017318Y025712D01*
X017318Y025602D02*
X015011Y025602D01*
X015040Y025444D02*
X017319Y025444D01*
X017385Y025285D02*
X014953Y025285D01*
X014607Y025285D02*
X009639Y025285D01*
X009640Y025282D02*
X009600Y025377D01*
X009527Y025450D01*
X009432Y025490D01*
X009328Y025490D01*
X009233Y025450D01*
X009160Y025377D01*
X009120Y025282D01*
X009120Y025178D01*
X009160Y025083D01*
X009233Y025010D01*
X009328Y024970D01*
X009432Y024970D01*
X009527Y025010D01*
X009600Y025083D01*
X009640Y025178D01*
X009640Y025282D01*
X009619Y025127D02*
X017497Y025127D01*
X017726Y024968D02*
X006558Y024968D01*
X006558Y024810D02*
X020983Y024810D01*
X020920Y024968D02*
X020234Y024968D01*
X020355Y025018D02*
X020112Y024918D01*
X019848Y024918D01*
X019605Y025018D01*
X019418Y025205D01*
X019318Y025448D01*
X019318Y025712D01*
X019418Y025955D01*
X019605Y026142D01*
X019848Y026242D01*
X020112Y026242D01*
X020355Y026142D01*
X020542Y025955D01*
X020642Y025712D01*
X020642Y025448D01*
X020542Y025205D01*
X020355Y025018D01*
X020463Y025127D02*
X020959Y025127D01*
X020575Y025285D02*
X021585Y025285D01*
X021618Y025205D02*
X021805Y025018D01*
X022048Y024918D01*
X022312Y024918D01*
X022555Y025018D01*
X022742Y025205D01*
X022842Y025448D01*
X022842Y025712D01*
X022742Y025955D01*
X022555Y026142D01*
X022312Y026242D01*
X022048Y026242D01*
X021805Y026142D01*
X021618Y025955D01*
X021518Y025712D01*
X021518Y025448D01*
X021618Y025205D01*
X021697Y025127D02*
X021401Y025127D01*
X021440Y024968D02*
X021926Y024968D01*
X022434Y024968D02*
X023926Y024968D01*
X023805Y025018D02*
X024048Y024918D01*
X024312Y024918D01*
X024555Y025018D01*
X024742Y025205D01*
X024842Y025448D01*
X024842Y025712D01*
X024742Y025955D01*
X024555Y026142D01*
X024312Y026242D01*
X024048Y026242D01*
X023805Y026142D01*
X023618Y025955D01*
X023518Y025712D01*
X023518Y025448D01*
X023618Y025205D01*
X023805Y025018D01*
X023697Y025127D02*
X022663Y025127D01*
X022775Y025285D02*
X023585Y025285D01*
X023519Y025444D02*
X022841Y025444D01*
X022842Y025602D02*
X023518Y025602D01*
X023538Y025761D02*
X022822Y025761D01*
X022757Y025919D02*
X023603Y025919D01*
X023534Y026050D02*
X023710Y026226D01*
X023805Y026456D01*
X023805Y026704D01*
X023710Y026934D01*
X023534Y027110D01*
X023304Y027205D01*
X023056Y027205D01*
X022826Y027110D01*
X022650Y026934D01*
X022555Y026704D01*
X022555Y026456D01*
X022650Y026226D01*
X022826Y026050D01*
X023056Y025955D01*
X023304Y025955D01*
X023534Y026050D01*
X023561Y026078D02*
X023741Y026078D01*
X023714Y026236D02*
X024033Y026236D01*
X024327Y026236D02*
X026233Y026236D01*
X026248Y026242D02*
X026005Y026142D01*
X025818Y025955D01*
X025718Y025712D01*
X025718Y025448D01*
X025818Y025205D01*
X026005Y025018D01*
X026248Y024918D01*
X026512Y024918D01*
X026755Y025018D01*
X026942Y025205D01*
X027042Y025448D01*
X027042Y025712D01*
X026942Y025955D01*
X026755Y026142D01*
X026512Y026242D01*
X026248Y026242D01*
X026527Y026236D02*
X026846Y026236D01*
X026850Y026226D02*
X027026Y026050D01*
X027256Y025955D01*
X027504Y025955D01*
X027734Y026050D01*
X027910Y026226D01*
X028005Y026456D01*
X028005Y026704D01*
X027910Y026934D01*
X027734Y027110D01*
X027504Y027205D01*
X027256Y027205D01*
X027026Y027110D01*
X026850Y026934D01*
X026755Y026704D01*
X026755Y026456D01*
X026850Y026226D01*
X026819Y026078D02*
X026999Y026078D01*
X026957Y025919D02*
X027803Y025919D01*
X027818Y025955D02*
X027718Y025712D01*
X027718Y025448D01*
X027818Y025205D01*
X028005Y025018D01*
X028248Y024918D01*
X028512Y024918D01*
X028755Y025018D01*
X028942Y025205D01*
X029042Y025448D01*
X029042Y025712D01*
X028942Y025955D01*
X028755Y026142D01*
X028512Y026242D01*
X028248Y026242D01*
X028005Y026142D01*
X027818Y025955D01*
X027761Y026078D02*
X027941Y026078D01*
X027914Y026236D02*
X028233Y026236D01*
X028527Y026236D02*
X031768Y026236D01*
X031760Y026227D02*
X031720Y026132D01*
X031720Y026028D01*
X031760Y025933D01*
X031833Y025860D01*
X031904Y025830D01*
X031833Y025800D01*
X031760Y025727D01*
X031720Y025632D01*
X031720Y025528D01*
X031760Y025433D01*
X031833Y025360D01*
X031904Y025330D01*
X031833Y025300D01*
X031760Y025227D01*
X031720Y025132D01*
X031720Y025028D01*
X031760Y024933D01*
X031833Y024860D01*
X031928Y024820D01*
X032032Y024820D01*
X032127Y024860D01*
X032200Y024933D01*
X032240Y025028D01*
X032240Y025132D01*
X032200Y025227D01*
X032127Y025300D01*
X032056Y025330D01*
X032127Y025360D01*
X032200Y025433D01*
X032240Y025528D01*
X032240Y025632D01*
X032200Y025727D01*
X032127Y025800D01*
X032056Y025830D01*
X032127Y025860D01*
X032200Y025933D01*
X032240Y026028D01*
X032240Y026132D01*
X032200Y026227D01*
X032127Y026300D01*
X032056Y026330D01*
X032127Y026360D01*
X032200Y026433D01*
X032240Y026528D01*
X032240Y026632D01*
X032200Y026727D01*
X032127Y026800D01*
X032032Y026840D01*
X031928Y026840D01*
X031833Y026800D01*
X031760Y026727D01*
X031720Y026632D01*
X031720Y026528D01*
X031760Y026433D01*
X031833Y026360D01*
X031904Y026330D01*
X031833Y026300D01*
X031760Y026227D01*
X031720Y026078D02*
X028819Y026078D01*
X028957Y025919D02*
X031773Y025919D01*
X031793Y025761D02*
X029022Y025761D01*
X029042Y025602D02*
X031720Y025602D01*
X031755Y025444D02*
X029041Y025444D01*
X028975Y025285D02*
X031817Y025285D01*
X031720Y025127D02*
X028863Y025127D01*
X028634Y024968D02*
X031745Y024968D01*
X032215Y024968D02*
X033745Y024968D01*
X033760Y024933D02*
X033720Y025028D01*
X033720Y025132D01*
X033760Y025227D01*
X033833Y025300D01*
X033904Y025330D01*
X033833Y025360D01*
X033760Y025433D01*
X033730Y025504D01*
X033700Y025433D01*
X033627Y025360D01*
X033532Y025320D01*
X033428Y025320D01*
X033333Y025360D01*
X033260Y025433D01*
X033220Y025528D01*
X033220Y025632D01*
X033260Y025727D01*
X033333Y025800D01*
X033428Y025840D01*
X033532Y025840D01*
X033627Y025800D01*
X033700Y025727D01*
X033730Y025656D01*
X033760Y025727D01*
X033833Y025800D01*
X033904Y025830D01*
X033833Y025860D01*
X033760Y025933D01*
X033720Y026028D01*
X033720Y026132D01*
X033760Y026227D01*
X033833Y026300D01*
X033928Y026340D01*
X034032Y026340D01*
X034127Y026300D01*
X034200Y026227D01*
X034240Y026132D01*
X034240Y026028D01*
X034200Y025933D01*
X034127Y025860D01*
X034056Y025830D01*
X034127Y025800D01*
X034200Y025727D01*
X034240Y025632D01*
X034240Y025528D01*
X034200Y025433D01*
X034127Y025360D01*
X034056Y025330D01*
X034127Y025300D01*
X034200Y025227D01*
X034240Y025132D01*
X034240Y025028D01*
X034200Y024933D01*
X034127Y024860D01*
X034056Y024830D01*
X034127Y024800D01*
X034200Y024727D01*
X034240Y024632D01*
X034240Y024528D01*
X034200Y024433D01*
X034127Y024360D01*
X034032Y024320D01*
X033928Y024320D01*
X033833Y024360D01*
X033760Y024433D01*
X033720Y024528D01*
X033720Y024632D01*
X033760Y024727D01*
X033833Y024800D01*
X033904Y024830D01*
X033833Y024860D01*
X033760Y024933D01*
X033855Y024810D02*
X021377Y024810D01*
X021519Y025444D02*
X020641Y025444D01*
X020642Y025602D02*
X021518Y025602D01*
X021538Y025761D02*
X020622Y025761D01*
X020557Y025919D02*
X021603Y025919D01*
X021741Y026078D02*
X020419Y026078D01*
X020127Y026236D02*
X022033Y026236D01*
X022327Y026236D02*
X022646Y026236D01*
X022619Y026078D02*
X022799Y026078D01*
X022580Y026395D02*
X019580Y026395D01*
X019605Y026456D02*
X019510Y026226D01*
X019334Y026050D01*
X019104Y025955D01*
X018856Y025955D01*
X018626Y026050D01*
X018450Y026226D01*
X018355Y026456D01*
X018355Y026704D01*
X018450Y026934D01*
X018626Y027110D01*
X018856Y027205D01*
X019104Y027205D01*
X019334Y027110D01*
X019510Y026934D01*
X019605Y026704D01*
X019605Y026456D01*
X019605Y026553D02*
X022555Y026553D01*
X022558Y026712D02*
X019602Y026712D01*
X019536Y026870D02*
X022624Y026870D01*
X022555Y027018D02*
X022742Y027205D01*
X022842Y027448D01*
X022842Y027712D01*
X022742Y027955D01*
X022555Y028142D01*
X022312Y028242D01*
X022048Y028242D01*
X021805Y028142D01*
X021618Y027955D01*
X021518Y027712D01*
X021518Y027448D01*
X021618Y027205D01*
X021805Y027018D01*
X022048Y026918D01*
X022312Y026918D01*
X022555Y027018D01*
X022565Y027029D02*
X022745Y027029D01*
X022724Y027187D02*
X023012Y027187D01*
X022800Y027346D02*
X023560Y027346D01*
X023518Y027448D02*
X023618Y027205D01*
X023805Y027018D01*
X024048Y026918D01*
X024312Y026918D01*
X024555Y027018D01*
X024742Y027205D01*
X024842Y027448D01*
X024842Y027712D01*
X024742Y027955D01*
X024555Y028142D01*
X024312Y028242D01*
X024048Y028242D01*
X023805Y028142D01*
X023618Y027955D01*
X023518Y027712D01*
X023518Y027448D01*
X023518Y027504D02*
X022842Y027504D01*
X022842Y027663D02*
X023518Y027663D01*
X023563Y027821D02*
X022797Y027821D01*
X022717Y027980D02*
X023643Y027980D01*
X023801Y028138D02*
X022559Y028138D01*
X021801Y028138D02*
X020359Y028138D01*
X020355Y028142D02*
X020112Y028242D01*
X019848Y028242D01*
X019605Y028142D01*
X019418Y027955D01*
X019318Y027712D01*
X019318Y027448D01*
X019418Y027205D01*
X019605Y027018D01*
X019848Y026918D01*
X020112Y026918D01*
X020355Y027018D01*
X020542Y027205D01*
X020642Y027448D01*
X020642Y027712D01*
X020542Y027955D01*
X020355Y028142D01*
X020517Y027980D02*
X021643Y027980D01*
X021563Y027821D02*
X020597Y027821D01*
X020642Y027663D02*
X021518Y027663D01*
X021518Y027504D02*
X020642Y027504D01*
X020600Y027346D02*
X021560Y027346D01*
X021636Y027187D02*
X020524Y027187D01*
X020365Y027029D02*
X021795Y027029D01*
X023348Y027187D02*
X023636Y027187D01*
X023615Y027029D02*
X023795Y027029D01*
X023736Y026870D02*
X026824Y026870D01*
X026755Y027018D02*
X026942Y027205D01*
X027042Y027448D01*
X027042Y027712D01*
X026942Y027955D01*
X026755Y028142D01*
X026512Y028242D01*
X026248Y028242D01*
X026005Y028142D01*
X025818Y027955D01*
X025718Y027712D01*
X025718Y027448D01*
X025818Y027205D01*
X026005Y027018D01*
X026248Y026918D01*
X026512Y026918D01*
X026755Y027018D01*
X026765Y027029D02*
X026945Y027029D01*
X026924Y027187D02*
X027212Y027187D01*
X027000Y027346D02*
X027760Y027346D01*
X027718Y027448D02*
X027818Y027205D01*
X028005Y027018D01*
X028248Y026918D01*
X028512Y026918D01*
X028755Y027018D01*
X028942Y027205D01*
X029042Y027448D01*
X029042Y027712D01*
X028942Y027955D01*
X028755Y028142D01*
X028512Y028242D01*
X028248Y028242D01*
X028005Y028142D01*
X027818Y027955D01*
X027718Y027712D01*
X027718Y027448D01*
X027718Y027504D02*
X027042Y027504D01*
X027042Y027663D02*
X027718Y027663D01*
X027763Y027821D02*
X026997Y027821D01*
X026917Y027980D02*
X027843Y027980D01*
X028001Y028138D02*
X026759Y028138D01*
X026001Y028138D02*
X024559Y028138D01*
X024717Y027980D02*
X025843Y027980D01*
X025763Y027821D02*
X024797Y027821D01*
X024842Y027663D02*
X025718Y027663D01*
X025718Y027504D02*
X024842Y027504D01*
X024800Y027346D02*
X025760Y027346D01*
X025836Y027187D02*
X024724Y027187D01*
X024565Y027029D02*
X025995Y027029D01*
X026758Y026712D02*
X023802Y026712D01*
X023805Y026553D02*
X026755Y026553D01*
X026780Y026395D02*
X023780Y026395D01*
X024619Y026078D02*
X025941Y026078D01*
X025803Y025919D02*
X024757Y025919D01*
X024822Y025761D02*
X025738Y025761D01*
X025718Y025602D02*
X024842Y025602D01*
X024841Y025444D02*
X025719Y025444D01*
X025785Y025285D02*
X024775Y025285D01*
X024663Y025127D02*
X025897Y025127D01*
X026126Y024968D02*
X024434Y024968D01*
X024230Y024651D02*
X025249Y024651D01*
X025219Y024621D02*
X025154Y024465D01*
X025154Y024295D01*
X025219Y024139D01*
X025339Y024019D01*
X025495Y023954D01*
X025665Y023954D01*
X025821Y024019D01*
X025941Y024139D01*
X026006Y024295D01*
X026006Y024465D01*
X025941Y024621D01*
X025821Y024741D01*
X025665Y024806D01*
X025495Y024806D01*
X025339Y024741D01*
X025219Y024621D01*
X025166Y024493D02*
X024230Y024493D01*
X024230Y024334D02*
X025154Y024334D01*
X025204Y024176D02*
X024230Y024176D01*
X024230Y024017D02*
X025344Y024017D01*
X025816Y024017D02*
X028020Y024017D01*
X028020Y024032D02*
X028020Y023928D01*
X028060Y023833D01*
X028133Y023760D01*
X028228Y023720D01*
X028332Y023720D01*
X028427Y023760D01*
X028500Y023833D01*
X028540Y023928D01*
X028540Y024032D01*
X028500Y024127D01*
X028427Y024200D01*
X028332Y024240D01*
X028228Y024240D01*
X028133Y024200D01*
X028060Y024127D01*
X028020Y024032D01*
X028108Y024176D02*
X025956Y024176D01*
X026006Y024334D02*
X031914Y024334D01*
X031928Y024340D02*
X031833Y024300D01*
X031760Y024227D01*
X031720Y024132D01*
X031720Y024028D01*
X031760Y023933D01*
X031833Y023860D01*
X031904Y023830D01*
X031833Y023800D01*
X031760Y023727D01*
X031720Y023632D01*
X031720Y023528D01*
X031760Y023433D01*
X031833Y023360D01*
X031928Y023320D01*
X032032Y023320D01*
X032127Y023360D01*
X032200Y023433D01*
X032240Y023528D01*
X032240Y023632D01*
X032200Y023727D01*
X032127Y023800D01*
X032056Y023830D01*
X032127Y023860D01*
X032200Y023933D01*
X032240Y024028D01*
X032240Y024132D01*
X032200Y024227D01*
X032127Y024300D01*
X032032Y024340D01*
X031928Y024340D01*
X032046Y024334D02*
X033364Y024334D01*
X033378Y024340D02*
X033283Y024300D01*
X033210Y024227D01*
X033170Y024132D01*
X033170Y024028D01*
X033210Y023933D01*
X033283Y023860D01*
X033378Y023820D01*
X033482Y023820D01*
X033577Y023860D01*
X033650Y023933D01*
X033690Y024028D01*
X033690Y024132D01*
X033650Y024227D01*
X033577Y024300D01*
X033482Y024340D01*
X033378Y024340D01*
X033496Y024334D02*
X033894Y024334D01*
X034066Y024334D02*
X036266Y024334D01*
X036266Y024176D02*
X033672Y024176D01*
X033685Y024017D02*
X036266Y024017D01*
X036266Y023859D02*
X033575Y023859D01*
X033760Y023727D02*
X033720Y023632D01*
X033720Y023528D01*
X033760Y023433D01*
X033833Y023360D01*
X033904Y023330D01*
X033833Y023300D01*
X033760Y023227D01*
X033720Y023132D01*
X033720Y023028D01*
X033760Y022933D01*
X033833Y022860D01*
X033928Y022820D01*
X034032Y022820D01*
X034127Y022860D01*
X034200Y022933D01*
X034240Y023028D01*
X034240Y023132D01*
X034200Y023227D01*
X034127Y023300D01*
X034056Y023330D01*
X034127Y023360D01*
X034200Y023433D01*
X034240Y023528D01*
X034240Y023632D01*
X034200Y023727D01*
X034127Y023800D01*
X034032Y023840D01*
X033928Y023840D01*
X033833Y023800D01*
X033760Y023727D01*
X033748Y023700D02*
X032212Y023700D01*
X032240Y023542D02*
X033720Y023542D01*
X033809Y023383D02*
X032151Y023383D01*
X031809Y023383D02*
X024230Y023383D01*
X024230Y023225D02*
X033758Y023225D01*
X033720Y023066D02*
X024230Y023066D01*
X024230Y022908D02*
X033785Y022908D01*
X034175Y022908D02*
X036266Y022908D01*
X036266Y023066D02*
X034240Y023066D01*
X034202Y023225D02*
X036266Y023225D01*
X036266Y023383D02*
X034151Y023383D01*
X034240Y023542D02*
X036266Y023542D01*
X036266Y023700D02*
X034212Y023700D01*
X034225Y024493D02*
X036266Y024493D01*
X036266Y024651D02*
X034232Y024651D01*
X034105Y024810D02*
X036266Y024810D01*
X036266Y024968D02*
X034215Y024968D01*
X034240Y025127D02*
X036266Y025127D01*
X036266Y025285D02*
X034143Y025285D01*
X034205Y025444D02*
X036266Y025444D01*
X036266Y025602D02*
X034240Y025602D01*
X034167Y025761D02*
X036266Y025761D01*
X036266Y025919D02*
X034187Y025919D01*
X034240Y026078D02*
X036266Y026078D01*
X036266Y026236D02*
X034192Y026236D01*
X033768Y026236D02*
X032192Y026236D01*
X032162Y026395D02*
X033298Y026395D01*
X033333Y026360D02*
X033428Y026320D01*
X033532Y026320D01*
X033627Y026360D01*
X033700Y026433D01*
X033740Y026528D01*
X033740Y026632D01*
X033700Y026727D01*
X033627Y026800D01*
X033532Y026840D01*
X033428Y026840D01*
X033333Y026800D01*
X033260Y026727D01*
X033220Y026632D01*
X033220Y026528D01*
X033260Y026433D01*
X033333Y026360D01*
X033220Y026553D02*
X032240Y026553D01*
X032207Y026712D02*
X033253Y026712D01*
X033707Y026712D02*
X035307Y026712D01*
X035324Y026751D02*
X035278Y026640D01*
X035278Y026520D01*
X035324Y026409D01*
X035409Y026324D01*
X035520Y026278D01*
X035640Y026278D01*
X035751Y026324D01*
X035836Y026409D01*
X035882Y026520D01*
X035882Y026640D01*
X035836Y026751D01*
X035751Y026836D01*
X035640Y026882D01*
X035520Y026882D01*
X035409Y026836D01*
X035324Y026751D01*
X035278Y026553D02*
X033740Y026553D01*
X033662Y026395D02*
X035338Y026395D01*
X035822Y026395D02*
X036266Y026395D01*
X036266Y026553D02*
X035882Y026553D01*
X035853Y026712D02*
X036266Y026712D01*
X036266Y026870D02*
X035670Y026870D01*
X035490Y026870D02*
X034138Y026870D01*
X034127Y026860D02*
X034200Y026933D01*
X034240Y027028D01*
X034240Y027132D01*
X034200Y027227D01*
X034127Y027300D01*
X034032Y027340D01*
X033928Y027340D01*
X033833Y027300D01*
X033760Y027227D01*
X033720Y027132D01*
X033720Y027028D01*
X033760Y026933D01*
X033833Y026860D01*
X033928Y026820D01*
X034032Y026820D01*
X034127Y026860D01*
X034240Y027029D02*
X036266Y027029D01*
X036266Y027187D02*
X034217Y027187D01*
X033822Y026870D02*
X027936Y026870D01*
X027995Y027029D02*
X027815Y027029D01*
X027836Y027187D02*
X027548Y027187D01*
X028002Y026712D02*
X031753Y026712D01*
X031720Y026553D02*
X028005Y026553D01*
X027980Y026395D02*
X031798Y026395D01*
X032187Y025919D02*
X033773Y025919D01*
X033793Y025761D02*
X033667Y025761D01*
X033705Y025444D02*
X033755Y025444D01*
X033817Y025285D02*
X032143Y025285D01*
X032205Y025444D02*
X033255Y025444D01*
X033220Y025602D02*
X032240Y025602D01*
X032167Y025761D02*
X033293Y025761D01*
X033720Y026078D02*
X032240Y026078D01*
X032240Y025127D02*
X033720Y025127D01*
X033728Y024651D02*
X025911Y024651D01*
X025994Y024493D02*
X033735Y024493D01*
X033188Y024176D02*
X032222Y024176D01*
X032235Y024017D02*
X033175Y024017D01*
X033285Y023859D02*
X032125Y023859D01*
X031835Y023859D02*
X028511Y023859D01*
X028540Y024017D02*
X031725Y024017D01*
X031738Y024176D02*
X028452Y024176D01*
X028049Y023859D02*
X024230Y023859D01*
X024230Y023700D02*
X031748Y023700D01*
X031720Y023542D02*
X024230Y023542D01*
X024230Y022749D02*
X031781Y022749D01*
X031760Y022727D02*
X031720Y022632D01*
X031720Y022528D01*
X031760Y022433D01*
X031833Y022360D01*
X031904Y022330D01*
X031833Y022300D01*
X031760Y022227D01*
X031720Y022132D01*
X031720Y022028D01*
X031760Y021933D01*
X031833Y021860D01*
X031904Y021830D01*
X031833Y021800D01*
X031760Y021727D01*
X031720Y021632D01*
X031720Y021528D01*
X031760Y021433D01*
X031833Y021360D01*
X031928Y021320D01*
X032032Y021320D01*
X032127Y021360D01*
X032200Y021433D01*
X032240Y021528D01*
X032240Y021632D01*
X032200Y021727D01*
X032127Y021800D01*
X032056Y021830D01*
X032127Y021860D01*
X032200Y021933D01*
X032240Y022028D01*
X032240Y022132D01*
X032200Y022227D01*
X032127Y022300D01*
X032056Y022330D01*
X032127Y022360D01*
X032200Y022433D01*
X032240Y022528D01*
X032240Y022632D01*
X032200Y022727D01*
X032127Y022800D01*
X032032Y022840D01*
X031928Y022840D01*
X031833Y022800D01*
X031760Y022727D01*
X031720Y022591D02*
X025513Y022591D01*
X025488Y022616D02*
X025321Y022685D01*
X025139Y022685D01*
X024972Y022616D01*
X024844Y022488D01*
X024775Y022321D01*
X024775Y022139D01*
X024844Y021972D01*
X024972Y021844D01*
X025139Y021775D01*
X025321Y021775D01*
X025488Y021844D01*
X025616Y021972D01*
X025685Y022139D01*
X025685Y022321D01*
X025616Y022488D01*
X025488Y022616D01*
X025639Y022432D02*
X031760Y022432D01*
X031806Y022274D02*
X028502Y022274D01*
X028500Y022277D02*
X028540Y022182D01*
X028540Y022078D01*
X028500Y021983D01*
X028427Y021910D01*
X028332Y021870D01*
X028228Y021870D01*
X028133Y021910D01*
X028060Y021983D01*
X028020Y022078D01*
X028020Y022182D01*
X028060Y022277D01*
X028133Y022350D01*
X028228Y022390D01*
X028332Y022390D01*
X028427Y022350D01*
X028500Y022277D01*
X028540Y022115D02*
X031720Y022115D01*
X031750Y021957D02*
X028474Y021957D01*
X028086Y021957D02*
X025600Y021957D01*
X025675Y022115D02*
X028020Y022115D01*
X028058Y022274D02*
X025685Y022274D01*
X025377Y021798D02*
X031830Y021798D01*
X031723Y021640D02*
X024230Y021640D01*
X024230Y021481D02*
X028713Y021481D01*
X028733Y021500D02*
X028660Y021427D01*
X028620Y021332D01*
X028620Y021228D01*
X028660Y021133D01*
X028733Y021060D01*
X028828Y021020D01*
X028932Y021020D01*
X029027Y021060D01*
X029100Y021133D01*
X029140Y021228D01*
X029140Y021332D01*
X029100Y021427D01*
X029027Y021500D01*
X028932Y021540D01*
X028828Y021540D01*
X028733Y021500D01*
X028620Y021323D02*
X025330Y021323D01*
X025330Y021164D02*
X028647Y021164D01*
X028733Y020900D02*
X028660Y020827D01*
X028620Y020732D01*
X028620Y020628D01*
X028660Y020533D01*
X028733Y020460D01*
X028828Y020420D01*
X028932Y020420D01*
X029027Y020460D01*
X029100Y020533D01*
X029140Y020628D01*
X029140Y020732D01*
X029100Y020827D01*
X029027Y020900D01*
X028932Y020940D01*
X028828Y020940D01*
X028733Y020900D01*
X028679Y020847D02*
X025330Y020847D01*
X025330Y020689D02*
X028620Y020689D01*
X028662Y020530D02*
X027756Y020530D01*
X027732Y020540D02*
X027628Y020540D01*
X027533Y020500D01*
X027460Y020427D01*
X027420Y020332D01*
X027420Y020228D01*
X027460Y020133D01*
X027533Y020060D01*
X027628Y020020D01*
X027732Y020020D01*
X027827Y020060D01*
X027900Y020133D01*
X027940Y020228D01*
X027940Y020332D01*
X027900Y020427D01*
X027827Y020500D01*
X027732Y020540D01*
X027604Y020530D02*
X025330Y020530D01*
X025330Y020372D02*
X027436Y020372D01*
X027426Y020213D02*
X025330Y020213D01*
X025330Y020055D02*
X027545Y020055D01*
X027815Y020055D02*
X028020Y020055D01*
X028020Y020082D02*
X028020Y019978D01*
X028060Y019883D01*
X028133Y019810D01*
X028228Y019770D01*
X028332Y019770D01*
X028427Y019810D01*
X028500Y019883D01*
X028540Y019978D01*
X028540Y020082D01*
X028500Y020177D01*
X028427Y020250D01*
X028332Y020290D01*
X028228Y020290D01*
X028133Y020250D01*
X028060Y020177D01*
X028020Y020082D01*
X028095Y020213D02*
X027934Y020213D01*
X027924Y020372D02*
X032320Y020372D01*
X032320Y020382D02*
X032320Y020278D01*
X032360Y020183D01*
X032433Y020110D01*
X032528Y020070D01*
X032632Y020070D01*
X032727Y020110D01*
X032800Y020183D01*
X032840Y020278D01*
X032840Y020382D01*
X032800Y020477D01*
X032727Y020550D01*
X032632Y020590D01*
X032528Y020590D01*
X032433Y020550D01*
X032360Y020477D01*
X032320Y020382D01*
X032347Y020213D02*
X032206Y020213D01*
X032200Y020227D02*
X032127Y020300D01*
X032032Y020340D01*
X031928Y020340D01*
X031833Y020300D01*
X031760Y020227D01*
X031720Y020132D01*
X031720Y020028D01*
X031760Y019933D01*
X031833Y019860D01*
X031904Y019830D01*
X031833Y019800D01*
X031760Y019727D01*
X031720Y019632D01*
X031720Y019528D01*
X031760Y019433D01*
X031833Y019360D01*
X031904Y019330D01*
X031833Y019300D01*
X031760Y019227D01*
X031720Y019132D01*
X031720Y019028D01*
X031760Y018933D01*
X031833Y018860D01*
X031904Y018830D01*
X031833Y018800D01*
X031760Y018727D01*
X031720Y018632D01*
X031720Y018528D01*
X031760Y018433D01*
X031833Y018360D01*
X031928Y018320D01*
X032032Y018320D01*
X032127Y018360D01*
X032200Y018433D01*
X032240Y018528D01*
X032240Y018632D01*
X032200Y018727D01*
X032127Y018800D01*
X032056Y018830D01*
X032127Y018860D01*
X032200Y018933D01*
X032240Y019028D01*
X032240Y019132D01*
X032200Y019227D01*
X032127Y019300D01*
X032056Y019330D01*
X032127Y019360D01*
X032200Y019433D01*
X032240Y019528D01*
X032240Y019632D01*
X032200Y019727D01*
X032127Y019800D01*
X032056Y019830D01*
X032127Y019860D01*
X032200Y019933D01*
X032240Y020028D01*
X032240Y020132D01*
X032200Y020227D01*
X032240Y020055D02*
X036266Y020055D01*
X036266Y020213D02*
X032813Y020213D01*
X032840Y020372D02*
X033821Y020372D01*
X033833Y020360D02*
X033928Y020320D01*
X034032Y020320D01*
X034127Y020360D01*
X034200Y020433D01*
X034240Y020528D01*
X034240Y020632D01*
X034200Y020727D01*
X034127Y020800D01*
X034056Y020830D01*
X034127Y020860D01*
X034200Y020933D01*
X034240Y021028D01*
X034240Y021132D01*
X034200Y021227D01*
X034127Y021300D01*
X034056Y021330D01*
X034127Y021360D01*
X034200Y021433D01*
X034240Y021528D01*
X034240Y021632D01*
X034200Y021727D01*
X034127Y021800D01*
X034032Y021840D01*
X033928Y021840D01*
X033833Y021800D01*
X033760Y021727D01*
X033720Y021632D01*
X033720Y021528D01*
X033760Y021433D01*
X033833Y021360D01*
X033904Y021330D01*
X033833Y021300D01*
X033760Y021227D01*
X033720Y021132D01*
X033720Y021028D01*
X033760Y020933D01*
X033833Y020860D01*
X033904Y020830D01*
X033833Y020800D01*
X033760Y020727D01*
X033720Y020632D01*
X033720Y020528D01*
X033760Y020433D01*
X033833Y020360D01*
X033720Y020530D02*
X032748Y020530D01*
X032412Y020530D02*
X029098Y020530D01*
X029140Y020689D02*
X033744Y020689D01*
X033863Y020847D02*
X029081Y020847D01*
X029113Y021164D02*
X033733Y021164D01*
X033729Y021006D02*
X025330Y021006D01*
X025083Y021798D02*
X024377Y021798D01*
X024600Y021957D02*
X024860Y021957D01*
X024785Y022115D02*
X024675Y022115D01*
X024685Y022274D02*
X024775Y022274D01*
X024821Y022432D02*
X024639Y022432D01*
X024513Y022591D02*
X024947Y022591D01*
X023230Y023066D02*
X006558Y023066D01*
X006558Y022908D02*
X007662Y022908D01*
X007600Y022749D02*
X007362Y022749D01*
X007336Y022760D02*
X007224Y022760D01*
X007121Y022717D01*
X007043Y022639D01*
X007000Y022536D01*
X007000Y022424D01*
X007043Y022321D01*
X007121Y022243D01*
X007212Y022205D01*
X007121Y022167D01*
X007043Y022089D01*
X007000Y021986D01*
X007000Y021874D01*
X007043Y021771D01*
X007121Y021693D01*
X007224Y021650D01*
X007336Y021650D01*
X007439Y021693D01*
X007517Y021771D01*
X007560Y021874D01*
X007560Y021986D01*
X007517Y022089D01*
X007439Y022167D01*
X007348Y022205D01*
X007439Y022243D01*
X007517Y022321D01*
X007560Y022424D01*
X007560Y022536D01*
X007517Y022639D01*
X007439Y022717D01*
X007336Y022760D01*
X007198Y022749D02*
X006558Y022749D01*
X006558Y022591D02*
X007023Y022591D01*
X007000Y022432D02*
X006558Y022432D01*
X006558Y022274D02*
X007090Y022274D01*
X007069Y022115D02*
X006558Y022115D01*
X006558Y021957D02*
X007000Y021957D01*
X007032Y021798D02*
X006558Y021798D01*
X006558Y021640D02*
X007600Y021640D01*
X007626Y021798D02*
X007528Y021798D01*
X007560Y021957D02*
X007809Y021957D01*
X007625Y022115D02*
X007491Y022115D01*
X007470Y022274D02*
X007600Y022274D01*
X007560Y022432D02*
X007686Y022432D01*
X007635Y022591D02*
X007537Y022591D01*
X006558Y023225D02*
X023230Y023225D01*
X023230Y023383D02*
X006558Y023383D01*
X006558Y023542D02*
X008584Y023542D01*
X008381Y023700D02*
X006558Y023700D01*
X006558Y023859D02*
X008311Y023859D01*
X008300Y024017D02*
X006558Y024017D01*
X006558Y025127D02*
X009141Y025127D01*
X009121Y025285D02*
X007503Y025285D01*
X007477Y025260D02*
X007550Y025333D01*
X007590Y025428D01*
X007590Y025532D01*
X007550Y025627D01*
X007477Y025700D01*
X007382Y025740D01*
X007278Y025740D01*
X007183Y025700D01*
X007110Y025627D01*
X007070Y025532D01*
X007070Y025428D01*
X007110Y025333D01*
X007183Y025260D01*
X007278Y025220D01*
X007382Y025220D01*
X007477Y025260D01*
X007590Y025444D02*
X009226Y025444D01*
X009534Y025444D02*
X014520Y025444D01*
X014640Y025919D02*
X017403Y025919D01*
X017541Y026078D02*
X014550Y026078D01*
X014250Y026183D02*
X014290Y026278D01*
X014290Y026382D01*
X014250Y026477D01*
X014177Y026550D01*
X014082Y026590D01*
X013978Y026590D01*
X013883Y026550D01*
X013810Y026477D01*
X013770Y026382D01*
X013770Y026278D01*
X013810Y026183D01*
X013883Y026110D01*
X013978Y026070D01*
X014082Y026070D01*
X014177Y026110D01*
X014250Y026183D01*
X014272Y026236D02*
X016396Y026236D01*
X016374Y026259D02*
X016459Y026174D01*
X016570Y026128D01*
X016690Y026128D01*
X016801Y026174D01*
X016886Y026259D01*
X016932Y026370D01*
X016932Y026490D01*
X016886Y026601D01*
X016801Y026686D01*
X016690Y026732D01*
X016570Y026732D01*
X016459Y026686D01*
X016374Y026601D01*
X016328Y026490D01*
X016328Y026370D01*
X016374Y026259D01*
X016328Y026395D02*
X014285Y026395D01*
X014171Y026553D02*
X016354Y026553D01*
X016519Y026712D02*
X013840Y026712D01*
X013840Y026732D02*
X013800Y026827D01*
X013727Y026900D01*
X013632Y026940D01*
X013528Y026940D01*
X013433Y026900D01*
X013360Y026827D01*
X013320Y026732D01*
X013320Y026628D01*
X013360Y026533D01*
X013433Y026460D01*
X013528Y026420D01*
X013632Y026420D01*
X013727Y026460D01*
X013800Y026533D01*
X013840Y026628D01*
X013840Y026732D01*
X013758Y026870D02*
X018424Y026870D01*
X018355Y027018D02*
X018542Y027205D01*
X018642Y027448D01*
X018642Y027712D01*
X018542Y027955D01*
X018355Y028142D01*
X018112Y028242D01*
X017848Y028242D01*
X017605Y028142D01*
X017418Y027955D01*
X017318Y027712D01*
X017318Y027448D01*
X017418Y027205D01*
X017605Y027018D01*
X017848Y026918D01*
X018112Y026918D01*
X018355Y027018D01*
X018365Y027029D02*
X018545Y027029D01*
X018524Y027187D02*
X018812Y027187D01*
X018600Y027346D02*
X019360Y027346D01*
X019318Y027504D02*
X018642Y027504D01*
X018642Y027663D02*
X019318Y027663D01*
X019363Y027821D02*
X018597Y027821D01*
X018517Y027980D02*
X019443Y027980D01*
X019601Y028138D02*
X018359Y028138D01*
X017601Y028138D02*
X011780Y028138D01*
X011779Y027980D02*
X017443Y027980D01*
X017363Y027821D02*
X011766Y027821D01*
X011729Y027663D02*
X017318Y027663D01*
X017318Y027504D02*
X011666Y027504D01*
X011570Y027346D02*
X017360Y027346D01*
X017436Y027187D02*
X013417Y027187D01*
X013400Y027227D02*
X013327Y027300D01*
X013232Y027340D01*
X013128Y027340D01*
X013033Y027300D01*
X012960Y027227D01*
X012920Y027132D01*
X012920Y027028D01*
X012960Y026933D01*
X013033Y026860D01*
X013128Y026820D01*
X013232Y026820D01*
X013327Y026860D01*
X013400Y026933D01*
X013440Y027028D01*
X013440Y027132D01*
X013400Y027227D01*
X013440Y027029D02*
X017595Y027029D01*
X016906Y026553D02*
X018355Y026553D01*
X018358Y026712D02*
X016741Y026712D01*
X016932Y026395D02*
X018380Y026395D01*
X018446Y026236D02*
X018127Y026236D01*
X017833Y026236D02*
X016864Y026236D01*
X018234Y024968D02*
X019726Y024968D01*
X019497Y025127D02*
X018463Y025127D01*
X018575Y025285D02*
X019385Y025285D01*
X019319Y025444D02*
X018641Y025444D01*
X018642Y025602D02*
X019318Y025602D01*
X019338Y025761D02*
X018622Y025761D01*
X018557Y025919D02*
X019403Y025919D01*
X019361Y026078D02*
X019541Y026078D01*
X019514Y026236D02*
X019833Y026236D01*
X019595Y027029D02*
X019415Y027029D01*
X019436Y027187D02*
X019148Y027187D01*
X018599Y026078D02*
X018419Y026078D01*
X017499Y024017D02*
X019511Y024017D01*
X019458Y023859D02*
X017552Y023859D01*
X017525Y023700D02*
X019485Y023700D01*
X019634Y023542D02*
X017376Y023542D01*
X019926Y023542D02*
X023230Y023542D01*
X023230Y023700D02*
X020075Y023700D01*
X020102Y023859D02*
X023230Y023859D01*
X023230Y024017D02*
X020049Y024017D01*
X022542Y022591D02*
X022918Y022591D01*
X022799Y022432D02*
X022661Y022432D01*
X022705Y022274D02*
X022755Y022274D01*
X022763Y022115D02*
X022697Y022115D01*
X022629Y021957D02*
X022831Y021957D01*
X023031Y021798D02*
X022429Y021798D01*
X025330Y019896D02*
X025471Y019896D01*
X025474Y019901D02*
X025428Y019790D01*
X025428Y019670D01*
X025474Y019559D01*
X025559Y019474D01*
X025670Y019428D01*
X025790Y019428D01*
X025901Y019474D01*
X025986Y019559D01*
X026032Y019670D01*
X026032Y019790D01*
X025986Y019901D01*
X025901Y019986D01*
X025790Y020032D01*
X025670Y020032D01*
X025559Y019986D01*
X025474Y019901D01*
X025428Y019738D02*
X025330Y019738D01*
X025330Y019579D02*
X025465Y019579D01*
X025330Y019421D02*
X031772Y019421D01*
X031794Y019262D02*
X025330Y019262D01*
X025330Y019104D02*
X028750Y019104D01*
X028760Y019127D02*
X028720Y019032D01*
X028720Y018928D01*
X028760Y018833D01*
X028833Y018760D01*
X028928Y018720D01*
X029032Y018720D01*
X029127Y018760D01*
X029200Y018833D01*
X029240Y018928D01*
X029240Y019032D01*
X029200Y019127D01*
X029127Y019200D01*
X029032Y019240D01*
X028928Y019240D01*
X028833Y019200D01*
X028760Y019127D01*
X028720Y018945D02*
X025330Y018945D01*
X025330Y018787D02*
X028806Y018787D01*
X029154Y018787D02*
X031819Y018787D01*
X031754Y018945D02*
X029240Y018945D01*
X029210Y019104D02*
X031720Y019104D01*
X032166Y019262D02*
X032327Y019262D01*
X032320Y019278D02*
X032360Y019183D01*
X032433Y019110D01*
X032504Y019080D01*
X032433Y019050D01*
X032360Y018977D01*
X032320Y018882D01*
X032320Y018778D01*
X032360Y018683D01*
X032433Y018610D01*
X032528Y018570D01*
X032632Y018570D01*
X032727Y018610D01*
X032800Y018683D01*
X032840Y018778D01*
X032840Y018882D01*
X032800Y018977D01*
X032727Y019050D01*
X032656Y019080D01*
X032727Y019110D01*
X032800Y019183D01*
X032840Y019278D01*
X032840Y019382D01*
X032800Y019477D01*
X032727Y019550D01*
X032632Y019590D01*
X032528Y019590D01*
X032433Y019550D01*
X032360Y019477D01*
X032320Y019382D01*
X032320Y019278D01*
X032336Y019421D02*
X032188Y019421D01*
X032240Y019579D02*
X032502Y019579D01*
X032658Y019579D02*
X033720Y019579D01*
X033720Y019528D02*
X033760Y019433D01*
X033833Y019360D01*
X033904Y019330D01*
X033833Y019300D01*
X033760Y019227D01*
X033720Y019132D01*
X033720Y019028D01*
X033760Y018933D01*
X033833Y018860D01*
X033904Y018830D01*
X033833Y018800D01*
X033760Y018727D01*
X033720Y018632D01*
X033720Y018528D01*
X033760Y018433D01*
X033833Y018360D01*
X033928Y018320D01*
X034032Y018320D01*
X034127Y018360D01*
X034200Y018433D01*
X034240Y018528D01*
X034240Y018632D01*
X034200Y018727D01*
X034127Y018800D01*
X034056Y018830D01*
X034127Y018860D01*
X034200Y018933D01*
X034240Y019028D01*
X034240Y019132D01*
X034200Y019227D01*
X034127Y019300D01*
X034056Y019330D01*
X034127Y019360D01*
X034200Y019433D01*
X034240Y019528D01*
X034240Y019632D01*
X034200Y019727D01*
X034127Y019800D01*
X034032Y019840D01*
X033928Y019840D01*
X033833Y019800D01*
X033760Y019727D01*
X033720Y019632D01*
X033720Y019528D01*
X033772Y019421D02*
X032824Y019421D01*
X032833Y019262D02*
X033794Y019262D01*
X033720Y019104D02*
X032713Y019104D01*
X032814Y018945D02*
X033754Y018945D01*
X033819Y018787D02*
X032840Y018787D01*
X032746Y018628D02*
X033720Y018628D01*
X033744Y018470D02*
X032216Y018470D01*
X032240Y018628D02*
X032414Y018628D01*
X032320Y018787D02*
X032141Y018787D01*
X032206Y018945D02*
X032346Y018945D01*
X032447Y019104D02*
X032240Y019104D01*
X032190Y019738D02*
X033770Y019738D01*
X034190Y019738D02*
X036266Y019738D01*
X036266Y019896D02*
X032164Y019896D01*
X031796Y019896D02*
X028506Y019896D01*
X028540Y020055D02*
X031720Y020055D01*
X031754Y020213D02*
X028465Y020213D01*
X028054Y019896D02*
X025989Y019896D01*
X026032Y019738D02*
X031770Y019738D01*
X031720Y019579D02*
X025995Y019579D01*
X025330Y018628D02*
X031720Y018628D01*
X031744Y018470D02*
X025330Y018470D01*
X025330Y018311D02*
X036266Y018311D01*
X036266Y018153D02*
X034211Y018153D01*
X034200Y018177D02*
X034127Y018250D01*
X034032Y018290D01*
X033928Y018290D01*
X033833Y018250D01*
X033760Y018177D01*
X033720Y018082D01*
X033720Y017978D01*
X033760Y017883D01*
X033833Y017810D01*
X033844Y017805D01*
X033833Y017800D01*
X033760Y017727D01*
X033720Y017632D01*
X033720Y017528D01*
X033760Y017433D01*
X033833Y017360D01*
X033904Y017330D01*
X033833Y017300D01*
X033760Y017227D01*
X033720Y017132D01*
X033720Y017028D01*
X033760Y016933D01*
X033833Y016860D01*
X033928Y016820D01*
X034032Y016820D01*
X034127Y016860D01*
X034200Y016933D01*
X034240Y017028D01*
X034240Y017132D01*
X034200Y017227D01*
X034127Y017300D01*
X034056Y017330D01*
X034127Y017360D01*
X034200Y017433D01*
X034240Y017528D01*
X034240Y017632D01*
X034200Y017727D01*
X034127Y017800D01*
X034116Y017805D01*
X034127Y017810D01*
X034200Y017883D01*
X034240Y017978D01*
X034240Y018082D01*
X034200Y018177D01*
X034240Y017994D02*
X036266Y017994D01*
X036266Y017836D02*
X034153Y017836D01*
X034221Y017677D02*
X036266Y017677D01*
X036266Y017519D02*
X034236Y017519D01*
X034128Y017360D02*
X036266Y017360D01*
X036266Y017202D02*
X034211Y017202D01*
X034240Y017043D02*
X036266Y017043D01*
X036266Y016885D02*
X034152Y016885D01*
X033808Y016885D02*
X032152Y016885D01*
X032127Y016860D02*
X032200Y016933D01*
X032240Y017028D01*
X032240Y017132D01*
X032200Y017227D01*
X032127Y017300D01*
X032032Y017340D01*
X031928Y017340D01*
X031833Y017300D01*
X031760Y017227D01*
X031720Y017132D01*
X031720Y017028D01*
X031760Y016933D01*
X031833Y016860D01*
X031928Y016820D01*
X032032Y016820D01*
X032127Y016860D01*
X032240Y017043D02*
X033720Y017043D01*
X033749Y017202D02*
X032808Y017202D01*
X032800Y017183D02*
X032840Y017278D01*
X032840Y017382D01*
X032800Y017477D01*
X032727Y017550D01*
X032656Y017580D01*
X032727Y017610D01*
X032800Y017683D01*
X032840Y017778D01*
X032840Y017882D01*
X032800Y017977D01*
X032727Y018050D01*
X032632Y018090D01*
X032528Y018090D01*
X032433Y018050D01*
X032360Y017977D01*
X032320Y017882D01*
X032320Y017778D01*
X032360Y017683D01*
X032433Y017610D01*
X032504Y017580D01*
X032433Y017550D01*
X032360Y017477D01*
X032320Y017382D01*
X032320Y017278D01*
X032360Y017183D01*
X032433Y017110D01*
X032528Y017070D01*
X032632Y017070D01*
X032727Y017110D01*
X032800Y017183D01*
X032840Y017360D02*
X033832Y017360D01*
X033724Y017519D02*
X032759Y017519D01*
X032795Y017677D02*
X033739Y017677D01*
X033807Y017836D02*
X032840Y017836D01*
X032784Y017994D02*
X033720Y017994D01*
X033749Y018153D02*
X025330Y018153D01*
X025330Y017994D02*
X032376Y017994D01*
X032320Y017836D02*
X025330Y017836D01*
X025330Y017677D02*
X032365Y017677D01*
X032401Y017519D02*
X025330Y017519D01*
X025330Y017360D02*
X032320Y017360D01*
X032352Y017202D02*
X032211Y017202D01*
X031749Y017202D02*
X025330Y017202D01*
X025330Y017043D02*
X031720Y017043D01*
X031808Y016885D02*
X025330Y016885D01*
X025330Y016726D02*
X026948Y016726D01*
X026924Y016701D02*
X026878Y016590D01*
X026878Y016470D01*
X026924Y016359D01*
X027009Y016274D01*
X027120Y016228D01*
X027240Y016228D01*
X027351Y016274D01*
X027436Y016359D01*
X027482Y016470D01*
X027482Y016590D01*
X027436Y016701D01*
X027351Y016786D01*
X027240Y016832D01*
X027120Y016832D01*
X027009Y016786D01*
X026924Y016701D01*
X026878Y016568D02*
X025330Y016568D01*
X025330Y016409D02*
X026903Y016409D01*
X027064Y016251D02*
X025330Y016251D01*
X025330Y016092D02*
X027730Y016092D01*
X027730Y016090D02*
X028170Y016090D01*
X028170Y016530D01*
X028145Y016530D01*
X028075Y016519D01*
X028007Y016497D01*
X027944Y016465D01*
X027887Y016423D01*
X027837Y016373D01*
X027795Y016316D01*
X027763Y016253D01*
X027741Y016185D01*
X027730Y016115D01*
X027730Y016090D01*
X027730Y016070D02*
X027730Y016045D01*
X027741Y015975D01*
X027763Y015907D01*
X027795Y015844D01*
X027837Y015787D01*
X027887Y015737D01*
X027944Y015695D01*
X028007Y015663D01*
X028075Y015641D01*
X028145Y015630D01*
X028170Y015630D01*
X028170Y016070D01*
X028190Y016070D01*
X028190Y016090D01*
X028630Y016090D01*
X028630Y016115D01*
X028619Y016185D01*
X028597Y016253D01*
X028565Y016316D01*
X028523Y016373D01*
X028473Y016423D01*
X028416Y016465D01*
X028353Y016497D01*
X028285Y016519D01*
X028215Y016530D01*
X028190Y016530D01*
X028190Y016090D01*
X028170Y016090D01*
X028170Y016070D01*
X027730Y016070D01*
X027754Y015934D02*
X025330Y015934D01*
X025330Y015775D02*
X027849Y015775D01*
X028170Y015775D02*
X028190Y015775D01*
X028190Y015630D02*
X028215Y015630D01*
X028285Y015641D01*
X028353Y015663D01*
X028416Y015695D01*
X028473Y015737D01*
X028523Y015787D01*
X028565Y015844D01*
X028597Y015907D01*
X028619Y015975D01*
X028630Y016045D01*
X028630Y016070D01*
X028190Y016070D01*
X028190Y015630D01*
X028266Y015510D02*
X028094Y015510D01*
X027936Y015445D01*
X027815Y015324D01*
X027750Y015166D01*
X027750Y014994D01*
X027815Y014836D01*
X027936Y014715D01*
X028094Y014650D01*
X028266Y014650D01*
X028424Y014715D01*
X028545Y014836D01*
X028610Y014994D01*
X028610Y015166D01*
X028545Y015324D01*
X028424Y015445D01*
X028266Y015510D01*
X028391Y015458D02*
X031749Y015458D01*
X031760Y015433D02*
X031833Y015360D01*
X031904Y015330D01*
X031833Y015300D01*
X031760Y015227D01*
X031720Y015132D01*
X031720Y015028D01*
X031760Y014933D01*
X031833Y014860D01*
X031928Y014820D01*
X032032Y014820D01*
X032127Y014860D01*
X032200Y014933D01*
X032240Y015028D01*
X032240Y015132D01*
X032200Y015227D01*
X032127Y015300D01*
X032056Y015330D01*
X032127Y015360D01*
X032200Y015433D01*
X032240Y015528D01*
X032240Y015632D01*
X032200Y015727D01*
X032127Y015800D01*
X032032Y015840D01*
X031928Y015840D01*
X031833Y015800D01*
X031760Y015727D01*
X031720Y015632D01*
X031720Y015528D01*
X031760Y015433D01*
X031832Y015300D02*
X028555Y015300D01*
X028610Y015141D02*
X031724Y015141D01*
X031739Y014983D02*
X028605Y014983D01*
X028532Y014824D02*
X031919Y014824D01*
X032041Y014824D02*
X032320Y014824D01*
X032320Y014778D02*
X032360Y014683D01*
X032433Y014610D01*
X032504Y014580D01*
X032433Y014550D01*
X032360Y014477D01*
X032320Y014382D01*
X032320Y014278D01*
X032360Y014183D01*
X032433Y014110D01*
X032528Y014070D01*
X032632Y014070D01*
X032727Y014110D01*
X032800Y014183D01*
X032840Y014278D01*
X032840Y014382D01*
X032800Y014477D01*
X032727Y014550D01*
X032656Y014580D01*
X032727Y014610D01*
X032800Y014683D01*
X032840Y014778D01*
X032840Y014882D01*
X032800Y014977D01*
X032727Y015050D01*
X032632Y015090D01*
X032528Y015090D01*
X032433Y015050D01*
X032360Y014977D01*
X032320Y014882D01*
X032320Y014778D01*
X032377Y014666D02*
X028303Y014666D01*
X028266Y014510D02*
X028094Y014510D01*
X027936Y014445D01*
X027815Y014324D01*
X027750Y014166D01*
X027750Y013994D01*
X027815Y013836D01*
X027936Y013715D01*
X028094Y013650D01*
X028266Y013650D01*
X028424Y013715D01*
X028545Y013836D01*
X028610Y013994D01*
X028610Y014166D01*
X028545Y014324D01*
X028424Y014445D01*
X028266Y014510D01*
X028273Y014507D02*
X032389Y014507D01*
X032320Y014349D02*
X028520Y014349D01*
X028600Y014190D02*
X031744Y014190D01*
X031720Y014032D02*
X028610Y014032D01*
X028560Y013873D02*
X031819Y013873D01*
X031754Y013715D02*
X028421Y013715D01*
X027939Y013715D02*
X027472Y013715D01*
X027482Y013690D02*
X027436Y013801D01*
X027351Y013886D01*
X027240Y013932D01*
X027120Y013932D01*
X027009Y013886D01*
X026924Y013801D01*
X026878Y013690D01*
X026878Y013570D01*
X026924Y013459D01*
X027009Y013374D01*
X027120Y013328D01*
X027240Y013328D01*
X027351Y013374D01*
X027436Y013459D01*
X027482Y013570D01*
X027482Y013690D01*
X027477Y013556D02*
X031720Y013556D01*
X031795Y013398D02*
X027375Y013398D01*
X026985Y013398D02*
X025330Y013398D01*
X025330Y013556D02*
X026883Y013556D01*
X026888Y013715D02*
X025330Y013715D01*
X025330Y013873D02*
X026995Y013873D01*
X027365Y013873D02*
X027800Y013873D01*
X027750Y014032D02*
X025330Y014032D01*
X025330Y014190D02*
X027760Y014190D01*
X027840Y014349D02*
X025330Y014349D01*
X025330Y014507D02*
X028087Y014507D01*
X028057Y014666D02*
X025330Y014666D01*
X025330Y014824D02*
X027828Y014824D01*
X027755Y014983D02*
X025330Y014983D01*
X025330Y015141D02*
X027750Y015141D01*
X027805Y015300D02*
X025330Y015300D01*
X025330Y015458D02*
X027969Y015458D01*
X028170Y015934D02*
X028190Y015934D01*
X028190Y016092D02*
X028170Y016092D01*
X028170Y016251D02*
X028190Y016251D01*
X028190Y016409D02*
X028170Y016409D01*
X027873Y016409D02*
X027457Y016409D01*
X027482Y016568D02*
X032474Y016568D01*
X032433Y016550D02*
X032360Y016477D01*
X032320Y016382D01*
X032320Y016278D01*
X032360Y016183D01*
X032433Y016110D01*
X032504Y016080D01*
X032433Y016050D01*
X032360Y015977D01*
X032320Y015882D01*
X032320Y015778D01*
X032360Y015683D01*
X032433Y015610D01*
X032528Y015570D01*
X032632Y015570D01*
X032727Y015610D01*
X032800Y015683D01*
X032840Y015778D01*
X032840Y015882D01*
X032800Y015977D01*
X032727Y016050D01*
X032656Y016080D01*
X032727Y016110D01*
X032800Y016183D01*
X032840Y016278D01*
X032840Y016382D01*
X032800Y016477D01*
X032727Y016550D01*
X032632Y016590D01*
X032528Y016590D01*
X032433Y016550D01*
X032331Y016409D02*
X028487Y016409D01*
X028598Y016251D02*
X032331Y016251D01*
X032475Y016092D02*
X028630Y016092D01*
X028606Y015934D02*
X032341Y015934D01*
X032321Y015775D02*
X032153Y015775D01*
X032240Y015617D02*
X032426Y015617D01*
X032211Y015458D02*
X033749Y015458D01*
X033760Y015433D02*
X033720Y015528D01*
X033720Y015632D01*
X033760Y015727D01*
X033833Y015800D01*
X033904Y015830D01*
X033833Y015860D01*
X033760Y015933D01*
X033720Y016028D01*
X033720Y016132D01*
X033760Y016227D01*
X033833Y016300D01*
X033928Y016340D01*
X034032Y016340D01*
X034127Y016300D01*
X034200Y016227D01*
X034240Y016132D01*
X034240Y016028D01*
X034200Y015933D01*
X034127Y015860D01*
X034056Y015830D01*
X034127Y015800D01*
X034200Y015727D01*
X034240Y015632D01*
X034240Y015528D01*
X034200Y015433D01*
X034127Y015360D01*
X034056Y015330D01*
X034127Y015300D01*
X034200Y015227D01*
X034240Y015132D01*
X034240Y015028D01*
X034200Y014933D01*
X034127Y014860D01*
X034056Y014830D01*
X034127Y014800D01*
X034200Y014727D01*
X034240Y014632D01*
X034240Y014528D01*
X034200Y014433D01*
X034127Y014360D01*
X034032Y014320D01*
X033928Y014320D01*
X033833Y014360D01*
X033760Y014433D01*
X033720Y014528D01*
X033720Y014632D01*
X033760Y014727D01*
X033833Y014800D01*
X033904Y014830D01*
X033833Y014860D01*
X033760Y014933D01*
X033720Y015028D01*
X033720Y015132D01*
X033760Y015227D01*
X033833Y015300D01*
X033904Y015330D01*
X033833Y015360D01*
X033760Y015433D01*
X033832Y015300D02*
X032128Y015300D01*
X032236Y015141D02*
X033724Y015141D01*
X033739Y014983D02*
X032795Y014983D01*
X032840Y014824D02*
X033890Y014824D01*
X034070Y014824D02*
X036266Y014824D01*
X036266Y014666D02*
X034226Y014666D01*
X034231Y014507D02*
X036266Y014507D01*
X036266Y014349D02*
X034101Y014349D01*
X033859Y014349D02*
X032840Y014349D01*
X032803Y014190D02*
X036266Y014190D01*
X036266Y014032D02*
X032240Y014032D01*
X032216Y014190D02*
X032357Y014190D01*
X032141Y013873D02*
X036266Y013873D01*
X036266Y013715D02*
X034206Y013715D01*
X034240Y013556D02*
X036266Y013556D01*
X036266Y013398D02*
X034165Y013398D01*
X034189Y013239D02*
X036266Y013239D01*
X036266Y013081D02*
X034240Y013081D01*
X034190Y012922D02*
X036266Y012922D01*
X036266Y012764D02*
X034164Y012764D01*
X034240Y012605D02*
X036266Y012605D01*
X036266Y012447D02*
X034206Y012447D01*
X034231Y011654D02*
X036266Y011654D01*
X036266Y011496D02*
X034226Y011496D01*
X033739Y011179D02*
X032846Y011179D01*
X032414Y011179D02*
X032221Y011179D01*
X032237Y011020D02*
X033723Y011020D01*
X033831Y010862D02*
X032129Y010862D01*
X032210Y010703D02*
X033750Y010703D01*
X033720Y010545D02*
X032240Y010545D01*
X032154Y010386D02*
X033806Y010386D01*
X031806Y010386D02*
X026511Y010386D01*
X026701Y010545D02*
X031720Y010545D01*
X031750Y010703D02*
X026732Y010703D01*
X026676Y010862D02*
X031831Y010862D01*
X031784Y009752D02*
X025330Y009752D01*
X025330Y009594D02*
X031720Y009594D01*
X031759Y009435D02*
X025330Y009435D01*
X031290Y004839D02*
X016860Y004839D01*
X017082Y004680D02*
X031290Y004680D01*
X031290Y004521D02*
X017179Y004521D01*
X017228Y004363D02*
X031348Y004363D01*
X031414Y004204D02*
X017228Y004204D01*
X017228Y004046D02*
X031555Y004046D01*
X031768Y003887D02*
X017228Y003887D01*
X017228Y003729D02*
X036266Y003729D01*
X036266Y003887D02*
X032592Y003887D01*
X032805Y004046D02*
X036266Y004046D01*
X036266Y004204D02*
X032946Y004204D01*
X033012Y004363D02*
X036266Y004363D01*
X036266Y004521D02*
X033070Y004521D01*
X033070Y004680D02*
X036266Y004680D01*
X036266Y004839D02*
X033070Y004839D01*
X033012Y004997D02*
X036266Y004997D01*
X036266Y005156D02*
X032946Y005156D01*
X032805Y005314D02*
X036266Y005314D01*
X036266Y007375D02*
X034142Y007375D01*
X034240Y007533D02*
X036266Y007533D01*
X036266Y007692D02*
X034215Y007692D01*
X034104Y007850D02*
X036266Y007850D01*
X036266Y008009D02*
X034232Y008009D01*
X034225Y008167D02*
X036266Y008167D01*
X032444Y012605D02*
X032240Y012605D01*
X032164Y012764D02*
X032326Y012764D01*
X032206Y013715D02*
X033754Y013715D01*
X033729Y014507D02*
X032771Y014507D01*
X032783Y014666D02*
X033734Y014666D01*
X034221Y014983D02*
X036266Y014983D01*
X036266Y015141D02*
X034236Y015141D01*
X034128Y015300D02*
X036266Y015300D01*
X036266Y015458D02*
X034211Y015458D01*
X034240Y015617D02*
X036266Y015617D01*
X036266Y015775D02*
X034153Y015775D01*
X034201Y015934D02*
X036266Y015934D01*
X036266Y016092D02*
X034240Y016092D01*
X034177Y016251D02*
X036266Y016251D01*
X036266Y016409D02*
X032829Y016409D01*
X032828Y016251D02*
X033783Y016251D01*
X033720Y016092D02*
X032685Y016092D01*
X032819Y015934D02*
X033759Y015934D01*
X033807Y015775D02*
X032839Y015775D01*
X032734Y015617D02*
X033720Y015617D01*
X032686Y016568D02*
X036266Y016568D01*
X036266Y016726D02*
X027412Y016726D01*
X027296Y016251D02*
X027762Y016251D01*
X028511Y015775D02*
X031807Y015775D01*
X031720Y015617D02*
X025330Y015617D01*
X029140Y021323D02*
X031922Y021323D01*
X032038Y021323D02*
X033886Y021323D01*
X034074Y021323D02*
X036266Y021323D01*
X036266Y021481D02*
X034220Y021481D01*
X034237Y021640D02*
X036266Y021640D01*
X036266Y021798D02*
X034130Y021798D01*
X033830Y021798D02*
X032130Y021798D01*
X032210Y021957D02*
X036266Y021957D01*
X036266Y022115D02*
X032240Y022115D01*
X032154Y022274D02*
X036266Y022274D01*
X036266Y022432D02*
X032200Y022432D01*
X032240Y022591D02*
X036266Y022591D01*
X036266Y022749D02*
X032179Y022749D01*
X032237Y021640D02*
X033723Y021640D01*
X033740Y021481D02*
X032220Y021481D01*
X031740Y021481D02*
X029047Y021481D01*
X028126Y024968D02*
X026634Y024968D01*
X026863Y025127D02*
X027897Y025127D01*
X027785Y025285D02*
X026975Y025285D01*
X027041Y025444D02*
X027719Y025444D01*
X027718Y025602D02*
X027042Y025602D01*
X027022Y025761D02*
X027738Y025761D01*
X028765Y027029D02*
X033720Y027029D01*
X033743Y027187D02*
X028924Y027187D01*
X029000Y027346D02*
X031691Y027346D01*
X031692Y027345D02*
X031868Y027345D01*
X032029Y027412D01*
X032153Y027536D01*
X032220Y027697D01*
X032220Y027873D01*
X032153Y028034D01*
X032029Y028158D01*
X031868Y028225D01*
X031692Y028225D01*
X031531Y028158D01*
X031407Y028034D01*
X031340Y027873D01*
X031340Y027697D01*
X031407Y027536D01*
X031531Y027412D01*
X031692Y027345D01*
X031869Y027346D02*
X036266Y027346D01*
X036266Y027504D02*
X032121Y027504D01*
X032206Y027663D02*
X032495Y027663D01*
X032539Y027619D02*
X032695Y027554D01*
X032865Y027554D01*
X033021Y027619D01*
X033141Y027739D01*
X033206Y027895D01*
X033206Y028065D01*
X033141Y028221D01*
X033021Y028341D01*
X032865Y028406D01*
X032695Y028406D01*
X032539Y028341D01*
X032419Y028221D01*
X032354Y028065D01*
X032354Y027895D01*
X032419Y027739D01*
X032539Y027619D01*
X032385Y027821D02*
X032220Y027821D01*
X032176Y027980D02*
X032354Y027980D01*
X032385Y028138D02*
X032049Y028138D01*
X032003Y028590D02*
X032357Y028590D01*
X032684Y028725D01*
X032935Y028976D01*
X033070Y029303D01*
X033070Y029657D01*
X032935Y029984D01*
X032684Y030235D01*
X032357Y030370D01*
X032003Y030370D01*
X031676Y030235D01*
X031425Y029984D01*
X031290Y029657D01*
X031290Y029303D01*
X031425Y028976D01*
X031676Y028725D01*
X032003Y028590D01*
X031946Y028614D02*
X011780Y028614D01*
X011780Y028772D02*
X031629Y028772D01*
X031471Y028931D02*
X011780Y028931D01*
X011780Y029089D02*
X031379Y029089D01*
X031313Y029248D02*
X011780Y029248D01*
X011780Y029406D02*
X031290Y029406D01*
X031290Y029565D02*
X015116Y029565D01*
X015258Y029723D02*
X031317Y029723D01*
X031383Y029882D02*
X015324Y029882D01*
X015338Y030040D02*
X031481Y030040D01*
X031640Y030199D02*
X015338Y030199D01*
X015338Y030357D02*
X031972Y030357D01*
X032388Y030357D02*
X034447Y030357D01*
X034384Y030199D02*
X032720Y030199D01*
X032879Y030040D02*
X034388Y030040D01*
X034468Y029882D02*
X032977Y029882D01*
X033043Y029723D02*
X036266Y029723D01*
X036266Y029565D02*
X033070Y029565D01*
X033070Y029406D02*
X036266Y029406D01*
X036266Y029248D02*
X033047Y029248D01*
X032981Y029089D02*
X036266Y029089D01*
X036266Y028931D02*
X032889Y028931D01*
X032731Y028772D02*
X036266Y028772D01*
X036266Y028614D02*
X032414Y028614D01*
X032494Y028297D02*
X011780Y028297D01*
X011780Y028455D02*
X036266Y028455D01*
X036266Y028297D02*
X033066Y028297D01*
X033175Y028138D02*
X036266Y028138D01*
X036266Y027980D02*
X033206Y027980D01*
X033175Y027821D02*
X036266Y027821D01*
X036266Y027663D02*
X033065Y027663D01*
X031511Y028138D02*
X028759Y028138D01*
X028917Y027980D02*
X031384Y027980D01*
X031340Y027821D02*
X028997Y027821D01*
X029042Y027663D02*
X031354Y027663D01*
X031439Y027504D02*
X029042Y027504D01*
X035092Y029882D02*
X036266Y029882D01*
X036266Y030040D02*
X035172Y030040D01*
X035176Y030199D02*
X036266Y030199D01*
X036266Y030357D02*
X035113Y030357D01*
X034227Y021164D02*
X036266Y021164D01*
X036266Y021006D02*
X034231Y021006D01*
X034097Y020847D02*
X036266Y020847D01*
X036266Y020689D02*
X034216Y020689D01*
X034240Y020530D02*
X036266Y020530D01*
X036266Y020372D02*
X034139Y020372D01*
X034240Y019579D02*
X036266Y019579D01*
X036266Y019421D02*
X034188Y019421D01*
X034166Y019262D02*
X036266Y019262D01*
X036266Y019104D02*
X034240Y019104D01*
X034206Y018945D02*
X036266Y018945D01*
X036266Y018787D02*
X034141Y018787D01*
X034240Y018628D02*
X036266Y018628D01*
X036266Y018470D02*
X034216Y018470D01*
X032365Y014983D02*
X032221Y014983D01*
X018467Y020213D02*
X018409Y020213D01*
X017617Y020213D02*
X017043Y020213D01*
X017039Y020217D02*
X016936Y020260D01*
X016824Y020260D01*
X016721Y020217D01*
X016643Y020139D01*
X016600Y020036D01*
X016600Y019924D01*
X016643Y019821D01*
X016721Y019743D01*
X016824Y019700D01*
X016936Y019700D01*
X017039Y019743D01*
X017117Y019821D01*
X017160Y019924D01*
X017160Y020036D01*
X017117Y020139D01*
X017039Y020217D01*
X017152Y020055D02*
X017508Y020055D01*
X017512Y019896D02*
X017148Y019896D01*
X017026Y019738D02*
X017634Y019738D01*
X016734Y019738D02*
X016276Y019738D01*
X016289Y019743D02*
X016367Y019821D01*
X016410Y019924D01*
X016410Y020036D01*
X016367Y020139D01*
X016289Y020217D01*
X016186Y020260D01*
X016074Y020260D01*
X015971Y020217D01*
X015893Y020139D01*
X015850Y020036D01*
X015850Y019924D01*
X015893Y019821D01*
X015971Y019743D01*
X016074Y019700D01*
X016186Y019700D01*
X016289Y019743D01*
X016398Y019896D02*
X016612Y019896D01*
X016608Y020055D02*
X016402Y020055D01*
X016293Y020213D02*
X016717Y020213D01*
X017115Y020689D02*
X013678Y020689D01*
X013471Y020847D02*
X017058Y020847D01*
X015967Y020213D02*
X015443Y020213D01*
X015552Y020055D02*
X015858Y020055D01*
X015862Y019896D02*
X015548Y019896D01*
X015426Y019738D02*
X015984Y019738D01*
X012600Y017519D02*
X009597Y017519D01*
X009663Y017360D02*
X012627Y017360D01*
X007850Y016726D02*
X007485Y016726D01*
X007630Y016568D02*
X006558Y016568D01*
X006558Y016726D02*
X006675Y016726D01*
X006558Y016409D02*
X007534Y016409D01*
X007488Y016251D02*
X006558Y016251D01*
X006558Y016092D02*
X007488Y016092D01*
X007541Y015934D02*
X006558Y015934D01*
X006558Y015775D02*
X006929Y015775D01*
X007231Y015775D02*
X007647Y015775D01*
X007503Y015617D02*
X007892Y015617D01*
X006657Y015617D02*
X006558Y015617D01*
X006558Y013556D02*
X006645Y013556D01*
X006558Y013398D02*
X006899Y013398D01*
X008340Y012447D02*
X008687Y012447D01*
X008543Y012605D02*
X015901Y012605D01*
X015779Y012764D02*
X008632Y012764D01*
X008672Y012922D02*
X015758Y012922D01*
X015824Y013081D02*
X008672Y013081D01*
X006627Y018787D02*
X006558Y018787D01*
X006558Y018945D02*
X006857Y018945D01*
X006688Y020847D02*
X006558Y020847D01*
X008976Y023542D02*
X009584Y023542D01*
X009381Y023700D02*
X009179Y023700D01*
X009249Y023859D02*
X009311Y023859D01*
X009300Y024017D02*
X009260Y024017D01*
X007640Y025602D02*
X007561Y025602D01*
X007570Y025761D02*
X006558Y025761D01*
X006558Y025919D02*
X007123Y025919D01*
X007110Y025933D02*
X007183Y025860D01*
X007278Y025820D01*
X007382Y025820D01*
X007477Y025860D01*
X007550Y025933D01*
X007590Y026028D01*
X007590Y026132D01*
X007550Y026227D01*
X007477Y026300D01*
X007382Y026340D01*
X007278Y026340D01*
X007183Y026300D01*
X007110Y026227D01*
X007070Y026132D01*
X007070Y026028D01*
X007110Y025933D01*
X007070Y026078D02*
X006558Y026078D01*
X006558Y026236D02*
X007118Y026236D01*
X007542Y026236D02*
X007598Y026236D01*
X007610Y026208D02*
X007683Y026135D01*
X007778Y026095D01*
X007882Y026095D01*
X007977Y026135D01*
X008050Y026208D01*
X008090Y026303D01*
X008090Y026407D01*
X008050Y026502D01*
X007977Y026575D01*
X007882Y026615D01*
X007778Y026615D01*
X007683Y026575D01*
X007610Y026502D01*
X007570Y026407D01*
X007570Y026303D01*
X007610Y026208D01*
X007590Y026078D02*
X013960Y026078D01*
X014100Y026078D02*
X014210Y026078D01*
X014120Y025919D02*
X008054Y025919D01*
X008062Y026236D02*
X013787Y026236D01*
X013775Y026395D02*
X008090Y026395D01*
X008000Y026553D02*
X013351Y026553D01*
X013320Y026712D02*
X008662Y026712D01*
X008690Y026870D02*
X013022Y026870D01*
X012920Y027029D02*
X011219Y027029D01*
X011433Y027187D02*
X012943Y027187D01*
X013338Y026870D02*
X013402Y026870D01*
X013809Y026553D02*
X013889Y026553D01*
X008198Y026712D02*
X006558Y026712D01*
X006558Y026870D02*
X008170Y026870D01*
X007660Y026553D02*
X006558Y026553D01*
X006558Y026395D02*
X007570Y026395D01*
X007537Y025919D02*
X007606Y025919D01*
X007099Y025602D02*
X006558Y025602D01*
X006558Y025444D02*
X007070Y025444D01*
X007157Y025285D02*
X006558Y025285D01*
D24*
X026380Y020980D02*
X026480Y021080D01*
D25*
X025580Y024380D03*
X032780Y027980D03*
M02*
