G75*
%MOIN*%
%OFA0B0*%
%FSLAX24Y24*%
%IPPOS*%
%LPD*%
%AMOC8*
5,1,8,0,0,1.08239X$1,22.5*
%
%ADD10C,0.1460*%
%ADD11C,0.0591*%
%ADD12C,0.0825*%
%ADD13C,0.0855*%
%ADD14C,0.1463*%
%ADD15C,0.0540*%
%ADD16C,0.0600*%
%ADD17C,0.0930*%
%ADD18C,0.1005*%
%ADD19C,0.0780*%
%ADD20C,0.0160*%
%ADD21C,0.0200*%
%ADD22C,0.0285*%
%ADD23C,0.0472*%
%ADD24C,0.0100*%
%ADD25C,0.0531*%
D10*
X032180Y004680D03*
X032180Y029480D03*
D11*
X025230Y022230D03*
X024230Y022230D03*
X023230Y022230D03*
X022230Y022230D03*
D12*
X008080Y019380D03*
X008080Y016180D03*
X008080Y012980D03*
D13*
X007080Y011980D03*
X009080Y011980D03*
X009080Y013980D03*
X009080Y015180D03*
X007080Y015180D03*
X007080Y013980D03*
X007080Y017180D03*
X007080Y018380D03*
X009080Y018380D03*
X009080Y017180D03*
X009080Y020380D03*
X007080Y020380D03*
D14*
X010684Y027928D03*
X010684Y005664D03*
D15*
X015230Y008080D03*
X015230Y009080D03*
X027130Y008880D03*
X027130Y007880D03*
X027130Y006880D03*
X028180Y014080D03*
X028180Y015080D03*
X028180Y016080D03*
D16*
X011780Y023980D03*
X010780Y023980D03*
X009780Y023980D03*
X008780Y023980D03*
D17*
X018980Y026580D03*
X023180Y026580D03*
X027380Y026580D03*
D18*
X028380Y027580D03*
X028380Y025580D03*
X026380Y025580D03*
X026380Y027580D03*
X024180Y027580D03*
X024180Y025580D03*
X022180Y025580D03*
X022180Y027580D03*
X019980Y027580D03*
X019980Y025580D03*
X017980Y025580D03*
X017980Y027580D03*
D19*
X013230Y020330D03*
D20*
X006558Y009380D02*
X006558Y006680D01*
X010924Y006680D01*
X011050Y006670D01*
X011173Y006641D01*
X011290Y006592D01*
X011398Y006526D01*
X011494Y006444D01*
X011576Y006348D01*
X011642Y006240D01*
X011691Y006123D01*
X011720Y006000D01*
X011730Y005874D01*
X011730Y004885D01*
X016748Y004885D01*
X016968Y004794D01*
X016968Y004794D01*
X017136Y004625D01*
X017136Y004625D01*
X017228Y004405D01*
X017228Y004371D01*
X017228Y003704D01*
X036266Y003704D01*
X036266Y030459D01*
X015338Y030459D01*
X015338Y029915D01*
X015247Y029695D01*
X015247Y029695D01*
X015247Y029695D01*
X015078Y029527D01*
X015078Y029527D01*
X014858Y029436D01*
X011780Y029436D01*
X011780Y028004D01*
X011769Y027844D01*
X011734Y027687D01*
X011678Y027537D01*
X011602Y027396D01*
X011506Y027268D01*
X011392Y027154D01*
X011264Y027058D01*
X011123Y026982D01*
X010973Y026926D01*
X010816Y026891D01*
X010656Y026880D01*
X008690Y026880D01*
X008690Y026778D01*
X008650Y026683D01*
X008577Y026610D01*
X008482Y026570D01*
X008378Y026570D01*
X008283Y026610D01*
X008210Y026683D01*
X008170Y026778D01*
X008170Y026880D01*
X006558Y026880D01*
X006558Y024730D01*
X021104Y024730D01*
X021033Y024760D01*
X020960Y024833D01*
X020920Y024928D01*
X020920Y025032D01*
X020960Y025127D01*
X021033Y025200D01*
X021128Y025240D01*
X021232Y025240D01*
X021327Y025200D01*
X021400Y025127D01*
X021440Y025032D01*
X021440Y024928D01*
X021400Y024833D01*
X021327Y024760D01*
X021256Y024730D01*
X024230Y024730D01*
X024230Y022685D01*
X024321Y022685D01*
X024488Y022616D01*
X024616Y022488D01*
X024685Y022321D01*
X024685Y022139D01*
X024616Y021972D01*
X024488Y021844D01*
X024321Y021775D01*
X024230Y021775D01*
X024230Y021330D01*
X025330Y021330D01*
X025330Y009380D01*
X015538Y009380D01*
X015595Y009324D01*
X015660Y009166D01*
X015660Y008994D01*
X015595Y008836D01*
X015474Y008715D01*
X015316Y008650D01*
X015144Y008650D01*
X014986Y008715D01*
X014865Y008836D01*
X014800Y008994D01*
X014800Y009166D01*
X014865Y009324D01*
X014922Y009380D01*
X006558Y009380D01*
X006558Y009277D02*
X014846Y009277D01*
X014800Y009118D02*
X006558Y009118D01*
X006558Y008960D02*
X014814Y008960D01*
X014901Y008801D02*
X006558Y008801D01*
X006558Y008643D02*
X008275Y008643D01*
X008260Y008627D02*
X008220Y008532D01*
X008220Y008428D01*
X008260Y008333D01*
X008333Y008260D01*
X008428Y008220D01*
X008532Y008220D01*
X008627Y008260D01*
X008700Y008333D01*
X008740Y008428D01*
X008740Y008532D01*
X008700Y008627D01*
X008627Y008700D01*
X008532Y008740D01*
X008428Y008740D01*
X008333Y008700D01*
X008260Y008627D01*
X008220Y008484D02*
X006558Y008484D01*
X006558Y008326D02*
X008267Y008326D01*
X008127Y008250D02*
X008032Y008290D01*
X007928Y008290D01*
X007833Y008250D01*
X007760Y008177D01*
X007720Y008082D01*
X007720Y007978D01*
X007760Y007883D01*
X007833Y007810D01*
X007928Y007770D01*
X008032Y007770D01*
X008127Y007810D01*
X008200Y007883D01*
X008240Y007978D01*
X008240Y008082D01*
X008200Y008177D01*
X008127Y008250D01*
X008205Y008167D02*
X013123Y008167D01*
X013083Y008150D02*
X013010Y008077D01*
X012970Y007982D01*
X012970Y007878D01*
X013010Y007783D01*
X013083Y007710D01*
X013178Y007670D01*
X013282Y007670D01*
X013377Y007710D01*
X013450Y007783D01*
X013490Y007878D01*
X013490Y007982D01*
X013450Y008077D01*
X013377Y008150D01*
X013282Y008190D01*
X013178Y008190D01*
X013083Y008150D01*
X012981Y008009D02*
X008240Y008009D01*
X008168Y007850D02*
X012382Y007850D01*
X012383Y007850D02*
X012310Y007777D01*
X012270Y007682D01*
X012270Y007578D01*
X012310Y007483D01*
X012383Y007410D01*
X012478Y007370D01*
X012582Y007370D01*
X012677Y007410D01*
X012750Y007483D01*
X012790Y007578D01*
X012790Y007682D01*
X012750Y007777D01*
X012677Y007850D01*
X012582Y007890D01*
X012478Y007890D01*
X012383Y007850D01*
X012274Y007692D02*
X007790Y007692D01*
X007790Y007678D02*
X007750Y007583D01*
X007677Y007510D01*
X007582Y007470D01*
X007478Y007470D01*
X007383Y007510D01*
X007310Y007583D01*
X007270Y007678D01*
X007270Y007782D01*
X007310Y007877D01*
X007383Y007950D01*
X007478Y007990D01*
X007582Y007990D01*
X007677Y007950D01*
X007750Y007877D01*
X007790Y007782D01*
X007790Y007678D01*
X007833Y007650D02*
X007760Y007577D01*
X007720Y007482D01*
X007720Y007378D01*
X007735Y007343D01*
X007677Y007400D01*
X007582Y007440D01*
X007478Y007440D01*
X007383Y007400D01*
X007310Y007327D01*
X007270Y007232D01*
X007270Y007128D01*
X007310Y007033D01*
X007383Y006960D01*
X007478Y006920D01*
X007582Y006920D01*
X007677Y006960D01*
X007750Y007033D01*
X007790Y007128D01*
X007790Y007232D01*
X007775Y007267D01*
X007833Y007210D01*
X007928Y007170D01*
X008032Y007170D01*
X008127Y007210D01*
X008200Y007283D01*
X008240Y007378D01*
X008240Y007482D01*
X008200Y007577D01*
X008127Y007650D01*
X008032Y007690D01*
X007928Y007690D01*
X007833Y007650D01*
X007741Y007533D02*
X007701Y007533D01*
X007703Y007375D02*
X007722Y007375D01*
X007790Y007216D02*
X007826Y007216D01*
X007761Y007058D02*
X010779Y007058D01*
X010770Y007078D02*
X010810Y006983D01*
X010883Y006910D01*
X010978Y006870D01*
X011082Y006870D01*
X011177Y006910D01*
X011250Y006983D01*
X011290Y007078D01*
X011290Y007182D01*
X011250Y007277D01*
X011177Y007350D01*
X011082Y007390D01*
X010978Y007390D01*
X010883Y007350D01*
X010810Y007277D01*
X010770Y007182D01*
X010770Y007078D01*
X010784Y007216D02*
X008134Y007216D01*
X008238Y007375D02*
X010941Y007375D01*
X011119Y007375D02*
X011570Y007375D01*
X011570Y007382D02*
X011570Y007278D01*
X011610Y007183D01*
X011683Y007110D01*
X011778Y007070D01*
X011882Y007070D01*
X011977Y007110D01*
X012050Y007183D01*
X012090Y007278D01*
X012090Y007382D01*
X012050Y007477D01*
X011977Y007550D01*
X011882Y007590D01*
X011778Y007590D01*
X011683Y007550D01*
X011610Y007477D01*
X011570Y007382D01*
X011596Y007216D02*
X011276Y007216D01*
X011281Y007058D02*
X022920Y007058D01*
X022920Y007028D02*
X022960Y006933D01*
X023033Y006860D01*
X023128Y006820D01*
X023232Y006820D01*
X023327Y006860D01*
X023400Y006933D01*
X023440Y007028D01*
X023440Y007132D01*
X023400Y007227D01*
X023327Y007300D01*
X023232Y007340D01*
X023128Y007340D01*
X023033Y007300D01*
X022960Y007227D01*
X022920Y007132D01*
X022920Y007028D01*
X022993Y006899D02*
X011152Y006899D01*
X010908Y006899D02*
X006558Y006899D01*
X006558Y006741D02*
X026722Y006741D01*
X026700Y006794D02*
X026765Y006636D01*
X026886Y006515D01*
X027044Y006450D01*
X027216Y006450D01*
X027374Y006515D01*
X027495Y006636D01*
X027560Y006794D01*
X027560Y006966D01*
X027495Y007124D01*
X027374Y007245D01*
X027216Y007310D01*
X027044Y007310D01*
X026886Y007245D01*
X026765Y007124D01*
X026700Y006966D01*
X026700Y006794D01*
X026700Y006899D02*
X023367Y006899D01*
X023440Y007058D02*
X026738Y007058D01*
X026858Y007216D02*
X023405Y007216D01*
X022955Y007216D02*
X012064Y007216D01*
X012090Y007375D02*
X012467Y007375D01*
X012593Y007375D02*
X036266Y007375D01*
X036266Y007533D02*
X027391Y007533D01*
X027374Y007515D02*
X027495Y007636D01*
X027560Y007794D01*
X027560Y007966D01*
X027495Y008124D01*
X027374Y008245D01*
X027216Y008310D01*
X027044Y008310D01*
X026886Y008245D01*
X026765Y008124D01*
X026700Y007966D01*
X026700Y007794D01*
X026765Y007636D01*
X026886Y007515D01*
X027044Y007450D01*
X027216Y007450D01*
X027374Y007515D01*
X027517Y007692D02*
X036266Y007692D01*
X036266Y007850D02*
X027560Y007850D01*
X027542Y008009D02*
X036266Y008009D01*
X036266Y008167D02*
X027451Y008167D01*
X027298Y008484D02*
X036266Y008484D01*
X036266Y008326D02*
X023418Y008326D01*
X023400Y008283D02*
X023440Y008378D01*
X023440Y008482D01*
X023400Y008577D01*
X023327Y008650D01*
X023232Y008690D01*
X023128Y008690D01*
X023033Y008650D01*
X022960Y008577D01*
X022920Y008482D01*
X022920Y008378D01*
X022960Y008283D01*
X023033Y008210D01*
X023128Y008170D01*
X023232Y008170D01*
X023327Y008210D01*
X023400Y008283D01*
X023439Y008484D02*
X026962Y008484D01*
X026886Y008515D02*
X027044Y008450D01*
X027216Y008450D01*
X027374Y008515D01*
X027495Y008636D01*
X027560Y008794D01*
X027560Y008966D01*
X027495Y009124D01*
X027374Y009245D01*
X027216Y009310D01*
X027044Y009310D01*
X026886Y009245D01*
X026765Y009124D01*
X026700Y008966D01*
X026700Y008794D01*
X026765Y008636D01*
X026886Y008515D01*
X026763Y008643D02*
X023335Y008643D01*
X023025Y008643D02*
X021586Y008643D01*
X021627Y008660D02*
X021700Y008733D01*
X021740Y008828D01*
X021740Y008932D01*
X021700Y009027D01*
X021627Y009100D01*
X021532Y009140D01*
X021428Y009140D01*
X021333Y009100D01*
X021260Y009027D01*
X021220Y008932D01*
X021220Y008828D01*
X021260Y008733D01*
X021333Y008660D01*
X021428Y008620D01*
X021532Y008620D01*
X021627Y008660D01*
X021729Y008801D02*
X026700Y008801D01*
X026700Y008960D02*
X021728Y008960D01*
X021585Y009118D02*
X026763Y009118D01*
X026964Y009277D02*
X015614Y009277D01*
X015660Y009118D02*
X021375Y009118D01*
X021232Y008960D02*
X019208Y008960D01*
X019200Y008977D02*
X019127Y009050D01*
X019032Y009090D01*
X018928Y009090D01*
X018833Y009050D01*
X018760Y008977D01*
X018720Y008882D01*
X018720Y008778D01*
X018760Y008683D01*
X018833Y008610D01*
X018928Y008570D01*
X019032Y008570D01*
X019127Y008610D01*
X019200Y008683D01*
X019240Y008778D01*
X019240Y008882D01*
X019200Y008977D01*
X019240Y008801D02*
X021231Y008801D01*
X021374Y008643D02*
X019160Y008643D01*
X018800Y008643D02*
X009565Y008643D01*
X009550Y008677D02*
X009477Y008750D01*
X009382Y008790D01*
X009278Y008790D01*
X009183Y008750D01*
X009110Y008677D01*
X009070Y008582D01*
X009070Y008478D01*
X009110Y008383D01*
X009183Y008310D01*
X009278Y008270D01*
X009382Y008270D01*
X009477Y008310D01*
X009550Y008383D01*
X009590Y008478D01*
X009590Y008582D01*
X009550Y008677D01*
X009590Y008484D02*
X015032Y008484D01*
X015057Y008497D02*
X014994Y008465D01*
X014937Y008423D01*
X014887Y008373D01*
X014845Y008316D01*
X014813Y008253D01*
X014791Y008185D01*
X014780Y008115D01*
X014780Y008090D01*
X015220Y008090D01*
X015220Y008530D01*
X015195Y008530D01*
X015125Y008519D01*
X015057Y008497D01*
X015220Y008484D02*
X015240Y008484D01*
X015240Y008530D02*
X015240Y008090D01*
X015680Y008090D01*
X015680Y008115D01*
X015669Y008185D01*
X015647Y008253D01*
X015615Y008316D01*
X015573Y008373D01*
X015523Y008423D01*
X015466Y008465D01*
X015403Y008497D01*
X015335Y008519D01*
X015265Y008530D01*
X015240Y008530D01*
X015428Y008484D02*
X022921Y008484D01*
X022942Y008326D02*
X015608Y008326D01*
X015672Y008167D02*
X026809Y008167D01*
X026718Y008009D02*
X015674Y008009D01*
X015669Y007975D02*
X015680Y008045D01*
X015680Y008070D01*
X015240Y008070D01*
X015240Y008090D01*
X015220Y008090D01*
X015220Y008070D01*
X015240Y008070D01*
X015240Y007630D01*
X015265Y007630D01*
X015335Y007641D01*
X015403Y007663D01*
X015466Y007695D01*
X015523Y007737D01*
X015573Y007787D01*
X015615Y007844D01*
X015647Y007907D01*
X015669Y007975D01*
X015618Y007850D02*
X026700Y007850D01*
X026743Y007692D02*
X015459Y007692D01*
X015240Y007692D02*
X015220Y007692D01*
X015220Y007630D02*
X015220Y008070D01*
X014780Y008070D01*
X014780Y008045D01*
X014791Y007975D01*
X014813Y007907D01*
X014845Y007844D01*
X014887Y007787D01*
X014937Y007737D01*
X014994Y007695D01*
X015057Y007663D01*
X015125Y007641D01*
X015195Y007630D01*
X015220Y007630D01*
X015220Y007850D02*
X015240Y007850D01*
X015240Y008009D02*
X015220Y008009D01*
X015220Y008167D02*
X015240Y008167D01*
X015240Y008326D02*
X015220Y008326D01*
X014852Y008326D02*
X009493Y008326D01*
X009167Y008326D02*
X008693Y008326D01*
X008740Y008484D02*
X009070Y008484D01*
X009095Y008643D02*
X008685Y008643D01*
X007755Y008167D02*
X006558Y008167D01*
X006558Y008009D02*
X007720Y008009D01*
X007762Y007850D02*
X007792Y007850D01*
X007298Y007850D02*
X006558Y007850D01*
X006558Y007692D02*
X007270Y007692D01*
X007359Y007533D02*
X006558Y007533D01*
X006558Y007375D02*
X007357Y007375D01*
X007270Y007216D02*
X006558Y007216D01*
X006558Y007058D02*
X007299Y007058D01*
X008219Y007533D02*
X011665Y007533D01*
X011995Y007533D02*
X012289Y007533D01*
X012771Y007533D02*
X026869Y007533D01*
X027402Y007216D02*
X036266Y007216D01*
X036266Y007058D02*
X027522Y007058D01*
X027560Y006899D02*
X036266Y006899D01*
X036266Y006741D02*
X033247Y006741D01*
X033229Y006758D02*
X033068Y006825D01*
X032892Y006825D01*
X032731Y006758D01*
X032607Y006634D01*
X032540Y006473D01*
X032540Y006297D01*
X032607Y006136D01*
X032731Y006012D01*
X032892Y005945D01*
X033068Y005945D01*
X033229Y006012D01*
X033353Y006136D01*
X033420Y006297D01*
X033420Y006473D01*
X033353Y006634D01*
X033229Y006758D01*
X033375Y006582D02*
X036266Y006582D01*
X036266Y006424D02*
X033420Y006424D01*
X033407Y006265D02*
X036266Y006265D01*
X036266Y006107D02*
X033324Y006107D01*
X033075Y005948D02*
X036266Y005948D01*
X036266Y005790D02*
X011730Y005790D01*
X011724Y005948D02*
X018734Y005948D01*
X018724Y005959D02*
X018809Y005874D01*
X018920Y005828D01*
X019040Y005828D01*
X019151Y005874D01*
X019236Y005959D01*
X019282Y006070D01*
X019282Y006190D01*
X019236Y006301D01*
X019151Y006386D01*
X019040Y006432D01*
X018920Y006432D01*
X018809Y006386D01*
X018724Y006301D01*
X018678Y006190D01*
X018678Y006070D01*
X018724Y005959D01*
X018678Y006107D02*
X011694Y006107D01*
X011627Y006265D02*
X018708Y006265D01*
X018898Y006424D02*
X011511Y006424D01*
X011306Y006582D02*
X026820Y006582D01*
X027440Y006582D02*
X032585Y006582D01*
X032540Y006424D02*
X019062Y006424D01*
X019252Y006265D02*
X032553Y006265D01*
X032636Y006107D02*
X019282Y006107D01*
X019226Y005948D02*
X032885Y005948D01*
X032627Y005473D02*
X036266Y005473D01*
X036266Y005631D02*
X011730Y005631D01*
X011730Y005473D02*
X031733Y005473D01*
X031777Y005498D02*
X031673Y005438D01*
X031579Y005366D01*
X031494Y005281D01*
X031422Y005187D01*
X031362Y005083D01*
X031316Y004973D01*
X031286Y004858D01*
X031273Y004760D01*
X032100Y004760D01*
X032100Y005587D01*
X032002Y005574D01*
X031887Y005544D01*
X031777Y005498D01*
X031527Y005314D02*
X011730Y005314D01*
X011730Y005156D02*
X031404Y005156D01*
X031326Y004997D02*
X011730Y004997D01*
X012786Y007692D02*
X013126Y007692D01*
X013334Y007692D02*
X015001Y007692D01*
X014842Y007850D02*
X013478Y007850D01*
X013479Y008009D02*
X014786Y008009D01*
X014788Y008167D02*
X013337Y008167D01*
X012982Y007850D02*
X012678Y007850D01*
X015559Y008801D02*
X018720Y008801D01*
X018752Y008960D02*
X015646Y008960D01*
X012217Y010921D02*
X012260Y011024D01*
X012260Y011136D01*
X012217Y011239D01*
X012139Y011317D01*
X012036Y011360D01*
X011924Y011360D01*
X011821Y011317D01*
X011743Y011239D01*
X011700Y011136D01*
X011700Y011024D01*
X011743Y010921D01*
X011821Y010843D01*
X011924Y010800D01*
X012036Y010800D01*
X012139Y010843D01*
X012217Y010921D01*
X012157Y010862D02*
X022230Y010862D01*
X022230Y011020D02*
X012258Y011020D01*
X012242Y011179D02*
X022230Y011179D01*
X022230Y011337D02*
X012091Y011337D01*
X011869Y011337D02*
X006558Y011337D01*
X006558Y011179D02*
X011718Y011179D01*
X011702Y011020D02*
X006558Y011020D01*
X006558Y010862D02*
X011803Y010862D01*
X009643Y011747D02*
X009600Y011662D01*
X009543Y011584D01*
X009476Y011517D01*
X009398Y011460D01*
X009313Y011417D01*
X009222Y011387D01*
X009143Y011375D01*
X009143Y011917D01*
X009143Y012043D01*
X009685Y012043D01*
X009673Y012122D01*
X009643Y012213D01*
X009600Y012298D01*
X009543Y012376D01*
X009476Y012443D01*
X009398Y012500D01*
X009313Y012543D01*
X009222Y012573D01*
X009143Y012585D01*
X009143Y012043D01*
X009017Y012043D01*
X009017Y012585D01*
X008938Y012573D01*
X008847Y012543D01*
X008762Y012500D01*
X008684Y012443D01*
X008617Y012376D01*
X008560Y012298D01*
X008517Y012213D01*
X008487Y012122D01*
X008475Y012043D01*
X009017Y012043D01*
X009017Y011917D01*
X009143Y011917D01*
X009685Y011917D01*
X009673Y011838D01*
X009643Y011747D01*
X009664Y011813D02*
X020882Y011813D01*
X020893Y011839D02*
X020850Y011736D01*
X020850Y011624D01*
X020893Y011521D01*
X020971Y011443D01*
X021074Y011400D01*
X021186Y011400D01*
X021289Y011443D01*
X021367Y011521D01*
X021410Y011624D01*
X021410Y011736D01*
X021367Y011839D01*
X021289Y011917D01*
X021258Y011930D01*
X021289Y011943D01*
X021367Y012021D01*
X021410Y012124D01*
X021410Y012236D01*
X021367Y012339D01*
X021289Y012417D01*
X021186Y012460D01*
X021074Y012460D01*
X020971Y012417D01*
X020893Y012339D01*
X020850Y012236D01*
X020850Y012124D01*
X020893Y012021D01*
X020971Y011943D01*
X021002Y011930D01*
X020971Y011917D01*
X020893Y011839D01*
X020943Y011971D02*
X009143Y011971D01*
X009017Y011971D02*
X007143Y011971D01*
X007143Y011917D02*
X007143Y012043D01*
X007017Y012043D01*
X007017Y012585D01*
X006938Y012573D01*
X006847Y012543D01*
X006762Y012500D01*
X006684Y012443D01*
X006617Y012376D01*
X006560Y012298D01*
X006558Y012294D01*
X006558Y013666D01*
X006560Y013662D01*
X006617Y013584D01*
X006684Y013517D01*
X006762Y013460D01*
X006847Y013417D01*
X006938Y013387D01*
X007017Y013375D01*
X007017Y013917D01*
X007143Y013917D01*
X007143Y014043D01*
X007685Y014043D01*
X007673Y014122D01*
X007643Y014213D01*
X007600Y014298D01*
X007543Y014376D01*
X007476Y014443D01*
X007398Y014500D01*
X007313Y014543D01*
X007222Y014573D01*
X007175Y014580D01*
X007222Y014587D01*
X007313Y014617D01*
X007398Y014660D01*
X007476Y014717D01*
X007543Y014784D01*
X007600Y014862D01*
X007643Y014947D01*
X007673Y015038D01*
X007685Y015117D01*
X007143Y015117D01*
X007143Y015243D01*
X007017Y015243D01*
X007017Y015785D01*
X006938Y015773D01*
X006847Y015743D01*
X006762Y015700D01*
X006684Y015643D01*
X006617Y015576D01*
X006560Y015498D01*
X006558Y015494D01*
X006558Y016866D01*
X006560Y016862D01*
X006617Y016784D01*
X006684Y016717D01*
X006762Y016660D01*
X006847Y016617D01*
X006938Y016587D01*
X007017Y016575D01*
X007017Y017117D01*
X007143Y017117D01*
X007143Y017243D01*
X007685Y017243D01*
X007673Y017322D01*
X007643Y017413D01*
X007600Y017498D01*
X007543Y017576D01*
X007476Y017643D01*
X007398Y017700D01*
X007313Y017743D01*
X007222Y017773D01*
X007175Y017780D01*
X007222Y017787D01*
X007313Y017817D01*
X007398Y017860D01*
X007476Y017917D01*
X007543Y017984D01*
X007600Y018062D01*
X007643Y018147D01*
X007673Y018238D01*
X007685Y018317D01*
X007143Y018317D01*
X007143Y018443D01*
X007017Y018443D01*
X007017Y018985D01*
X006938Y018973D01*
X006847Y018943D01*
X006762Y018900D01*
X006684Y018843D01*
X006617Y018776D01*
X006560Y018698D01*
X006558Y018694D01*
X006558Y020066D01*
X006560Y020062D01*
X006617Y019984D01*
X006684Y019917D01*
X006762Y019860D01*
X006847Y019817D01*
X006938Y019787D01*
X007017Y019775D01*
X007017Y020317D01*
X007143Y020317D01*
X007143Y020443D01*
X007017Y020443D01*
X007017Y020985D01*
X006938Y020973D01*
X006847Y020943D01*
X006762Y020900D01*
X006684Y020843D01*
X006617Y020776D01*
X006560Y020698D01*
X006558Y020694D01*
X006558Y024080D01*
X008310Y024080D01*
X008300Y024018D01*
X008300Y024000D01*
X008760Y024000D01*
X008760Y023960D01*
X008800Y023960D01*
X008800Y024000D01*
X009260Y024000D01*
X009260Y024018D01*
X009250Y024080D01*
X009302Y024080D01*
X009300Y024075D01*
X009300Y023885D01*
X009373Y023708D01*
X009508Y023573D01*
X009685Y023500D01*
X009875Y023500D01*
X010052Y023573D01*
X010187Y023708D01*
X010260Y023885D01*
X010260Y024075D01*
X010258Y024080D01*
X010310Y024080D01*
X010300Y024018D01*
X010300Y024000D01*
X010760Y024000D01*
X010760Y023960D01*
X010300Y023960D01*
X010300Y023942D01*
X010312Y023868D01*
X010335Y023796D01*
X010369Y023728D01*
X010414Y023667D01*
X010467Y023614D01*
X010528Y023569D01*
X010596Y023535D01*
X010668Y023512D01*
X010742Y023500D01*
X010760Y023500D01*
X010760Y023960D01*
X010800Y023960D01*
X010800Y024000D01*
X011260Y024000D01*
X011260Y024018D01*
X011250Y024080D01*
X011302Y024080D01*
X011300Y024075D01*
X011300Y023885D01*
X011373Y023708D01*
X011508Y023573D01*
X011685Y023500D01*
X011875Y023500D01*
X012052Y023573D01*
X012187Y023708D01*
X012260Y023885D01*
X012260Y024075D01*
X012258Y024080D01*
X023230Y024080D01*
X023230Y022248D01*
X023212Y022248D01*
X023212Y022212D01*
X023230Y022212D01*
X023230Y021330D01*
X022230Y021330D01*
X022230Y010030D01*
X006558Y010030D01*
X006558Y011666D01*
X006560Y011662D01*
X006617Y011584D01*
X006684Y011517D01*
X006762Y011460D01*
X006847Y011417D01*
X006938Y011387D01*
X007017Y011375D01*
X007017Y011917D01*
X007143Y011917D01*
X007685Y011917D01*
X007673Y011838D01*
X007643Y011747D01*
X007600Y011662D01*
X007543Y011584D01*
X007476Y011517D01*
X007398Y011460D01*
X007313Y011417D01*
X007222Y011387D01*
X007143Y011375D01*
X007143Y011917D01*
X007143Y011813D02*
X007017Y011813D01*
X007017Y011654D02*
X007143Y011654D01*
X007143Y011496D02*
X007017Y011496D01*
X006713Y011496D02*
X006558Y011496D01*
X006558Y011654D02*
X006566Y011654D01*
X007017Y012130D02*
X007143Y012130D01*
X007143Y012043D02*
X007143Y012585D01*
X007222Y012573D01*
X007313Y012543D01*
X007398Y012500D01*
X007476Y012443D01*
X007543Y012376D01*
X007600Y012298D01*
X007643Y012213D01*
X007673Y012122D01*
X007685Y012043D01*
X007143Y012043D01*
X007143Y012288D02*
X007017Y012288D01*
X007017Y012447D02*
X007143Y012447D01*
X007471Y012447D02*
X007820Y012447D01*
X007744Y012478D02*
X007962Y012388D01*
X008198Y012388D01*
X008416Y012478D01*
X008582Y012644D01*
X008672Y012862D01*
X008672Y013098D01*
X008582Y013316D01*
X008416Y013482D01*
X008198Y013572D01*
X007962Y013572D01*
X007744Y013482D01*
X007578Y013316D01*
X007488Y013098D01*
X007488Y012862D01*
X007578Y012644D01*
X007744Y012478D01*
X007617Y012605D02*
X006558Y012605D01*
X006558Y012447D02*
X006689Y012447D01*
X006558Y012764D02*
X007528Y012764D01*
X007488Y012922D02*
X006558Y012922D01*
X006558Y013081D02*
X007488Y013081D01*
X007546Y013239D02*
X006558Y013239D01*
X006558Y013398D02*
X006907Y013398D01*
X007017Y013398D02*
X007143Y013398D01*
X007143Y013375D02*
X007222Y013387D01*
X007313Y013417D01*
X007398Y013460D01*
X007476Y013517D01*
X007543Y013584D01*
X007600Y013662D01*
X007643Y013747D01*
X007673Y013838D01*
X007685Y013917D01*
X007143Y013917D01*
X007143Y013375D01*
X007253Y013398D02*
X007660Y013398D01*
X007515Y013556D02*
X007922Y013556D01*
X008238Y013556D02*
X008645Y013556D01*
X008617Y013584D02*
X008684Y013517D01*
X008762Y013460D01*
X008847Y013417D01*
X008938Y013387D01*
X009017Y013375D01*
X009017Y013917D01*
X008475Y013917D01*
X008487Y013838D01*
X008517Y013747D01*
X008560Y013662D01*
X008617Y013584D01*
X008533Y013715D02*
X007627Y013715D01*
X007678Y013873D02*
X008482Y013873D01*
X008475Y014043D02*
X009017Y014043D01*
X009017Y014585D01*
X009017Y015117D01*
X008475Y015117D01*
X008487Y015038D01*
X008517Y014947D01*
X008560Y014862D01*
X008617Y014784D01*
X008684Y014717D01*
X008762Y014660D01*
X008847Y014617D01*
X008938Y014587D01*
X008985Y014580D01*
X008938Y014573D01*
X008847Y014543D01*
X008762Y014500D01*
X008684Y014443D01*
X008617Y014376D01*
X008560Y014298D01*
X008517Y014213D01*
X008487Y014122D01*
X008475Y014043D01*
X008509Y014190D02*
X007651Y014190D01*
X007563Y014349D02*
X008597Y014349D01*
X008776Y014507D02*
X007384Y014507D01*
X007405Y014666D02*
X008755Y014666D01*
X008588Y014824D02*
X007572Y014824D01*
X007655Y014983D02*
X008505Y014983D01*
X008475Y015243D02*
X009017Y015243D01*
X009017Y015785D01*
X008938Y015773D01*
X008847Y015743D01*
X008762Y015700D01*
X008684Y015643D01*
X008617Y015576D01*
X008560Y015498D01*
X008517Y015413D01*
X008487Y015322D01*
X008475Y015243D01*
X008484Y015300D02*
X007676Y015300D01*
X007673Y015322D02*
X007643Y015413D01*
X007600Y015498D01*
X007543Y015576D01*
X007476Y015643D01*
X007398Y015700D01*
X007313Y015743D01*
X007222Y015773D01*
X007143Y015785D01*
X007143Y015243D01*
X007685Y015243D01*
X007673Y015322D01*
X007620Y015458D02*
X008540Y015458D01*
X008657Y015617D02*
X008268Y015617D01*
X008198Y015588D02*
X008416Y015678D01*
X008582Y015844D01*
X008672Y016062D01*
X008672Y016298D01*
X008582Y016516D01*
X008416Y016682D01*
X008198Y016772D01*
X007962Y016772D01*
X007744Y016682D01*
X007578Y016516D01*
X007488Y016298D01*
X007488Y016062D01*
X007578Y015844D01*
X007744Y015678D01*
X007962Y015588D01*
X008198Y015588D01*
X007892Y015617D02*
X007503Y015617D01*
X007647Y015775D02*
X007207Y015775D01*
X007143Y015775D02*
X007017Y015775D01*
X006953Y015775D02*
X006558Y015775D01*
X006558Y015617D02*
X006657Y015617D01*
X006558Y015934D02*
X007541Y015934D01*
X007488Y016092D02*
X006558Y016092D01*
X006558Y016251D02*
X007488Y016251D01*
X007534Y016409D02*
X006558Y016409D01*
X006558Y016568D02*
X007630Y016568D01*
X007476Y016717D02*
X007543Y016784D01*
X007600Y016862D01*
X007643Y016947D01*
X007673Y017038D01*
X007685Y017117D01*
X007143Y017117D01*
X007143Y016575D01*
X007222Y016587D01*
X007313Y016617D01*
X007398Y016660D01*
X007476Y016717D01*
X007485Y016726D02*
X007850Y016726D01*
X007611Y016885D02*
X008549Y016885D01*
X008560Y016862D02*
X008617Y016784D01*
X008684Y016717D01*
X008762Y016660D01*
X008847Y016617D01*
X008938Y016587D01*
X009017Y016575D01*
X009017Y017117D01*
X008475Y017117D01*
X008487Y017038D01*
X008517Y016947D01*
X008560Y016862D01*
X008675Y016726D02*
X008310Y016726D01*
X008530Y016568D02*
X022230Y016568D01*
X022230Y016726D02*
X017682Y016726D01*
X017663Y016707D02*
X017753Y016797D01*
X017802Y016916D01*
X017802Y017044D01*
X017753Y017163D01*
X017663Y017253D01*
X017544Y017302D01*
X017416Y017302D01*
X017297Y017253D01*
X017207Y017163D01*
X017158Y017044D01*
X017158Y016916D01*
X017207Y016797D01*
X017297Y016707D01*
X017416Y016658D01*
X017544Y016658D01*
X017663Y016707D01*
X017790Y016885D02*
X022230Y016885D01*
X022230Y017043D02*
X019680Y017043D01*
X019713Y017057D02*
X019803Y017147D01*
X019852Y017266D01*
X019852Y017394D01*
X019803Y017513D01*
X019713Y017603D01*
X019594Y017652D01*
X019466Y017652D01*
X019347Y017603D01*
X019257Y017513D01*
X019208Y017394D01*
X019208Y017266D01*
X019257Y017147D01*
X019347Y017057D01*
X019466Y017008D01*
X019594Y017008D01*
X019713Y017057D01*
X019826Y017202D02*
X022230Y017202D01*
X022230Y017360D02*
X019852Y017360D01*
X019798Y017519D02*
X022230Y017519D01*
X022230Y017677D02*
X012870Y017677D01*
X012867Y017671D02*
X012910Y017774D01*
X012910Y017886D01*
X012867Y017989D01*
X012789Y018067D01*
X012686Y018110D01*
X012574Y018110D01*
X012471Y018067D01*
X012393Y017989D01*
X012350Y017886D01*
X012350Y017774D01*
X012393Y017671D01*
X012471Y017593D01*
X012574Y017550D01*
X012686Y017550D01*
X012789Y017593D01*
X012867Y017671D01*
X012910Y017836D02*
X022230Y017836D01*
X022230Y017994D02*
X012862Y017994D01*
X012398Y017994D02*
X009550Y017994D01*
X009543Y017984D02*
X009600Y018062D01*
X009643Y018147D01*
X009673Y018238D01*
X009685Y018317D01*
X009143Y018317D01*
X009143Y018443D01*
X009017Y018443D01*
X009017Y018985D01*
X008938Y018973D01*
X008847Y018943D01*
X008762Y018900D01*
X008684Y018843D01*
X008617Y018776D01*
X008560Y018698D01*
X008517Y018613D01*
X008487Y018522D01*
X008475Y018443D01*
X009017Y018443D01*
X009017Y018317D01*
X008475Y018317D01*
X008487Y018238D01*
X008517Y018147D01*
X008560Y018062D01*
X008617Y017984D01*
X008684Y017917D01*
X008762Y017860D01*
X008847Y017817D01*
X008938Y017787D01*
X008985Y017780D01*
X008938Y017773D01*
X008847Y017743D01*
X008762Y017700D01*
X008684Y017643D01*
X008617Y017576D01*
X008560Y017498D01*
X008517Y017413D01*
X008487Y017322D01*
X008475Y017243D01*
X009017Y017243D01*
X009017Y017775D01*
X009017Y018317D01*
X009143Y018317D01*
X009143Y017243D01*
X009685Y017243D01*
X009673Y017322D01*
X009643Y017413D01*
X009600Y017498D01*
X009543Y017576D01*
X009476Y017643D01*
X009398Y017700D01*
X009313Y017743D01*
X009222Y017773D01*
X009175Y017780D01*
X009222Y017787D01*
X009313Y017817D01*
X009398Y017860D01*
X009476Y017917D01*
X009543Y017984D01*
X009645Y018153D02*
X021068Y018153D01*
X021074Y018150D02*
X021186Y018150D01*
X021289Y018193D01*
X021367Y018271D01*
X021410Y018374D01*
X021410Y018486D01*
X021367Y018589D01*
X021289Y018667D01*
X021186Y018710D01*
X021074Y018710D01*
X020971Y018667D01*
X020893Y018589D01*
X020850Y018486D01*
X020850Y018374D01*
X020893Y018271D01*
X020971Y018193D01*
X021074Y018150D01*
X021192Y018153D02*
X022230Y018153D01*
X022230Y018311D02*
X021384Y018311D01*
X021410Y018470D02*
X022230Y018470D01*
X022230Y018628D02*
X021328Y018628D01*
X021274Y018787D02*
X022230Y018787D01*
X022230Y018945D02*
X021398Y018945D01*
X021410Y018974D02*
X021367Y018871D01*
X021289Y018793D01*
X021186Y018750D01*
X021074Y018750D01*
X020971Y018793D01*
X020893Y018871D01*
X020850Y018974D01*
X020850Y019086D01*
X020893Y019189D01*
X020971Y019267D01*
X021074Y019310D01*
X021186Y019310D01*
X021289Y019267D01*
X021367Y019189D01*
X021410Y019086D01*
X021410Y018974D01*
X021403Y019104D02*
X022230Y019104D01*
X022230Y019262D02*
X021294Y019262D01*
X020966Y019262D02*
X008672Y019262D01*
X008582Y019044D01*
X008416Y018878D01*
X008198Y018788D01*
X007962Y018788D01*
X007744Y018878D01*
X007578Y019044D01*
X007488Y019262D01*
X006558Y019262D01*
X006558Y019104D02*
X007553Y019104D01*
X007488Y019262D02*
X007488Y019498D01*
X007578Y019716D01*
X007744Y019882D01*
X007962Y019972D01*
X008198Y019972D01*
X008416Y019882D01*
X008582Y019716D01*
X008672Y019498D01*
X008672Y019262D01*
X008672Y019421D02*
X022230Y019421D01*
X022230Y019579D02*
X008639Y019579D01*
X008560Y019738D02*
X022230Y019738D01*
X022230Y019896D02*
X013602Y019896D01*
X013601Y019895D02*
X013665Y019959D01*
X013718Y020031D01*
X013758Y020111D01*
X013786Y020197D01*
X013799Y020280D01*
X013280Y020280D01*
X013280Y020380D01*
X013180Y020380D01*
X013180Y020899D01*
X013097Y020886D01*
X013011Y020858D01*
X012931Y020818D01*
X012859Y020765D01*
X012795Y020701D01*
X012742Y020629D01*
X012702Y020549D01*
X012674Y020463D01*
X012661Y020380D01*
X013180Y020380D01*
X013180Y020280D01*
X012661Y020280D01*
X012674Y020197D01*
X012702Y020111D01*
X012742Y020031D01*
X012795Y019959D01*
X012859Y019895D01*
X012931Y019842D01*
X013011Y019802D01*
X013097Y019774D01*
X013180Y019761D01*
X013180Y020280D01*
X013280Y020280D01*
X013280Y019761D01*
X013363Y019774D01*
X013449Y019802D01*
X013529Y019842D01*
X013601Y019895D01*
X013729Y020055D02*
X022230Y020055D01*
X022230Y020213D02*
X018409Y020213D01*
X018389Y020193D02*
X018467Y020271D01*
X018510Y020374D01*
X018510Y020486D01*
X018467Y020589D01*
X018389Y020667D01*
X018286Y020710D01*
X018174Y020710D01*
X018071Y020667D01*
X017993Y020589D01*
X017950Y020486D01*
X017950Y020374D01*
X017993Y020271D01*
X018071Y020193D01*
X018174Y020150D01*
X018286Y020150D01*
X018389Y020193D01*
X018509Y020372D02*
X022230Y020372D01*
X022230Y020530D02*
X018492Y020530D01*
X018338Y020689D02*
X022230Y020689D01*
X022230Y020847D02*
X013471Y020847D01*
X013449Y020858D02*
X013363Y020886D01*
X013280Y020899D01*
X013280Y020380D01*
X013799Y020380D01*
X013786Y020463D01*
X013758Y020549D01*
X013718Y020629D01*
X013665Y020701D01*
X013601Y020765D01*
X013529Y020818D01*
X013449Y020858D01*
X013280Y020847D02*
X013180Y020847D01*
X013180Y020689D02*
X013280Y020689D01*
X013280Y020530D02*
X013180Y020530D01*
X013180Y020372D02*
X009143Y020372D01*
X009143Y020317D02*
X009143Y020443D01*
X009685Y020443D01*
X009673Y020522D01*
X009643Y020613D01*
X009600Y020698D01*
X009543Y020776D01*
X009476Y020843D01*
X009398Y020900D01*
X009313Y020943D01*
X009222Y020973D01*
X009143Y020985D01*
X009143Y020443D01*
X009017Y020443D01*
X009017Y020985D01*
X008938Y020973D01*
X008847Y020943D01*
X008762Y020900D01*
X008684Y020843D01*
X008617Y020776D01*
X008560Y020698D01*
X008517Y020613D01*
X008487Y020522D01*
X008475Y020443D01*
X009017Y020443D01*
X009017Y020317D01*
X009143Y020317D01*
X009685Y020317D01*
X009673Y020238D01*
X009643Y020147D01*
X009600Y020062D01*
X009543Y019984D01*
X009476Y019917D01*
X009398Y019860D01*
X009313Y019817D01*
X009222Y019787D01*
X009143Y019775D01*
X009143Y020317D01*
X009143Y020213D02*
X009017Y020213D01*
X009017Y020317D02*
X009017Y019775D01*
X008938Y019787D01*
X008847Y019817D01*
X008762Y019860D01*
X008684Y019917D01*
X008617Y019984D01*
X008560Y020062D01*
X008517Y020147D01*
X008487Y020238D01*
X008475Y020317D01*
X009017Y020317D01*
X009017Y020372D02*
X007143Y020372D01*
X007143Y020317D02*
X007685Y020317D01*
X007673Y020238D01*
X007643Y020147D01*
X007600Y020062D01*
X007543Y019984D01*
X007476Y019917D01*
X007398Y019860D01*
X007313Y019817D01*
X007222Y019787D01*
X007143Y019775D01*
X007143Y020317D01*
X007143Y020213D02*
X007017Y020213D01*
X007017Y020055D02*
X007143Y020055D01*
X007143Y019896D02*
X007017Y019896D01*
X006713Y019896D02*
X006558Y019896D01*
X006558Y019738D02*
X007600Y019738D01*
X007521Y019579D02*
X006558Y019579D01*
X006558Y019421D02*
X007488Y019421D01*
X007313Y018943D02*
X007222Y018973D01*
X007143Y018985D01*
X007143Y018443D01*
X007685Y018443D01*
X007673Y018522D01*
X007643Y018613D01*
X007600Y018698D01*
X007543Y018776D01*
X007476Y018843D01*
X007398Y018900D01*
X007313Y018943D01*
X007307Y018945D02*
X007677Y018945D01*
X007533Y018787D02*
X008627Y018787D01*
X008525Y018628D02*
X007635Y018628D01*
X007681Y018470D02*
X008479Y018470D01*
X008476Y018311D02*
X007684Y018311D01*
X007645Y018153D02*
X008515Y018153D01*
X008610Y017994D02*
X007550Y017994D01*
X007350Y017836D02*
X008810Y017836D01*
X008731Y017677D02*
X007429Y017677D01*
X007585Y017519D02*
X008575Y017519D01*
X008500Y017360D02*
X007660Y017360D01*
X007673Y017043D02*
X008487Y017043D01*
X009017Y017043D02*
X009143Y017043D01*
X009143Y017117D02*
X009143Y016575D01*
X009222Y016587D01*
X009313Y016617D01*
X009398Y016660D01*
X009476Y016717D01*
X009543Y016784D01*
X009600Y016862D01*
X009643Y016947D01*
X009673Y017038D01*
X009685Y017117D01*
X009143Y017117D01*
X009143Y017243D01*
X009017Y017243D01*
X009017Y017117D01*
X009143Y017117D01*
X009143Y017202D02*
X017245Y017202D01*
X017158Y017043D02*
X009673Y017043D01*
X009611Y016885D02*
X017170Y016885D01*
X017278Y016726D02*
X009485Y016726D01*
X009143Y016726D02*
X009017Y016726D01*
X009017Y016885D02*
X009143Y016885D01*
X009017Y017202D02*
X007143Y017202D01*
X007143Y017243D02*
X007017Y017243D01*
X007017Y017785D01*
X007017Y018317D01*
X007143Y018317D01*
X007143Y017243D01*
X007143Y017360D02*
X007017Y017360D01*
X007017Y017519D02*
X007143Y017519D01*
X007143Y017677D02*
X007017Y017677D01*
X007017Y017836D02*
X007143Y017836D01*
X007143Y017994D02*
X007017Y017994D01*
X007017Y018153D02*
X007143Y018153D01*
X007143Y018311D02*
X007017Y018311D01*
X007017Y018470D02*
X007143Y018470D01*
X007143Y018628D02*
X007017Y018628D01*
X007017Y018787D02*
X007143Y018787D01*
X007143Y018945D02*
X007017Y018945D01*
X006853Y018945D02*
X006558Y018945D01*
X006558Y018787D02*
X006627Y018787D01*
X006558Y020055D02*
X006566Y020055D01*
X007143Y020443D02*
X007143Y020985D01*
X007222Y020973D01*
X007313Y020943D01*
X007398Y020900D01*
X007476Y020843D01*
X007543Y020776D01*
X007600Y020698D01*
X007643Y020613D01*
X007673Y020522D01*
X007685Y020443D01*
X007143Y020443D01*
X007143Y020530D02*
X007017Y020530D01*
X007017Y020689D02*
X007143Y020689D01*
X007143Y020847D02*
X007017Y020847D01*
X006689Y020847D02*
X006558Y020847D01*
X006558Y021006D02*
X022230Y021006D01*
X022230Y021164D02*
X006558Y021164D01*
X006558Y021323D02*
X009542Y021323D01*
X009543Y021321D02*
X009621Y021243D01*
X009724Y021200D01*
X009836Y021200D01*
X009939Y021243D01*
X010017Y021321D01*
X010060Y021424D01*
X010060Y021536D01*
X010017Y021639D01*
X009939Y021717D01*
X009836Y021760D01*
X009724Y021760D01*
X009621Y021717D01*
X009543Y021639D01*
X009500Y021536D01*
X009500Y021424D01*
X009543Y021321D01*
X009500Y021481D02*
X008077Y021481D01*
X008039Y021443D02*
X008117Y021521D01*
X008160Y021624D01*
X008160Y021736D01*
X008117Y021839D01*
X008039Y021917D01*
X007948Y021955D01*
X008039Y021993D01*
X008117Y022071D01*
X008160Y022174D01*
X008160Y022286D01*
X008117Y022389D01*
X008039Y022467D01*
X008008Y022480D01*
X008039Y022493D01*
X008117Y022571D01*
X008160Y022674D01*
X008160Y022786D01*
X008117Y022889D01*
X008039Y022967D01*
X007936Y023010D01*
X007824Y023010D01*
X007721Y022967D01*
X007643Y022889D01*
X007600Y022786D01*
X007600Y022674D01*
X007643Y022571D01*
X007721Y022493D01*
X007752Y022480D01*
X007721Y022467D01*
X007643Y022389D01*
X007600Y022286D01*
X007600Y022174D01*
X007643Y022071D01*
X007721Y021993D01*
X007812Y021955D01*
X007721Y021917D01*
X007643Y021839D01*
X007600Y021736D01*
X007600Y021624D01*
X007643Y021521D01*
X007721Y021443D01*
X007824Y021400D01*
X007936Y021400D01*
X008039Y021443D01*
X008160Y021640D02*
X009544Y021640D01*
X010016Y021640D02*
X010064Y021640D01*
X010050Y021674D02*
X010093Y021571D01*
X010171Y021493D01*
X010274Y021450D01*
X010386Y021450D01*
X010489Y021493D01*
X010567Y021571D01*
X010610Y021674D01*
X010610Y021786D01*
X010597Y021817D01*
X010621Y021793D01*
X010724Y021750D01*
X010836Y021750D01*
X010939Y021793D01*
X011017Y021871D01*
X011060Y021974D01*
X011060Y022086D01*
X011047Y022117D01*
X011121Y022043D01*
X011224Y022000D01*
X011336Y022000D01*
X011439Y022043D01*
X011517Y022121D01*
X011560Y022224D01*
X011560Y022336D01*
X011547Y022367D01*
X011621Y022293D01*
X011724Y022250D01*
X011836Y022250D01*
X011939Y022293D01*
X012017Y022371D01*
X012060Y022474D01*
X012060Y022586D01*
X012017Y022689D01*
X011939Y022767D01*
X011836Y022810D01*
X011724Y022810D01*
X011621Y022767D01*
X011543Y022689D01*
X011500Y022586D01*
X011500Y022474D01*
X011513Y022443D01*
X011439Y022517D01*
X011336Y022560D01*
X011224Y022560D01*
X011121Y022517D01*
X011043Y022439D01*
X011000Y022336D01*
X011000Y022224D01*
X011013Y022193D01*
X010939Y022267D01*
X010836Y022310D01*
X010724Y022310D01*
X010621Y022267D01*
X010543Y022189D01*
X010500Y022086D01*
X010500Y021974D01*
X010513Y021943D01*
X010489Y021967D01*
X010386Y022010D01*
X010274Y022010D01*
X010171Y021967D01*
X010093Y021889D01*
X010050Y021786D01*
X010050Y021674D01*
X010055Y021798D02*
X008134Y021798D01*
X007951Y021957D02*
X010161Y021957D01*
X010499Y021957D02*
X010507Y021957D01*
X010512Y022115D02*
X008135Y022115D01*
X008160Y022274D02*
X010636Y022274D01*
X010924Y022274D02*
X011000Y022274D01*
X011040Y022432D02*
X008074Y022432D01*
X008125Y022591D02*
X011502Y022591D01*
X011603Y022749D02*
X008160Y022749D01*
X008098Y022908D02*
X014106Y022908D01*
X014121Y022893D02*
X014224Y022850D01*
X014336Y022850D01*
X014439Y022893D01*
X014517Y022971D01*
X014560Y023074D01*
X014560Y023186D01*
X014517Y023289D01*
X014439Y023367D01*
X014336Y023410D01*
X014224Y023410D01*
X014121Y023367D01*
X014043Y023289D01*
X014000Y023186D01*
X014000Y023074D01*
X014043Y022971D01*
X014121Y022893D01*
X014003Y023066D02*
X006558Y023066D01*
X006558Y022908D02*
X007662Y022908D01*
X007600Y022749D02*
X007362Y022749D01*
X007336Y022760D02*
X007224Y022760D01*
X007121Y022717D01*
X007043Y022639D01*
X007000Y022536D01*
X007000Y022424D01*
X007043Y022321D01*
X007121Y022243D01*
X007212Y022205D01*
X007121Y022167D01*
X007043Y022089D01*
X007000Y021986D01*
X007000Y021874D01*
X007043Y021771D01*
X007121Y021693D01*
X007224Y021650D01*
X007336Y021650D01*
X007439Y021693D01*
X007517Y021771D01*
X007560Y021874D01*
X007560Y021986D01*
X007517Y022089D01*
X007439Y022167D01*
X007348Y022205D01*
X007439Y022243D01*
X007517Y022321D01*
X007560Y022424D01*
X007560Y022536D01*
X007517Y022639D01*
X007439Y022717D01*
X007336Y022760D01*
X007198Y022749D02*
X006558Y022749D01*
X006558Y022591D02*
X007023Y022591D01*
X007000Y022432D02*
X006558Y022432D01*
X006558Y022274D02*
X007090Y022274D01*
X007069Y022115D02*
X006558Y022115D01*
X006558Y021957D02*
X007000Y021957D01*
X007032Y021798D02*
X006558Y021798D01*
X006558Y021640D02*
X007600Y021640D01*
X007626Y021798D02*
X007528Y021798D01*
X007560Y021957D02*
X007809Y021957D01*
X007625Y022115D02*
X007491Y022115D01*
X007470Y022274D02*
X007600Y022274D01*
X007560Y022432D02*
X007686Y022432D01*
X007635Y022591D02*
X007537Y022591D01*
X006558Y023225D02*
X014016Y023225D01*
X014159Y023383D02*
X006558Y023383D01*
X006558Y023542D02*
X008583Y023542D01*
X008596Y023535D02*
X008668Y023512D01*
X008742Y023500D01*
X008760Y023500D01*
X008760Y023960D01*
X008300Y023960D01*
X008300Y023942D01*
X008312Y023868D01*
X008335Y023796D01*
X008369Y023728D01*
X008414Y023667D01*
X008467Y023614D01*
X008528Y023569D01*
X008596Y023535D01*
X008760Y023542D02*
X008800Y023542D01*
X008800Y023500D02*
X008818Y023500D01*
X008892Y023512D01*
X008964Y023535D01*
X009032Y023569D01*
X009093Y023614D01*
X009146Y023667D01*
X009191Y023728D01*
X009225Y023796D01*
X009248Y023868D01*
X009260Y023942D01*
X009260Y023960D01*
X008800Y023960D01*
X008800Y023500D01*
X008977Y023542D02*
X009584Y023542D01*
X009381Y023700D02*
X009170Y023700D01*
X009245Y023859D02*
X009311Y023859D01*
X009300Y024017D02*
X009260Y024017D01*
X008800Y023859D02*
X008760Y023859D01*
X008760Y023700D02*
X008800Y023700D01*
X008390Y023700D02*
X006558Y023700D01*
X006558Y023859D02*
X008315Y023859D01*
X008300Y024017D02*
X006558Y024017D01*
X006558Y024810D02*
X020983Y024810D01*
X020920Y024968D02*
X020285Y024968D01*
X020283Y024967D02*
X020360Y025011D01*
X020431Y025066D01*
X020494Y025129D01*
X020549Y025200D01*
X020593Y025277D01*
X020628Y025360D01*
X020651Y025447D01*
X020658Y025500D01*
X020060Y025500D01*
X020060Y025660D01*
X020658Y025660D01*
X020651Y025713D01*
X020628Y025800D01*
X020593Y025883D01*
X020549Y025960D01*
X020494Y026031D01*
X020431Y026094D01*
X020360Y026149D01*
X020283Y026193D01*
X020200Y026228D01*
X020113Y026251D01*
X020060Y026258D01*
X020060Y025660D01*
X019900Y025660D01*
X019900Y026258D01*
X019847Y026251D01*
X019760Y026228D01*
X019677Y026193D01*
X019600Y026149D01*
X019529Y026094D01*
X019466Y026031D01*
X019411Y025960D01*
X019367Y025883D01*
X019332Y025800D01*
X019309Y025713D01*
X019302Y025660D01*
X019900Y025660D01*
X019900Y025500D01*
X020060Y025500D01*
X020060Y024902D01*
X020113Y024909D01*
X020200Y024932D01*
X020283Y024967D01*
X020060Y024968D02*
X019900Y024968D01*
X019900Y024902D02*
X019900Y025500D01*
X019302Y025500D01*
X019309Y025447D01*
X019332Y025360D01*
X019367Y025277D01*
X019411Y025200D01*
X019466Y025129D01*
X019529Y025066D01*
X019600Y025011D01*
X019677Y024967D01*
X019760Y024932D01*
X019847Y024909D01*
X019900Y024902D01*
X019900Y025127D02*
X020060Y025127D01*
X020060Y025285D02*
X019900Y025285D01*
X019900Y025444D02*
X020060Y025444D01*
X020060Y025602D02*
X022100Y025602D01*
X022100Y025660D02*
X022100Y025500D01*
X022260Y025500D01*
X022260Y025660D01*
X022858Y025660D01*
X022851Y025713D01*
X022828Y025800D01*
X022793Y025883D01*
X022749Y025960D01*
X022694Y026031D01*
X022631Y026094D01*
X022560Y026149D01*
X022483Y026193D01*
X022400Y026228D01*
X022313Y026251D01*
X022260Y026258D01*
X022260Y025660D01*
X022100Y025660D01*
X022100Y026258D01*
X022047Y026251D01*
X021960Y026228D01*
X021877Y026193D01*
X021800Y026149D01*
X021729Y026094D01*
X021666Y026031D01*
X021611Y025960D01*
X021567Y025883D01*
X021532Y025800D01*
X021509Y025713D01*
X021502Y025660D01*
X022100Y025660D01*
X022100Y025761D02*
X022260Y025761D01*
X022260Y025919D02*
X022100Y025919D01*
X022100Y026078D02*
X022260Y026078D01*
X022260Y026236D02*
X022100Y026236D01*
X021991Y026236D02*
X020169Y026236D01*
X020060Y026236D02*
X019900Y026236D01*
X019791Y026236D02*
X019514Y026236D01*
X019510Y026226D02*
X019605Y026456D01*
X019605Y026704D01*
X019510Y026934D01*
X019334Y027110D01*
X019104Y027205D01*
X018856Y027205D01*
X018626Y027110D01*
X018450Y026934D01*
X018355Y026704D01*
X018355Y026456D01*
X018450Y026226D01*
X018626Y026050D01*
X018856Y025955D01*
X019104Y025955D01*
X019334Y026050D01*
X019510Y026226D01*
X019512Y026078D02*
X019361Y026078D01*
X019388Y025919D02*
X018572Y025919D01*
X018593Y025883D02*
X018549Y025960D01*
X018494Y026031D01*
X018431Y026094D01*
X018360Y026149D01*
X018283Y026193D01*
X018200Y026228D01*
X018113Y026251D01*
X018060Y026258D01*
X018060Y025660D01*
X018658Y025660D01*
X018651Y025713D01*
X018628Y025800D01*
X018593Y025883D01*
X018638Y025761D02*
X019322Y025761D01*
X019310Y025444D02*
X018650Y025444D01*
X018651Y025447D02*
X018658Y025500D01*
X018060Y025500D01*
X018060Y025660D01*
X017900Y025660D01*
X017900Y026258D01*
X017847Y026251D01*
X017760Y026228D01*
X017677Y026193D01*
X017600Y026149D01*
X017529Y026094D01*
X017466Y026031D01*
X017411Y025960D01*
X017367Y025883D01*
X017332Y025800D01*
X017309Y025713D01*
X017302Y025660D01*
X017900Y025660D01*
X017900Y025500D01*
X018060Y025500D01*
X018060Y024902D01*
X018113Y024909D01*
X018200Y024932D01*
X018283Y024967D01*
X018360Y025011D01*
X018431Y025066D01*
X018494Y025129D01*
X018549Y025200D01*
X018593Y025277D01*
X018628Y025360D01*
X018651Y025447D01*
X018597Y025285D02*
X019363Y025285D01*
X019468Y025127D02*
X018492Y025127D01*
X018285Y024968D02*
X019675Y024968D01*
X019900Y025602D02*
X018060Y025602D01*
X018060Y025444D02*
X017900Y025444D01*
X017900Y025500D02*
X017900Y024902D01*
X017847Y024909D01*
X017760Y024932D01*
X017677Y024967D01*
X017600Y025011D01*
X017529Y025066D01*
X017466Y025129D01*
X017411Y025200D01*
X017367Y025277D01*
X017332Y025360D01*
X017309Y025447D01*
X017302Y025500D01*
X017900Y025500D01*
X017900Y025602D02*
X015011Y025602D01*
X015000Y025627D02*
X014927Y025700D01*
X014832Y025740D01*
X014728Y025740D01*
X014633Y025700D01*
X014560Y025627D01*
X014520Y025532D01*
X014520Y025428D01*
X014560Y025333D01*
X014633Y025260D01*
X014728Y025220D01*
X014832Y025220D01*
X014927Y025260D01*
X015000Y025333D01*
X015040Y025428D01*
X015040Y025532D01*
X015000Y025627D01*
X015040Y025444D02*
X017310Y025444D01*
X017363Y025285D02*
X014953Y025285D01*
X014607Y025285D02*
X007503Y025285D01*
X007477Y025260D02*
X007550Y025333D01*
X007590Y025428D01*
X007590Y025532D01*
X007550Y025627D01*
X007477Y025700D01*
X007382Y025740D01*
X007278Y025740D01*
X007183Y025700D01*
X007110Y025627D01*
X007070Y025532D01*
X007070Y025428D01*
X007110Y025333D01*
X007183Y025260D01*
X007278Y025220D01*
X007382Y025220D01*
X007477Y025260D01*
X007590Y025444D02*
X014520Y025444D01*
X014549Y025602D02*
X008020Y025602D01*
X008050Y025633D02*
X008090Y025728D01*
X008090Y025832D01*
X008050Y025927D01*
X007977Y026000D01*
X007882Y026040D01*
X007778Y026040D01*
X007683Y026000D01*
X007610Y025927D01*
X007570Y025832D01*
X007570Y025728D01*
X007610Y025633D01*
X007683Y025560D01*
X007778Y025520D01*
X007882Y025520D01*
X007977Y025560D01*
X008050Y025633D01*
X008090Y025761D02*
X014148Y025761D01*
X014160Y025733D02*
X014233Y025660D01*
X014328Y025620D01*
X014432Y025620D01*
X014527Y025660D01*
X014600Y025733D01*
X014640Y025828D01*
X014640Y025932D01*
X014600Y026027D01*
X014527Y026100D01*
X014432Y026140D01*
X014328Y026140D01*
X014233Y026100D01*
X014160Y026027D01*
X014120Y025932D01*
X014120Y025828D01*
X014160Y025733D01*
X014120Y025919D02*
X008054Y025919D01*
X007977Y026135D02*
X008050Y026208D01*
X008090Y026303D01*
X008090Y026407D01*
X008050Y026502D01*
X007977Y026575D01*
X007882Y026615D01*
X007778Y026615D01*
X007683Y026575D01*
X007610Y026502D01*
X007570Y026407D01*
X007570Y026303D01*
X007610Y026208D01*
X007683Y026135D01*
X007778Y026095D01*
X007882Y026095D01*
X007977Y026135D01*
X008062Y026236D02*
X013787Y026236D01*
X013770Y026278D02*
X013810Y026183D01*
X013883Y026110D01*
X013978Y026070D01*
X014082Y026070D01*
X014177Y026110D01*
X014250Y026183D01*
X014290Y026278D01*
X014290Y026382D01*
X014250Y026477D01*
X014177Y026550D01*
X014082Y026590D01*
X013978Y026590D01*
X013883Y026550D01*
X013810Y026477D01*
X013770Y026382D01*
X013770Y026278D01*
X013775Y026395D02*
X008090Y026395D01*
X008000Y026553D02*
X013351Y026553D01*
X013360Y026533D02*
X013433Y026460D01*
X013528Y026420D01*
X013632Y026420D01*
X013727Y026460D01*
X013800Y026533D01*
X013840Y026628D01*
X013840Y026732D01*
X013800Y026827D01*
X013727Y026900D01*
X013632Y026940D01*
X013528Y026940D01*
X013433Y026900D01*
X013360Y026827D01*
X013320Y026732D01*
X013320Y026628D01*
X013360Y026533D01*
X013320Y026712D02*
X008662Y026712D01*
X008690Y026870D02*
X013022Y026870D01*
X013033Y026860D02*
X013128Y026820D01*
X013232Y026820D01*
X013327Y026860D01*
X013400Y026933D01*
X013440Y027028D01*
X013440Y027132D01*
X013400Y027227D01*
X013327Y027300D01*
X013232Y027340D01*
X013128Y027340D01*
X013033Y027300D01*
X012960Y027227D01*
X012920Y027132D01*
X012920Y027028D01*
X012960Y026933D01*
X013033Y026860D01*
X012920Y027029D02*
X011209Y027029D01*
X011425Y027187D02*
X012943Y027187D01*
X013417Y027187D02*
X017421Y027187D01*
X017411Y027200D02*
X017466Y027129D01*
X017529Y027066D01*
X017600Y027011D01*
X017677Y026967D01*
X017760Y026932D01*
X017847Y026909D01*
X017900Y026902D01*
X017900Y027500D01*
X018060Y027500D01*
X018060Y027660D01*
X018658Y027660D01*
X018651Y027713D01*
X018628Y027800D01*
X018593Y027883D01*
X018549Y027960D01*
X018494Y028031D01*
X018431Y028094D01*
X018360Y028149D01*
X018283Y028193D01*
X018200Y028228D01*
X018113Y028251D01*
X018060Y028258D01*
X018060Y027660D01*
X017900Y027660D01*
X017900Y028258D01*
X017847Y028251D01*
X017760Y028228D01*
X017677Y028193D01*
X017600Y028149D01*
X017529Y028094D01*
X017466Y028031D01*
X017411Y027960D01*
X017367Y027883D01*
X017332Y027800D01*
X017309Y027713D01*
X017302Y027660D01*
X017900Y027660D01*
X017900Y027500D01*
X017302Y027500D01*
X017309Y027447D01*
X017332Y027360D01*
X017367Y027277D01*
X017411Y027200D01*
X017338Y027346D02*
X011564Y027346D01*
X011661Y027504D02*
X017900Y027504D01*
X017900Y027346D02*
X018060Y027346D01*
X018060Y027500D02*
X018060Y026902D01*
X018113Y026909D01*
X018200Y026932D01*
X018283Y026967D01*
X018360Y027011D01*
X018431Y027066D01*
X018494Y027129D01*
X018549Y027200D01*
X018593Y027277D01*
X018628Y027360D01*
X018651Y027447D01*
X018658Y027500D01*
X018060Y027500D01*
X018060Y027504D02*
X019900Y027504D01*
X019900Y027500D02*
X019302Y027500D01*
X019309Y027447D01*
X019332Y027360D01*
X019367Y027277D01*
X019411Y027200D01*
X019466Y027129D01*
X019529Y027066D01*
X019600Y027011D01*
X019677Y026967D01*
X019760Y026932D01*
X019847Y026909D01*
X019900Y026902D01*
X019900Y027500D01*
X020060Y027500D01*
X020060Y027660D01*
X020658Y027660D01*
X020651Y027713D01*
X020628Y027800D01*
X020593Y027883D01*
X020549Y027960D01*
X020494Y028031D01*
X020431Y028094D01*
X020360Y028149D01*
X020283Y028193D01*
X020200Y028228D01*
X020113Y028251D01*
X020060Y028258D01*
X020060Y027660D01*
X019900Y027660D01*
X019900Y028258D01*
X019847Y028251D01*
X019760Y028228D01*
X019677Y028193D01*
X019600Y028149D01*
X019529Y028094D01*
X019466Y028031D01*
X019411Y027960D01*
X019367Y027883D01*
X019332Y027800D01*
X019309Y027713D01*
X019302Y027660D01*
X019900Y027660D01*
X019900Y027500D01*
X019900Y027346D02*
X020060Y027346D01*
X020060Y027500D02*
X020060Y026902D01*
X020113Y026909D01*
X020200Y026932D01*
X020283Y026967D01*
X020360Y027011D01*
X020431Y027066D01*
X020494Y027129D01*
X020549Y027200D01*
X020593Y027277D01*
X020628Y027360D01*
X020651Y027447D01*
X020658Y027500D01*
X020060Y027500D01*
X020060Y027504D02*
X022100Y027504D01*
X022100Y027500D02*
X021502Y027500D01*
X021509Y027447D01*
X021532Y027360D01*
X021567Y027277D01*
X021611Y027200D01*
X021666Y027129D01*
X021729Y027066D01*
X021800Y027011D01*
X021877Y026967D01*
X021960Y026932D01*
X022047Y026909D01*
X022100Y026902D01*
X022100Y027500D01*
X022260Y027500D01*
X022260Y027660D01*
X022858Y027660D01*
X022851Y027713D01*
X022828Y027800D01*
X022793Y027883D01*
X022749Y027960D01*
X022694Y028031D01*
X022631Y028094D01*
X022560Y028149D01*
X022483Y028193D01*
X022400Y028228D01*
X022313Y028251D01*
X022260Y028258D01*
X022260Y027660D01*
X022100Y027660D01*
X022100Y028258D01*
X022047Y028251D01*
X021960Y028228D01*
X021877Y028193D01*
X021800Y028149D01*
X021729Y028094D01*
X021666Y028031D01*
X021611Y027960D01*
X021567Y027883D01*
X021532Y027800D01*
X021509Y027713D01*
X021502Y027660D01*
X022100Y027660D01*
X022100Y027500D01*
X022100Y027346D02*
X022260Y027346D01*
X022260Y027500D02*
X022260Y026902D01*
X022313Y026909D01*
X022400Y026932D01*
X022483Y026967D01*
X022560Y027011D01*
X022631Y027066D01*
X022694Y027129D01*
X022749Y027200D01*
X022793Y027277D01*
X022828Y027360D01*
X022851Y027447D01*
X022858Y027500D01*
X022260Y027500D01*
X022260Y027504D02*
X024100Y027504D01*
X024100Y027500D02*
X023502Y027500D01*
X023509Y027447D01*
X023532Y027360D01*
X023567Y027277D01*
X023611Y027200D01*
X023666Y027129D01*
X023729Y027066D01*
X023800Y027011D01*
X023877Y026967D01*
X023960Y026932D01*
X024047Y026909D01*
X024100Y026902D01*
X024100Y027500D01*
X024260Y027500D01*
X024260Y027660D01*
X024858Y027660D01*
X024851Y027713D01*
X024828Y027800D01*
X024793Y027883D01*
X024749Y027960D01*
X024694Y028031D01*
X024631Y028094D01*
X024560Y028149D01*
X024483Y028193D01*
X024400Y028228D01*
X024313Y028251D01*
X024260Y028258D01*
X024260Y027660D01*
X024100Y027660D01*
X024100Y028258D01*
X024047Y028251D01*
X023960Y028228D01*
X023877Y028193D01*
X023800Y028149D01*
X023729Y028094D01*
X023666Y028031D01*
X023611Y027960D01*
X023567Y027883D01*
X023532Y027800D01*
X023509Y027713D01*
X023502Y027660D01*
X024100Y027660D01*
X024100Y027500D01*
X024100Y027346D02*
X024260Y027346D01*
X024260Y027500D02*
X024260Y026902D01*
X024313Y026909D01*
X024400Y026932D01*
X024483Y026967D01*
X024560Y027011D01*
X024631Y027066D01*
X024694Y027129D01*
X024749Y027200D01*
X024793Y027277D01*
X024828Y027360D01*
X024851Y027447D01*
X024858Y027500D01*
X024260Y027500D01*
X024260Y027504D02*
X026300Y027504D01*
X026300Y027500D02*
X025702Y027500D01*
X025709Y027447D01*
X025732Y027360D01*
X025767Y027277D01*
X025811Y027200D01*
X025866Y027129D01*
X025929Y027066D01*
X026000Y027011D01*
X026077Y026967D01*
X026160Y026932D01*
X026247Y026909D01*
X026300Y026902D01*
X026300Y027500D01*
X026460Y027500D01*
X026460Y027660D01*
X027058Y027660D01*
X027051Y027713D01*
X027028Y027800D01*
X026993Y027883D01*
X026949Y027960D01*
X026894Y028031D01*
X026831Y028094D01*
X026760Y028149D01*
X026683Y028193D01*
X026600Y028228D01*
X026513Y028251D01*
X026460Y028258D01*
X026460Y027660D01*
X026300Y027660D01*
X026300Y028258D01*
X026247Y028251D01*
X026160Y028228D01*
X026077Y028193D01*
X026000Y028149D01*
X025929Y028094D01*
X025866Y028031D01*
X025811Y027960D01*
X025767Y027883D01*
X025732Y027800D01*
X025709Y027713D01*
X025702Y027660D01*
X026300Y027660D01*
X026300Y027500D01*
X026300Y027346D02*
X026460Y027346D01*
X026460Y027500D02*
X026460Y026902D01*
X026513Y026909D01*
X026600Y026932D01*
X026683Y026967D01*
X026760Y027011D01*
X026831Y027066D01*
X026894Y027129D01*
X026949Y027200D01*
X026993Y027277D01*
X027028Y027360D01*
X027051Y027447D01*
X027058Y027500D01*
X026460Y027500D01*
X026460Y027504D02*
X028300Y027504D01*
X028300Y027500D02*
X027702Y027500D01*
X027709Y027447D01*
X027732Y027360D01*
X027767Y027277D01*
X027811Y027200D01*
X027866Y027129D01*
X027929Y027066D01*
X028000Y027011D01*
X028077Y026967D01*
X028160Y026932D01*
X028247Y026909D01*
X028300Y026902D01*
X028300Y027500D01*
X028460Y027500D01*
X028460Y027660D01*
X029058Y027660D01*
X029051Y027713D01*
X029028Y027800D01*
X028993Y027883D01*
X028949Y027960D01*
X028894Y028031D01*
X028831Y028094D01*
X028760Y028149D01*
X028683Y028193D01*
X028600Y028228D01*
X028513Y028251D01*
X028460Y028258D01*
X028460Y027660D01*
X028300Y027660D01*
X028300Y028258D01*
X028247Y028251D01*
X028160Y028228D01*
X028077Y028193D01*
X028000Y028149D01*
X027929Y028094D01*
X027866Y028031D01*
X027811Y027960D01*
X027767Y027883D01*
X027732Y027800D01*
X027709Y027713D01*
X027702Y027660D01*
X028300Y027660D01*
X028300Y027500D01*
X028300Y027346D02*
X028460Y027346D01*
X028460Y027500D02*
X028460Y026902D01*
X028513Y026909D01*
X028600Y026932D01*
X028683Y026967D01*
X028760Y027011D01*
X028831Y027066D01*
X028894Y027129D01*
X028949Y027200D01*
X028993Y027277D01*
X029028Y027360D01*
X029051Y027447D01*
X029058Y027500D01*
X028460Y027500D01*
X028460Y027504D02*
X031439Y027504D01*
X031407Y027536D02*
X031531Y027412D01*
X031692Y027345D01*
X031868Y027345D01*
X032029Y027412D01*
X032153Y027536D01*
X032220Y027697D01*
X032220Y027873D01*
X032153Y028034D01*
X032029Y028158D01*
X031868Y028225D01*
X031692Y028225D01*
X031531Y028158D01*
X031407Y028034D01*
X031340Y027873D01*
X031340Y027697D01*
X031407Y027536D01*
X031354Y027663D02*
X029058Y027663D01*
X029019Y027821D02*
X031340Y027821D01*
X031384Y027980D02*
X028934Y027980D01*
X028774Y028138D02*
X031511Y028138D01*
X032049Y028138D02*
X032385Y028138D01*
X032354Y028065D02*
X032354Y027895D01*
X032419Y027739D01*
X032539Y027619D01*
X032695Y027554D01*
X032865Y027554D01*
X033021Y027619D01*
X033141Y027739D01*
X033206Y027895D01*
X033206Y028065D01*
X033141Y028221D01*
X033021Y028341D01*
X032865Y028406D01*
X032695Y028406D01*
X032539Y028341D01*
X032419Y028221D01*
X032354Y028065D01*
X032354Y027980D02*
X032176Y027980D01*
X032220Y027821D02*
X032385Y027821D01*
X032495Y027663D02*
X032206Y027663D01*
X032121Y027504D02*
X036266Y027504D01*
X036266Y027346D02*
X031869Y027346D01*
X031691Y027346D02*
X029022Y027346D01*
X028939Y027187D02*
X033243Y027187D01*
X033260Y027227D02*
X033220Y027132D01*
X033220Y027028D01*
X033260Y026933D01*
X033333Y026860D01*
X033428Y026820D01*
X033532Y026820D01*
X033627Y026860D01*
X033700Y026933D01*
X033740Y027028D01*
X033740Y027132D01*
X033700Y027227D01*
X033627Y027300D01*
X033532Y027340D01*
X033428Y027340D01*
X033333Y027300D01*
X033260Y027227D01*
X033220Y027029D02*
X028782Y027029D01*
X028460Y027029D02*
X028300Y027029D01*
X028300Y027187D02*
X028460Y027187D01*
X027910Y026934D02*
X028005Y026704D01*
X028005Y026456D01*
X027910Y026226D01*
X027734Y026050D01*
X027504Y025955D01*
X027256Y025955D01*
X027026Y026050D01*
X026850Y026226D01*
X026755Y026456D01*
X026755Y026704D01*
X026850Y026934D01*
X027026Y027110D01*
X027256Y027205D01*
X027504Y027205D01*
X027734Y027110D01*
X027910Y026934D01*
X027936Y026870D02*
X033322Y026870D01*
X033638Y026870D02*
X035490Y026870D01*
X035520Y026882D02*
X035409Y026836D01*
X035324Y026751D01*
X035278Y026640D01*
X035278Y026520D01*
X035324Y026409D01*
X035409Y026324D01*
X035520Y026278D01*
X035640Y026278D01*
X035751Y026324D01*
X035836Y026409D01*
X035882Y026520D01*
X035882Y026640D01*
X035836Y026751D01*
X035751Y026836D01*
X035640Y026882D01*
X035520Y026882D01*
X035670Y026870D02*
X036266Y026870D01*
X036266Y026712D02*
X035853Y026712D01*
X035882Y026553D02*
X036266Y026553D01*
X036266Y026395D02*
X035822Y026395D01*
X036266Y026236D02*
X033692Y026236D01*
X033700Y026227D02*
X033627Y026300D01*
X033532Y026340D01*
X033428Y026340D01*
X033333Y026300D01*
X033260Y026227D01*
X033220Y026132D01*
X033220Y026028D01*
X033260Y025933D01*
X033333Y025860D01*
X033428Y025820D01*
X033532Y025820D01*
X033627Y025860D01*
X033700Y025933D01*
X033740Y026028D01*
X033740Y026132D01*
X033700Y026227D01*
X033740Y026078D02*
X036266Y026078D01*
X036266Y025919D02*
X033687Y025919D01*
X033833Y025800D02*
X033760Y025727D01*
X033720Y025632D01*
X033720Y025528D01*
X033760Y025433D01*
X033833Y025360D01*
X033928Y025320D01*
X034032Y025320D01*
X034127Y025360D01*
X034200Y025433D01*
X034240Y025528D01*
X034240Y025632D01*
X034200Y025727D01*
X034127Y025800D01*
X034032Y025840D01*
X033928Y025840D01*
X033833Y025800D01*
X033793Y025761D02*
X029038Y025761D01*
X029028Y025800D02*
X028993Y025883D01*
X028949Y025960D01*
X028894Y026031D01*
X028831Y026094D01*
X028760Y026149D01*
X028683Y026193D01*
X028600Y026228D01*
X028513Y026251D01*
X028460Y026258D01*
X028460Y025660D01*
X029058Y025660D01*
X029051Y025713D01*
X029028Y025800D01*
X028972Y025919D02*
X033273Y025919D01*
X033220Y026078D02*
X028848Y026078D01*
X028569Y026236D02*
X033268Y026236D01*
X033760Y026433D02*
X033720Y026528D01*
X033720Y026632D01*
X033760Y026727D01*
X033833Y026800D01*
X033928Y026840D01*
X034032Y026840D01*
X034127Y026800D01*
X034200Y026727D01*
X034240Y026632D01*
X034240Y026528D01*
X034200Y026433D01*
X034127Y026360D01*
X034032Y026320D01*
X033928Y026320D01*
X033833Y026360D01*
X033760Y026433D01*
X033798Y026395D02*
X027980Y026395D01*
X028005Y026553D02*
X033720Y026553D01*
X033753Y026712D02*
X028002Y026712D01*
X027978Y027029D02*
X027815Y027029D01*
X027821Y027187D02*
X027548Y027187D01*
X027738Y027346D02*
X027022Y027346D01*
X026939Y027187D02*
X027212Y027187D01*
X026945Y027029D02*
X026782Y027029D01*
X026824Y026870D02*
X023736Y026870D01*
X023710Y026934D02*
X023534Y027110D01*
X023304Y027205D01*
X023056Y027205D01*
X022826Y027110D01*
X022650Y026934D01*
X022555Y026704D01*
X022555Y026456D01*
X022650Y026226D01*
X022826Y026050D01*
X023056Y025955D01*
X023304Y025955D01*
X023534Y026050D01*
X023710Y026226D01*
X023805Y026456D01*
X023805Y026704D01*
X023710Y026934D01*
X023778Y027029D02*
X023615Y027029D01*
X023621Y027187D02*
X023348Y027187D01*
X023538Y027346D02*
X022822Y027346D01*
X022739Y027187D02*
X023012Y027187D01*
X022745Y027029D02*
X022582Y027029D01*
X022624Y026870D02*
X019536Y026870D01*
X019578Y027029D02*
X019415Y027029D01*
X019421Y027187D02*
X019148Y027187D01*
X019338Y027346D02*
X018622Y027346D01*
X018539Y027187D02*
X018812Y027187D01*
X018545Y027029D02*
X018382Y027029D01*
X018424Y026870D02*
X013758Y026870D01*
X013840Y026712D02*
X016519Y026712D01*
X016570Y026732D02*
X016459Y026686D01*
X016374Y026601D01*
X016328Y026490D01*
X016328Y026370D01*
X016374Y026259D01*
X016459Y026174D01*
X016570Y026128D01*
X016690Y026128D01*
X016801Y026174D01*
X016886Y026259D01*
X016932Y026370D01*
X016932Y026490D01*
X016886Y026601D01*
X016801Y026686D01*
X016690Y026732D01*
X016570Y026732D01*
X016741Y026712D02*
X018358Y026712D01*
X018355Y026553D02*
X016906Y026553D01*
X016932Y026395D02*
X018380Y026395D01*
X018446Y026236D02*
X018169Y026236D01*
X018060Y026236D02*
X017900Y026236D01*
X017791Y026236D02*
X016864Y026236D01*
X016396Y026236D02*
X014272Y026236D01*
X014285Y026395D02*
X016328Y026395D01*
X016354Y026553D02*
X014171Y026553D01*
X013889Y026553D02*
X013809Y026553D01*
X013402Y026870D02*
X013338Y026870D01*
X013440Y027029D02*
X017578Y027029D01*
X017900Y027029D02*
X018060Y027029D01*
X018060Y027187D02*
X017900Y027187D01*
X017900Y027663D02*
X018060Y027663D01*
X018060Y027821D02*
X017900Y027821D01*
X017900Y027980D02*
X018060Y027980D01*
X018060Y028138D02*
X017900Y028138D01*
X017586Y028138D02*
X011780Y028138D01*
X011778Y027980D02*
X017426Y027980D01*
X017341Y027821D02*
X011764Y027821D01*
X011725Y027663D02*
X017302Y027663D01*
X018374Y028138D02*
X019586Y028138D01*
X019426Y027980D02*
X018534Y027980D01*
X018619Y027821D02*
X019341Y027821D01*
X019302Y027663D02*
X018658Y027663D01*
X019900Y027663D02*
X020060Y027663D01*
X020060Y027821D02*
X019900Y027821D01*
X019900Y027980D02*
X020060Y027980D01*
X020060Y028138D02*
X019900Y028138D01*
X020374Y028138D02*
X021786Y028138D01*
X021626Y027980D02*
X020534Y027980D01*
X020619Y027821D02*
X021541Y027821D01*
X021502Y027663D02*
X020658Y027663D01*
X020622Y027346D02*
X021538Y027346D01*
X021621Y027187D02*
X020539Y027187D01*
X020382Y027029D02*
X021778Y027029D01*
X022100Y027029D02*
X022260Y027029D01*
X022260Y027187D02*
X022100Y027187D01*
X022558Y026712D02*
X019602Y026712D01*
X019605Y026553D02*
X022555Y026553D01*
X022580Y026395D02*
X019580Y026395D01*
X019900Y026078D02*
X020060Y026078D01*
X020060Y025919D02*
X019900Y025919D01*
X019900Y025761D02*
X020060Y025761D01*
X020448Y026078D02*
X021712Y026078D01*
X021588Y025919D02*
X020572Y025919D01*
X020638Y025761D02*
X021522Y025761D01*
X021502Y025500D02*
X021509Y025447D01*
X021532Y025360D01*
X021567Y025277D01*
X021611Y025200D01*
X021666Y025129D01*
X021729Y025066D01*
X021800Y025011D01*
X021877Y024967D01*
X021960Y024932D01*
X022047Y024909D01*
X022100Y024902D01*
X022100Y025500D01*
X021502Y025500D01*
X021510Y025444D02*
X020650Y025444D01*
X020597Y025285D02*
X021563Y025285D01*
X021668Y025127D02*
X021401Y025127D01*
X021440Y024968D02*
X021875Y024968D01*
X022100Y024968D02*
X022260Y024968D01*
X022260Y024902D02*
X022313Y024909D01*
X022400Y024932D01*
X022483Y024967D01*
X022560Y025011D01*
X022631Y025066D01*
X022694Y025129D01*
X022749Y025200D01*
X022793Y025277D01*
X022828Y025360D01*
X022851Y025447D01*
X022858Y025500D01*
X022260Y025500D01*
X022260Y024902D01*
X022260Y025127D02*
X022100Y025127D01*
X022100Y025285D02*
X022260Y025285D01*
X022260Y025444D02*
X022100Y025444D01*
X022260Y025602D02*
X024100Y025602D01*
X024100Y025660D02*
X024100Y025500D01*
X024260Y025500D01*
X024260Y025660D01*
X024858Y025660D01*
X024851Y025713D01*
X024828Y025800D01*
X024793Y025883D01*
X024749Y025960D01*
X024694Y026031D01*
X024631Y026094D01*
X024560Y026149D01*
X024483Y026193D01*
X024400Y026228D01*
X024313Y026251D01*
X024260Y026258D01*
X024260Y025660D01*
X024100Y025660D01*
X024100Y026258D01*
X024047Y026251D01*
X023960Y026228D01*
X023877Y026193D01*
X023800Y026149D01*
X023729Y026094D01*
X023666Y026031D01*
X023611Y025960D01*
X023567Y025883D01*
X023532Y025800D01*
X023509Y025713D01*
X023502Y025660D01*
X024100Y025660D01*
X024100Y025761D02*
X024260Y025761D01*
X024260Y025919D02*
X024100Y025919D01*
X024100Y026078D02*
X024260Y026078D01*
X024260Y026236D02*
X024100Y026236D01*
X023991Y026236D02*
X023714Y026236D01*
X023712Y026078D02*
X023561Y026078D01*
X023588Y025919D02*
X022772Y025919D01*
X022799Y026078D02*
X022648Y026078D01*
X022646Y026236D02*
X022369Y026236D01*
X022838Y025761D02*
X023522Y025761D01*
X023502Y025500D02*
X023509Y025447D01*
X023532Y025360D01*
X023567Y025277D01*
X023611Y025200D01*
X023666Y025129D01*
X023729Y025066D01*
X023800Y025011D01*
X023877Y024967D01*
X023960Y024932D01*
X024047Y024909D01*
X024100Y024902D01*
X024100Y025500D01*
X023502Y025500D01*
X023510Y025444D02*
X022850Y025444D01*
X022797Y025285D02*
X023563Y025285D01*
X023668Y025127D02*
X022692Y025127D01*
X022485Y024968D02*
X023875Y024968D01*
X024100Y024968D02*
X024260Y024968D01*
X024260Y024902D02*
X024313Y024909D01*
X024400Y024932D01*
X024483Y024967D01*
X024560Y025011D01*
X024631Y025066D01*
X024694Y025129D01*
X024749Y025200D01*
X024793Y025277D01*
X024828Y025360D01*
X024851Y025447D01*
X024858Y025500D01*
X024260Y025500D01*
X024260Y024902D01*
X024260Y025127D02*
X024100Y025127D01*
X024100Y025285D02*
X024260Y025285D01*
X024260Y025444D02*
X024100Y025444D01*
X024260Y025602D02*
X026300Y025602D01*
X026300Y025660D02*
X026300Y025500D01*
X026460Y025500D01*
X026460Y025660D01*
X027058Y025660D01*
X027051Y025713D01*
X027028Y025800D01*
X026993Y025883D01*
X026949Y025960D01*
X026894Y026031D01*
X026831Y026094D01*
X026760Y026149D01*
X026683Y026193D01*
X026600Y026228D01*
X026513Y026251D01*
X026460Y026258D01*
X026460Y025660D01*
X026300Y025660D01*
X026300Y026258D01*
X026247Y026251D01*
X026160Y026228D01*
X026077Y026193D01*
X026000Y026149D01*
X025929Y026094D01*
X025866Y026031D01*
X025811Y025960D01*
X025767Y025883D01*
X025732Y025800D01*
X025709Y025713D01*
X025702Y025660D01*
X026300Y025660D01*
X026300Y025761D02*
X026460Y025761D01*
X026460Y025919D02*
X026300Y025919D01*
X026300Y026078D02*
X026460Y026078D01*
X026460Y026236D02*
X026300Y026236D01*
X026191Y026236D02*
X024369Y026236D01*
X024648Y026078D02*
X025912Y026078D01*
X025788Y025919D02*
X024772Y025919D01*
X024838Y025761D02*
X025722Y025761D01*
X025702Y025500D02*
X025709Y025447D01*
X025732Y025360D01*
X025767Y025277D01*
X025811Y025200D01*
X025866Y025129D01*
X025929Y025066D01*
X026000Y025011D01*
X026077Y024967D01*
X026160Y024932D01*
X026247Y024909D01*
X026300Y024902D01*
X026300Y025500D01*
X025702Y025500D01*
X025710Y025444D02*
X024850Y025444D01*
X024797Y025285D02*
X025763Y025285D01*
X025868Y025127D02*
X024692Y025127D01*
X024485Y024968D02*
X026075Y024968D01*
X026300Y024968D02*
X026460Y024968D01*
X026460Y024902D02*
X026513Y024909D01*
X026600Y024932D01*
X026683Y024967D01*
X026760Y025011D01*
X026831Y025066D01*
X026894Y025129D01*
X026949Y025200D01*
X026993Y025277D01*
X027028Y025360D01*
X027051Y025447D01*
X027058Y025500D01*
X026460Y025500D01*
X026460Y024902D01*
X026460Y025127D02*
X026300Y025127D01*
X026300Y025285D02*
X026460Y025285D01*
X026460Y025444D02*
X026300Y025444D01*
X026460Y025602D02*
X028300Y025602D01*
X028300Y025660D02*
X028300Y025500D01*
X028460Y025500D01*
X028460Y025660D01*
X028300Y025660D01*
X028300Y026258D01*
X028247Y026251D01*
X028160Y026228D01*
X028077Y026193D01*
X028000Y026149D01*
X027929Y026094D01*
X027866Y026031D01*
X027811Y025960D01*
X027767Y025883D01*
X027732Y025800D01*
X027709Y025713D01*
X027702Y025660D01*
X028300Y025660D01*
X028300Y025761D02*
X028460Y025761D01*
X028460Y025919D02*
X028300Y025919D01*
X028300Y026078D02*
X028460Y026078D01*
X028460Y026236D02*
X028300Y026236D01*
X028191Y026236D02*
X027914Y026236D01*
X027912Y026078D02*
X027761Y026078D01*
X027788Y025919D02*
X026972Y025919D01*
X026999Y026078D02*
X026848Y026078D01*
X026846Y026236D02*
X026569Y026236D01*
X026780Y026395D02*
X023780Y026395D01*
X023805Y026553D02*
X026755Y026553D01*
X026758Y026712D02*
X023802Y026712D01*
X024100Y027029D02*
X024260Y027029D01*
X024260Y027187D02*
X024100Y027187D01*
X024100Y027663D02*
X024260Y027663D01*
X024260Y027821D02*
X024100Y027821D01*
X024100Y027980D02*
X024260Y027980D01*
X024260Y028138D02*
X024100Y028138D01*
X023786Y028138D02*
X022574Y028138D01*
X022734Y027980D02*
X023626Y027980D01*
X023541Y027821D02*
X022819Y027821D01*
X022858Y027663D02*
X023502Y027663D01*
X024574Y028138D02*
X025986Y028138D01*
X025826Y027980D02*
X024734Y027980D01*
X024819Y027821D02*
X025741Y027821D01*
X025702Y027663D02*
X024858Y027663D01*
X024822Y027346D02*
X025738Y027346D01*
X025821Y027187D02*
X024739Y027187D01*
X024582Y027029D02*
X025978Y027029D01*
X026300Y027029D02*
X026460Y027029D01*
X026460Y027187D02*
X026300Y027187D01*
X026300Y027663D02*
X026460Y027663D01*
X026460Y027821D02*
X026300Y027821D01*
X026300Y027980D02*
X026460Y027980D01*
X026460Y028138D02*
X026300Y028138D01*
X026774Y028138D02*
X027986Y028138D01*
X027826Y027980D02*
X026934Y027980D01*
X027019Y027821D02*
X027741Y027821D01*
X027702Y027663D02*
X027058Y027663D01*
X028300Y027663D02*
X028460Y027663D01*
X028460Y027821D02*
X028300Y027821D01*
X028300Y027980D02*
X028460Y027980D01*
X028460Y028138D02*
X028300Y028138D01*
X027722Y025761D02*
X027038Y025761D01*
X027050Y025444D02*
X027710Y025444D01*
X027709Y025447D02*
X027732Y025360D01*
X027767Y025277D01*
X027811Y025200D01*
X027866Y025129D01*
X027929Y025066D01*
X028000Y025011D01*
X028077Y024967D01*
X028160Y024932D01*
X028247Y024909D01*
X028300Y024902D01*
X028300Y025500D01*
X027702Y025500D01*
X027709Y025447D01*
X027763Y025285D02*
X026997Y025285D01*
X026892Y025127D02*
X027868Y025127D01*
X028075Y024968D02*
X026685Y024968D01*
X025941Y024621D02*
X025821Y024741D01*
X025665Y024806D01*
X025495Y024806D01*
X025339Y024741D01*
X025219Y024621D01*
X025154Y024465D01*
X025154Y024295D01*
X025219Y024139D01*
X025339Y024019D01*
X025495Y023954D01*
X025665Y023954D01*
X025821Y024019D01*
X025941Y024139D01*
X026006Y024295D01*
X026006Y024465D01*
X025941Y024621D01*
X025911Y024651D02*
X033728Y024651D01*
X033720Y024632D02*
X033720Y024528D01*
X033760Y024433D01*
X033833Y024360D01*
X033928Y024320D01*
X034032Y024320D01*
X034127Y024360D01*
X034200Y024433D01*
X034240Y024528D01*
X034240Y024632D01*
X034200Y024727D01*
X034127Y024800D01*
X034032Y024840D01*
X033928Y024840D01*
X033833Y024800D01*
X033760Y024727D01*
X033720Y024632D01*
X033735Y024493D02*
X025994Y024493D01*
X026006Y024334D02*
X033894Y024334D01*
X034066Y024334D02*
X036266Y024334D01*
X036266Y024176D02*
X025956Y024176D01*
X025816Y024017D02*
X036266Y024017D01*
X036266Y023859D02*
X024230Y023859D01*
X024230Y024017D02*
X025344Y024017D01*
X025204Y024176D02*
X024230Y024176D01*
X024230Y024334D02*
X025154Y024334D01*
X025166Y024493D02*
X024230Y024493D01*
X024230Y024651D02*
X025249Y024651D01*
X024230Y023700D02*
X026982Y023700D01*
X026960Y023677D02*
X027033Y023750D01*
X027128Y023790D01*
X027232Y023790D01*
X027327Y023750D01*
X027400Y023677D01*
X027440Y023582D01*
X027440Y023478D01*
X027400Y023383D01*
X027327Y023310D01*
X027232Y023270D01*
X027128Y023270D01*
X027033Y023310D01*
X026960Y023383D01*
X026920Y023478D01*
X026920Y023582D01*
X026960Y023677D01*
X026920Y023542D02*
X024230Y023542D01*
X024230Y023383D02*
X026959Y023383D01*
X027401Y023383D02*
X036266Y023383D01*
X036266Y023225D02*
X024230Y023225D01*
X024230Y023066D02*
X036266Y023066D01*
X036266Y022908D02*
X024230Y022908D01*
X024230Y022749D02*
X036266Y022749D01*
X036266Y022591D02*
X025542Y022591D01*
X025540Y022593D02*
X025479Y022636D01*
X025412Y022670D01*
X025341Y022694D01*
X025267Y022705D01*
X025248Y022705D01*
X025248Y022248D01*
X025705Y022248D01*
X025705Y022267D01*
X025694Y022341D01*
X025670Y022412D01*
X025636Y022479D01*
X025593Y022540D01*
X025540Y022593D01*
X025660Y022432D02*
X036266Y022432D01*
X036266Y022274D02*
X025704Y022274D01*
X025705Y022212D02*
X025248Y022212D01*
X025248Y022248D01*
X025212Y022248D01*
X025212Y022212D01*
X025248Y022212D01*
X025248Y021755D01*
X025267Y021755D01*
X025341Y021766D01*
X025412Y021790D01*
X025479Y021824D01*
X025540Y021867D01*
X025593Y021920D01*
X025636Y021981D01*
X025670Y022048D01*
X025694Y022119D01*
X025705Y022193D01*
X025705Y022212D01*
X025692Y022115D02*
X036266Y022115D01*
X036266Y021957D02*
X025619Y021957D01*
X025429Y021798D02*
X036266Y021798D01*
X036266Y021640D02*
X027338Y021640D01*
X027327Y021650D02*
X027232Y021690D01*
X027128Y021690D01*
X027033Y021650D01*
X026960Y021577D01*
X026920Y021482D01*
X026920Y021378D01*
X026960Y021283D01*
X027033Y021210D01*
X027128Y021170D01*
X027232Y021170D01*
X027327Y021210D01*
X027400Y021283D01*
X027440Y021378D01*
X027440Y021482D01*
X027400Y021577D01*
X027327Y021650D01*
X027440Y021481D02*
X028713Y021481D01*
X028733Y021500D02*
X028660Y021427D01*
X028620Y021332D01*
X028620Y021228D01*
X028660Y021133D01*
X028733Y021060D01*
X028828Y021020D01*
X028932Y021020D01*
X029027Y021060D01*
X029100Y021133D01*
X029140Y021228D01*
X029140Y021332D01*
X029100Y021427D01*
X029027Y021500D01*
X028932Y021540D01*
X028828Y021540D01*
X028733Y021500D01*
X028620Y021323D02*
X027417Y021323D01*
X026943Y021323D02*
X025330Y021323D01*
X025330Y021164D02*
X028647Y021164D01*
X028733Y020900D02*
X028660Y020827D01*
X028620Y020732D01*
X028620Y020628D01*
X028660Y020533D01*
X028733Y020460D01*
X028828Y020420D01*
X028932Y020420D01*
X029027Y020460D01*
X029100Y020533D01*
X029140Y020628D01*
X029140Y020732D01*
X029100Y020827D01*
X029027Y020900D01*
X028932Y020940D01*
X028828Y020940D01*
X028733Y020900D01*
X028679Y020847D02*
X025330Y020847D01*
X025330Y020689D02*
X028620Y020689D01*
X028662Y020530D02*
X027756Y020530D01*
X027732Y020540D02*
X027628Y020540D01*
X027533Y020500D01*
X027460Y020427D01*
X027420Y020332D01*
X027420Y020228D01*
X027460Y020133D01*
X027533Y020060D01*
X027628Y020020D01*
X027732Y020020D01*
X027827Y020060D01*
X027900Y020133D01*
X027940Y020228D01*
X027940Y020332D01*
X027900Y020427D01*
X027827Y020500D01*
X027732Y020540D01*
X027604Y020530D02*
X025330Y020530D01*
X025330Y020372D02*
X027436Y020372D01*
X027426Y020213D02*
X025330Y020213D01*
X025330Y020055D02*
X027545Y020055D01*
X027815Y020055D02*
X036266Y020055D01*
X036266Y020213D02*
X027934Y020213D01*
X027924Y020372D02*
X036266Y020372D01*
X036266Y020530D02*
X029098Y020530D01*
X029140Y020689D02*
X036266Y020689D01*
X036266Y020847D02*
X029081Y020847D01*
X029113Y021164D02*
X036266Y021164D01*
X036266Y021006D02*
X025330Y021006D01*
X025212Y021755D02*
X025212Y022212D01*
X024755Y022212D01*
X024755Y022193D01*
X024766Y022119D01*
X024790Y022048D01*
X024824Y021981D01*
X024867Y021920D01*
X024920Y021867D01*
X024981Y021824D01*
X025048Y021790D01*
X025119Y021766D01*
X025193Y021755D01*
X025212Y021755D01*
X025212Y021798D02*
X025248Y021798D01*
X025248Y021957D02*
X025212Y021957D01*
X025212Y022115D02*
X025248Y022115D01*
X025212Y022248D02*
X024755Y022248D01*
X024755Y022267D01*
X024766Y022341D01*
X024790Y022412D01*
X024824Y022479D01*
X024867Y022540D01*
X024920Y022593D01*
X024981Y022636D01*
X025048Y022670D01*
X025119Y022694D01*
X025193Y022705D01*
X025212Y022705D01*
X025212Y022248D01*
X025212Y022274D02*
X025248Y022274D01*
X025248Y022432D02*
X025212Y022432D01*
X025212Y022591D02*
X025248Y022591D01*
X024918Y022591D02*
X024513Y022591D01*
X024639Y022432D02*
X024800Y022432D01*
X024756Y022274D02*
X024685Y022274D01*
X024675Y022115D02*
X024768Y022115D01*
X024841Y021957D02*
X024600Y021957D01*
X024377Y021798D02*
X025031Y021798D01*
X024230Y021640D02*
X027022Y021640D01*
X026920Y021481D02*
X024230Y021481D01*
X023230Y021481D02*
X010461Y021481D01*
X010596Y021640D02*
X017985Y021640D01*
X017993Y021621D02*
X018071Y021543D01*
X018174Y021500D01*
X018286Y021500D01*
X018389Y021543D01*
X018467Y021621D01*
X018510Y021724D01*
X018510Y021836D01*
X018467Y021939D01*
X018389Y022017D01*
X018286Y022060D01*
X018174Y022060D01*
X018071Y022017D01*
X017993Y021939D01*
X017950Y021836D01*
X017950Y021724D01*
X017993Y021621D01*
X017950Y021798D02*
X010944Y021798D01*
X011053Y021957D02*
X018011Y021957D01*
X018449Y021957D02*
X021831Y021957D01*
X021827Y021961D02*
X021961Y021827D01*
X022135Y021755D01*
X022325Y021755D01*
X022499Y021827D01*
X022633Y021961D01*
X022705Y022135D01*
X022705Y022325D01*
X022633Y022499D01*
X022499Y022633D01*
X022325Y022705D01*
X022135Y022705D01*
X021961Y022633D01*
X021827Y022499D01*
X021755Y022325D01*
X021755Y022135D01*
X021827Y021961D01*
X021763Y022115D02*
X015912Y022115D01*
X015894Y022108D02*
X016013Y022157D01*
X016103Y022247D01*
X016152Y022366D01*
X016152Y022494D01*
X016107Y022605D01*
X016152Y022716D01*
X016152Y022844D01*
X016107Y022955D01*
X016152Y023066D01*
X023230Y023066D01*
X023230Y022908D02*
X016126Y022908D01*
X016152Y023066D02*
X016152Y023194D01*
X016103Y023313D01*
X016013Y023403D01*
X015894Y023452D01*
X015766Y023452D01*
X015647Y023403D01*
X015557Y023313D01*
X015508Y023194D01*
X015508Y023066D01*
X014557Y023066D01*
X014544Y023225D02*
X015520Y023225D01*
X015508Y023066D02*
X015553Y022955D01*
X015508Y022844D01*
X015508Y022716D01*
X015553Y022605D01*
X015508Y022494D01*
X015508Y022366D01*
X015557Y022247D01*
X015647Y022157D01*
X015766Y022108D01*
X015894Y022108D01*
X015748Y022115D02*
X011511Y022115D01*
X011560Y022274D02*
X011668Y022274D01*
X011892Y022274D02*
X015546Y022274D01*
X015508Y022432D02*
X012042Y022432D01*
X012058Y022591D02*
X015547Y022591D01*
X015508Y022749D02*
X011957Y022749D01*
X011976Y023542D02*
X023230Y023542D01*
X023230Y023700D02*
X012179Y023700D01*
X012249Y023859D02*
X023230Y023859D01*
X023230Y024017D02*
X012260Y024017D01*
X011584Y023542D02*
X010977Y023542D01*
X010964Y023535D02*
X011032Y023569D01*
X011093Y023614D01*
X011146Y023667D01*
X011191Y023728D01*
X011225Y023796D01*
X011248Y023868D01*
X011260Y023942D01*
X011260Y023960D01*
X010800Y023960D01*
X010800Y023500D01*
X010818Y023500D01*
X010892Y023512D01*
X010964Y023535D01*
X010800Y023542D02*
X010760Y023542D01*
X010760Y023700D02*
X010800Y023700D01*
X010800Y023859D02*
X010760Y023859D01*
X010583Y023542D02*
X009976Y023542D01*
X010179Y023700D02*
X010390Y023700D01*
X010315Y023859D02*
X010249Y023859D01*
X010260Y024017D02*
X010300Y024017D01*
X011170Y023700D02*
X011381Y023700D01*
X011311Y023859D02*
X011245Y023859D01*
X011260Y024017D02*
X011300Y024017D01*
X011048Y022115D02*
X011049Y022115D01*
X010616Y021798D02*
X010605Y021798D01*
X010199Y021481D02*
X010060Y021481D01*
X010018Y021323D02*
X022230Y021323D01*
X022429Y021798D02*
X023031Y021798D01*
X023048Y021790D02*
X023119Y021766D01*
X023193Y021755D01*
X023212Y021755D01*
X023212Y022212D01*
X022755Y022212D01*
X022755Y022193D01*
X022766Y022119D01*
X022790Y022048D01*
X022824Y021981D01*
X022867Y021920D01*
X022920Y021867D01*
X022981Y021824D01*
X023048Y021790D01*
X023212Y021798D02*
X023230Y021798D01*
X023230Y021640D02*
X018475Y021640D01*
X018510Y021798D02*
X022031Y021798D01*
X021755Y022274D02*
X016114Y022274D01*
X016152Y022432D02*
X021799Y022432D01*
X021918Y022591D02*
X016113Y022591D01*
X016152Y022749D02*
X023230Y022749D01*
X023212Y022705D02*
X023193Y022705D01*
X023119Y022694D01*
X023048Y022670D01*
X022981Y022636D01*
X022920Y022593D01*
X022867Y022540D01*
X022824Y022479D01*
X022790Y022412D01*
X022766Y022341D01*
X022755Y022267D01*
X022755Y022248D01*
X023212Y022248D01*
X023212Y022705D01*
X023212Y022591D02*
X023230Y022591D01*
X023230Y022432D02*
X023212Y022432D01*
X023212Y022274D02*
X023230Y022274D01*
X023230Y022115D02*
X023212Y022115D01*
X023212Y021957D02*
X023230Y021957D01*
X022841Y021957D02*
X022629Y021957D01*
X022697Y022115D02*
X022768Y022115D01*
X022756Y022274D02*
X022705Y022274D01*
X022661Y022432D02*
X022800Y022432D01*
X022918Y022591D02*
X022542Y022591D01*
X023230Y023225D02*
X016140Y023225D01*
X016033Y023383D02*
X023230Y023383D01*
X021377Y024810D02*
X033855Y024810D01*
X033700Y024933D02*
X033740Y025028D01*
X033740Y025132D01*
X033700Y025227D01*
X033627Y025300D01*
X033532Y025340D01*
X033428Y025340D01*
X033333Y025300D01*
X033260Y025227D01*
X033220Y025132D01*
X033220Y025028D01*
X033260Y024933D01*
X033333Y024860D01*
X033428Y024820D01*
X033532Y024820D01*
X033627Y024860D01*
X033700Y024933D01*
X033715Y024968D02*
X036266Y024968D01*
X036266Y024810D02*
X034105Y024810D01*
X034232Y024651D02*
X036266Y024651D01*
X036266Y024493D02*
X034225Y024493D01*
X033740Y025127D02*
X036266Y025127D01*
X036266Y025285D02*
X033643Y025285D01*
X033755Y025444D02*
X029050Y025444D01*
X029051Y025447D02*
X029058Y025500D01*
X028460Y025500D01*
X028460Y024902D01*
X028513Y024909D01*
X028600Y024932D01*
X028683Y024967D01*
X028760Y025011D01*
X028831Y025066D01*
X028894Y025129D01*
X028949Y025200D01*
X028993Y025277D01*
X029028Y025360D01*
X029051Y025447D01*
X028997Y025285D02*
X033317Y025285D01*
X033220Y025127D02*
X028892Y025127D01*
X028685Y024968D02*
X033245Y024968D01*
X033720Y025602D02*
X028460Y025602D01*
X028460Y025444D02*
X028300Y025444D01*
X028300Y025285D02*
X028460Y025285D01*
X028460Y025127D02*
X028300Y025127D01*
X028300Y024968D02*
X028460Y024968D01*
X027378Y023700D02*
X036266Y023700D01*
X036266Y023542D02*
X027440Y023542D01*
X029047Y021481D02*
X036266Y021481D01*
X036266Y021323D02*
X029140Y021323D01*
X027327Y019550D02*
X027232Y019590D01*
X027128Y019590D01*
X027033Y019550D01*
X026960Y019477D01*
X026920Y019382D01*
X026920Y019278D01*
X026960Y019183D01*
X027033Y019110D01*
X027128Y019070D01*
X027232Y019070D01*
X027327Y019110D01*
X027400Y019183D01*
X027440Y019278D01*
X027440Y019382D01*
X027400Y019477D01*
X027327Y019550D01*
X027258Y019579D02*
X036266Y019579D01*
X036266Y019421D02*
X027424Y019421D01*
X027433Y019262D02*
X036266Y019262D01*
X036266Y019104D02*
X029210Y019104D01*
X029200Y019127D02*
X029127Y019200D01*
X029032Y019240D01*
X028928Y019240D01*
X028833Y019200D01*
X028760Y019127D01*
X028720Y019032D01*
X028720Y018928D01*
X028760Y018833D01*
X028833Y018760D01*
X028928Y018720D01*
X029032Y018720D01*
X029127Y018760D01*
X029200Y018833D01*
X029240Y018928D01*
X029240Y019032D01*
X029200Y019127D01*
X029240Y018945D02*
X032296Y018945D01*
X032310Y018977D02*
X032270Y018882D01*
X032270Y018778D01*
X032310Y018683D01*
X032383Y018610D01*
X032478Y018570D01*
X032582Y018570D01*
X032677Y018610D01*
X032750Y018683D01*
X032790Y018778D01*
X032790Y018882D01*
X032750Y018977D01*
X032677Y019050D01*
X032582Y019090D01*
X032478Y019090D01*
X032383Y019050D01*
X032310Y018977D01*
X032270Y018787D02*
X029154Y018787D01*
X028806Y018787D02*
X025330Y018787D01*
X025330Y018945D02*
X028720Y018945D01*
X028750Y019104D02*
X027313Y019104D01*
X027047Y019104D02*
X025330Y019104D01*
X025330Y019262D02*
X026927Y019262D01*
X026936Y019421D02*
X025330Y019421D01*
X025330Y019579D02*
X027102Y019579D01*
X025330Y019738D02*
X036266Y019738D01*
X036266Y019896D02*
X025330Y019896D01*
X025330Y018628D02*
X032364Y018628D01*
X032696Y018628D02*
X036266Y018628D01*
X036266Y018470D02*
X025330Y018470D01*
X025330Y018311D02*
X036266Y018311D01*
X036266Y018153D02*
X025330Y018153D01*
X025330Y017994D02*
X032376Y017994D01*
X032360Y017977D02*
X032320Y017882D01*
X032320Y017778D01*
X032360Y017683D01*
X032433Y017610D01*
X032504Y017580D01*
X032433Y017550D01*
X032360Y017477D01*
X032320Y017382D01*
X032320Y017278D01*
X032360Y017183D01*
X032433Y017110D01*
X032528Y017070D01*
X032632Y017070D01*
X032727Y017110D01*
X032800Y017183D01*
X032840Y017278D01*
X032840Y017382D01*
X032800Y017477D01*
X032727Y017550D01*
X032656Y017580D01*
X032727Y017610D01*
X032800Y017683D01*
X032840Y017778D01*
X032840Y017882D01*
X032800Y017977D01*
X032727Y018050D01*
X032632Y018090D01*
X032528Y018090D01*
X032433Y018050D01*
X032360Y017977D01*
X032320Y017836D02*
X025330Y017836D01*
X025330Y017677D02*
X032365Y017677D01*
X032401Y017519D02*
X025330Y017519D01*
X025330Y017360D02*
X032320Y017360D01*
X032352Y017202D02*
X025330Y017202D01*
X025330Y017043D02*
X036266Y017043D01*
X036266Y016885D02*
X025330Y016885D01*
X025330Y016726D02*
X036266Y016726D01*
X036266Y016568D02*
X032686Y016568D01*
X032727Y016550D02*
X032632Y016590D01*
X032528Y016590D01*
X032433Y016550D01*
X032360Y016477D01*
X032320Y016382D01*
X032320Y016278D01*
X032360Y016183D01*
X032433Y016110D01*
X032504Y016080D01*
X032433Y016050D01*
X032360Y015977D01*
X032320Y015882D01*
X032320Y015778D01*
X032360Y015683D01*
X032433Y015610D01*
X032528Y015570D01*
X032632Y015570D01*
X032727Y015610D01*
X032800Y015683D01*
X032840Y015778D01*
X032840Y015882D01*
X032800Y015977D01*
X032727Y016050D01*
X032656Y016080D01*
X032727Y016110D01*
X032800Y016183D01*
X032840Y016278D01*
X032840Y016382D01*
X032800Y016477D01*
X032727Y016550D01*
X032829Y016409D02*
X036266Y016409D01*
X036266Y016251D02*
X032828Y016251D01*
X032685Y016092D02*
X036266Y016092D01*
X036266Y015934D02*
X032819Y015934D01*
X032839Y015775D02*
X036266Y015775D01*
X036266Y015617D02*
X032734Y015617D01*
X032426Y015617D02*
X026871Y015617D01*
X026851Y015636D02*
X026936Y015551D01*
X026982Y015440D01*
X026982Y015320D01*
X026936Y015209D01*
X026851Y015124D01*
X026740Y015078D01*
X026620Y015078D01*
X026509Y015124D01*
X026424Y015209D01*
X026378Y015320D01*
X026378Y015440D01*
X026424Y015551D01*
X026509Y015636D01*
X026620Y015682D01*
X026740Y015682D01*
X026851Y015636D01*
X026975Y015458D02*
X027969Y015458D01*
X027936Y015445D02*
X027815Y015324D01*
X027750Y015166D01*
X027750Y014994D01*
X027815Y014836D01*
X027936Y014715D01*
X028094Y014650D01*
X028266Y014650D01*
X028424Y014715D01*
X028545Y014836D01*
X028610Y014994D01*
X028610Y015166D01*
X028545Y015324D01*
X028424Y015445D01*
X028266Y015510D01*
X028094Y015510D01*
X027936Y015445D01*
X027805Y015300D02*
X026974Y015300D01*
X026869Y015141D02*
X027750Y015141D01*
X027755Y014983D02*
X026855Y014983D01*
X026851Y014986D02*
X026936Y014901D01*
X026982Y014790D01*
X026982Y014670D01*
X026936Y014559D01*
X026851Y014474D01*
X026740Y014428D01*
X026620Y014428D01*
X026509Y014474D01*
X026424Y014559D01*
X026378Y014670D01*
X026378Y014790D01*
X026424Y014901D01*
X026509Y014986D01*
X026620Y015032D01*
X026740Y015032D01*
X026851Y014986D01*
X026968Y014824D02*
X027828Y014824D01*
X028057Y014666D02*
X026981Y014666D01*
X026885Y014507D02*
X028038Y014507D01*
X028007Y014497D02*
X028075Y014519D01*
X028145Y014530D01*
X028170Y014530D01*
X028170Y014090D01*
X028190Y014090D01*
X028630Y014090D01*
X028630Y014115D01*
X028619Y014185D01*
X028597Y014253D01*
X028565Y014316D01*
X028523Y014373D01*
X028473Y014423D01*
X028416Y014465D01*
X028353Y014497D01*
X028285Y014519D01*
X028215Y014530D01*
X028190Y014530D01*
X028190Y014090D01*
X028190Y014070D01*
X028630Y014070D01*
X028630Y014045D01*
X028619Y013975D01*
X028597Y013907D01*
X028565Y013844D01*
X028523Y013787D01*
X028473Y013737D01*
X028416Y013695D01*
X028353Y013663D01*
X028285Y013641D01*
X028215Y013630D01*
X028190Y013630D01*
X028190Y014070D01*
X028170Y014070D01*
X028170Y013630D01*
X028145Y013630D01*
X028075Y013641D01*
X028007Y013663D01*
X027944Y013695D01*
X027887Y013737D01*
X027837Y013787D01*
X027795Y013844D01*
X027763Y013907D01*
X027741Y013975D01*
X027730Y014045D01*
X027730Y014070D01*
X028170Y014070D01*
X028170Y014090D01*
X027730Y014090D01*
X027730Y014115D01*
X027741Y014185D01*
X027763Y014253D01*
X027795Y014316D01*
X027837Y014373D01*
X027887Y014423D01*
X027944Y014465D01*
X028007Y014497D01*
X028170Y014507D02*
X028190Y014507D01*
X028322Y014507D02*
X032389Y014507D01*
X032360Y014477D02*
X032433Y014550D01*
X032504Y014580D01*
X032433Y014610D01*
X032360Y014683D01*
X032320Y014778D01*
X032320Y014882D01*
X032360Y014977D01*
X032433Y015050D01*
X032528Y015090D01*
X032632Y015090D01*
X032727Y015050D01*
X032800Y014977D01*
X032840Y014882D01*
X032840Y014778D01*
X032800Y014683D01*
X032727Y014610D01*
X032656Y014580D01*
X032727Y014550D01*
X032800Y014477D01*
X032840Y014382D01*
X032840Y014278D01*
X032800Y014183D01*
X032727Y014110D01*
X032632Y014070D01*
X032528Y014070D01*
X032433Y014110D01*
X032360Y014183D01*
X032320Y014278D01*
X032320Y014382D01*
X032360Y014477D01*
X032320Y014349D02*
X028541Y014349D01*
X028617Y014190D02*
X032357Y014190D01*
X032803Y014190D02*
X036266Y014190D01*
X036266Y014032D02*
X028628Y014032D01*
X028580Y013873D02*
X036266Y013873D01*
X036266Y013715D02*
X028443Y013715D01*
X028190Y013715D02*
X028170Y013715D01*
X028170Y013873D02*
X028190Y013873D01*
X028190Y014032D02*
X028170Y014032D01*
X028170Y014190D02*
X028190Y014190D01*
X028190Y014349D02*
X028170Y014349D01*
X028303Y014666D02*
X032377Y014666D01*
X032320Y014824D02*
X028532Y014824D01*
X028605Y014983D02*
X032365Y014983D01*
X032795Y014983D02*
X036266Y014983D01*
X036266Y015141D02*
X028610Y015141D01*
X028555Y015300D02*
X036266Y015300D01*
X036266Y015458D02*
X028391Y015458D01*
X028266Y015650D02*
X028424Y015715D01*
X028545Y015836D01*
X028610Y015994D01*
X028610Y016166D01*
X028545Y016324D01*
X028424Y016445D01*
X028266Y016510D01*
X028094Y016510D01*
X027936Y016445D01*
X027815Y016324D01*
X027750Y016166D01*
X027750Y015994D01*
X027815Y015836D01*
X027936Y015715D01*
X028094Y015650D01*
X028266Y015650D01*
X028483Y015775D02*
X032321Y015775D01*
X032341Y015934D02*
X028585Y015934D01*
X028610Y016092D02*
X032475Y016092D01*
X032331Y016251D02*
X028575Y016251D01*
X028459Y016409D02*
X032331Y016409D01*
X032474Y016568D02*
X025330Y016568D01*
X025330Y016409D02*
X027901Y016409D01*
X027785Y016251D02*
X025330Y016251D01*
X025330Y016092D02*
X027750Y016092D01*
X027775Y015934D02*
X025330Y015934D01*
X025330Y015775D02*
X027877Y015775D01*
X026489Y015617D02*
X025330Y015617D01*
X025330Y015458D02*
X026385Y015458D01*
X026386Y015300D02*
X025330Y015300D01*
X025330Y015141D02*
X026491Y015141D01*
X026505Y014983D02*
X025330Y014983D01*
X025330Y014824D02*
X026392Y014824D01*
X026379Y014666D02*
X025330Y014666D01*
X025330Y014507D02*
X026475Y014507D01*
X025330Y014349D02*
X027819Y014349D01*
X027743Y014190D02*
X025330Y014190D01*
X025330Y014032D02*
X027732Y014032D01*
X027780Y013873D02*
X025330Y013873D01*
X025330Y013715D02*
X027917Y013715D01*
X025330Y013556D02*
X032446Y013556D01*
X032433Y013550D02*
X032360Y013477D01*
X032320Y013382D01*
X032320Y013278D01*
X032360Y013183D01*
X032433Y013110D01*
X032504Y013080D01*
X032433Y013050D01*
X032360Y012977D01*
X032320Y012882D01*
X032320Y012778D01*
X032360Y012683D01*
X032433Y012610D01*
X032528Y012570D01*
X032632Y012570D01*
X032727Y012610D01*
X032800Y012683D01*
X032840Y012778D01*
X032840Y012882D01*
X032800Y012977D01*
X032727Y013050D01*
X032656Y013080D01*
X032727Y013110D01*
X032800Y013183D01*
X032840Y013278D01*
X032840Y013382D01*
X032800Y013477D01*
X032727Y013550D01*
X032632Y013590D01*
X032528Y013590D01*
X032433Y013550D01*
X032327Y013398D02*
X025330Y013398D01*
X025330Y013239D02*
X032336Y013239D01*
X032503Y013081D02*
X025330Y013081D01*
X025330Y012922D02*
X032337Y012922D01*
X032326Y012764D02*
X025330Y012764D01*
X025330Y012605D02*
X032444Y012605D01*
X032716Y012605D02*
X036266Y012605D01*
X036266Y012447D02*
X025330Y012447D01*
X025330Y012288D02*
X036266Y012288D01*
X036266Y012130D02*
X025330Y012130D01*
X025330Y011971D02*
X032357Y011971D01*
X032360Y011977D02*
X032320Y011882D01*
X032320Y011778D01*
X032360Y011683D01*
X032433Y011610D01*
X032504Y011580D01*
X032433Y011550D01*
X032360Y011477D01*
X032320Y011382D01*
X032320Y011278D01*
X032360Y011183D01*
X032433Y011110D01*
X032528Y011070D01*
X032632Y011070D01*
X032727Y011110D01*
X032800Y011183D01*
X032840Y011278D01*
X032840Y011382D01*
X032800Y011477D01*
X032727Y011550D01*
X032656Y011580D01*
X032727Y011610D01*
X032800Y011683D01*
X032840Y011778D01*
X032840Y011882D01*
X032800Y011977D01*
X032727Y012050D01*
X032632Y012090D01*
X032528Y012090D01*
X032433Y012050D01*
X032360Y011977D01*
X032320Y011813D02*
X025330Y011813D01*
X025330Y011654D02*
X032388Y011654D01*
X032378Y011496D02*
X025330Y011496D01*
X025330Y011337D02*
X026119Y011337D01*
X026110Y011327D02*
X026070Y011232D01*
X026070Y011128D01*
X026110Y011033D01*
X026183Y010960D01*
X026278Y010920D01*
X026382Y010920D01*
X026477Y010960D01*
X026550Y011033D01*
X026590Y011128D01*
X026590Y011232D01*
X026550Y011327D01*
X026477Y011400D01*
X026382Y011440D01*
X026278Y011440D01*
X026183Y011400D01*
X026110Y011327D01*
X026070Y011179D02*
X025330Y011179D01*
X025330Y011020D02*
X026122Y011020D01*
X026538Y011020D02*
X036266Y011020D01*
X036266Y010862D02*
X025330Y010862D01*
X025330Y010703D02*
X036266Y010703D01*
X036266Y010545D02*
X032783Y010545D01*
X032777Y010550D02*
X032682Y010590D01*
X032578Y010590D01*
X032483Y010550D01*
X032410Y010477D01*
X032370Y010382D01*
X032370Y010278D01*
X032410Y010183D01*
X032483Y010110D01*
X032554Y010080D01*
X032483Y010050D01*
X032410Y009977D01*
X032370Y009882D01*
X032370Y009778D01*
X032410Y009683D01*
X032483Y009610D01*
X032578Y009570D01*
X032682Y009570D01*
X032777Y009610D01*
X032850Y009683D01*
X032890Y009778D01*
X032890Y009882D01*
X032850Y009977D01*
X032777Y010050D01*
X032706Y010080D01*
X032777Y010110D01*
X032850Y010183D01*
X032890Y010278D01*
X032890Y010382D01*
X032850Y010477D01*
X032777Y010550D01*
X032888Y010386D02*
X036266Y010386D01*
X036266Y010228D02*
X032869Y010228D01*
X032732Y010069D02*
X036266Y010069D01*
X036266Y009911D02*
X032878Y009911D01*
X032879Y009752D02*
X036266Y009752D01*
X036266Y009594D02*
X032738Y009594D01*
X032522Y009594D02*
X025330Y009594D01*
X025330Y009752D02*
X032381Y009752D01*
X032382Y009911D02*
X025330Y009911D01*
X025330Y010069D02*
X032528Y010069D01*
X032391Y010228D02*
X025330Y010228D01*
X025330Y010386D02*
X032372Y010386D01*
X032477Y010545D02*
X025330Y010545D01*
X025330Y009435D02*
X036266Y009435D01*
X036266Y009277D02*
X027296Y009277D01*
X027497Y009118D02*
X036266Y009118D01*
X036266Y008960D02*
X027560Y008960D01*
X027560Y008801D02*
X036266Y008801D01*
X036266Y008643D02*
X027497Y008643D01*
X027538Y006741D02*
X032713Y006741D01*
X032358Y005574D02*
X032260Y005587D01*
X032260Y004760D01*
X032100Y004760D01*
X032100Y004600D01*
X031273Y004600D01*
X031286Y004502D01*
X031316Y004387D01*
X031362Y004277D01*
X031422Y004173D01*
X031494Y004079D01*
X031579Y003994D01*
X031673Y003922D01*
X031777Y003862D01*
X031887Y003816D01*
X032002Y003786D01*
X032100Y003773D01*
X032100Y004600D01*
X032260Y004600D01*
X032260Y004760D01*
X033087Y004760D01*
X033074Y004858D01*
X033044Y004973D01*
X032998Y005083D01*
X032938Y005187D01*
X032866Y005281D01*
X032781Y005366D01*
X032687Y005438D01*
X032583Y005498D01*
X032473Y005544D01*
X032358Y005574D01*
X032260Y005473D02*
X032100Y005473D01*
X032100Y005314D02*
X032260Y005314D01*
X032260Y005156D02*
X032100Y005156D01*
X032100Y004997D02*
X032260Y004997D01*
X032260Y004839D02*
X032100Y004839D01*
X032100Y004680D02*
X017082Y004680D01*
X017179Y004521D02*
X031283Y004521D01*
X031326Y004363D02*
X017228Y004363D01*
X017228Y004204D02*
X031404Y004204D01*
X031527Y004046D02*
X017228Y004046D01*
X017228Y003887D02*
X031733Y003887D01*
X032100Y003887D02*
X032260Y003887D01*
X032260Y003773D02*
X032358Y003786D01*
X032473Y003816D01*
X032583Y003862D01*
X032687Y003922D01*
X032781Y003994D01*
X032866Y004079D01*
X032938Y004173D01*
X032998Y004277D01*
X033044Y004387D01*
X033074Y004502D01*
X033087Y004600D01*
X032260Y004600D01*
X032260Y003773D01*
X032260Y004046D02*
X032100Y004046D01*
X032100Y004204D02*
X032260Y004204D01*
X032260Y004363D02*
X032100Y004363D01*
X032100Y004521D02*
X032260Y004521D01*
X032260Y004680D02*
X036266Y004680D01*
X036266Y004839D02*
X033077Y004839D01*
X033034Y004997D02*
X036266Y004997D01*
X036266Y005156D02*
X032956Y005156D01*
X032833Y005314D02*
X036266Y005314D01*
X036266Y004521D02*
X033077Y004521D01*
X033034Y004363D02*
X036266Y004363D01*
X036266Y004204D02*
X032956Y004204D01*
X032833Y004046D02*
X036266Y004046D01*
X036266Y003887D02*
X032627Y003887D01*
X031283Y004839D02*
X016860Y004839D01*
X017228Y003729D02*
X036266Y003729D01*
X036266Y011179D02*
X032796Y011179D01*
X032840Y011337D02*
X036266Y011337D01*
X036266Y011496D02*
X032782Y011496D01*
X032772Y011654D02*
X036266Y011654D01*
X036266Y011813D02*
X032840Y011813D01*
X032803Y011971D02*
X036266Y011971D01*
X036266Y012764D02*
X032834Y012764D01*
X032823Y012922D02*
X036266Y012922D01*
X036266Y013081D02*
X032657Y013081D01*
X032824Y013239D02*
X036266Y013239D01*
X036266Y013398D02*
X032833Y013398D01*
X032714Y013556D02*
X036266Y013556D01*
X036266Y014349D02*
X032840Y014349D01*
X032771Y014507D02*
X036266Y014507D01*
X036266Y014666D02*
X032783Y014666D01*
X032840Y014824D02*
X036266Y014824D01*
X036266Y017202D02*
X032808Y017202D01*
X032840Y017360D02*
X036266Y017360D01*
X036266Y017519D02*
X032759Y017519D01*
X032795Y017677D02*
X036266Y017677D01*
X036266Y017836D02*
X032840Y017836D01*
X032784Y017994D02*
X036266Y017994D01*
X036266Y018787D02*
X032790Y018787D01*
X032764Y018945D02*
X036266Y018945D01*
X036266Y025444D02*
X034205Y025444D01*
X034240Y025602D02*
X036266Y025602D01*
X036266Y025761D02*
X034167Y025761D01*
X034162Y026395D02*
X035338Y026395D01*
X035278Y026553D02*
X034240Y026553D01*
X034207Y026712D02*
X035307Y026712D01*
X036266Y027029D02*
X033740Y027029D01*
X033717Y027187D02*
X036266Y027187D01*
X036266Y027663D02*
X033065Y027663D01*
X033175Y027821D02*
X036266Y027821D01*
X036266Y027980D02*
X033206Y027980D01*
X033175Y028138D02*
X036266Y028138D01*
X036266Y028297D02*
X033066Y028297D01*
X032752Y028772D02*
X036266Y028772D01*
X036266Y028614D02*
X032462Y028614D01*
X032473Y028616D02*
X032583Y028662D01*
X032687Y028722D01*
X032781Y028794D01*
X032866Y028879D01*
X032938Y028973D01*
X032998Y029077D01*
X033044Y029187D01*
X033074Y029302D01*
X033087Y029400D01*
X032260Y029400D01*
X032260Y029560D01*
X032100Y029560D01*
X032100Y030387D01*
X032002Y030374D01*
X031887Y030344D01*
X031777Y030298D01*
X031673Y030238D01*
X031579Y030166D01*
X031494Y030081D01*
X031422Y029987D01*
X031362Y029883D01*
X031316Y029773D01*
X031286Y029658D01*
X031273Y029560D01*
X032100Y029560D01*
X032100Y029400D01*
X031273Y029400D01*
X031286Y029302D01*
X031316Y029187D01*
X031362Y029077D01*
X031422Y028973D01*
X031494Y028879D01*
X031579Y028794D01*
X031673Y028722D01*
X031777Y028662D01*
X031887Y028616D01*
X032002Y028586D01*
X032100Y028573D01*
X032100Y029400D01*
X032260Y029400D01*
X032260Y028573D01*
X032358Y028586D01*
X032473Y028616D01*
X032260Y028614D02*
X032100Y028614D01*
X032100Y028772D02*
X032260Y028772D01*
X032260Y028931D02*
X032100Y028931D01*
X032100Y029089D02*
X032260Y029089D01*
X032260Y029248D02*
X032100Y029248D01*
X032100Y029406D02*
X011780Y029406D01*
X011780Y029248D02*
X031300Y029248D01*
X031357Y029089D02*
X011780Y029089D01*
X011780Y028931D02*
X031455Y028931D01*
X031608Y028772D02*
X011780Y028772D01*
X011780Y028614D02*
X031898Y028614D01*
X032494Y028297D02*
X011780Y028297D01*
X011780Y028455D02*
X036266Y028455D01*
X036266Y028931D02*
X032905Y028931D01*
X033003Y029089D02*
X036266Y029089D01*
X036266Y029248D02*
X033060Y029248D01*
X033087Y029560D02*
X033074Y029658D01*
X033044Y029773D01*
X032998Y029883D01*
X032938Y029987D01*
X032866Y030081D01*
X032781Y030166D01*
X032687Y030238D01*
X032583Y030298D01*
X032473Y030344D01*
X032358Y030374D01*
X032260Y030387D01*
X032260Y029560D01*
X033087Y029560D01*
X033087Y029565D02*
X036266Y029565D01*
X036266Y029723D02*
X033057Y029723D01*
X032999Y029882D02*
X036266Y029882D01*
X036266Y030040D02*
X032897Y030040D01*
X032738Y030199D02*
X036266Y030199D01*
X036266Y030357D02*
X032423Y030357D01*
X032260Y030357D02*
X032100Y030357D01*
X032100Y030199D02*
X032260Y030199D01*
X032260Y030040D02*
X032100Y030040D01*
X032100Y029882D02*
X032260Y029882D01*
X032260Y029723D02*
X032100Y029723D01*
X032100Y029565D02*
X032260Y029565D01*
X032260Y029406D02*
X036266Y029406D01*
X031937Y030357D02*
X015338Y030357D01*
X015338Y030199D02*
X031622Y030199D01*
X031463Y030040D02*
X015338Y030040D01*
X015324Y029882D02*
X031361Y029882D01*
X031303Y029723D02*
X015258Y029723D01*
X015116Y029565D02*
X031273Y029565D01*
X022260Y028138D02*
X022100Y028138D01*
X022100Y027980D02*
X022260Y027980D01*
X022260Y027821D02*
X022100Y027821D01*
X022100Y027663D02*
X022260Y027663D01*
X020060Y027187D02*
X019900Y027187D01*
X019900Y027029D02*
X020060Y027029D01*
X018599Y026078D02*
X018448Y026078D01*
X018060Y026078D02*
X017900Y026078D01*
X017900Y025919D02*
X018060Y025919D01*
X018060Y025761D02*
X017900Y025761D01*
X017900Y025285D02*
X018060Y025285D01*
X018060Y025127D02*
X017900Y025127D01*
X017900Y024968D02*
X018060Y024968D01*
X017675Y024968D02*
X006558Y024968D01*
X006558Y025127D02*
X017468Y025127D01*
X017322Y025761D02*
X014612Y025761D01*
X014640Y025919D02*
X017388Y025919D01*
X017512Y026078D02*
X014550Y026078D01*
X014210Y026078D02*
X014100Y026078D01*
X013960Y026078D02*
X007590Y026078D01*
X007590Y026028D02*
X007550Y025933D01*
X007477Y025860D01*
X007382Y025820D01*
X007278Y025820D01*
X007183Y025860D01*
X007110Y025933D01*
X007070Y026028D01*
X007070Y026132D01*
X007110Y026227D01*
X007183Y026300D01*
X007278Y026340D01*
X007382Y026340D01*
X007477Y026300D01*
X007550Y026227D01*
X007590Y026132D01*
X007590Y026028D01*
X007606Y025919D02*
X007537Y025919D01*
X007570Y025761D02*
X006558Y025761D01*
X006558Y025919D02*
X007123Y025919D01*
X007070Y026078D02*
X006558Y026078D01*
X006558Y026236D02*
X007118Y026236D01*
X007542Y026236D02*
X007598Y026236D01*
X007570Y026395D02*
X006558Y026395D01*
X006558Y026553D02*
X007660Y026553D01*
X008198Y026712D02*
X006558Y026712D01*
X006558Y026870D02*
X008170Y026870D01*
X007640Y025602D02*
X007561Y025602D01*
X007099Y025602D02*
X006558Y025602D01*
X006558Y025444D02*
X007070Y025444D01*
X007157Y025285D02*
X006558Y025285D01*
X006558Y021481D02*
X007683Y021481D01*
X007471Y020847D02*
X008689Y020847D01*
X008555Y020689D02*
X007605Y020689D01*
X007670Y020530D02*
X008490Y020530D01*
X008495Y020213D02*
X007665Y020213D01*
X007594Y020055D02*
X008566Y020055D01*
X008713Y019896D02*
X008382Y019896D01*
X007778Y019896D02*
X007447Y019896D01*
X008607Y019104D02*
X020857Y019104D01*
X020862Y018945D02*
X009307Y018945D01*
X009313Y018943D02*
X009222Y018973D01*
X009143Y018985D01*
X009143Y018443D01*
X009685Y018443D01*
X009673Y018522D01*
X009643Y018613D01*
X009600Y018698D01*
X009543Y018776D01*
X009476Y018843D01*
X009398Y018900D01*
X009313Y018943D01*
X009143Y018945D02*
X009017Y018945D01*
X009017Y018787D02*
X009143Y018787D01*
X009143Y018628D02*
X009017Y018628D01*
X009017Y018470D02*
X009143Y018470D01*
X009143Y018311D02*
X009017Y018311D01*
X009017Y018153D02*
X009143Y018153D01*
X009143Y017994D02*
X009017Y017994D01*
X009017Y017836D02*
X009143Y017836D01*
X009143Y017677D02*
X009017Y017677D01*
X009017Y017519D02*
X009143Y017519D01*
X009143Y017360D02*
X009017Y017360D01*
X009429Y017677D02*
X012390Y017677D01*
X012350Y017836D02*
X009350Y017836D01*
X009585Y017519D02*
X019262Y017519D01*
X019208Y017360D02*
X009660Y017360D01*
X009684Y018311D02*
X020876Y018311D01*
X020850Y018470D02*
X009681Y018470D01*
X009635Y018628D02*
X020932Y018628D01*
X020986Y018787D02*
X009533Y018787D01*
X008853Y018945D02*
X008483Y018945D01*
X009017Y019896D02*
X009143Y019896D01*
X009143Y020055D02*
X009017Y020055D01*
X009447Y019896D02*
X012858Y019896D01*
X012731Y020055D02*
X009594Y020055D01*
X009665Y020213D02*
X012671Y020213D01*
X012696Y020530D02*
X009670Y020530D01*
X009605Y020689D02*
X012786Y020689D01*
X012989Y020847D02*
X009471Y020847D01*
X009143Y020847D02*
X009017Y020847D01*
X009017Y020689D02*
X009143Y020689D01*
X009143Y020530D02*
X009017Y020530D01*
X007143Y017043D02*
X007017Y017043D01*
X007017Y016885D02*
X007143Y016885D01*
X007143Y016726D02*
X007017Y016726D01*
X006675Y016726D02*
X006558Y016726D01*
X007017Y015617D02*
X007143Y015617D01*
X007143Y015458D02*
X007017Y015458D01*
X007017Y015300D02*
X007143Y015300D01*
X007143Y015141D02*
X009017Y015141D01*
X009017Y015117D02*
X009017Y015243D01*
X009143Y015243D01*
X009143Y015785D01*
X009222Y015773D01*
X009313Y015743D01*
X009398Y015700D01*
X009476Y015643D01*
X009543Y015576D01*
X009600Y015498D01*
X009643Y015413D01*
X009673Y015322D01*
X009685Y015243D01*
X009143Y015243D01*
X009143Y015117D01*
X009685Y015117D01*
X009673Y015038D01*
X009643Y014947D01*
X009600Y014862D01*
X009543Y014784D01*
X009476Y014717D01*
X009398Y014660D01*
X009313Y014617D01*
X009222Y014587D01*
X009175Y014580D01*
X009222Y014573D01*
X009313Y014543D01*
X009398Y014500D01*
X009476Y014443D01*
X009543Y014376D01*
X009600Y014298D01*
X009643Y014213D01*
X009673Y014122D01*
X009685Y014043D01*
X009143Y014043D01*
X009143Y013917D01*
X009685Y013917D01*
X009673Y013838D01*
X009643Y013747D01*
X009600Y013662D01*
X009543Y013584D01*
X009476Y013517D01*
X009398Y013460D01*
X009313Y013417D01*
X009222Y013387D01*
X009143Y013375D01*
X009143Y013917D01*
X009017Y013917D01*
X009017Y014043D01*
X009143Y014043D01*
X009143Y015117D01*
X009017Y015117D01*
X009143Y015141D02*
X022230Y015141D01*
X022230Y014983D02*
X009655Y014983D01*
X009572Y014824D02*
X022230Y014824D01*
X022230Y014666D02*
X009405Y014666D01*
X009384Y014507D02*
X011811Y014507D01*
X011821Y014517D02*
X011743Y014439D01*
X011700Y014336D01*
X011700Y014224D01*
X011743Y014121D01*
X011821Y014043D01*
X011924Y014000D01*
X012036Y014000D01*
X012139Y014043D01*
X012217Y014121D01*
X012260Y014224D01*
X012260Y014336D01*
X012217Y014439D01*
X012139Y014517D01*
X012036Y014560D01*
X011924Y014560D01*
X011821Y014517D01*
X011705Y014349D02*
X009563Y014349D01*
X009651Y014190D02*
X011714Y014190D01*
X011848Y014032D02*
X009143Y014032D01*
X009017Y014032D02*
X007143Y014032D01*
X007143Y014043D02*
X007017Y014043D01*
X007017Y014585D01*
X007017Y015117D01*
X007143Y015117D01*
X007143Y014043D01*
X007143Y014190D02*
X007017Y014190D01*
X007017Y014349D02*
X007143Y014349D01*
X007143Y014507D02*
X007017Y014507D01*
X007017Y014666D02*
X007143Y014666D01*
X007143Y014824D02*
X007017Y014824D01*
X007017Y014983D02*
X007143Y014983D01*
X007143Y013873D02*
X007017Y013873D01*
X007017Y013715D02*
X007143Y013715D01*
X007143Y013556D02*
X007017Y013556D01*
X006645Y013556D02*
X006558Y013556D01*
X007605Y012288D02*
X008555Y012288D01*
X008490Y012130D02*
X007670Y012130D01*
X007664Y011813D02*
X008496Y011813D01*
X008487Y011838D02*
X008517Y011747D01*
X008560Y011662D01*
X008617Y011584D01*
X008684Y011517D01*
X008762Y011460D01*
X008847Y011417D01*
X008938Y011387D01*
X009017Y011375D01*
X009017Y011917D01*
X008475Y011917D01*
X008487Y011838D01*
X008566Y011654D02*
X007594Y011654D01*
X007447Y011496D02*
X008713Y011496D01*
X009017Y011496D02*
X009143Y011496D01*
X009143Y011654D02*
X009017Y011654D01*
X009017Y011813D02*
X009143Y011813D01*
X009143Y012130D02*
X009017Y012130D01*
X009017Y012288D02*
X009143Y012288D01*
X009143Y012447D02*
X009017Y012447D01*
X008689Y012447D02*
X008340Y012447D01*
X008543Y012605D02*
X017201Y012605D01*
X017197Y012607D02*
X017316Y012558D01*
X017444Y012558D01*
X017563Y012607D01*
X017653Y012697D01*
X017702Y012816D01*
X017702Y012944D01*
X017653Y013063D01*
X017563Y013153D01*
X017444Y013202D01*
X017316Y013202D01*
X017197Y013153D01*
X017107Y013063D01*
X017058Y012944D01*
X017058Y012816D01*
X017107Y012697D01*
X017197Y012607D01*
X017079Y012764D02*
X008632Y012764D01*
X008672Y012922D02*
X017058Y012922D01*
X017124Y013081D02*
X008672Y013081D01*
X008614Y013239D02*
X022230Y013239D01*
X022230Y013081D02*
X017636Y013081D01*
X017702Y012922D02*
X022230Y012922D01*
X022230Y012764D02*
X019703Y012764D01*
X019663Y012803D02*
X019544Y012852D01*
X019416Y012852D01*
X019297Y012803D01*
X019207Y012713D01*
X019158Y012594D01*
X019158Y012466D01*
X019207Y012347D01*
X019297Y012257D01*
X019416Y012208D01*
X019544Y012208D01*
X019663Y012257D01*
X019753Y012347D01*
X019802Y012466D01*
X019802Y012594D01*
X019753Y012713D01*
X019663Y012803D01*
X019798Y012605D02*
X022230Y012605D01*
X022230Y012447D02*
X021218Y012447D01*
X021042Y012447D02*
X019794Y012447D01*
X019694Y012288D02*
X020872Y012288D01*
X020850Y012130D02*
X009670Y012130D01*
X009605Y012288D02*
X019266Y012288D01*
X019166Y012447D02*
X009471Y012447D01*
X009253Y013398D02*
X022230Y013398D01*
X022230Y013556D02*
X009515Y013556D01*
X009627Y013715D02*
X017599Y013715D01*
X017607Y013697D02*
X017697Y013607D01*
X017816Y013558D01*
X017944Y013558D01*
X018063Y013607D01*
X018153Y013697D01*
X018202Y013816D01*
X018202Y013944D01*
X018153Y014063D01*
X018063Y014153D01*
X017944Y014202D01*
X017816Y014202D01*
X017697Y014153D01*
X017607Y014063D01*
X017558Y013944D01*
X017558Y013816D01*
X017607Y013697D01*
X017558Y013873D02*
X009678Y013873D01*
X009143Y013873D02*
X009017Y013873D01*
X009017Y013715D02*
X009143Y013715D01*
X009143Y013556D02*
X009017Y013556D01*
X009017Y013398D02*
X009143Y013398D01*
X008907Y013398D02*
X008500Y013398D01*
X009017Y014190D02*
X009143Y014190D01*
X009143Y014349D02*
X009017Y014349D01*
X009017Y014507D02*
X009143Y014507D01*
X009143Y014666D02*
X009017Y014666D01*
X009017Y014824D02*
X009143Y014824D01*
X009143Y014983D02*
X009017Y014983D01*
X009017Y015300D02*
X009143Y015300D01*
X009143Y015458D02*
X009017Y015458D01*
X009017Y015617D02*
X009143Y015617D01*
X009143Y015775D02*
X009017Y015775D01*
X008953Y015775D02*
X008513Y015775D01*
X008619Y015934D02*
X019958Y015934D01*
X019958Y015944D02*
X019958Y015816D01*
X020007Y015697D01*
X020097Y015607D01*
X020216Y015558D01*
X020344Y015558D01*
X020463Y015607D01*
X020553Y015697D01*
X020602Y015816D01*
X020602Y015944D01*
X020553Y016063D01*
X020463Y016153D01*
X020344Y016202D01*
X020216Y016202D01*
X020097Y016153D01*
X020007Y016063D01*
X019958Y015944D01*
X020036Y016092D02*
X008672Y016092D01*
X008672Y016251D02*
X022230Y016251D01*
X022230Y016409D02*
X008626Y016409D01*
X009207Y015775D02*
X019974Y015775D01*
X020087Y015617D02*
X009503Y015617D01*
X009620Y015458D02*
X022230Y015458D01*
X022230Y015300D02*
X009676Y015300D01*
X012149Y014507D02*
X022230Y014507D01*
X022230Y014349D02*
X020559Y014349D01*
X020553Y014363D02*
X020463Y014453D01*
X020344Y014502D01*
X020216Y014502D01*
X020097Y014453D01*
X020007Y014363D01*
X019958Y014244D01*
X019958Y014116D01*
X020007Y013997D01*
X020097Y013907D01*
X020216Y013858D01*
X020344Y013858D01*
X020463Y013907D01*
X020553Y013997D01*
X020602Y014116D01*
X020602Y014244D01*
X020553Y014363D01*
X020602Y014190D02*
X022230Y014190D01*
X022230Y014032D02*
X020568Y014032D01*
X020382Y013873D02*
X022230Y013873D01*
X022230Y013715D02*
X018161Y013715D01*
X018202Y013873D02*
X020178Y013873D01*
X019992Y014032D02*
X018166Y014032D01*
X017974Y014190D02*
X019958Y014190D01*
X020001Y014349D02*
X012255Y014349D01*
X012246Y014190D02*
X017786Y014190D01*
X017594Y014032D02*
X012112Y014032D01*
X009594Y011654D02*
X020850Y011654D01*
X020919Y011496D02*
X009447Y011496D01*
X006558Y010703D02*
X022230Y010703D01*
X022230Y010545D02*
X006558Y010545D01*
X006558Y010386D02*
X022230Y010386D01*
X022230Y010228D02*
X006558Y010228D01*
X006558Y010069D02*
X022230Y010069D01*
X022230Y011496D02*
X021341Y011496D01*
X021410Y011654D02*
X022230Y011654D01*
X022230Y011813D02*
X021378Y011813D01*
X021317Y011971D02*
X022230Y011971D01*
X022230Y012130D02*
X021410Y012130D01*
X021388Y012288D02*
X022230Y012288D01*
X019257Y012764D02*
X017681Y012764D01*
X017559Y012605D02*
X019162Y012605D01*
X020473Y015617D02*
X022230Y015617D01*
X022230Y015775D02*
X020586Y015775D01*
X020602Y015934D02*
X022230Y015934D01*
X022230Y016092D02*
X020524Y016092D01*
X019380Y017043D02*
X017802Y017043D01*
X017715Y017202D02*
X019234Y017202D01*
X018051Y020213D02*
X013789Y020213D01*
X013764Y020530D02*
X017968Y020530D01*
X017951Y020372D02*
X013280Y020372D01*
X013280Y020213D02*
X013180Y020213D01*
X013180Y020055D02*
X013280Y020055D01*
X013280Y019896D02*
X013180Y019896D01*
X013674Y020689D02*
X018122Y020689D01*
X015534Y022908D02*
X014454Y022908D01*
X014401Y023383D02*
X015627Y023383D01*
X020492Y025127D02*
X020959Y025127D01*
X026541Y011337D02*
X032320Y011337D01*
X032364Y011179D02*
X026590Y011179D01*
D21*
X026330Y011180D03*
X023180Y008430D03*
X022780Y008580D03*
X021930Y008580D03*
X021480Y008880D03*
X023180Y007080D03*
X023580Y006630D03*
X022730Y006630D03*
X021830Y006630D03*
X021080Y006630D03*
X020230Y006630D03*
X019480Y006630D03*
X018980Y008830D03*
X021130Y011680D03*
X021130Y012180D03*
X026130Y007280D03*
X026130Y006630D03*
X025330Y006630D03*
X024480Y006630D03*
X031980Y007580D03*
X031980Y008080D03*
X031980Y008580D03*
X031980Y009080D03*
X031980Y009580D03*
X032630Y009830D03*
X032630Y010330D03*
X031980Y010580D03*
X031980Y011080D03*
X032580Y011330D03*
X032580Y011830D03*
X031980Y012080D03*
X031980Y012580D03*
X032580Y012830D03*
X032580Y013330D03*
X031980Y013580D03*
X031980Y014080D03*
X032580Y014330D03*
X032580Y014830D03*
X031980Y015080D03*
X031980Y015580D03*
X032580Y015830D03*
X032580Y016330D03*
X031980Y017080D03*
X031980Y017580D03*
X032580Y017830D03*
X032580Y017330D03*
X031980Y018580D03*
X031980Y019080D03*
X032530Y018830D03*
X031980Y019580D03*
X031980Y020080D03*
X031980Y021580D03*
X031980Y022080D03*
X031980Y022580D03*
X031980Y023580D03*
X031980Y024080D03*
X031980Y025080D03*
X031980Y025580D03*
X031980Y026080D03*
X031980Y026580D03*
X033480Y026580D03*
X033480Y027080D03*
X033980Y027080D03*
X033980Y026580D03*
X033980Y026080D03*
X033980Y025580D03*
X033480Y025580D03*
X033480Y026080D03*
X033480Y025080D03*
X033980Y025080D03*
X033980Y024580D03*
X033430Y024080D03*
X033980Y023580D03*
X033980Y023080D03*
X033980Y021580D03*
X033980Y021080D03*
X033980Y020580D03*
X033980Y019580D03*
X033980Y019080D03*
X033980Y018580D03*
X033980Y018030D03*
X033980Y017580D03*
X033980Y017080D03*
X033980Y016080D03*
X033980Y015580D03*
X033980Y015080D03*
X033980Y014580D03*
X033980Y013580D03*
X033980Y013080D03*
X033980Y012580D03*
X033980Y011580D03*
X033980Y011080D03*
X033980Y010580D03*
X033980Y010080D03*
X033980Y009580D03*
X033980Y009080D03*
X033980Y008580D03*
X033980Y008080D03*
X033980Y007580D03*
X028980Y018980D03*
X028280Y020030D03*
X027680Y020280D03*
X027180Y019330D03*
X028880Y020680D03*
X028880Y021280D03*
X028280Y022130D03*
X027180Y021430D03*
X027180Y023530D03*
X028280Y023980D03*
X021180Y024980D03*
X018230Y021780D03*
X017830Y021930D03*
X016980Y021930D03*
X018230Y020430D03*
X018630Y019980D03*
X017780Y019980D03*
X016880Y019980D03*
X016130Y019980D03*
X015280Y019980D03*
X014530Y019980D03*
X012630Y017830D03*
X012880Y017480D03*
X011980Y014280D03*
X011280Y014280D03*
X011280Y011080D03*
X011980Y011080D03*
X009330Y008530D03*
X008480Y008480D03*
X007980Y008030D03*
X007530Y007730D03*
X007980Y007430D03*
X007530Y007180D03*
X009430Y006930D03*
X011030Y007130D03*
X011830Y007330D03*
X012530Y007630D03*
X013230Y007930D03*
X021130Y018430D03*
X021130Y019030D03*
X021180Y019980D03*
X021180Y020630D03*
X020380Y019980D03*
X020230Y019480D03*
X019530Y019980D03*
X014280Y023130D03*
X014780Y025480D03*
X014380Y025880D03*
X014030Y026330D03*
X013580Y026680D03*
X013180Y027080D03*
X009380Y025230D03*
X007830Y025780D03*
X007330Y026080D03*
X007830Y026355D03*
X008430Y026830D03*
X007330Y025480D03*
X007880Y022730D03*
X007880Y022230D03*
X007880Y021680D03*
X007280Y021930D03*
X007280Y022480D03*
X009780Y021480D03*
X010330Y021730D03*
X010780Y022030D03*
X011280Y022280D03*
X011780Y022530D03*
D22*
X008880Y021180D03*
X015830Y022430D03*
X015830Y022780D03*
X015830Y023130D03*
X017230Y023830D03*
X017380Y021380D03*
X017380Y020880D03*
X018230Y019430D03*
X019530Y017330D03*
X019480Y016280D03*
X020280Y016530D03*
X020280Y015880D03*
X020280Y014180D03*
X020280Y013480D03*
X019480Y013230D03*
X019480Y013880D03*
X019480Y012530D03*
X017880Y013880D03*
X017380Y012880D03*
X016080Y012880D03*
X018230Y010430D03*
X021030Y010680D03*
X022330Y008030D03*
X022330Y007530D03*
X018980Y006130D03*
X026430Y010680D03*
X027180Y013630D03*
X026680Y014730D03*
X026680Y015380D03*
X027180Y016530D03*
X025730Y019730D03*
X021030Y019430D03*
X017480Y016980D03*
X018230Y016030D03*
X016180Y016980D03*
X019780Y023830D03*
X016630Y026430D03*
X035580Y026580D03*
D23*
X034780Y030130D03*
D24*
X028480Y022480D02*
X027780Y022380D01*
X028480Y020380D02*
X028680Y020380D01*
D25*
X025580Y024380D03*
X032780Y027980D03*
M02*
