G75*
%MOIN*%
%OFA0B0*%
%FSLAX24Y24*%
%IPPOS*%
%LPD*%
%AMOC8*
5,1,8,0,0,1.08239X$1,22.5*
%
%ADD10C,0.1460*%
%ADD11C,0.0250*%
%ADD12R,0.0700X0.0250*%
%ADD13R,0.0800X0.0250*%
%ADD14R,0.0600X0.0380*%
%ADD15R,0.0420X0.0350*%
%ADD16R,0.0740X0.0480*%
%ADD17R,0.0350X0.0420*%
%ADD18R,0.0300X0.0150*%
%ADD19R,0.0400X0.0150*%
%ADD20R,0.0480X0.0740*%
%ADD21OC8,0.0591*%
%ADD22R,0.0394X0.0217*%
%ADD23C,0.0825*%
%ADD24C,0.0855*%
%ADD25C,0.1575*%
%ADD26C,0.0050*%
%ADD27C,0.0540*%
%ADD28R,0.0360X0.0480*%
%ADD29R,0.0315X0.0354*%
%ADD30R,0.1100X0.0650*%
%ADD31OC8,0.0600*%
%ADD32R,0.0560X0.0170*%
%ADD33R,0.0620X0.0740*%
%ADD34C,0.0930*%
%ADD35C,0.1005*%
%ADD36R,0.0480X0.0360*%
%ADD37C,0.0236*%
%ADD38OC8,0.0850*%
%ADD39C,0.0100*%
%ADD40C,0.0200*%
%ADD41C,0.0160*%
%ADD42C,0.0285*%
%ADD43C,0.0120*%
%ADD44C,0.0472*%
%ADD45C,0.0400*%
%ADD46C,0.0240*%
%ADD47C,0.0150*%
%ADD48C,0.0531*%
%ADD49C,0.0320*%
D10*
X032180Y004680D03*
X032180Y029480D03*
D11*
X032230Y026830D03*
X032230Y026330D03*
X032230Y025830D03*
X032230Y025330D03*
X032230Y024830D03*
X032230Y024330D03*
X032230Y023830D03*
X032230Y023330D03*
X032230Y022830D03*
X032230Y022330D03*
X032230Y021830D03*
X032230Y021330D03*
X032230Y020830D03*
X032230Y020330D03*
X032230Y019830D03*
X032230Y019330D03*
X032230Y018830D03*
X032230Y018330D03*
X032230Y017830D03*
X032230Y017330D03*
X032230Y016830D03*
X032230Y016330D03*
X032230Y015830D03*
X032230Y015330D03*
X032230Y014830D03*
X032230Y014330D03*
X032230Y013830D03*
X032230Y013330D03*
X032230Y012830D03*
X032230Y012330D03*
X032230Y011830D03*
X032230Y011330D03*
X032230Y010830D03*
X032230Y010330D03*
X032230Y009830D03*
X032230Y009330D03*
X032230Y008830D03*
X032230Y008330D03*
X032230Y007830D03*
X032230Y007330D03*
X031730Y007330D03*
X031730Y007830D03*
X031730Y008330D03*
X031730Y008830D03*
X031730Y009330D03*
X031730Y009830D03*
X031730Y010330D03*
X031730Y010830D03*
X031730Y011330D03*
X031730Y011830D03*
X031730Y012330D03*
X031730Y012830D03*
X031730Y013330D03*
X031730Y013830D03*
X031730Y014330D03*
X031730Y014830D03*
X031730Y015330D03*
X031730Y015830D03*
X031730Y016330D03*
X031730Y016830D03*
X031730Y017330D03*
X031730Y017830D03*
X031730Y018330D03*
X031730Y018830D03*
X031730Y019330D03*
X031730Y019830D03*
X031730Y020330D03*
X031730Y020830D03*
X031730Y021330D03*
X031730Y021830D03*
X031730Y022330D03*
X031730Y022830D03*
X031730Y023330D03*
X031730Y023830D03*
X031730Y024330D03*
X031730Y024830D03*
X031730Y025330D03*
X031730Y025830D03*
X031730Y026330D03*
X031730Y026830D03*
X033730Y026830D03*
X033730Y026330D03*
X033730Y025830D03*
X033730Y025330D03*
X033730Y024830D03*
X033730Y024330D03*
X033730Y023830D03*
X033730Y023330D03*
X033730Y022830D03*
X033730Y022330D03*
X033730Y021830D03*
X033730Y021330D03*
X033730Y020830D03*
X033730Y020330D03*
X033730Y019830D03*
X033730Y019330D03*
X033730Y018830D03*
X033730Y018330D03*
X033730Y017830D03*
X033730Y017330D03*
X033730Y016830D03*
X033730Y016330D03*
X033730Y015830D03*
X033730Y015330D03*
X033730Y014830D03*
X033730Y014330D03*
X033730Y013830D03*
X033730Y013330D03*
X033730Y012830D03*
X033730Y012330D03*
X033730Y011830D03*
X033730Y011330D03*
X033730Y010830D03*
X033730Y010330D03*
X033730Y009830D03*
X033730Y009330D03*
X033730Y008830D03*
X033730Y008330D03*
X033730Y007830D03*
X033730Y007330D03*
X034230Y007330D03*
X034230Y007830D03*
X034230Y008330D03*
X034230Y008830D03*
X034230Y009330D03*
X034230Y009830D03*
X034230Y010330D03*
X034230Y010830D03*
X034230Y011330D03*
X034230Y011830D03*
X034230Y012330D03*
X034230Y012830D03*
X034230Y013330D03*
X034230Y013830D03*
X034230Y014330D03*
X034230Y014830D03*
X034230Y015330D03*
X034230Y015830D03*
X034230Y016330D03*
X034230Y016830D03*
X034230Y017330D03*
X034230Y017830D03*
X034230Y018330D03*
X034230Y018830D03*
X034230Y019330D03*
X034230Y019830D03*
X034230Y020330D03*
X034230Y020830D03*
X034230Y021330D03*
X034230Y021830D03*
X034230Y022330D03*
X034230Y022830D03*
X034230Y023330D03*
X034230Y023830D03*
X034230Y024330D03*
X034230Y024830D03*
X034230Y025330D03*
X034230Y025830D03*
X034230Y026330D03*
X034230Y026830D03*
D12*
X018890Y019430D03*
X018890Y018930D03*
X018890Y018430D03*
X018890Y017930D03*
X018890Y016030D03*
X018890Y015530D03*
X018890Y015030D03*
X018890Y014530D03*
X016680Y014530D03*
X016670Y015030D03*
X016670Y015530D03*
X016670Y016030D03*
X016680Y017930D03*
X016670Y018430D03*
X016670Y018930D03*
X016670Y019430D03*
X016670Y011930D03*
X016670Y011430D03*
X016670Y010930D03*
X016670Y010430D03*
X018890Y010430D03*
X018890Y010930D03*
X018890Y011430D03*
X018880Y011930D03*
D13*
X021730Y011680D03*
X021730Y012180D03*
X021730Y012680D03*
X021730Y013180D03*
X021730Y013680D03*
X021730Y014180D03*
X021730Y015930D03*
X021730Y016430D03*
X021730Y016930D03*
X021730Y017430D03*
X021730Y017930D03*
X021730Y018430D03*
X021730Y018930D03*
X021730Y019430D03*
X025730Y019430D03*
X025730Y018930D03*
X025730Y018430D03*
X025730Y017930D03*
X025730Y017430D03*
X025730Y016930D03*
X025730Y016430D03*
X025730Y015930D03*
X025730Y014180D03*
X025730Y013680D03*
X025730Y013180D03*
X025730Y012680D03*
X025730Y012180D03*
X025730Y011680D03*
X025730Y011180D03*
X025730Y010680D03*
X021730Y010680D03*
X021730Y011180D03*
D14*
X019780Y022570D03*
X019780Y023390D03*
D15*
X021080Y025340D03*
X021080Y026020D03*
X021080Y026840D03*
X021080Y027520D03*
X025280Y026620D03*
X025280Y025940D03*
X020730Y021070D03*
X020730Y020390D03*
X020030Y020390D03*
X020030Y021070D03*
X019830Y019470D03*
X019830Y018790D03*
X019080Y017320D03*
X019080Y016640D03*
X020780Y016520D03*
X020780Y015840D03*
X020780Y014220D03*
X020780Y013540D03*
X018980Y013220D03*
X018980Y012540D03*
X015580Y012120D03*
X015580Y011440D03*
X015580Y010920D03*
X015580Y010240D03*
X018980Y008470D03*
X018980Y007790D03*
X019680Y007790D03*
X019680Y008470D03*
X024980Y007670D03*
X025680Y007670D03*
X025680Y006990D03*
X024980Y006990D03*
X026680Y013590D03*
X026680Y014270D03*
X026680Y015840D03*
X026680Y016520D03*
X017380Y022640D03*
X017380Y023320D03*
X014730Y021820D03*
X014730Y021140D03*
X014030Y021140D03*
X014030Y021820D03*
X013780Y023190D03*
X013780Y023870D03*
X012980Y023870D03*
X012980Y023190D03*
D16*
X015630Y021780D03*
X016530Y022530D03*
X016530Y023830D03*
X019130Y021780D03*
X019130Y020480D03*
X015630Y020480D03*
X020580Y008430D03*
X020580Y007130D03*
X024080Y007130D03*
X024080Y008430D03*
D17*
X024990Y008430D03*
X025670Y008430D03*
X019670Y007080D03*
X018990Y007080D03*
X018220Y007080D03*
X017540Y007080D03*
X018340Y013880D03*
X019020Y013880D03*
X014720Y020430D03*
X014040Y020430D03*
X020040Y021780D03*
X020720Y021780D03*
D18*
X008430Y021705D03*
X008430Y021455D03*
X008430Y021955D03*
X008430Y022205D03*
X008430Y022455D03*
X008430Y022705D03*
X008430Y025305D03*
X008430Y025555D03*
X008430Y025805D03*
X008430Y026055D03*
X008430Y026305D03*
X008430Y026555D03*
X008480Y008205D03*
X008480Y007955D03*
X008480Y007705D03*
X008480Y007455D03*
X008480Y007205D03*
X008480Y006955D03*
D19*
X008930Y006955D03*
X008930Y007205D03*
X008930Y007455D03*
X008930Y007705D03*
X008930Y007955D03*
X008930Y008205D03*
X008880Y021455D03*
X008880Y021705D03*
X008880Y021955D03*
X008880Y022205D03*
X008880Y022455D03*
X008880Y022705D03*
X008880Y025305D03*
X008880Y025555D03*
X008880Y025805D03*
X008880Y026055D03*
X008880Y026305D03*
X008880Y026555D03*
D20*
X015680Y016980D03*
X016980Y016980D03*
X016630Y012880D03*
X017930Y012880D03*
X021480Y023480D03*
X022780Y023480D03*
X024680Y023480D03*
X025980Y023480D03*
D21*
X025230Y022230D03*
X024230Y022230D03*
X023230Y022230D03*
X022230Y022230D03*
D22*
X019011Y022606D03*
X019011Y022980D03*
X019011Y023354D03*
X017949Y023354D03*
X017949Y022606D03*
D23*
X008080Y019380D03*
X008080Y016180D03*
X008080Y012980D03*
D24*
X007080Y011980D03*
X009080Y011980D03*
X009080Y013980D03*
X009080Y015180D03*
X007080Y015180D03*
X007080Y013980D03*
X007080Y017180D03*
X007080Y018380D03*
X009080Y018380D03*
X009080Y017180D03*
X009080Y020380D03*
X007080Y020380D03*
D25*
X010684Y027928D03*
X010684Y005664D03*
D26*
X010684Y004680D02*
X006353Y004680D01*
X006353Y006452D01*
X010684Y006452D01*
X010684Y004680D01*
X006353Y004680D01*
X006353Y004729D02*
X010684Y004729D01*
X010684Y004777D02*
X006353Y004777D01*
X006353Y004826D02*
X010684Y004826D01*
X010684Y004874D02*
X006353Y004874D01*
X006353Y004923D02*
X010684Y004923D01*
X010684Y004971D02*
X006353Y004971D01*
X006353Y005020D02*
X010684Y005020D01*
X010684Y005068D02*
X006353Y005068D01*
X006353Y005117D02*
X010684Y005117D01*
X010684Y005165D02*
X006353Y005165D01*
X006353Y005214D02*
X010684Y005214D01*
X010684Y005262D02*
X006353Y005262D01*
X006353Y005311D02*
X010684Y005311D01*
X010684Y005359D02*
X006353Y005359D01*
X006353Y005408D02*
X010684Y005408D01*
X010684Y005456D02*
X006353Y005456D01*
X006353Y005505D02*
X010684Y005505D01*
X010684Y005553D02*
X006353Y005553D01*
X006353Y005602D02*
X010684Y005602D01*
X010684Y005650D02*
X006353Y005650D01*
X006353Y005699D02*
X010684Y005699D01*
X010684Y005747D02*
X006353Y005747D01*
X006353Y005796D02*
X010684Y005796D01*
X010684Y005844D02*
X006353Y005844D01*
X006353Y005893D02*
X010684Y005893D01*
X010684Y005941D02*
X006353Y005941D01*
X006353Y005990D02*
X010684Y005990D01*
X010684Y006038D02*
X006353Y006038D01*
X006353Y006087D02*
X010684Y006087D01*
X010684Y006135D02*
X006353Y006135D01*
X006353Y006184D02*
X010684Y006184D01*
X010684Y006232D02*
X006353Y006232D01*
X006353Y006281D02*
X010684Y006281D01*
X010684Y006329D02*
X006353Y006329D01*
X006353Y006378D02*
X010684Y006378D01*
X010684Y006426D02*
X006353Y006426D01*
X006353Y027121D02*
X006353Y028814D01*
X010684Y028814D01*
X010684Y027121D01*
X006353Y027121D01*
X006353Y027136D02*
X010684Y027136D01*
X010684Y027184D02*
X006353Y027184D01*
X006353Y027233D02*
X010684Y027233D01*
X010684Y027281D02*
X006353Y027281D01*
X006353Y027330D02*
X010684Y027330D01*
X010684Y027378D02*
X006353Y027378D01*
X006353Y027427D02*
X010684Y027427D01*
X010684Y027475D02*
X006353Y027475D01*
X006353Y027524D02*
X010684Y027524D01*
X010684Y027572D02*
X006353Y027572D01*
X006353Y027621D02*
X010684Y027621D01*
X010684Y027669D02*
X006353Y027669D01*
X006353Y027718D02*
X010684Y027718D01*
X010684Y027766D02*
X006353Y027766D01*
X006353Y027815D02*
X010684Y027815D01*
X010684Y027863D02*
X006353Y027863D01*
X006353Y027912D02*
X010684Y027912D01*
X010684Y027960D02*
X006353Y027960D01*
X006353Y028009D02*
X010684Y028009D01*
X010684Y028057D02*
X006353Y028057D01*
X006353Y028106D02*
X010684Y028106D01*
X010684Y028154D02*
X006353Y028154D01*
X006353Y028203D02*
X010684Y028203D01*
X010684Y028251D02*
X006353Y028251D01*
X006353Y028300D02*
X010684Y028300D01*
X010684Y028348D02*
X006353Y028348D01*
X006353Y028397D02*
X010684Y028397D01*
X010684Y028445D02*
X006353Y028445D01*
X006353Y028494D02*
X010684Y028494D01*
X010684Y028542D02*
X006353Y028542D01*
X006353Y028591D02*
X010684Y028591D01*
X010684Y028639D02*
X006353Y028639D01*
X006353Y028688D02*
X010684Y028688D01*
X010684Y028736D02*
X006353Y028736D01*
X006353Y028785D02*
X010684Y028785D01*
D27*
X027910Y016080D02*
X028450Y016080D01*
X028450Y015080D02*
X027910Y015080D01*
X027910Y014080D02*
X028450Y014080D01*
X027400Y008880D02*
X026860Y008880D01*
X026860Y007880D02*
X027400Y007880D01*
X027400Y006880D02*
X026860Y006880D01*
X015500Y008080D02*
X014960Y008080D01*
X014960Y009080D02*
X015500Y009080D01*
D28*
X016771Y007780D03*
X018189Y007780D03*
D29*
X018304Y008403D03*
X017556Y008403D03*
X017930Y009230D03*
D30*
X033930Y029030D03*
X033930Y030130D03*
X035630Y030130D03*
X035630Y029030D03*
D31*
X011780Y023980D03*
X010780Y023980D03*
X009780Y023980D03*
X008780Y023980D03*
D32*
X016520Y021510D03*
X016520Y021260D03*
X016520Y021000D03*
X016520Y020750D03*
X018240Y020750D03*
X018240Y021000D03*
X018240Y021260D03*
X018240Y021510D03*
X021470Y008160D03*
X021470Y007910D03*
X021470Y007650D03*
X021470Y007400D03*
X023190Y007400D03*
X023190Y007650D03*
X023190Y007910D03*
X023190Y008160D03*
D33*
X022330Y007780D03*
X017380Y021130D03*
D34*
X018980Y026580D03*
X023180Y026580D03*
X027380Y026580D03*
D35*
X028380Y027580D03*
X028380Y025580D03*
X026380Y025580D03*
X026380Y027580D03*
X024180Y027580D03*
X024180Y025580D03*
X022180Y025580D03*
X022180Y027580D03*
X019980Y027580D03*
X019980Y025580D03*
X017980Y025580D03*
X017980Y027580D03*
D36*
X027180Y024589D03*
X028280Y024589D03*
X028280Y023171D03*
X028280Y022489D03*
X027180Y022489D03*
X027180Y023171D03*
X027180Y021071D03*
X027180Y020389D03*
X028280Y020389D03*
X028280Y021071D03*
X028280Y018971D03*
X027180Y018971D03*
D37*
X028030Y018430D03*
X028030Y017930D03*
X028030Y017430D03*
X028030Y016930D03*
X027880Y013180D03*
X027880Y012680D03*
X027880Y012180D03*
X027880Y011680D03*
X018230Y022130D03*
X013130Y022730D03*
X012630Y019380D03*
X012330Y019130D03*
X012030Y019380D03*
X011730Y019130D03*
X011430Y019380D03*
X011130Y019130D03*
X010830Y019380D03*
X010530Y019130D03*
X010230Y019380D03*
X009930Y019130D03*
X012280Y014230D03*
D38*
X013230Y020330D03*
D39*
X012630Y019380D02*
X012630Y018580D01*
X012630Y018430D01*
X012780Y018280D01*
X016280Y018280D01*
X016430Y018430D01*
X016670Y018430D01*
X016280Y018080D02*
X016430Y017930D01*
X016680Y017930D01*
X016280Y018080D02*
X012580Y018080D01*
X012330Y018330D01*
X012330Y018480D01*
X012330Y019130D01*
X012330Y021605D01*
X011230Y022705D01*
X008880Y022705D01*
X008905Y022480D02*
X008880Y022455D01*
X008905Y022480D02*
X010730Y022480D01*
X011730Y021480D01*
X011730Y019130D01*
X011730Y017930D01*
X011730Y017880D01*
X013480Y016130D01*
X016580Y016130D01*
X016670Y016040D01*
X016670Y016030D01*
X017080Y016330D02*
X013680Y016330D01*
X012030Y017980D01*
X012030Y018130D01*
X012030Y019380D01*
X012030Y021530D01*
X011280Y022280D01*
X010780Y022030D02*
X011430Y021380D01*
X011430Y019380D01*
X011430Y017630D01*
X014180Y014880D01*
X016330Y014880D01*
X016480Y015030D01*
X016670Y015030D01*
X016330Y014680D02*
X013980Y014680D01*
X011130Y017530D01*
X011130Y017730D01*
X011130Y019130D01*
X011130Y021305D01*
X010230Y022205D01*
X008880Y022205D01*
X008880Y021955D02*
X009730Y021955D01*
X010530Y021155D01*
X010530Y019130D01*
X010530Y017230D01*
X014580Y013180D01*
X014580Y011980D01*
X014880Y011680D01*
X015340Y011680D01*
X015580Y011440D01*
X015790Y011440D01*
X016280Y011930D01*
X016670Y011930D01*
X016660Y011440D02*
X016670Y011430D01*
X017130Y011430D01*
X017280Y011580D01*
X017280Y012030D01*
X017080Y012230D01*
X015930Y012230D01*
X015820Y012120D01*
X015580Y012120D01*
X015340Y011880D01*
X015080Y011880D01*
X014780Y012180D01*
X014780Y013380D01*
X010830Y017330D01*
X010830Y019380D01*
X010830Y021230D01*
X010330Y021730D01*
X009780Y021480D02*
X010230Y021030D01*
X010230Y019380D01*
X010230Y017030D01*
X014280Y012980D01*
X014280Y011480D01*
X015080Y010680D01*
X015340Y010680D01*
X015580Y010920D01*
X015590Y010930D01*
X016670Y010930D01*
X016670Y010430D02*
X015770Y010430D01*
X015580Y010240D01*
X015340Y010480D01*
X014880Y010480D01*
X014080Y011280D01*
X014080Y012830D01*
X009930Y016980D01*
X009930Y019130D01*
X009930Y020880D01*
X009930Y020955D01*
X009180Y021705D01*
X008880Y021705D01*
X008430Y021705D02*
X007905Y021705D01*
X007880Y021680D01*
X007905Y022205D02*
X007880Y022230D01*
X007905Y022205D02*
X008430Y022205D01*
X008430Y021955D02*
X007305Y021955D01*
X007280Y021930D01*
X007280Y022480D02*
X008430Y022480D01*
X008430Y022455D01*
X008430Y022705D02*
X007905Y022705D01*
X007880Y022730D01*
X008630Y024880D02*
X008430Y025080D01*
X008430Y025305D01*
X008405Y025530D02*
X008430Y025555D01*
X008405Y025530D02*
X008180Y025530D01*
X008130Y025480D01*
X007330Y025480D01*
X007830Y025780D02*
X007855Y025805D01*
X008430Y025805D01*
X008430Y026055D02*
X008430Y026080D01*
X007330Y026080D01*
X007830Y026355D02*
X007880Y026305D01*
X008430Y026305D01*
X008430Y026555D02*
X008430Y026830D01*
X008880Y026555D02*
X012155Y026555D01*
X015780Y030180D01*
X030430Y030180D01*
X030930Y029680D01*
X030930Y026591D01*
X031691Y025830D01*
X031730Y025830D01*
X031980Y026080D02*
X031730Y026330D01*
X031980Y026580D02*
X032230Y026830D01*
X032230Y025830D02*
X031980Y025580D01*
X031730Y025330D02*
X031630Y025330D01*
X030730Y026230D01*
X030730Y029480D01*
X030230Y029980D01*
X016080Y029980D01*
X013180Y027080D01*
X013580Y026680D02*
X016480Y029580D01*
X029830Y029580D01*
X030330Y029080D01*
X030330Y025234D01*
X031734Y023830D01*
X031730Y023830D01*
X031980Y023580D02*
X031730Y023330D01*
X031730Y022830D02*
X031630Y022830D01*
X030130Y024330D01*
X030130Y028880D01*
X029630Y029380D01*
X016660Y029380D01*
X013335Y026055D01*
X008880Y026055D01*
X008880Y025805D02*
X008880Y025780D01*
X013880Y025780D01*
X017080Y028980D01*
X029230Y028980D01*
X029730Y028480D01*
X029730Y023330D01*
X031730Y021330D01*
X031980Y021580D02*
X032230Y021330D01*
X031730Y020830D02*
X029530Y023030D01*
X029530Y028280D01*
X029030Y028780D01*
X017280Y028780D01*
X014380Y025880D01*
X014430Y025530D02*
X017480Y028580D01*
X028830Y028580D01*
X029330Y028080D01*
X029330Y022230D01*
X031730Y019830D01*
X031980Y020080D02*
X031730Y020330D01*
X032230Y020330D02*
X032580Y020330D01*
X032230Y019830D02*
X031980Y019580D01*
X031730Y019330D02*
X029130Y021930D01*
X029130Y027880D01*
X028630Y028380D01*
X017680Y028380D01*
X014780Y025480D01*
X014430Y025530D02*
X008880Y025530D01*
X008880Y025555D01*
X008880Y025305D02*
X009305Y025305D01*
X009380Y025230D01*
X008880Y026305D02*
X012805Y026305D01*
X016280Y029780D01*
X030030Y029780D01*
X030530Y029280D01*
X030530Y025511D01*
X031711Y024330D01*
X031730Y024330D01*
X031980Y024080D02*
X032230Y024330D01*
X031730Y024830D02*
X031980Y025080D01*
X033480Y025080D02*
X033730Y024830D01*
X033730Y025330D02*
X033480Y025580D01*
X033730Y025830D02*
X033480Y026080D01*
X033730Y026330D02*
X033480Y026580D01*
X033730Y026830D02*
X033980Y026580D01*
X034230Y026330D01*
X033980Y023580D02*
X034230Y023330D01*
X033980Y023080D02*
X034230Y022830D01*
X033980Y021580D02*
X034230Y021330D01*
X033980Y021080D02*
X034230Y020830D01*
X033980Y020580D02*
X033730Y020830D01*
X033980Y019580D02*
X034230Y019330D01*
X033980Y019080D02*
X033730Y019330D01*
X034230Y018830D02*
X033980Y018580D01*
X033980Y018030D02*
X033730Y017830D01*
X033980Y017580D02*
X034230Y017330D01*
X033980Y017080D02*
X034230Y016830D01*
X033730Y016330D02*
X033980Y016080D01*
X033980Y015580D02*
X034230Y015330D01*
X033980Y015080D02*
X034230Y014830D01*
X033980Y014580D02*
X033730Y014830D01*
X032580Y014830D02*
X032230Y014830D01*
X031980Y015080D02*
X032230Y015330D01*
X031980Y015580D02*
X031730Y015830D01*
X032230Y015830D02*
X032580Y015830D01*
X032580Y016330D02*
X032230Y016330D01*
X032230Y016830D02*
X031980Y017080D01*
X031730Y017330D01*
X031730Y017830D02*
X031630Y017930D01*
X031730Y018330D02*
X031630Y018430D01*
X031980Y018580D02*
X032230Y018330D01*
X032230Y017830D02*
X032580Y017830D01*
X032580Y017330D02*
X032230Y017330D01*
X032230Y018830D02*
X032580Y018830D01*
X032580Y019330D02*
X032230Y019330D01*
X031980Y019080D02*
X031730Y018830D01*
X028980Y018980D02*
X028949Y019011D01*
X028319Y019011D01*
X028280Y018971D01*
X028280Y020030D02*
X028280Y020280D01*
X028349Y020349D01*
X028280Y020389D01*
X027680Y020280D02*
X027280Y020280D01*
X027211Y020349D01*
X027180Y020389D01*
X027180Y021071D02*
X027180Y021430D01*
X027211Y022449D02*
X028280Y021380D01*
X028280Y021071D01*
X028489Y021071D01*
X028880Y020680D01*
X028880Y021280D02*
X028880Y022680D01*
X028389Y023171D01*
X028280Y023171D01*
X027211Y024241D01*
X027211Y024549D01*
X027180Y024589D01*
X027180Y025780D01*
X026680Y026280D01*
X023880Y026280D01*
X023480Y025880D01*
X022930Y025880D01*
X022530Y026280D01*
X021880Y026280D01*
X021320Y026840D01*
X021080Y026840D01*
X021080Y027520D02*
X022120Y026580D01*
X023180Y026580D01*
X025280Y026620D02*
X025320Y026580D01*
X027380Y026580D01*
X028280Y024589D02*
X028280Y023980D01*
X027180Y023530D02*
X027180Y023171D01*
X026680Y022880D02*
X027071Y022489D01*
X027180Y022489D01*
X027211Y022449D01*
X027180Y022489D02*
X027311Y022580D01*
X027380Y022580D01*
X026680Y022880D02*
X026680Y024080D01*
X025280Y025480D01*
X025280Y025940D01*
X021180Y025180D02*
X021180Y024980D01*
X021180Y025180D02*
X021140Y025280D01*
X021080Y025340D01*
X021080Y026020D02*
X020740Y026020D01*
X020180Y026580D01*
X018980Y026580D01*
X016880Y029180D02*
X014030Y026330D01*
X016880Y029180D02*
X029430Y029180D01*
X029930Y028680D01*
X029930Y024058D01*
X031658Y022330D01*
X031730Y022330D01*
X031980Y022080D02*
X031730Y021830D01*
X031980Y022580D02*
X032230Y022830D01*
X028349Y022449D02*
X028280Y022380D01*
X028280Y022130D01*
X028349Y022449D02*
X028280Y022489D01*
X028280Y021249D02*
X028280Y021071D01*
X028349Y021111D01*
X028311Y021080D02*
X028280Y021071D01*
X027180Y019330D02*
X027180Y018971D01*
X031730Y014330D02*
X031980Y014080D01*
X032230Y013830D02*
X031980Y013580D01*
X032230Y013330D02*
X032580Y013330D01*
X032580Y012830D02*
X032230Y012830D01*
X031980Y012580D02*
X031730Y012830D01*
X032230Y012330D02*
X031980Y012080D01*
X032230Y011830D02*
X032630Y011830D01*
X032630Y011330D02*
X032230Y011330D01*
X031980Y011080D02*
X031730Y011330D01*
X032230Y010830D02*
X031980Y010580D01*
X031730Y009830D02*
X031980Y009580D01*
X032230Y009330D02*
X031980Y009080D01*
X032230Y008830D02*
X031980Y008580D01*
X031730Y008330D02*
X031980Y008080D01*
X031980Y007580D02*
X032230Y007330D01*
X033730Y007830D02*
X033980Y008080D01*
X033730Y008330D02*
X033980Y008580D01*
X034230Y008830D01*
X033980Y009080D02*
X034230Y009330D01*
X033980Y009580D02*
X033730Y009830D01*
X033980Y010080D02*
X033730Y010330D01*
X033980Y010580D02*
X034230Y010830D01*
X033980Y011080D02*
X034230Y011330D01*
X033980Y011580D02*
X033730Y011830D01*
X033980Y012580D02*
X034230Y012830D01*
X033980Y013080D02*
X033730Y013330D01*
X033980Y013580D02*
X034230Y013330D01*
X032580Y014330D02*
X032230Y014330D01*
X026330Y011180D02*
X025730Y011180D01*
X023180Y008430D02*
X023180Y008170D01*
X023190Y008160D01*
X022880Y008375D02*
X022880Y008730D01*
X021780Y008730D01*
X021780Y008375D01*
X021804Y008375D01*
X021880Y008299D01*
X021880Y007511D01*
X021804Y007435D01*
X021136Y007435D01*
X021091Y007480D01*
X019330Y007480D01*
X019330Y006530D01*
X026280Y006530D01*
X026280Y007830D01*
X026020Y007830D01*
X026020Y007441D01*
X025944Y007365D01*
X025416Y007365D01*
X025340Y007441D01*
X025340Y007713D01*
X025320Y007733D01*
X025320Y007441D01*
X025244Y007365D01*
X024716Y007365D01*
X024641Y007440D01*
X023600Y007440D01*
X023600Y007261D01*
X023524Y007185D01*
X023400Y007185D01*
X023410Y007175D01*
X023410Y006985D01*
X023275Y006850D01*
X023085Y006850D01*
X022950Y006985D01*
X022950Y007175D01*
X022960Y007185D01*
X022856Y007185D01*
X022780Y007261D01*
X022780Y008299D01*
X022856Y008375D01*
X022880Y008375D01*
X022880Y008423D02*
X021780Y008423D01*
X021780Y008522D02*
X022880Y008522D01*
X022880Y008620D02*
X021780Y008620D01*
X021780Y008719D02*
X022880Y008719D01*
X022806Y008325D02*
X021854Y008325D01*
X021880Y008226D02*
X022780Y008226D01*
X022780Y008128D02*
X021880Y008128D01*
X021880Y008029D02*
X022780Y008029D01*
X022780Y007931D02*
X021880Y007931D01*
X021880Y007832D02*
X022780Y007832D01*
X022780Y007734D02*
X021880Y007734D01*
X021880Y007635D02*
X022780Y007635D01*
X022780Y007537D02*
X021880Y007537D01*
X021807Y007438D02*
X022780Y007438D01*
X022780Y007340D02*
X019330Y007340D01*
X019330Y007438D02*
X021133Y007438D01*
X022800Y007241D02*
X019330Y007241D01*
X019330Y007143D02*
X022950Y007143D01*
X022950Y007044D02*
X019330Y007044D01*
X019330Y006946D02*
X022989Y006946D01*
X023180Y007080D02*
X023190Y007090D01*
X023190Y007400D01*
X023410Y007143D02*
X026280Y007143D01*
X026280Y007241D02*
X023580Y007241D01*
X023600Y007340D02*
X026280Y007340D01*
X026280Y007438D02*
X026017Y007438D01*
X026020Y007537D02*
X026280Y007537D01*
X026280Y007635D02*
X026020Y007635D01*
X026020Y007734D02*
X026280Y007734D01*
X026280Y007044D02*
X023410Y007044D01*
X023371Y006946D02*
X026280Y006946D01*
X026280Y006847D02*
X019330Y006847D01*
X019330Y006749D02*
X026280Y006749D01*
X026280Y006650D02*
X019330Y006650D01*
X019330Y006552D02*
X026280Y006552D01*
X025343Y007438D02*
X025317Y007438D01*
X025320Y007537D02*
X025340Y007537D01*
X025340Y007635D02*
X025320Y007635D01*
X024643Y007438D02*
X023600Y007438D01*
X021730Y011680D02*
X021130Y011680D01*
X021130Y012180D02*
X021730Y012180D01*
X017330Y015780D02*
X017330Y016080D01*
X017080Y016330D01*
X017330Y015780D02*
X017080Y015530D01*
X016670Y015530D01*
X016330Y014680D02*
X016480Y014530D01*
X016680Y014530D01*
X015580Y010920D02*
X015470Y010920D01*
X015470Y010240D02*
X015580Y010240D01*
X013205Y007955D02*
X013230Y007930D01*
X013205Y007955D02*
X008930Y007955D01*
X008955Y007730D02*
X008930Y007705D01*
X012455Y007705D01*
X012530Y007630D01*
X011830Y007330D02*
X011730Y007430D01*
X008955Y007430D01*
X008930Y007455D01*
X008930Y007680D02*
X008930Y007705D01*
X008480Y007705D02*
X007555Y007705D01*
X007530Y007730D01*
X007980Y008030D02*
X008055Y007955D01*
X008480Y007955D01*
X008480Y008205D02*
X008480Y008480D01*
X008930Y008205D02*
X009255Y008530D01*
X009330Y008530D01*
X008480Y007455D02*
X008455Y007430D01*
X007980Y007430D01*
X007530Y007180D02*
X008455Y007180D01*
X008480Y007205D01*
X008480Y006955D02*
X008480Y006830D01*
X008630Y006680D01*
X010880Y006680D01*
X010930Y006730D01*
X011030Y007130D02*
X010955Y007205D01*
X008930Y007205D01*
X012030Y014230D02*
X011980Y014280D01*
X012030Y014230D02*
X012280Y014230D01*
X012630Y019380D02*
X012630Y021680D01*
X011780Y022530D01*
X012900Y022950D02*
X013170Y022680D01*
X013130Y022730D01*
X014380Y020830D02*
X016141Y020830D01*
X016186Y020785D01*
X016854Y020785D01*
X016930Y020861D01*
X016930Y021649D01*
X016854Y021725D01*
X016830Y021725D01*
X016830Y022080D01*
X017930Y022080D01*
X017930Y021725D01*
X017906Y021725D01*
X017830Y021649D01*
X017830Y020611D01*
X017906Y020535D01*
X018010Y020535D01*
X018000Y020525D01*
X018000Y020335D01*
X018135Y020200D01*
X018325Y020200D01*
X018460Y020335D01*
X018460Y020525D01*
X018450Y020535D01*
X018574Y020535D01*
X018650Y020611D01*
X018650Y020790D01*
X019741Y020790D01*
X019766Y020765D01*
X020294Y020765D01*
X020370Y020841D01*
X020370Y021139D01*
X020390Y021119D01*
X020390Y020841D01*
X020466Y020765D01*
X020994Y020765D01*
X021070Y020841D01*
X021070Y021180D01*
X021330Y021180D01*
X021330Y019880D01*
X014380Y019880D01*
X014380Y020830D01*
X014380Y020736D02*
X017830Y020736D01*
X017830Y020834D02*
X016903Y020834D01*
X016930Y020933D02*
X017830Y020933D01*
X017830Y021031D02*
X016930Y021031D01*
X016930Y021130D02*
X017830Y021130D01*
X017830Y021228D02*
X016930Y021228D01*
X016930Y021327D02*
X017830Y021327D01*
X017830Y021425D02*
X016930Y021425D01*
X016930Y021524D02*
X017830Y021524D01*
X017830Y021622D02*
X016930Y021622D01*
X016858Y021721D02*
X017902Y021721D01*
X017930Y021819D02*
X016830Y021819D01*
X016830Y021918D02*
X017930Y021918D01*
X017930Y022016D02*
X016830Y022016D01*
X017030Y022330D02*
X015680Y022330D01*
X015680Y023280D01*
X017030Y023280D01*
X017030Y022330D01*
X017030Y022410D02*
X015680Y022410D01*
X015680Y022509D02*
X017030Y022509D01*
X017030Y022607D02*
X015680Y022607D01*
X015680Y022706D02*
X017030Y022706D01*
X017030Y022804D02*
X015680Y022804D01*
X015680Y022903D02*
X017030Y022903D01*
X017030Y023001D02*
X015680Y023001D01*
X015680Y023100D02*
X017030Y023100D01*
X017030Y023198D02*
X015680Y023198D01*
X018230Y022130D02*
X018230Y021780D01*
X018230Y021520D01*
X018240Y021510D01*
X018240Y020750D02*
X018240Y020440D01*
X018230Y020430D01*
X018460Y020440D02*
X021330Y020440D01*
X021330Y020342D02*
X018460Y020342D01*
X018368Y020243D02*
X021330Y020243D01*
X021330Y020145D02*
X014380Y020145D01*
X014380Y020243D02*
X018092Y020243D01*
X018000Y020342D02*
X014380Y020342D01*
X014380Y020440D02*
X018000Y020440D01*
X017903Y020539D02*
X014380Y020539D01*
X014380Y020637D02*
X017830Y020637D01*
X018577Y020539D02*
X021330Y020539D01*
X021330Y020637D02*
X018650Y020637D01*
X018650Y020736D02*
X021330Y020736D01*
X021330Y020834D02*
X021063Y020834D01*
X021070Y020933D02*
X021330Y020933D01*
X021330Y021031D02*
X021070Y021031D01*
X021070Y021130D02*
X021330Y021130D01*
X020390Y021031D02*
X020370Y021031D01*
X020370Y020933D02*
X020390Y020933D01*
X020397Y020834D02*
X020363Y020834D01*
X020370Y021130D02*
X020379Y021130D01*
X021330Y020046D02*
X014380Y020046D01*
X014380Y019948D02*
X021330Y019948D01*
X021130Y019030D02*
X021180Y018980D01*
X021680Y018980D01*
X021730Y018930D01*
X021730Y018430D02*
X021130Y018430D01*
X020220Y019470D02*
X020230Y019480D01*
X020220Y019470D02*
X019830Y019470D01*
X019690Y018930D02*
X018890Y018930D01*
X019690Y018930D02*
X019830Y018790D01*
X019011Y022606D02*
X018654Y022606D01*
X018580Y022680D01*
X018580Y023280D01*
X018680Y023380D01*
X018986Y023380D01*
X019011Y023354D01*
X033980Y007580D02*
X034230Y007330D01*
D40*
X033980Y007580D03*
X033980Y008080D03*
X033980Y008580D03*
X033980Y009080D03*
X033980Y009580D03*
X033980Y010080D03*
X033980Y010580D03*
X033980Y011080D03*
X033980Y011580D03*
X033980Y012580D03*
X033980Y013080D03*
X033980Y013580D03*
X033980Y014580D03*
X033980Y015080D03*
X033980Y015580D03*
X033980Y016080D03*
X033980Y017080D03*
X033980Y017580D03*
X033980Y018030D03*
X033980Y018580D03*
X033980Y019080D03*
X033980Y019580D03*
X033980Y020580D03*
X033980Y021080D03*
X033980Y021580D03*
X033980Y023080D03*
X033980Y023580D03*
X033430Y024080D03*
X033980Y024580D03*
X033980Y025080D03*
X033480Y025080D03*
X033480Y025580D03*
X033480Y026080D03*
X033980Y026080D03*
X033980Y025580D03*
X033980Y026580D03*
X033980Y027080D03*
X033480Y027080D03*
X033480Y026580D03*
X031980Y026580D03*
X031980Y026080D03*
X031980Y025580D03*
X031980Y025080D03*
X031980Y024080D03*
X031980Y023580D03*
X031980Y022580D03*
X031980Y022080D03*
X031980Y021580D03*
X032580Y020330D03*
X031980Y020080D03*
X031980Y019580D03*
X032580Y019330D03*
X032580Y018830D03*
X031980Y018580D03*
X031980Y019080D03*
X032580Y017830D03*
X032580Y017330D03*
X031980Y017080D03*
X032580Y016330D03*
X032580Y015830D03*
X031980Y015580D03*
X031980Y015080D03*
X032580Y014830D03*
X032580Y014330D03*
X031980Y014080D03*
X031980Y013580D03*
X032580Y013330D03*
X032580Y012830D03*
X031980Y012580D03*
X031980Y012080D03*
X032630Y011830D03*
X032630Y011330D03*
X031980Y011080D03*
X031980Y010580D03*
X031980Y009580D03*
X031980Y009080D03*
X031980Y008580D03*
X031980Y008080D03*
X031980Y007580D03*
X026130Y007280D03*
X026130Y006630D03*
X025330Y006630D03*
X024480Y006630D03*
X023580Y006630D03*
X023180Y007080D03*
X022730Y006630D03*
X021830Y006630D03*
X021080Y006630D03*
X020230Y006630D03*
X019480Y006630D03*
X018980Y008830D03*
X021480Y008880D03*
X021930Y008580D03*
X022780Y008580D03*
X023180Y008430D03*
X026330Y011180D03*
X021130Y011680D03*
X021130Y012180D03*
X021130Y018430D03*
X021130Y019030D03*
X021180Y019980D03*
X021180Y020630D03*
X020380Y019980D03*
X020230Y019480D03*
X019530Y019980D03*
X018630Y019980D03*
X018230Y020430D03*
X017780Y019980D03*
X016880Y019980D03*
X016130Y019980D03*
X015280Y019980D03*
X014530Y019980D03*
X012630Y017830D03*
X012880Y017480D03*
X011980Y014280D03*
X011280Y014280D03*
X011280Y011080D03*
X011980Y011080D03*
X009330Y008530D03*
X008480Y008480D03*
X007980Y008030D03*
X007530Y007730D03*
X007980Y007430D03*
X007530Y007180D03*
X009430Y006930D03*
X011030Y007130D03*
X011830Y007330D03*
X012530Y007630D03*
X013230Y007930D03*
X027180Y019330D03*
X027680Y020280D03*
X028280Y020030D03*
X028880Y020680D03*
X028880Y021280D03*
X028280Y022130D03*
X027180Y021430D03*
X027180Y023530D03*
X028280Y023980D03*
X028980Y018980D03*
X021180Y024980D03*
X018230Y021780D03*
X017830Y021930D03*
X016980Y021930D03*
X014280Y023130D03*
X014780Y025480D03*
X014380Y025880D03*
X014030Y026330D03*
X013580Y026680D03*
X013180Y027080D03*
X009380Y025230D03*
X007830Y025780D03*
X007330Y026080D03*
X007830Y026355D03*
X008430Y026830D03*
X007330Y025480D03*
X007880Y022730D03*
X007880Y022230D03*
X007880Y021680D03*
X007280Y021930D03*
X007280Y022480D03*
X009780Y021480D03*
X010330Y021730D03*
X010780Y022030D03*
X011280Y022280D03*
X011780Y022530D03*
D41*
X014030Y021140D02*
X014030Y020440D01*
X014040Y020430D01*
X014030Y021140D02*
X014730Y021140D01*
X014740Y021130D01*
X015280Y021130D01*
X015410Y021260D01*
X016520Y021260D01*
X016520Y021510D02*
X016500Y021510D01*
X016330Y021680D01*
X016530Y022530D02*
X016480Y022580D01*
X016580Y022980D02*
X017780Y022980D01*
X017949Y022811D01*
X017949Y022606D01*
X017380Y023320D02*
X017423Y023363D01*
X017940Y023363D01*
X017949Y023354D01*
X019011Y022606D02*
X019047Y022570D01*
X019780Y022570D01*
X020040Y021780D02*
X020730Y021070D01*
X020030Y021070D02*
X020030Y021000D01*
X018240Y021000D01*
X018240Y021510D02*
X018860Y021510D01*
X019130Y021780D01*
X018890Y019430D02*
X018230Y019430D01*
X018890Y017930D02*
X018890Y017510D01*
X019080Y017320D01*
X018670Y017320D01*
X018630Y017330D01*
X018630Y016630D02*
X019120Y016640D01*
X019080Y016640D01*
X018890Y016030D02*
X018230Y016030D01*
X017480Y016980D02*
X016980Y016980D01*
X016180Y016980D02*
X015680Y016980D01*
X017880Y013880D02*
X018340Y013880D01*
X018340Y013980D01*
X018890Y014530D01*
X019020Y013880D02*
X019480Y013880D01*
X019480Y013230D02*
X019470Y013220D01*
X018980Y013220D01*
X018980Y012580D02*
X018980Y012540D01*
X019470Y012540D01*
X019480Y012530D01*
X018980Y012540D02*
X018880Y012440D01*
X018880Y011930D01*
X017930Y012880D02*
X017380Y012880D01*
X017930Y012880D02*
X017980Y012930D01*
X016630Y012880D02*
X016080Y012880D01*
X018230Y010430D02*
X018890Y010430D01*
X021030Y010680D02*
X021730Y010680D01*
X021480Y008380D02*
X021480Y008170D01*
X021470Y008160D01*
X020850Y008160D01*
X020580Y008430D01*
X019800Y007910D02*
X019680Y007790D01*
X018980Y007790D01*
X018980Y007090D01*
X018990Y007080D01*
X019800Y007910D02*
X021470Y007910D01*
X023190Y008160D02*
X023810Y008160D01*
X024080Y008430D01*
X024960Y007650D02*
X023190Y007650D01*
X024960Y007650D02*
X024980Y007670D01*
X024990Y008360D02*
X025680Y007670D01*
X024990Y008360D02*
X024990Y008430D01*
X025730Y010680D02*
X026430Y010680D01*
X026680Y013590D02*
X026690Y013630D01*
X027180Y013630D01*
X026680Y013590D02*
X026640Y013680D01*
X025730Y013680D01*
X025730Y014180D02*
X026540Y014180D01*
X026680Y014270D01*
X026680Y014730D01*
X026680Y015380D02*
X026680Y015840D01*
X026590Y015930D01*
X025730Y015930D01*
X025730Y016430D02*
X026590Y016430D01*
X026680Y016520D01*
X026690Y016530D01*
X027180Y016530D01*
X025730Y019430D02*
X025730Y019730D01*
X021730Y019430D02*
X021030Y019430D01*
X020770Y016530D02*
X020280Y016530D01*
X020770Y016530D02*
X020780Y016520D01*
X020870Y016430D01*
X021730Y016430D01*
X021730Y015930D02*
X020870Y015930D01*
X020780Y015840D01*
X020280Y015880D01*
X020670Y015880D02*
X020780Y015840D01*
X020780Y014220D02*
X020280Y014180D01*
X020780Y014220D02*
X020820Y014180D01*
X021730Y014180D01*
X021730Y013680D02*
X020920Y013680D01*
X020780Y013540D01*
X020720Y013480D01*
X020280Y013480D01*
X008430Y021455D02*
X008405Y021455D01*
X008130Y021180D01*
X033980Y025080D02*
X034230Y024830D01*
X034880Y025330D02*
X034893Y025328D01*
X034905Y025323D01*
X034915Y025315D01*
X034923Y025305D01*
X034928Y025293D01*
X034930Y025280D01*
X034230Y025830D02*
X033980Y026080D01*
X034230Y026830D02*
X033980Y027080D01*
D42*
X035580Y026580D03*
X025730Y019730D03*
X027180Y016530D03*
X026680Y015380D03*
X026680Y014730D03*
X027180Y013630D03*
X026430Y010680D03*
X022330Y008030D03*
X022330Y007530D03*
X021030Y010680D03*
X019480Y012530D03*
X019480Y013230D03*
X019480Y013880D03*
X020280Y014180D03*
X020280Y013480D03*
X020280Y015880D03*
X020280Y016530D03*
X018630Y016630D03*
X018630Y017330D03*
X017480Y016980D03*
X018230Y016030D03*
X016180Y016980D03*
X018230Y019430D03*
X017380Y020880D03*
X017380Y021380D03*
X015830Y022430D03*
X015830Y022780D03*
X015830Y023130D03*
X017230Y023830D03*
X019780Y023830D03*
X016630Y026430D03*
X021030Y019430D03*
X017880Y013880D03*
X017380Y012880D03*
X016080Y012880D03*
X018230Y010430D03*
X018980Y006130D03*
X008880Y021180D03*
D43*
X008880Y021455D01*
X010030Y023430D02*
X009780Y023680D01*
X009780Y023980D01*
X010030Y023430D02*
X012530Y023430D01*
X012630Y023530D01*
X013440Y023530D01*
X013780Y023870D01*
X013780Y023190D02*
X014220Y023190D01*
X014280Y023130D01*
X012980Y023190D02*
X012950Y023160D01*
X012850Y023000D01*
X012980Y023870D02*
X011890Y023870D01*
X011780Y023980D01*
X009430Y006930D02*
X008955Y006930D01*
X008930Y006955D01*
X033980Y024580D02*
X034230Y024330D01*
X034230Y025330D02*
X033980Y025580D01*
D44*
X034780Y030130D03*
D45*
X035630Y030130D01*
X034780Y030130D02*
X033930Y030130D01*
X033930Y029030D02*
X035630Y029030D01*
X035630Y027980D01*
X034930Y027980D01*
X032780Y027980D01*
X034930Y027980D02*
X034930Y025280D01*
X034930Y024330D01*
X034930Y006880D01*
X033530Y006880D01*
X033380Y007030D01*
X032530Y007030D01*
X032380Y006880D01*
X027130Y006880D01*
X024680Y023480D02*
X024680Y023980D01*
X025080Y024380D01*
X025580Y024380D01*
D46*
X025980Y023480D02*
X025230Y022730D01*
X025230Y022230D01*
X024680Y022680D02*
X024230Y022230D01*
X024680Y022680D02*
X024680Y023480D01*
X023230Y022230D02*
X022780Y022680D01*
X022780Y023480D01*
X022230Y022730D02*
X022230Y022230D01*
X021170Y022230D01*
X020720Y021780D01*
X020040Y021780D02*
X020040Y022310D01*
X019780Y022570D01*
X019370Y022980D02*
X019011Y022980D01*
X019370Y022980D02*
X019780Y023390D01*
X019780Y023830D01*
X021480Y023480D02*
X022230Y022730D01*
X020040Y021780D02*
X019130Y021780D01*
X017380Y021930D02*
X017330Y021880D01*
X017380Y021930D02*
X017380Y022640D01*
X016580Y022980D02*
X016480Y022880D01*
X016480Y022580D01*
X016230Y021780D02*
X015630Y021780D01*
X015430Y021780D01*
X015390Y021820D01*
X014730Y021820D01*
X014030Y021820D01*
X012900Y022950D01*
X012850Y023000D01*
X012820Y023030D01*
X007130Y023030D01*
X006880Y022780D01*
X006880Y021430D01*
X007130Y021180D01*
X008130Y021180D01*
X008630Y024880D02*
X015080Y024880D01*
X016630Y026430D01*
X016530Y023830D02*
X017230Y023830D01*
X016230Y021780D02*
X016330Y021680D01*
X015380Y009230D02*
X015230Y009080D01*
X015380Y009230D02*
X017930Y009230D01*
X018304Y008854D02*
X018680Y009230D01*
X026780Y009230D01*
X027130Y008880D01*
X026580Y008430D02*
X027130Y007880D01*
X026580Y008430D02*
X025670Y008430D01*
X024990Y008430D02*
X024080Y008430D01*
X021480Y008380D02*
X021480Y008880D01*
X020580Y008430D02*
X019720Y008430D01*
X019680Y008470D01*
X018980Y008470D01*
X018980Y008830D01*
X018304Y008854D02*
X018304Y008403D01*
X018304Y007895D01*
X018189Y007780D01*
X018304Y007846D01*
X018220Y007080D02*
X018670Y006630D01*
X019480Y006630D01*
X018980Y006130D02*
X032330Y006130D01*
X032580Y005880D01*
X033330Y005880D01*
X033580Y006130D01*
X035580Y006130D01*
X035580Y026580D01*
X034930Y024330D02*
X034830Y024330D01*
X017556Y008403D02*
X016933Y007780D01*
X016771Y007780D01*
X017471Y007080D01*
X017540Y007080D01*
X018980Y006130D02*
X014330Y006130D01*
X013730Y006730D01*
X010930Y006730D01*
D47*
X018890Y010930D02*
X019380Y010930D01*
X021130Y012680D01*
X021730Y012680D01*
X021730Y013180D02*
X021180Y013180D01*
X019430Y011430D01*
X018890Y011430D01*
X018890Y015030D02*
X019330Y015030D01*
X019930Y015630D01*
X019930Y016730D01*
X020130Y016930D01*
X021730Y016930D01*
X021730Y017430D02*
X020130Y017430D01*
X019580Y016830D01*
X019580Y015813D01*
X019297Y015530D01*
X018890Y015530D01*
X019830Y017930D02*
X021730Y017930D01*
X019830Y017930D02*
X019330Y018430D01*
X018890Y018430D01*
X025730Y018430D02*
X028030Y018430D01*
X031630Y018430D01*
X031630Y017930D02*
X028030Y017930D01*
X025730Y017930D01*
X025730Y017430D02*
X028030Y017430D01*
X031130Y017430D01*
X031730Y016830D01*
X031730Y016330D02*
X031130Y016930D01*
X028030Y016930D01*
X025730Y016930D01*
X025730Y013180D02*
X027880Y013180D01*
X029580Y013180D01*
X031730Y015330D01*
X031730Y014830D02*
X029580Y012680D01*
X029380Y012680D01*
X027880Y012680D01*
X025730Y012680D01*
X025730Y012180D02*
X027880Y012180D01*
X030080Y012180D01*
X031730Y013830D01*
X031730Y013330D02*
X030080Y011680D01*
X027880Y011680D01*
X025730Y011680D01*
D48*
X025580Y024380D03*
X032780Y027980D03*
D49*
X034230Y025330D02*
X034880Y025330D01*
X034830Y024330D02*
X034230Y024330D01*
M02*
