G75*
%MOIN*%
%OFA0B0*%
%FSLAX24Y24*%
%IPPOS*%
%LPD*%
%AMOC8*
5,1,8,0,0,1.08239X$1,22.5*
%
%ADD10C,0.1540*%
%ADD11C,0.0600*%
%ADD12OC8,0.0671*%
%ADD13C,0.0905*%
%ADD14C,0.0935*%
%ADD15C,0.1655*%
%ADD16C,0.0620*%
%ADD17R,0.0500X0.0430*%
%ADD18OC8,0.0680*%
%ADD19C,0.1010*%
%ADD20C,0.1085*%
%ADD21R,0.0560X0.0440*%
%ADD22R,0.0430X0.0500*%
%ADD23OC8,0.0930*%
D10*
X032180Y004680D03*
X032180Y029480D03*
D11*
X031780Y027785D03*
X032980Y006385D03*
D12*
X025230Y022230D03*
X024230Y022230D03*
X023230Y022230D03*
X022230Y022230D03*
D13*
X008080Y019380D03*
X008080Y016180D03*
X008080Y012980D03*
D14*
X007080Y011980D03*
X009080Y011980D03*
X009080Y013980D03*
X009080Y015180D03*
X007080Y015180D03*
X007080Y013980D03*
X007080Y017180D03*
X007080Y018380D03*
X009080Y018380D03*
X009080Y017180D03*
X009080Y020380D03*
X007080Y020380D03*
D15*
X010684Y005664D03*
X010684Y027928D03*
D16*
X027910Y016080D02*
X028450Y016080D01*
X028450Y015080D02*
X027910Y015080D01*
X027910Y014080D02*
X028450Y014080D01*
X027400Y008880D02*
X026860Y008880D01*
X026860Y007880D02*
X027400Y007880D01*
X027400Y006880D02*
X026860Y006880D01*
X015500Y008080D02*
X014960Y008080D01*
X014960Y009080D02*
X015500Y009080D01*
D17*
X033030Y024090D03*
X033030Y024770D03*
X033030Y025340D03*
X033030Y026020D03*
X033030Y026590D03*
X033030Y027270D03*
X034680Y027270D03*
X034680Y026590D03*
X034680Y026070D03*
X034680Y025390D03*
X034680Y024820D03*
X034680Y024140D03*
D18*
X011780Y023980D03*
X010780Y023980D03*
X009780Y023980D03*
X008780Y023980D03*
D19*
X018980Y026580D03*
X023180Y026580D03*
X027380Y026580D03*
D20*
X028380Y027580D03*
X028380Y025580D03*
X026380Y025580D03*
X026380Y027580D03*
X024180Y027580D03*
X024180Y025580D03*
X022180Y025580D03*
X022180Y027580D03*
X019980Y027580D03*
X019980Y025580D03*
X017980Y025580D03*
X017980Y027580D03*
D21*
X011980Y019389D03*
X011280Y019389D03*
X011280Y017971D03*
X011980Y017971D03*
X011980Y016189D03*
X011280Y016189D03*
X011280Y014771D03*
X011980Y014771D03*
X011980Y012989D03*
X011280Y012989D03*
X011280Y011571D03*
X011980Y011571D03*
D22*
X010620Y012980D03*
X009940Y012980D03*
X009940Y016180D03*
X010620Y016180D03*
X010620Y019380D03*
X009940Y019380D03*
D23*
X013230Y020330D03*
M02*
