G75*
%MOIN*%
%OFA0B0*%
%FSLAX24Y24*%
%IPPOS*%
%LPD*%
%AMOC8*
5,1,8,0,0,1.08239X$1,22.5*
%
%ADD10C,0.0000*%
%ADD11C,0.0050*%
D10*
X031520Y027785D02*
X031522Y027817D01*
X031528Y027848D01*
X031538Y027879D01*
X031551Y027908D01*
X031568Y027935D01*
X031588Y027960D01*
X031611Y027982D01*
X031636Y028002D01*
X031664Y028018D01*
X031694Y028030D01*
X031724Y028039D01*
X031756Y028044D01*
X031788Y028045D01*
X031820Y028042D01*
X031851Y028035D01*
X031881Y028024D01*
X031910Y028010D01*
X031937Y027992D01*
X031961Y027972D01*
X031983Y027948D01*
X032001Y027922D01*
X032016Y027894D01*
X032028Y027864D01*
X032036Y027833D01*
X032040Y027801D01*
X032040Y027769D01*
X032036Y027737D01*
X032028Y027706D01*
X032016Y027676D01*
X032001Y027648D01*
X031983Y027622D01*
X031961Y027598D01*
X031937Y027578D01*
X031910Y027560D01*
X031881Y027546D01*
X031851Y027535D01*
X031820Y027528D01*
X031788Y027525D01*
X031756Y027526D01*
X031724Y027531D01*
X031694Y027540D01*
X031664Y027552D01*
X031636Y027568D01*
X031611Y027588D01*
X031588Y027610D01*
X031568Y027635D01*
X031551Y027662D01*
X031538Y027691D01*
X031528Y027722D01*
X031522Y027753D01*
X031520Y027785D01*
X032720Y006385D02*
X032722Y006417D01*
X032728Y006448D01*
X032738Y006479D01*
X032751Y006508D01*
X032768Y006535D01*
X032788Y006560D01*
X032811Y006582D01*
X032836Y006602D01*
X032864Y006618D01*
X032894Y006630D01*
X032924Y006639D01*
X032956Y006644D01*
X032988Y006645D01*
X033020Y006642D01*
X033051Y006635D01*
X033081Y006624D01*
X033110Y006610D01*
X033137Y006592D01*
X033161Y006572D01*
X033183Y006548D01*
X033201Y006522D01*
X033216Y006494D01*
X033228Y006464D01*
X033236Y006433D01*
X033240Y006401D01*
X033240Y006369D01*
X033236Y006337D01*
X033228Y006306D01*
X033216Y006276D01*
X033201Y006248D01*
X033183Y006222D01*
X033161Y006198D01*
X033137Y006178D01*
X033110Y006160D01*
X033081Y006146D01*
X033051Y006135D01*
X033020Y006128D01*
X032988Y006125D01*
X032956Y006126D01*
X032924Y006131D01*
X032894Y006140D01*
X032864Y006152D01*
X032836Y006168D01*
X032811Y006188D01*
X032788Y006210D01*
X032768Y006235D01*
X032751Y006262D01*
X032738Y006291D01*
X032728Y006322D01*
X032722Y006353D01*
X032720Y006385D01*
D11*
X016629Y004680D02*
X006353Y004680D01*
X006353Y028814D01*
X010487Y028814D01*
X010526Y028816D01*
X010564Y028822D01*
X010601Y028831D01*
X010638Y028844D01*
X010673Y028861D01*
X010706Y028880D01*
X010737Y028903D01*
X010766Y028929D01*
X010792Y028958D01*
X010815Y028989D01*
X010834Y029022D01*
X010851Y029057D01*
X010864Y029094D01*
X010873Y029131D01*
X010879Y029169D01*
X010881Y029208D01*
X010881Y029641D01*
X014739Y029641D01*
X014739Y029640D02*
X014778Y029642D01*
X014816Y029648D01*
X014853Y029657D01*
X014890Y029670D01*
X014925Y029687D01*
X014958Y029706D01*
X014989Y029729D01*
X015018Y029755D01*
X015044Y029784D01*
X015067Y029815D01*
X015086Y029848D01*
X015103Y029883D01*
X015116Y029920D01*
X015125Y029957D01*
X015131Y029995D01*
X015133Y030034D01*
X015133Y030664D01*
X036471Y030664D01*
X036471Y003499D01*
X017023Y003499D01*
X017023Y004286D01*
X017021Y004325D01*
X017015Y004363D01*
X017006Y004400D01*
X016993Y004437D01*
X016976Y004472D01*
X016957Y004505D01*
X016934Y004536D01*
X016908Y004565D01*
X016879Y004591D01*
X016848Y004614D01*
X016815Y004633D01*
X016780Y004650D01*
X016743Y004663D01*
X016706Y004672D01*
X016668Y004678D01*
X016629Y004680D01*
M02*
